<mxfile host="app.diagrams.net" modified="2024-03-08T16:23:21.538Z" agent="Mozilla/5.0 (Windows NT 10.0; Win64; x64; rv:123.0) Gecko/20100101 Firefox/123.0" etag="i3eFPbdl8hLy_DG5uC8B" version="24.0.2" type="device">
  <diagram name="PÃ¡gina-1" id="KGgLWuAfCx1Iv-mHiD2X">
    <mxGraphModel dx="587" dy="308" grid="1" gridSize="10" guides="1" tooltips="1" connect="1" arrows="1" fold="1" page="1" pageScale="1" pageWidth="827" pageHeight="1169" math="0" shadow="0">
      <root>
        <mxCell id="0" />
        <mxCell id="1" parent="0" />
        <mxCell id="ZrD3n2TWtLxvuJlKy_KN-1" value="" style="rounded=0;whiteSpace=wrap;html=1;" vertex="1" parent="1">
          <mxGeometry x="160" y="160" width="440" height="240" as="geometry" />
        </mxCell>
        <mxCell id="ZrD3n2TWtLxvuJlKy_KN-2" value="" style="rounded=0;whiteSpace=wrap;html=1;" vertex="1" parent="1">
          <mxGeometry x="160" y="160" width="440" height="40" as="geometry" />
        </mxCell>
        <mxCell id="ZrD3n2TWtLxvuJlKy_KN-3" value="" style="rounded=0;whiteSpace=wrap;html=1;" vertex="1" parent="1">
          <mxGeometry x="300" y="160" width="150" height="40" as="geometry" />
        </mxCell>
        <mxCell id="ZrD3n2TWtLxvuJlKy_KN-4" value="Micro-Frontend" style="text;html=1;align=center;verticalAlign=middle;whiteSpace=wrap;rounded=0;" vertex="1" parent="1">
          <mxGeometry x="180" y="165" width="100" height="30" as="geometry" />
        </mxCell>
        <mxCell id="ZrD3n2TWtLxvuJlKy_KN-6" value="Views" style="text;html=1;align=center;verticalAlign=middle;whiteSpace=wrap;rounded=0;" vertex="1" parent="1">
          <mxGeometry x="325" y="165" width="100" height="30" as="geometry" />
        </mxCell>
        <mxCell id="ZrD3n2TWtLxvuJlKy_KN-8" value="Frontend Services" style="text;html=1;align=center;verticalAlign=middle;whiteSpace=wrap;rounded=0;" vertex="1" parent="1">
          <mxGeometry x="470" y="165" width="110" height="30" as="geometry" />
        </mxCell>
        <mxCell id="ZrD3n2TWtLxvuJlKy_KN-9" value="" style="rounded=0;whiteSpace=wrap;html=1;" vertex="1" parent="1">
          <mxGeometry x="160" y="200" width="140" height="200" as="geometry" />
        </mxCell>
        <mxCell id="ZrD3n2TWtLxvuJlKy_KN-10" value="Supermarket Search" style="rounded=0;whiteSpace=wrap;html=1;" vertex="1" parent="1">
          <mxGeometry x="300" y="200" width="150" height="90" as="geometry" />
        </mxCell>
        <mxCell id="ZrD3n2TWtLxvuJlKy_KN-11" value="Featured Meat" style="rounded=0;whiteSpace=wrap;html=1;" vertex="1" parent="1">
          <mxGeometry x="300" y="290" width="150" height="110" as="geometry" />
        </mxCell>
        <mxCell id="ZrD3n2TWtLxvuJlKy_KN-12" value="&lt;div&gt;Fill details&lt;/div&gt;" style="rounded=0;whiteSpace=wrap;html=1;" vertex="1" parent="1">
          <mxGeometry x="450" y="200" width="150" height="30" as="geometry" />
        </mxCell>
        <mxCell id="ZrD3n2TWtLxvuJlKy_KN-13" value="Update details" style="rounded=0;whiteSpace=wrap;html=1;" vertex="1" parent="1">
          <mxGeometry x="450" y="230" width="150" height="30" as="geometry" />
        </mxCell>
        <mxCell id="ZrD3n2TWtLxvuJlKy_KN-14" value="" style="rounded=0;whiteSpace=wrap;html=1;" vertex="1" parent="1">
          <mxGeometry x="450" y="290" width="150" height="60" as="geometry" />
        </mxCell>
        <mxCell id="ZrD3n2TWtLxvuJlKy_KN-20" value="Subscribe map location" style="text;html=1;align=center;verticalAlign=middle;whiteSpace=wrap;rounded=0;" vertex="1" parent="1">
          <mxGeometry x="450" y="260" width="150" height="30" as="geometry" />
        </mxCell>
        <mxCell id="ZrD3n2TWtLxvuJlKy_KN-21" value="View list of meats" style="text;html=1;align=center;verticalAlign=middle;whiteSpace=wrap;rounded=0;" vertex="1" parent="1">
          <mxGeometry x="450" y="290" width="150" height="60" as="geometry" />
        </mxCell>
        <mxCell id="ZrD3n2TWtLxvuJlKy_KN-22" value="Favorite meat" style="text;html=1;align=center;verticalAlign=middle;whiteSpace=wrap;rounded=0;" vertex="1" parent="1">
          <mxGeometry x="450" y="350" width="150" height="50" as="geometry" />
        </mxCell>
        <mxCell id="ZrD3n2TWtLxvuJlKy_KN-26" value="" style="shape=image;verticalLabelPosition=bottom;labelBackgroundColor=default;verticalAlign=top;aspect=fixed;imageAspect=0;image=data:image/png,iVBORw0KGgoAAAANSUhEUgAAAR4AAAIvCAYAAACiB7RDAAAgAElEQVR4Xuy9B3xc53nm+6L3XggCJAj2LpIi1ahu9R7Zknvc4mRTnWwSl+zeZPe3m3uzm93YSRwn7rHl7kiWZMnqlRRJSaTE3jsJgui91/t/vnMOMBjOAAMClEiJY40BDs6c8pXnfd4e11DfMGQXX2OOwNDQxSG6uETObgTi4uLO7ovv8W/FXQSe9/gMX3y8iyNwHo7AReA5Dyfl4i1dHIH3+ghcBJ73+gxffL6LI3AejsBF4DkPJ+XiLV0cgff6CFwEnvf6DF98vosjcB6OwAUJPHIyXXQWnIer6eItveMjEGee12yI/11IrwsSeIIBDgZd/x52W7p5uLAm4UJaMBfv9exHIFJYhluuE5GiSN3Q1X2hRnpcWMDjj7gmcMgGbWBggPegDfKzb6Df/dREDPT3W09vtw0ODvJvfYnj9Z2Q718Ep7PfQBe/eRYjALhkZ2VZamqaE5L9rNHW1lbr7e11/w4EpzDI+12fmcXHx1tSUrIlJia63+Pi4yyJ3xMSvH8nJiZxHJ9PBLzO4van+isXAPDEASAAS1+fdXV18e60jo4O/2e7dXV3WW9Pr3V3d7vJ1AQIkHp6emwQpInn35ogMVJNpwOf4V+mejgvnu/iCEQeAQFGRcUsKyoqtoT4BOvs7LSjR48CPm3eF9yaHPnu4BBCc1A2BbPkZA949IoHZNLS0txnemdmZlp6eqZlZmRYKp+npqZaSkoK1+D4M2IXgwu8+0GN5x3wBMAt8BDANDU1Wm1tndXX11lzczMSoscBiycJEnknubcmJiExAWmABGCSnRRxUsMDHn0WzLD3t4uviyNw7kYgkG+6gvs9bshysnMsA4BgMVofTKelpcUxHu8Yj5UH4COhKYHrwIeX2LsEq976vU+sHuHa39fv9oNYj4AoC1ZVUFAAwE2zwsIC928xpoD1j6DcuXv2WM583gCPkFyD09nVYadPn7Zjx47aycqT1t7ebokJCQ7Zs7OzLYOfKb4EiE+IR71C1UI6DDJBUrU0KXoPSM3yVS1PzfJ14wtVKY5lNi8ec/6OAMKuZNo0y83NdYJQDL26pto6Ozp9LPCFoZO8Q8OCU8dqnWt/6PcEqVzDwjTerWvH8Lt7nRbQ2tZq7W1tmBp6LQ32M316qc2ePdtKS2e4PZTAOQaHwujVuzBq7yrwaIyFA0JxMZvKkyft5MkT1tLa7AZeAyUJkZKaAvgkMmAci8oltUvf6QXte1C1elC1JDkkAfr6er2/98nu04e9R3YgSQUPkDRRI7afd2HE36FLBmP7Dl1uQpd595f9hG53Sg4WI8nPz3NrWgAi5t7Q0Mia7RYfcgZmAUoCQjYedh6POiYWL3tOIsxetpxkmEtySrJTpQJVS/9OdqzfU8cSAKkhBHE3e0Eag0Cot7fPMZ/S0lKbObMcJlTszqH7eLfyEN8V4BHtFOAIKDT4J06csFOnKq2js90y0tNhNjLCpbqB0TFdXd3W3tFubW3t1trcCjC1wIQ6+De2ns4OWFKXkyAe8HigpLckwQgj8nRmTcp70uflWDqSkv/Fu8Xr27POk4f17k0vz9gWCIAp2dUXwkmYBwGIQMWpVmyAfoRisPGdOVlGYt9M4NiNYzsAkN4yKyR6wKO9ITuP3pmZ6Q5UpMZl52Tze7b7LD09DXDRHopze6MNABIQ6Xwl06bbrPIKKymZznHp7prvNAC9w8Ajm8uQAwcxnMOHDzsDm4BFFLSouMghvChjc3OLs+kImGpra61O7/p691k7AKTviE56Oi8AI0DxVSohS+B0jDigoQr4hbBoY71HF98U56ShFrEzGJwnwBP6CO6WmKte2OmFFn8S61SccZxn6PGlQYSzRDA6OuXL/TfycwSYACNYUVJykgOiLJhUDnuooCAf+06RFbOXiooKLS8vz+2tjIx0x/S1f7SPZHwuL59l8+fN9/adswO9c693FnhYbF3dnXb8+HHbvXuXVVfXuEEqK5vBZklyxraamhoHNKdOVWHnOW5VVVUYluudrUeUUW70M18jxmL99r5ZzBFGQpJSLltt7PMZXyUQpB4PIDTeHy/PRe5JgslJg1DfVOha19qXSSINtlOQX2DTS2E2s2Y69aqkBGNzUYEVFhQ6J4z21emqasd4li5danPmzMXdn+MY0WTvL5b5fIeARwawfthLg+3Zu9uOAygCmtLSMjZJunMpVp+utkrULceCjhxxBuZmgEjsSBZ+Z3C76Isad07FeCS9Akp/vo6ZpK9jPO8rY/+5t24FQORACO1BNtKSkhKAZbZ7z5hRhsF5OvamfKcpnGbfSeBL7Vq6ZJmVzRAJOPfs5x0BHhnSjh49Yjt2bMeO0+Gs+9JFZZOpq62HAZ20/Qf226FDh0Di047d9PfDbt5Xi3JcTIn5ABdC4FSt8/MVqFpSjy++zu0IeDa/eAdAUr1mz66wBQsW2py5eLoAoEzsQ904aKpP17j9tnjxElu4cJHn9j+Hr3MKPNoAMmzt3LnDdu3a6Whdadl0pwY0NjZhVD5pu3butn379qNanbI2AEfMKNTgpmefHDE9h6N38dQX/Aicew5yfgxRAECpGJxl01m0aIGtWLHC5s6b6+xCioWrr6tzDGjevHl26aVrHCs6V7L/nAGP7GhSobZv32b79+/DhVdo02A6ijSuOnXa9uzZbW+/vdWOHD6Cl6rVGYkjvaItjAsnAHD0E4Rq+BfOM5wfm+dc3EUwB+ezPWys544mlCM9T3Cs3PZy6yuSeuXKlbZs2TLsQGUuTq6lpdlOENZSOr3M1qy5jD1b4ojAVKdknBPg0Y02NNTbtm3bXCCgDFuKYWjFpXf08DHbunU7gLTd2XSkbo036YFZzndEGk5HZ+250DauzKhSLvQe75nPxSa7eM7IIyClVGtJZtULbU0FgixYU3rC8dZXEHYhj1hRYZEtWbIYhnOpzV8wDzNIsUvnkPE5JyfXVq++DBAqxeU+tar7lAOPIKGhsd7eemuLi8+RMSuLuJw60h4OHDhom9/cYrt273GGZqlVY73kn9JCUJaKzF16p/JO4Z3kL5Tg++ezOqZ702JQqFg77w7eXqD8hbbM33vQpe2UwjrDD2iyapx7s+rUjqHWlXaR1lOP/7PP/yyInIp2Ra1LsZ+szCxAZ75ddtkaW7psic1kz8qpc/JkJbFC6bZ27dUuAtrlPE7Ra0qBR3Ssq7PL3njzdQzFB4kTmEkMQQ7UrdL27tlnGzduRMXaRzAgiXFjIIW2IzGVTgIJdNJ5Z/LOZ6MWskzyCKRKJ4aBaBU+9U40UeAJPz6wK7lo8km/RvjYsETio+bEODvRQ3Jgf7e1+k7/8RbHpG/l4gmijkDAcnKZizJW3PS4NMtQYvGEV9O7M8iOPeNE6JFZY7DfWoCgFhtwwq3LBx+xbK2x8fZHKtkBFRWzbe3VV9mKSy6xctzwSjnav38/2kqhXXfd9diCCl1E9cR325njM4XA4wUGSr2SMXn69BKXpKaYnT2799m69a/ZfozIndh4ou3tAHAkdQQ2OQ5s4q0gHkqYmGGF6RmWlZRiKYrk5G8aguA1UcBwgBBqOVNs1wTXz9jHj0gHHTdA4GQX3oWTAM/mxlo70t/lJFWswOMFkXkqpnfvFz1CE5yuMw5PYCTFnmcwqpckZ9u01AxLIro9khofOtfR1m8sx8Ryz7GcJxBoWveD3HEv/99FpH473uCmvm5rGuq1Rp6vjbeywcSCRlZM5CeQgbmsrNSuu/46W7VyhVXMrnCMaO++fbCgcrvi8ishEnlTQtSnDHj6+3sdOm7atMkFBcp1V1dXCwjtsldfXc/fDpLawBBEMZNrmyb6C0GAMy2OyEpApjwhw/JT0iydXJVEbbwI3w9AZ6LAEboI3ARO0IQfHeyEYiOTq191b/0AT2PcoL3Z0Wxvt9SjeikcchyKpfwdpIyXw5PghdTrXMOZyu+XALxYtuzEjkli/KVeLYpLttWpOZamRMwoayDY6GPZFmMBjFjucCLXCl09gsxBPpDK1UaeYg3v04M9VjvY5xi21DHPzhh9zSkAcVZFuV1zzdUYl9fw+0w80z0u9m7hQmxBq1a7VI3JBulOGniC+jeVlSds/fp1LmpWAUtNTU0uOvnll19x6pXyqcYCHenZ2QxKGYMyKyHdytOyAJx0S9OmUywCs+ENV6hfaNT+Hv5rLJMb6RgBTyzMKVhgw4reGfMYGXgG0JFbULfe7m6zNxqqrWOIVI8xgUdJg0oSTLYEvX3gEUgPQq37CcBTkqFy0i6+Jj4CEnTZjP/ShDSAJ9sSYTuhalboPEc7+1QcEytgjXcttzOckKMmFQJLCSntrJO6/h47BQuqgmNLDeuJoHqNGC28+j8VFRV2/fXX2OWXy7M1jf1MqkVdPf++gjigRa4kzWTi7M4eeHzJIGt3c3OTbdiwzuVVLViwwCVz7saA/Morr2BkfgsruTTOkZcGKJAckjoyGOfyLgdiFqbm2YyMLMv2AScyEoyQxkhAcbbMx+V6xahyBc/grhUz8MRZW2K8be3ttNfrq6yNRTEW8LgM5aRUS0xBBUjNctHIcYBVPKxpCCk2BMvsJgVFeWsKxhuHO018Z77Hv6G1l8OoLUtMt1UplIxgWQXAEysYaCWOx4JC13ukIY31WjEBj7ufkZUwwJrpQs1vwJFzgnVXOdDtVDCP/US2/YjNKN5n4cL5dvMtN7l4nwJieo4cOebKz3zgAzehkpW9S8AjXOX5ZNeRTUe2HcUFJKInHjp42F59ZZ1twJisZNDQnRk6eJI4UquKGYAF8ak2Pz3XCtGzk1UWwC+ANPLd0G0VYt8IAYqzBZxgMUwEeALuFXm3R2Y8gzxXO3ky2/s6bVNdlbUAHpr8aK9EVM3EZFhfVpFl5zPRGPs6OppIDoThDJFK0tNufQCPMvejxUG9x7FjUo+XzPqTwFuelIGNR8AjxuO9ph4MoptGzsW1Anmocw+yUfu19kiREPM52t9hNQiqdjGjsGcNHVDF+lxyyXK75ZabiWhe6Epp7N6z1+bPXWBXXHkV2QeZZw0+Z8943B0OuhQHqViJbCgZlBX5uHHjJlSsV62ystJPAhydMaStJtUqi5846WxhUqbNz8i1fG00NwvhGmSoTBmtarmj/b07WeBRwYxYzxGZ6QTTFgY8/irQAuiA8ezCqyXgaRgkuz4K8Licq+RUS4Lt5BSUWV5xhas619Jcb2kp8dbf22G97U02AIip5EFQyW5SO/F99uVUZjuP8RfwLAXgE5Fno20m3oCMxSTHYyGhIBbtPLGcI5bzjHVMAEDtCXFW3ddjh2E/p1h/HY79RL4zrUFltl9zzVq8Wtc6l7vqRNfXNRL3s9qlV6j+z9m8zhp4xHY6kLRvvPGGK20xf/58F3i0Y8cOe+aZZ23v3n0RN4MeUUxHkmYmoLM8JdfmpudYpooYhRj2Im7sSKjgM55YASPaIE3EuDy+HWg08ATXlOGvMynB9g302KbaKqvG8Nc3xqQnAzzJMMCs/BLLyCsh6rsXOw+G98I8q60+bt2tjdbX0+EixFUA7eJrYiMgE2mR1iBsZ2Fimlt/44HDWEA0FcwlsNO46/CPKb0fNq0Ydh8nPYXKfhBb44lBavU4ChFZ7VLszsyZM+ymm27CvrPGebqOkMidgv31mmuuc57rs7H1nDXwyJ17+PAhmM3LLqw6nzT8I2SVP/fss7YRz5bSICINmuitYnJm8l6VnGfzcossUwMc5h4OnQAN/7CeHOZ1CGwyo8FAtpBgEcYGSRMBnmHJElUUngk8bnKkbyfF20FUrDfqTtsJXOrRpI2eOTk5xRXwTknPtlQYYT+qQCKMKTsjzVqa6qwfw3IPpWLFeFRt8XzNRJ8YHLxzR2ewqqY74Mm2uYlU5BvHqxmswbHucCzwCViHNrlWtK4XyhdcXA5rxLkKlOjL36X+hfP90JU9HhsL/bt+9/SFOARgvPN6HehssZOo7QpqjSYEpWItX77cbr31Jrt09Wp3P0ePHnefKa3iHQMeUbD29jbbhA3nCFnny5ddQrRyo23ZssWefPI3rnxpJE+LBhmtkMmOsxWoV6uyCiyNYMB4lSQNm00BgSzzbhJc0BI/OC4+xIiq70h3HXJGVy8uZ5CLKKUigS+OLKTxwWeiwOPAZwLAExzfA3CcwDi8Ga/WASRO9Kgm4pRUW0UdBZj4RNiPK1jvL1YBtew6qionj+FF4/LEASuLVTcLh8YyXOkzCN84O6Vh9HXDV9rIZtd6wdaCSSIOO2gCaxmVwLNlaq3L3oIaNMTf4uQx4t/xyl/EhhpPpcLAqxvE7bji8GGP7ACKa7jd5LMlfRZ8N3S5in13s55O4eDY39ViJ4b6iffRd898qaicmM0HPnCjXXvtNdT4meVSKmRovuP2O8hwlz96/D0WeuazYjwSDEePHnYxO4pMlh6oIMHnnn/e3kT1UumL8JeCtRQYWMx7Be7LpZkFVoxEJ3LCIWg4agp0OpIBnII8mz53jiWzCZtA2TZsSHFMiAKbZDOx4nzLJeipp7HZeiicnV0+w5K4wc4jx62PMqkCK5fgFoM0m2hR1FiBJ9RTplieuoQh29HSYG+1NRJfMdZLtXW8CnPJroyl1z9J0lKF7ZX5r5Y//eOknkx8S773v6E1l8c4LoxLssUAT4G/Difz5GcAAROvDT7ggIUAW+YupWyarbx6raV2dts27KC9lPDtAQD6stKtWDVzFi+2ElIW5KRpJq3oxL4DViWzRQNOBQBoUOWAWUNaR9oj0XQxxbuJLSWyTlLBL3nwQmPgdK/yeHVyvipsPjt7qIkF8+mOonJpHS5evMjuvPNO5+WSh/X4ieMEGl7Kv1dOOJ3irIBHsSOvv/66YzYLFy6kkmA1IPSGPYtt5ySZrQNhrl1NslQsebAWxiXYmjSqo6VRxF0BW37dmPDgvX4GtS0rzVbde6ctu+JySyaAsHr3Xtv8/IsYlzCoIulbaNq35t677FJQeNfL6+w4uWBrP/hblo+1feNDP7WTHJ+g1h8xgLFHQWM3Lk+E8YQCjya7HdZzqLPVXmuqtVokzVieLQGNgrqU0OeaujFeqtqntiYqpHUxhmfiUCFmI0EoIbg8PsXmADwZY9hTYr1C6DJzwXy8+wU6qDUFOF7iEB6JZcX2sd/9vGW2tNu3/9//ZQ1U2kzIzbYVt91sl+M9yoRZtBNoq+YEGeqTNTBkx95629Y/8RurOnDIBZ3GIYynUc4iOY9gAF8bCL9HhQXEE2bRIGF99CTgA2sKYSUeE/PifdpYk/tR+/f3tFoDezeamz0PgnHTzTcR33Ods/ucPl1FHFm/3XPPvSSUanfH/poQ8Lg+VdxkVdUpopFfcQWlFSz49tvb7IUXXrQ333zTUf9IbEcerLm8Vybm2rxMokRVyNpJcFW6P9OPpQHphM187CtftG4MYWJRc0pKbc+GTZZOCdS3qO+jeISPfOGPbBb1Q14HaF564klbff89du1VV9lL3/mB7d/8lqOropqxvGINIAzOdTaMRyytD2lVTQzOay21dhiXuKRMLAkQLnKZi7v7vJgyEcuURjxGioxix8ql8idmWwmR8UlSfcJewbIZz46irw2rVP7BWr89RJv3ao1npNpHPv0pywF8dmCauOOeuy2zqdW+/v/8N6s6eszmkJj5MdZxD8JlM+u6BZudGEUKQnrp7Lm2HMfNy796zJ5/9HFrxC4zfdUKu/3Tn7SSRfMpYwqXEfMJe0GqLYF4ujeffNpe+tHPLI4a5tI4wo8U+PSi4jUgnfdi79lHnI+SmSPld0kILl2yxO65925buWoljo44qkzswN1+G/V9Fk+I9UwIePRsGpAtWza7qOTyWeUuKXTjxtft6aefcdno4RI4yP6VdFkTl2JLMgosF7uO0h+MB0aTjagdauK68rPt/j/5Q0suyrc+FkYFRuzXnnzK6g4dsUaMqqvvuM1mLlvqCl3ve+pZe+yHP7KK69ba/ffeZ5t+8gvbv+XtCQGPM/5NQFc9G+BxzIrF2Aoa7oD1bG+tsxoxmGicOWRBjWW4POtd+D77ojae3OgF/FwQl2oLUujMIHCI4NwIhmYs4AkNIJS9sV8tY2Qghp1OX7jAZlFw6wilYT722c86M8C6devtalStrKY2gOdvrPb4CcsDkBZdtpp1Tk3kigorhU0kyI5KsbzK/QdsCK/lcaL/D6JytSUn2hwiij/zV1+y4sULfMYT+Q7jUOe2PPIre/Sr/2yDdQ02yF4d8qPcnT3IAYwX59OtPMKBXtuKvacOFq60i3Afn/SBPEpl3H7H7Xbjjde7vC5VnFC7nOuvv2FCVQsnDDzqS/70M08520IZ1QSPHDlqL730ClHKrzoff/hL0oW0MpsDub0yOcdKlYgHkgstnbFUjCfC4pde3JWabPOvvtLmX3e1lTOBuRgAH/7O923f1q1WBtX86B/9vnXR7iODSvr1r2+xX3zzW5a7bJF9EOq38ce/sH1ETcfTX2ushRNc2ruHyKXko+3NswEe7yrYFcV68G5tba613bjElcgXWlPlfYYH78jjah1IxZIpdB6/LUjKsSIXOxbZmTxRxtOJ4TiNHMWS8nJrQQ2ee9mldvvdd9kzbP6rrrnGsgCY9Rtes6spMyHG8y8wnnqqcGodxdOS5qrbb7PLULdaCFPpxpwxPbfAag8dthd/+bDVUOFBce6d2ILm3HCdfe6vvmyF89EhpGpFsF86YCHH6u3HnrAnv/FNi8MG2oUDqJ8edMF+CH4G9p5mTAC7u9rtUG+bNfP9SDtHxOOKK66wu+6+05Zgj1JPO9VHv/nmW13pDHfOGDbchIBH/KSuvtaeeupJlwgqVWvbtu32xBNPEb28c5jtBJ0eZARV9m857+WEpS9PyUG6JDr1Kl5sx1e3hoOUQ5afS3ZjIqdRnGjZjdfaQrJl++qb7PUXX8IThuGNyclnIjN5L738cqvfsct++b3vW+myxXb33ffYOiZrHyogltdYxsGBwURsPG5RRh1g/hCWJBoATvCIcpt2cJjKZGzB1nOabGIpqWI+MWqG78hmHblILNvwHb6lCVxO4k0VDaTyi30vTci26cSiaH16RtczY3hieWIdEyyDDlSl5ddebXd+9KN2GOdLM4Llzjvvsl//9Ge4oddYBjlPGza+ZtesXWtpzW32jb/571YP49F+GWQ/5FBofRpgUoIzJTMv16r3HrB62H0tVTp7iJHr55huQinmksD5ORhPPsIX12f0UejqsW0Az6Nf/4YNwHj6OcdQSKXP0OUroddFjJnyuXYSH0bob8ScLu2RCljZPQDq5dhei6gsunPXLltDwbClS5e5ZOZYXhMCHu2IHTu3o2q9QbHoOdaBRX7jxjfs179+wqFe6EsPpclWeYvlDOwaYiVKk0mHkPcAae9Ah5t07r8IO815AzhuFnT16g9c7/TYN1/baH0YzBZRjHofD3uSwMUM+kSvBniaaIvz9ubNVj5/ni0nzHsXZVWrkBL4/NzEjuvV4pBYs9PPNoAwPA/MBRSymI52ttk2IpLxw7k6KoJKjcvZxEfEMulnd0ws2/Dsznyuv6W1KOatYl8SgvPj060sKd1SVdgq0Dd8AIlBWEe93faUJLv81lvsQ7/3e3aYbiona6uxf9xiT/z0F7aK+JcMTAWbNqy3a1G1kmhG+a///X94xmVn48RzznqfjqD95Bf+2HIWLbTnv/p1e/P5F2wA5qL7VHOnHhh+2SXL7MHf+7zNhHEErvfgppy31w+EHMLGs+HxX9tvvv8j0+9JUjCiiDXHwhmOLg7aSb2sPX1dpFTQHSZMugp4clG3bsbIfNNNH7C54MDBgwfo41ViV121FjJCdFQMVR4mBDzKy3rhheessamBIl/ltByutBeef8leePHFM4zKekAZsxShfAUuyxVEKGdj25F5NE6AMwp4zkQep3YoZwtdORlmpTiVHkBHNiO59tTKeBDPzhDnSmIyhmA2fYqLULtX3oPqJMpnApyYvFoTAB5N8mQZT7BQ+jTZLJZKbFYH25rQs7uhuTyrA6CxSxic6w07+vwXFvAEgk+VKmVIFtOhjJVVEMpRggBM9wP0gmcMmMt4wDPWKEh9Lqb43XLczTVkcrewgeexMffv2mMldHRIo3PDcby+MzkmUQ6SDQhSPLTBNeUBS6QhwhxKkU7Hpb5jw+vWRk85CU+99P99Ko+CWlY6Zw4mhly3jyIxZIenAFYN9bCaqXEeZN5Hez6dQ9eXneoINp7tXa1WB2MLzWT3MNpLIFW1wrthPXKxN5Ek3sfzXH/dDc7eE0v3kNiBhw2shvC/evQRyyN2J49sVVUVfOLXT9rmLW+dUcZUw6FaJ9MY1quRMAvI/k1BzRIie8DDAOImdiE2+l94RLK/IkZt8Agj7NhHiNQKPd4Ncox6y7kMIBwr4z1Q7wQ+9WoDpDB2bD6NLo/GK2sZPIKnEHiv0MeK8RHfWZyKcLXxNvXZ3GDoOYPfPdDxCsVpDSofazrF5EoTUnFspAJEnjEgOD4Y12ApjXUfYwGPAy+/3fCAgmJdpHmCa1WsdsRa7HK+eOoILYwRlE4o+qjnfuUYNdxTr/R+1SMP87aJv7v4NfVIHyuOR/fi7oFv+NHP0QIkR60vTn0a9/92PFzHSShVGY3wZ9b9LyBv6x68c6tXX+ocTsrRvPrqa2mfM8d1LB3vFTPwCBjkRn/0sUddurxc4VtwVz/66GOUOT18xnUCo3IFA3VVUh6TjidLaD0MPFK1BDx+50+5iEPOMpHNFGspizEXlAPAMwMZx/tO5L/rZCNbYkzg8QFX8T0KMOvEw9XY02V1MKBGJr7FBXURpeyDkH5qWsfKKh5v0t8rfw+AIhRoZMfRW7YbgU4uRb7yE1IsByNyhmyL8qOG5WRNBHhiGbux1m6IjIxqIhyPW+rvbmv7JxuLxQSe9mh5X5HutTEl0fZ3d9heggob3L4c3V/zdLIAACAASURBVExTe1ZNAe/Aq6zkUcXwHCUsYOXKVaRRXOLD+tg7OHbgAcX27d+LWvWCq8mqpnvr170GED3mejGH5wkpUrKEsVmKmrUyJd/VSxZSusjbMFVLYxgey3PGbfuj64RD6B99wHDniGVVRDlmOOcrBv00OMXZerVCbyGU6bkNAABpUbkiTpSxbOHdybtHb6RlH9JrgHsULY70vBMLgYw8GJHH0ZuA8PN78UTB7IdvmeEO9sO7xBfuZ5zrzGuOfBJtXoPuEA5MOKPUqiR+k0KvAnJKPE5nrblAVV/lDls6/n2MjMO5YGWTWJZRvzoeOIXuh2DMw58tfFyDv8tlf5w4sx1dzVZJSoX3/RBByicKJpRL/Y477rBpdJE5RqDi7NmzKY96lTN1jGfniRl4Blj4m7e86bqBqg/PafqeP//cC3i4nnbBfeHAo7IXMuStjkunuBeRoWwYUUgPeEKNy14AYfiSDh+UUZucPw7T5BBAmswET1TVGtvAPHHGEwpmAQCJSnt2Htz8fCgKG/w+7IELW01nqKz+QI5vEB8ZvejAI4N3SBE2LUkfeJxUDK7lptP7h7sf99+ZZx025gdsNwD9YfY78t1I9+RJcW/lOdajtcUv+uny9fS581x49xaqWkVaK2cLOpHAbHg+Qy4U8fyaGCdEvLOMdQ+xgE34c4Xf25lw7l0x9LqdAHYNK21bZ7MdxuYYXmJO58jA7qrqhPd/8H4rJ+6oij7seXn55HJd5+J5xlO3YgQeojCh/+vWvWzVeI/mzZ1Lcugx+w3BfC+99JKrExMOPArSUqTyFXEZNouykukqshQReCJ7tc5YaCESPpTxBBsqmlSMFYwc4wlT98b6rrte1FUyeeAZd2OMy/Q8Hh7ePSOWcRobeIK/ChRCAhB8gBkGG38jDV/fHe5/192a7i0E7IJzuQ99duWD3PA5/MOHhz3kdKHjFRGkwgY0/JhIUzlyJ+OvorGOHRMwpgh4xnqe8Ot7/x75NPzZFXHdBIWUgXlPX8cZIR6a9RTKoy5fjnftwQdc59FGYoTiseHeeOMHAKC8qQIe+kGRjf7cc087ZFaD93179zvD8msbNpyhA+qxVOtkPj/XxmVaGWU7U1lQgfs83J0erNkRwj4xhWEqwGeijMdN3TsMPNGWfzQQDNjG8DILAavxtlIku5SHF/6CdZMWIj9H/e5d0TvEX+bhzoMI3/WODTtn6DlCbnqsTPJQ02bAhsZ73vC/h27ks2VCE73meMePBWChI3e2zxxcX9HXrdDFXRQL24qzQ278cNYjo7kA58MffpCGgEtcI4cu4oRuuOEDVlpaNm4OYYyMx1xr06ef/g2GpGyoVCYq1y57/LFf29ZtW30dcPSwhQLPDAc8svj72dVhcTyScOExNLFI5tDNH+vxUTcvsxVrHE9wjvMBeKKBjhubsACpiRjhQ88buuCHgSfMczHKVuW+MHHg8ViQFoo3wsPAGcZEQ4EgEkDEwmbG2+TDYM0vFwrwhD7TZO7ZlUlVFDOVMt+mI4p6/YYDjzxZShT90Ic+hGdrNXM14ArCX3PN9VYxq8KvPBp9lGMEnjirqTlNZcGn3MVkp1Fi6GMAz569e85Qs3S5dxJ4Jgs6AYBdaMAzFuhMFnhCwTUy8ERgJ/6Xhm12E2Q8PkUaKWUbUOEwtjR8bxHW9WQ2XCxg9G4eM6bKNoU3JuDpgBzsJZr+bcrrdqLyhgOPbGnqPnHffffSaXQtZVuSXBnkK69Y6xJGx0tijg14eOJTp07acy886+w76mqgVsSPP/6ECw2PVPnuIvCMbIFY3OmRNvp4a2k8g3GoqhWA60RBOvTefdNMEHfgWE2gGk2e8XAun6ENq86BYZqf4YAynioUvkkns2kn893x5nAif4/E5CLdWyz3O9b4qCRNJ4xnH9adtwhq7SCgMFIPkwKyBu6883a74cYbXKL2SWqsr770MpxPy4fXRbTniwF4vCk/fvwoZU5fJIZnAe1sml1G+hPUCDlZeXLSwONS8MNtADHOyETUh7FOeSHaeMZlPCEG37MBnnDbmQu7C7DGGX4nAzxBXnegUjl65KYouO5w6L//HAH4BFcN/h3NMDyKqfmTP1H7RyzXinGpTvqw4HmcPTqCBPHcCd5LP8d61rEEkCtJA/AciBuwzeRtRQOenOwc2t/cbLdRSyg/P89Vp1i2bCVN/y51wZKh9rrwhx8XeFwCGxN/YP8+e23jOsqcLrPa2jo6S7xGmdOn8HJRETCCFvxOMR7PFTnWI8Y23945zs6ofeYVdFPnnvEE143GfCbDeELPObKBpxJ4RpZ+qME6dAZG7NgTn2H3Dbc2vHlQIuhUlDaNbTWdu6OC5xqrEPxkrz4MPARzjAU8an9zI2znDspkTJtWbIepub6QZn9XXkEsDy75sXbTuMCjhxgkmnYXSZmbSQ69hALP0uVefXUdMTzPEDxYNyXA4wm1kMUY6+iFeGrGQvHxTheAzkTOMRXGZSedQj08E/A8DQOP21lnPuGkjMsR7mMijMfNpSMxIzLY/RYywKPVs5DjxvCAhT9lOKvRnPQTMCg7hXKnVAVAQ5PSP0g1P1iW6naPtxjOw7+73lh680x9PFMSlQkTeRZ1xgjtzjIVt+6Ah+scQNV6cwzGk56RbtdS7kM5WyqRc5juE7NmzbFrSJ1ISSWSL4ptzi3XhvqGcfeaBzw7bevWt0l9X2InKHn68kuvUur0eWsgYXRyjIfFEeEGx70pf4SnStVyAOt7VMa7tvv7mFbM2BnPZIFnLDvPZBlP+DhMBHjCvVoe7XAoO+yFPxN4AgVhdO7eWPFVwTcCTFOb6E5qdbcTPdvA9VrV9ocNWtI/5Aq6qwax26j85+UJXhivPj0X6k8jBeSaQc78wQTL5ebTSZSOVD1xMk8lkPOAR4ynwdoj2HgkWNIpzXrllVfYvffdY7NIGj9Kf/UZZeq7fo2rEz4lwLOTchjqGLqYVPxjx47Z82SlP0/KfjNu9rMCHudaV/nThPMCeDRIQYX+WBbj2ODzzgDPuTQuR4/j8VnLiLHHrfHxjMvnCngCwBlkLXWzMdW3rIn+9NUU0qoi9qyTfDfV+57P/6+kq4k2adB9ZGwrxGS27tR/V7E1beyZQ93tto8cqoL4ZJuVkW0zCdrLhM1JlZwqj16swJMGuKxZs9p+6/57bQ7JoScoalZSUgbjucbSiGyeNPAM0MVgx45tuM53u1o46p/17LMv2IsU5VLG+kSBR5m1rt6yfrJgItXjiWXzu0U3hVJLA6UaObG+3m1V690BHo8teDaskZqJ7ybwyOOionHNqbh0yS060tVmdaTx9MLUBTpet9BMW5xG/3lla/ubNNY1Fut6OJfHCXjUEeIAKQxvtjc4dXEaZWYuTaOqp5icMgPC4p3O9n5iAR6dW/22VlH/+X4aLMwnmPAkZXKKCqe5tAmpYUqbcB1eIrxiUrX6ydN6663NZKEftIWLFjldTmrWSy+9bG1IlfGBh5IYzLIDGx9wQuvxnA9eLY3N2bQwDl28I0P8XmY8/hO78GCHQO8q4xHodAM6SmyspF/ZwdYmq6OqYy9eN+Vr5XB/FWSoL6UhYjEld1Uq4kJ8CQy6ENTH4gdtU0uddQGqGTzfquQsWwCgpkqFVPmLKRDEMQOP0iYoSvahBz7oymRUnjxFgHGe3XD9jZaVne2V9IgiyMcFHoFKN3lab7yxabidzcFDh+yZp59zdZbbKUE6HvCUpWa6yGUBD//nMZ2QQmCTjVyeCsk1EXd6qJo1WeAJjLDBZpgIg4uZ8fiTPwIT42+9cFe6vuGZaALgGX22d4PxBO1ZxHROITb2EexWxVpV9r7qQSlbvZTflsF2ytMyLc0vdD7+059/R3isjro3KVQIJH+qkVo9vcTTLaZg/bLMPABWTSxd+8tJv2IFHhXkW0aHjAcf/JALszkJ8KTRtuqmm+Rezx8zX2t84AFCu8nD2LBxA8V+Trk+WgcOHgR4nrVX6GXVQd2Y8YAnasqEkkb9aIPJpEy808ATCSRGA3vsjOeM+KUJSKyYgce/4YmAmuMzwb34xpDRwDOaOUweeILzeRcLNzxHmuMB1HSpWFUUrtqLenUE4FHlRp1B1S/VKnshfbOWUh0hG1tiwgXcEkjPrzY0Lbkp1lVeaCdo8Hfq+Cmb0RtnCzMozAfAJmLrmYrXRIBnyZJF9gCMR7ZfAU8KHW9vueVWK1BPdRhYNJd6TMDTBfBspEh1dfVpm0+PH7W0eBrgWffq+kkBj6vE5gqBxRhA6G8ET9Z6Wz3YfNGMa0Esx6hNKo+GW6AhpRz44EJLmQh9/kgLbjJerVDgCQLWzjfG0weYdOK92k9o/3bcvq20Z0nAwKxyGLn8LYuNuDgxy2Yn0wZ62Bg+9tY8W4PzmR7A6NcJ1z5iEZyuRlMyrGZWkc2+5SrbdeSYVR2vsoHDVXjsEiwfO0+CwgWm4BUz8BCrs2jxQgc8S5cuJbuhividZLuFjhOFNINQ2kQ0A3NMwNMJq9lIW47a2hqbS2X7A/T6UQzP+vUbXFbqWTMevzCYx96DMtS+zWDUAI6AjNreqAiWK/8YGK44gYxral0SXjLD1alVvyOOHe6BxCXkUk1UDAR/V8O/Ib7oAU/s1uV327gcvsbC72cywBNd1XKo79zi0Ww8ui83lvovNFTCQ64pc6eL7bQANLvw9OymR1kcVdPLphdYdnqyzckrsr5jdZbT0WeFQ2I7sWxv75FGlhVr0q01b10EQXtB2VR3Rg4YxILgStRqSbr1pNiakcjhiKAUfBgDw9U5e1ik/ZlJVrJ6kS2/6zqrqqm36iOVdvTFN+lY0U33FkqgRfLSnAUQxQo8ChJcRNspqVpLCLM5TU2eBCqN3nLzLQBP4eRVrRHgqXXAs3/fftfAb8qAR9MVsunDCZoGQh0Zu0SQaE+cPX2a5fJg6RlZDlW7qIbYQp2gNoqTxbd3WrJq3TKxCiIbwOiYxPFJHK9Geo4raYKIf+jD86Ge6/2tVOCnplDSBCRGqJ3nzLmNXdVya3cSAYRa7NLsXaFu3nruFB9hpy6A0OMBPm6MAp5hKh22sd8J4JFRuUnlG6gPfKSv01LTE+jgcLktmj/LZucUWdXmvVazfb+ltPc4IBj75Qs3ntMFHypYT/ZIGgkkplHTkDK9rqEA/eQG1VTAGXK9NsVDxA2lF+RShxyFB3TqpgFfO6rQQEc37nuEXJiN1V0pRuDxeq8P0f2BuJlZxXbprdda6Yr51t1OuMDeI7bnyfU2cLrJ694y7jOONwbe32MFHhX2W4RtR8AjxqNW5vG4+acMeLpgPBuou1NXV0NbGwHPPqdqTRnweMJxmGsEstQXKIAO2bLUgU2D1q26/WabT9fFHEK0k1JpWMKC72cxtEDzjr6x2fY/86I1HzxsyTTyk048xIK47BMftWX33OE6Uri5wSMQB9D0tLRa05HjdmjTm3Z43QaLr2tyjQbHCysbz7biniTkoPFsK5MBHtVq7mHFJeRlWwoFmBI6MK5W1zkwmxrgGWGArjq2z2REH8US3WofZkDewvUwaHRZDPeHKWY8DniQJUfjuqy/OMsSUEWuuGylXQf45NG1tmrrftv2zDrrq2oCkMdisiMcpp/nUWY2LTNtOj3aZmHDyNNaw4Oj1kpNtHGqOXbC6itPWTsNLBMIoitfssCWXnWp5eZmWh+1itvqG6yWdXVi615rOX7aEjp7qQMtH5v3ikXVCjCkj/vpTCQsoDTfltx4hS1feyl2rH5L7BqyxgOVtvup9dZ8hBY5UdzWsUHN6KMmAjwL8WZ9+MMPnCvg6aTg13qrJz1iLm019u7da08BPBvocxWrqpUiT0MUd3rUOB5firdnplnZ5avtuk98zGavudQSKa3ogn/UvkYkBsrn9npLix1bv9E2/Ow/rO7tHdZF/FF8caHd+qd/aCs+9gCgwnEAktEax82+bEx4B9oxiu197El7/RePWFdTkwdmjgIrNkLU28tRkvTRpIhK63OvV4DPrHQ0f5NLU58nsNCDnu0B8HisRF0CfBruKDnvEIno9rBKnrLgXNlTXdv3kToK799TEPbfxS+92Zl27W/dY8vp11Sze689/+8PWTd9m+Q6VuHz8PuIZTFGDyAcDTSRGM9kgccD4hHxHS1yWSy4gwdsyqFd8OrFlpqTZnkF2bbm0pWWjxer5Xi1bXn6VavafsCsowd13KvSrNMP8KvmYUidbDWvfD7AxKl1TBG92ZZds9bmEaOSW1xkCbAeF4/CeA4APmI0LQ2NHvCQGlBYWmIZhbnW3FhrzQ3VNtjdSbvgbms7XW+n9h6GmRy1zjoq9PX0Da+L0C4XARiJqOqeBH6YbWDr2KuyUi2vfDrC9hKbu3KJJdJdt6212dLbab6w7aDtenGTdVQT1+PY/NS8xgceTziL8Qh4HoDxqBxyjTQOVL6pYTxMSBcDuYV6yw2NDTaDboeHcacrM/2VV9bFBDzOna7NNVwAbHRDvyFmPtz67S0Gr49Q0iWL7KbPf8aW334rOzrJBukT1ECvola6MIrFZM+ZZQUr6WI4rcgGoLgHf/OMbfy376FzIm0C4Pnohyyhb9C6kURNVE8cxBWYvXCeZc2aqUZd1ruTDfv3X7Vdm173jGI5WU7KiVarDEgSvYRSKYKWQLfIIXoI9bS0WT8NDWVzSsgmjoJ3PGqd0b2xt7nVBtn4yqXRFOkYdZAYSEuxJM6RQnBVgiK25RJlEQ+g6sUBos7WpMUnFRF6Hw/AJmfS8pkIUXce7qOntcWphgkcr0Xaho0j9xJcmn/6xyzONXYC9vbwP/yTdcPmmBwb5Pwe0OoMoe3cxublI8AzcpyXMuH/O2A+Ux7HM8KYgm0UDXiUU+RYbWmOLbqJrpZzylCR+ulhNc2mFRQyXn12DNZxYNNWqz1wgnHrpjIe52fs49jAacxZGvOhkrz9misEXMm8ObaAWsIVxKtpTtGdvCfkefX8bnuLTaKWD4g5SxDxfR3TTnpBXc1J6ySWaIjYtziM232oee2nm+3E9j3cwxHmm4Yx6m6rtsl+2xmPCHJOgSEu86FUzAN5mBRmFlvR7Bk2Y+FcmzGvgr5c6dZGsS13jpMttvvlN+z4jv08J21yxiJ0E8Sj8YHHO6GAZzGNBz/+8Y+6KoR1MD0J92uvuc55tcaquzy+cZnB7untJlr5EE372i0rKwtdrsZ+/vNfkp3+m4iF3nVTo0ufhgIPE3VGl4kzKxB6ui0bMD3VFn7kg3bj733OsmaWO9A5/qtf20aAr/4U0RsgfX5Fua35KJZ1pD6BBNZ3+Jit+9//aK+vW2/xAMitf/aHtvKjMJ72Ljv65DP26o9+ai0YxefSk/3a3/6E5dC90ZAau/712/bUz35ug4DL/FtvdI3VGnjWfYQPlGPbqliwwNJ5/l429MkDB2zfm/QTY2EuvOIyK+ccKVxbQHJyx247/OoGayOSM54FqjD+wcJ8q7h0hc2jFXMJze6Tk5Ktg6jvalrUHnp9s9UfOGRx3J82fDJqU8llq6yMmrbTSkstg2AsvTqRsFWA/mEavdXtP4TBMQ7QrbBLH7jPrrrvbqRuobWfqLSDqJxx2Lrq8T7uJLWljZ5HkogTMQHEBjwBMxntlTw7xjPiTo+V8WhM+tmsCcXZtvD6y2z+1SutBz96IgylGK9KKq7d9vpGO33ouB3bc9hqTtRYdy+2kuxcK2IOyipmWR6MxgW18k5gY+eiVqUTg5KYlu4EpcNXAKYf1Vw/HdMWCPlArh0f7wtUOkxaW0ujNWKSaIeVqEFCMgygKLfYumi/ve+tbXbqyFHsP42sIVoSI0j6ugWG1CyH5SSmJwGE6ZZTUmhl82bZ9Nnc37RCy8zPtRSlIMjG1NRmvTXNdnDdW7Zn/RbORcrSFBmVA3yKFXhkXF6xYrn98R//IR1F57qmnnF41xYuXGzZgPakUiYEpL0k2qkCYQ8N55K4WBP1eB566Mf28MOPuDY343m1xmM8kQIIBTzKLk4oyrcb/vxPbPn998E60qz1lfWOmZxgc6ubgJiSdP2Sa66w+7/4ny2HzW2wkf3f/bE98u8/oI1kst32Z38E8MB4Wjvt4MOP2TPf/LadRm3MxWb04a980Srod22NrXb4uz+0X/3wIRvKzbLbv/Lndsmdd1gni+Q0uWlzkIBx6P1K95AUtMYW27fpDbeZ59JDOpkmh07HEjeprLatD/3MXv7Jz60D43VfQY4tvu8uuxlduIieZKxUUFVWR87FZFXCsl783o8whm5FE+yzGdgV7vnyn1vRVVdIrDhaq8BLdzytaE+/tM6e/NdvubSA23/743bpg/eTNZjnrRvXjoJ3b7+dIs7qKcaqcs8e13317IBnRFwGktm7zki6hKe+hKpGjhZ4mzb4PJDIUb1a48fxDJ8iRIIr2lwqSdEiAPieGyxn3gzsLqmWzXyIsWrzt8ESm+parY8gn7TsQsvG45UtQzACppX12wODLYAhpVPmIQGBkAy7TYZlJsCuPQ0LeyEA0YMtUd1q9W89swSorpHC8YmcSx03FPPW2dbGNZtgyp2upVNWFsDBeWWYboUV6N0Jc2mnQHpTXZ11dsJgqH2TkplsWQUZllOUh/Mk37UK1rnVDkpsOB7GPsRzHNm4zV5/6iVrqax1zMtTfKbuNRHgWYPp48tf/qLrjtrTTTgDY1ZWOsOlTEwJ8CiGp5tQ9GQaozVhB/mRgOeRX8UUuXw2NZddaj6BYRmoUff81y9ZxXXXoCP324mf/tKe/sa3rIsWsc5cx3/wBEuaXW53/NF/ssXahExG7ePP2A/+4av0oRqw233GE9/Ra3sIA3j+pz+zRtjbnLVX2Z1s3GLQ2k6etm3/9K/2HH3grTDPbgV4VlJdjSZBbPYO66uutdaGOktDQqYxyHHo9uig8OsO68aN2A4YZyJFU2eUQllYZJs22y/+79doX7vb5lx/td31F39ixRVzbADJ1wJodjU0WMaCuZYN+MUjoY/+6gl7/t++bdV07ygsnWZ3fOazVnrZZdathQn4SZ3LvWSpJZdzfkDvre981zYDwmtRP2ffdydssMwB2mBNnbXsPeja157eucvW/+pRJH0l+KX6KB4gxPIa08ajs/hqZHCuyQPPCHvyQGu0jWesO5c9LB5bSPnly+zS26H588otEbVJLEZsohN20draa1k506xoGoXIWVsCHLUZ7sbuUkQJz5nlsywzK5us6jRXSya0NbADPO5H51JXUHUDdTYO1IoE4oiCfnEOj90xVOzjGAGUxskjSYCGPufdz9wMqEsoAr2f94A+o49Va2uttTRVo/b1WGpGGu2APdamayX1oLYBOsc377K3n3nVqo9VOlXuXLwmAjyrV6+yL33pL11L854evH2MyYyymZaBiWDSwCOmc+TIYYfMmZlStWrtF7/4hT3x5JMevYoQ+zLZQmBaHO3YTHLwGHzwr7/CJlxtcc3ttvc7/24v/vuPbADJH0jAbhbeEPadGz/7Kbv8859yYNH64nr77t/9byd1bv/TP3CqVjzBFo10Pa3asxcXaJIVs+mLZs7E9jNg7a+9bs989Z/tECpUwvRigOcvbIWAB2nTi1qzBYPtAdScWRguL/vUJywTFYdVa63bdthbD/3UDmNvWkpXxUsxYqcAAgNs/if/6eu2g9rUd/7+79hKPo9jNx95/hV7CVWvGUApx2B+y6c+aQVLFlr3/sP2wt/9X9v62nqXtV9CoGYuG6IFgGpGgqahRl378Q/b4rtvs0Qk36lf/8YehblJ3briUx+3tR+8z+Lpu924fpO9+M//5qRuN6DYTLPFPhZEYASItdRZdODxjO5BZu9w9FWMjCc0tujM6GSBzUhn2UCUj7WAg40nY3EiKteS6y63xdfj1SovQXVJtTZYYRP2riHaaJeUzWVppFg9glNtmgZ5SAHOrNlzLYc+5JLWSlr27mL0y3Mw+GAYSr34fBQTjIAEno1IwXReS+Fe5qOzrcW6EH76tz4Xie5qb7TqU4dhDu2WnQXzgYHJGxcHe+2vb7PKbftt5yuvW+3+Y4DVJNIjgojQKKg1EeBZufISp2rNwenUjnov4FlIInkO5oHABhbpMuPbeBhYbd7Nm99wvXNmUOz9EO5qGZdfffXVmIzL4zEeN5++5ybYGB7wJFne0kV2/998xaavWWVxje2281vfs5d/+GPHNIJF36XgP+J0rgMQ1v6nzxHIgv3klY323f/v7xww3vaF3/dsPAzKkKQVMTya6TiklTV3WMsbb9nrP/mZ7du4CdqNoa6sxG4DeC6hspoMgVVPPWuP/e3fWQM2lunLl9odf/WXVobXw9CvD/zyEXsOptKAbWc24Hjnl/7MClH3Bg6fsOdQhxRs+ZG//DMruX4t0q3fDlGreufrqGgYfLOwJ1x2/bVWOHeO9dU02Ot//zV7iXHtYTGK2RRiV8otxuZA7FIqi3AB1fwr1qy0xJ4hq372eXvkq1+zSlTGqz/3abvj85+2BKTM6adfsIf/+n9aKx4+t1Ekbv2NEhvX8ZZJZODxNp87T9AoL4Jx2fuzxPwEVC2f5Tingr7nB6W4HyE2jGg2VB02gGE2e0axLbx2jc2/coVlV5RQFqMPgtiOXafY8grLrBqW08A6TsaGU043BAFPFkxH5VkC47trOul4hvcMAeh4dh1/PN0gjNxNMC5j2XhHtE2BDyEgOGu6YWMOeGBnVVUnbevbr+P56rMFGJXTANOkbgzRTV1WtfOgHXhjO678kzglECS+ez58TiOB5qiN78IKgueIvCJiBx7ieEKNy4xtAjYtZafLuCxmeNbZ6fpiJ1JjA+70hoZ6q6iYbfsUQIjKsmED7nQ8XpNlPC40zRMLw4qAy8YFGHIx2t7311+2krWXYzDtse3f/6G9+u1/d65zLxwQo6siR/Fk3PT5z9pVn/mEA7GO51+17/yvv8eL2mO3XMskagAAIABJREFU/akHPJIeQ/IioTolYLCLYzP34Ep/4/sP2Ws//w9L5m8yVo8CHtSp3T/6mT31f77qolPz5s+12//LX1rFrTfbYFWNvf2d79v6H/7EOqDMxURv3v1fvmjT115hgywQAdIJiiN9/K++aFmrLvHmnzgbp6I5uw3Ahy5seDEGG1ptK96oJ5991kqwJ639rbutnEnNxhAah32AQA3vWL07e6yG6gCPfPUf7RSGzLW/A/D8zmdwBWdYNcDzyF//D9oR+cDjNrEPJpFET5TPogOPd+teFwFPPYok8ccLIAw2qq6jqnoK2FOE+QDP6VzbANegrqHQBW9pOBOaItTlLUxS2IIrBRE8gFqwgFHYe7LKimzBVatswdWrLAVbSSfHpOdOYxwzrQ61NQ1vYRlMt3haibPnuM0RGucTgh4OvN3fQzap0/C9DTz8ceBWCoB5ZHu7GwyBKO+GKd/RgSBracYDxndOYcp45OGH6c77tGUmxdkdOD6uhDkktXbZKTxXR7YTE3S6zvOI+SPvvIz+47uEWY0ff1QxNP30sNE7JugX7yKqGSgvutorpeHd20g9n5EKhNELgekb8motIPTgwQ/jTl+KOx0WqcjlmxW5DEMflB0zChLHxHg84HkNSVFvsx3w7LOncFmrmV9Xd9ekgSeSUT4wLmdiM7kd9lFBQek4pNJR4m2e/dq/WDuqjcylShRsZ7GmLcMg+4U/skW3fsC5kWt/+Wv78Tf+1boZ+Nv+7A9shYBHG5Y4nz3YRhZSOa30lhsYnCE7+PTz9uy/fQtX+1G36ONmlLhrrhDjaeu07ah2z/7j152bOxd36+2Ai4BnoLLKtnzzu7bxp7+wDoyY05Yutrv+y5d84KkEeL4J8Byzj3/lS5a1eqUNIanaseG0EewY7/Rzb0HLjSqD+FZqWB/EG3Lr737OFt9wnQOmrkNHrWnPPtzorZaNSpa3ZoUzMtbQPvqR/yvgqT0DeB7+m//pAY8/8cFC9fdvTPAzNvA45PHExFkGEDoiw1uxTR20RunA89fGOHSL8Yh9sHmcO9YXSC4miWum8jON589gA6Ywd8m84+Wa9regg0Nsg+nT8mwerGfWmkssfUaZ5ZXOIjwhm307hK0nh2C/PAzD2Okc0/KGxIGhAzupRLLpYM9xdhpATbYav8yD7GXJyv8CtBJQ6xVnFYI73l4bQYfh8Q4AWh4s2XpkF6xD5d6Lev/4E0/YC88/70JAMrn+SjSL++jYkNIG2zmAmYMQDQ1Y+D7Wtb0YJC+6vxcw6GadEkjhGvEFeZAaP0zl5Kwpgdb/yfMGQO71lvfAJ1bGo7w4L47nAYBnKcBT6wEP2elTkzIxaeDxymIEbsvwTqLRgEcDkJSbbVf87mdsJdHHSUUF1kr8zkvf/J7tWfeaxWHn6VFdXbxNS+641e5lw6aXTsc1Xme7vvFdewrDaj9GOudOx8aS2NJph3/1uD0LayqcO9tu/cIfWu6ypdZD8fotD/3ENsF6ejhnIgFh8moFwLMN+85z//gvPvCI8QA8t9zkAc+3BDy/9ICHSNe7YDce46m05wG+I3v32Ue/+BeWjwTr7+i0bYDLusceg7G1eWRZyj0ep3Q8K+0swpIr1tiH/uuXnZG6G0b15g9+Yq+/8BKMwOw6bDxXyIZEIFzN8y/aI//HA55rPvcpu404p3hc/adeeNl+9t/+1lobm1xYvxIHtejcondSMBSGomPQ+AGEHj+VSuTUoQnaeHT+HqXBsHjrseU1sFE6FTODeh3PZnZrhP+pcZzHeNh1AEE84xQPgKewcbM4SRYlTdMAoWQ9p9OCPNbcx5fSi7Jt1qrleB3X2PRLLsErScY0XkJ5rFIVU8V1NPwetnlqpMBFRmR5w/pQ06R69/pvGYH1BdWayeVc2dl5lgmIOTXNV8MCghSwkTMFPgDGeTupY9WEyrfl7bfthw/9yNZv3GhdCIsMTlDA7cxKTLXFhSU8m4IWexwohAbraB5dKhGA04NmoLKoHTxJK0yqjfO36Z71HG5evDShRMabJ7Y0xiAN22UmAJrOvWdwniwAWXWpVaFx4sDzIMCzxAeeJIBnqnK1Jgk8o93pZ8bxRAwg9PfEIINaduO1dtsf/55lY0EfoqTl6be221uoevX7Dlon0rKEDX/lXXdYGYtLAXydW7bay//nn20ndaKdhwrjsotcbiGO5+FH7VmMso0803Wf/oRdiVcrsaTYBRA++bVv2F7sPEnE3NyGO9sBDwazbTCe54YZzwjwDPqMZ8NP/8M6WajF3Mfd2H9KrgZ4jlfaS1//hu3YsMnu+t3P2yIY1xCGzZPYeF740UN2cjfhAKyJVAzChdOnW6q8UBRYK7/uKvut//oVS+QeWo/KTvQd27Jpk01H5bzz079tc7EtybtXQ9lZMZ5K4oyuxrh8x3/6vMXzrI1bd9iTX/83azxdQ/7ZgHXws0dqqYvjCU1vjKzfB1AUST0bpVI5diDg8UjPeMAzrMn4th8t7jaVKSUV5gQ1fZvZOIl4lKSidTHH2vQCAYVvpOEeT6PanX4XSgzIGwTTTmHMCqDGhegVmRhglWsXmgyqcyUQx1WA9zB9wRxr5jyDGJzTAY5ihFg5rGJ6yTQKk+M5AtfkjRLIyAumiPxuBWyiquteAuaTyvdLmK+CwmJc9ri98wtdHpcjOYEB2lfFPAgcMUS48SJcQoblJpwGCkv5OerVd7/7fWvE4K2ACIIBbB7FvaaT5Z0iJiWNPABHf3ICtUpCtwPQboXlVNP1s5oxaWFsegHobn7q+cPvQXej9ArVKkoFdAQ+RTC/2QBdIZOU7nvKxqu5rFvxGM8CstMBHuryeKrWeQg8QaBVOOPR5ESrx6MFq+jja9Ajl3/yo5bAQnEvNlM30r6PQU8nWCxBQXa9uDApF7DrZ7+0jY88bk1IlYTiArsdZrNUxmVo6zHieF749vdcW55CEtzu+sIf2Iybb3SuydMvvmK//sY3rZVFd9dffAEWJeDpsh0CHlztAyBF7rzZsJq/tBkwnqHK0/YW51r/s4cxYvY6ALzny39pxWuvtAGAZ93X/9XeeOY5m0ck7D1/9ieWohgeVnjLieN2Eg+ZJHguhs3SmbOsQQ0Sv/sDSyU8/kHUtRTuzYgdOb17j50+etwV0y7ACI0l1KV91BAY+Mg/YFym8P5q8tDuJXI5af5sp2a2EEDZjyennZyiFzHEn9i5G29OEMcTG+PxScCwDWFYexjRSyYEPMM6glgFm0kJmI1pFPDCnlFL+9suNoA8UM3ctza72+g+P0tiY6t4uHsDQBkEaqYDIgJWCYZs5q4AfTUH13i6HwEecLs+MSvldAFyJwZ6rAoW0EdsVyZ2nhtvuNY++pEPE3dSikemA3c2Y4abvUvxOor29sEkAONEhGBhUbFNmw4ToY13Tl4+Xt5s54UMjKhuq/uYHrCdYeM0f+sh77GBdVvPu7Gp0dah+n//2991n5UDOsuoHTQdAE7Wsw3bX7w7cOopKNTH9doAbGXmN/A81Z1t1qxARO4vnnHp4vcuQFl7yhXcA2iClIrgPl3yiFRH1mAK41+OUXghVRqnM46yA7m+Wnwerdi7BzykTOB9feDB8xR4Aq+WoDuotRxa+jQa8Di93df5c2eV2yo22Bw2fKbSHKDKhi6PGJQO52J3ulFvjvzyV7b5sSesEV25l4FPRrLd+fuftwUP3I9q1mnHsRE9h+rUUtfgggtX3HWrrcUNn4GHox8d9W1UrrfffNNu/uwnbd6tt2CA6LadP/65Yx4Cnrw55Xbvn3/Bpt10ow0Rv7MVw/Q6QE7AU7p4gd39n79ghVdeCeM5Za/923fsjWefcwbhS++4xd1/Lmka8Xip/Mg0N/GE09rJx35jT3IuVZlTUOBCWsPGCWQk8lAv+rnf+uPHXe5Q6rTpVvviq/bo179uVQBPMWzorj/4vJV/4HoMzCp/xYtz1r652Z7+h3+2o1u3hwBPsI3G/xmuboUyHlfWUpshRsbj7WJ9wctB64Xq11C+Yu9gr9XLw8NmaYdpCHCivbSBEgGhFCR0Ns9ZSIRxqlgQKmwGTHc6mlA+oJwUdJLwTySjq0IzatlM+yn+Xo86kot6/pEHHrB77r7T3ZaktQM8vitmMuyNcSYCGALAncf1ijBIZxPYl0GqRQbVEcR2nBcsYDthNz/qc8asow27DsG46tQi+04zKvcPv/UdO7Rjpy1OSrclKVmG+8BTrYZfXn6fjL4CUYFCDWuxshdbJkKyD+ajjIJ47qWNsehQqRq31wg8FPDIYaJ5CgxRwXklAACuQYRVLs+9LD3HFiTALPlcKnBswAPjkY3nfGQ847nTowGPW9RCeUkRBjcDF92sxYtsJtXOMrHDyP6TT1BdCikTirdp3on95+vftIMYj5OgyZq6ZFSZlQQKlq9a6TZw5Y5dtuuNN60TN7smMxsGtYLkymliE0i52v0HbQ/dNObgNp9BysQQFP7w5i22/bVNnn5PxOuaG26wIoxqfVDmA5xrL7E8/WyYAlzfq268nhSO2YS2N9supNlBDPGS3SlQ/tmwmDmkQeQBosq/Elj2IuVbSP04RLzP0T37caUP2PQ5s7mnq62Ie0omNKAHL5xij44RS1VOmH/p7NlWs++AvbluHcSv2SUqziVJbzGRzvl4a5Q7JGN0JUxnG8XaGtlUirJ1QDE+3nhH+PR+9PL3DLDuPD7wDPOn8Ww8IcCjvLUe7udkSoJt62q1WtcNwlMNxnrpWlIVtIES+X4Gc1vEfORQbjMBu0867LSYSS0AfFKd98c7nwsYRCVvQNAcQiWpo2DYB2hE97nPfNoqCAZVZ9wmvEuKr1F98QFnYPY2quxAUsWy6JqZh6cmJxeWg+BIgZV4LGIEdJxi5WjOmZYd3YuLom5utJoq0lqoX16PjUcV+55FUL5B84R5bPq5vFNGlWeR8ViVFvEuU36jCUCo6u+xasasi/tMg+nLztTHfLSQgtMN03FA6Kos+Gqe/h0MrD9hYmZSLRX0R+CQ5XPEUioZLqZi4/sGeKJVIPTsAtoBqlbvbRqFj6ew4JLIIh7CqzAXz9TlJKmlE9A3SNDcyaeesxd+8GNrAkBksdckaJGksIF1gl4mppuASGes1Lnd31PY4DQgU0Y4k6HJE62WlNOrR99BKrgcM45PheonYwTVAu1GUssuoFtVBGsqOTXyegxi9FRyaS8RqYHrWJvFfRe3d7zOLW8JYNhFYKbq58r96OQ9CzoFVSATKZYEiPRx/Q6M3r3cdyr3ms69KnS/HZ1e39G4JHC+VJiV3i5ilwXVBbh2ozY475bAIsxWMNYmH8u47Laz7xGIFEDo/Zmj9F8omPiMR8DTjSA5Cqff3tNunWwaAY/G3bnQI7zO3MqSA8wdz52PraUQFiJDbAYMdQaDmO33m9LZetisLYxbHRv3KKpOO/7k++692z7x8Y9bKYLHMyqTj6Xx9w3L2pRwBTeu8l7JoJxJIfM01p5jOWIRGlP3kP7adIIy0p26EcE21Uf2ep2dOnnM9uPJUocW1Sg+ihB5HFadi+t8Ht6yVIBTa9eFGjiQTnRlYepJqzjR0WanYTTJrLN8gDAN5qc12EhaiEAkUtxMcI8aW+et41llP5M6qUjsRFQqAY8Yz5J4VFju9n3BeGRcDl5BJI9b3MFGcdLHzbLbZG6hSIJo4RHsd+NHHrQl2IAS+H0IT9CRJ56yDUxkAzE6QVJfkHgYUM4gyS9woQaGOPe5T5uD9hwBlfY8FV58SRDfEfzN1yO4L02uQw+n+7tn0Fv6NufVdeRpcCDKH7xiBkEbEG8bO4bnBsCT2KGS3ltEvirgU+dgrAYFZIEXQ99zfw8xbk4aeCYRQBg8iJ5fwINEPoEU39EHoMolDZB3q0SJcqf4GZ7ZHL6dR7gR3ho2Zg4gnY+7PA0gn4GxuYSOEpl+TSZ1oKjFllSJEGhms2G2pspCqa3AGSH7TkZ6hgP0ZFS4NFT4aQSjVswihQI7jgAmNd2z5yQB+G5Ow19hgOPZpkavaalOfaiUDfU1AM8J23dgvxNmLpUFwHuCxOfKLdtsFowHiyUhA7jyuVQXgqcR+9Rp7v0Utpw2ADorN9cKsGsmcr9tCJcmQjD6FBTrA2GwdiSUgjCAAGyGwwL85aW1LOtfPv9ekprtCuOrTKxn4+mPwcZzAataUYFneIJHL7vhIhpOGrDICOq7mm6G01dfanFMwCDZ2Fsf/429TYRwPwtxRAo42PLP6m1KH8r87T8SwHjm6gq+NnJMEHIVnMXNpe9edpAiF62/2YdtIUrv8K8a7wJ4hCM+I3Gb03s674lHL+FoikgAPOH3PDWFwEbO6pXF8G4+CCAcnoswVWuYCURgPHpaBQvWI8UPYnOpxuYyiPqiREuxnjbUxA5UUEV6h85IsArCx8ExPgAiA/aQDUMpYrDLUtIpBpZgqlfUCNDUoJ7IECs26YBfG05shry6JOVbYQ9RjpZ+X4LN7JOf+LgLiosDFHMBnQxULY8hhyyhYEk4YeV/7oRMBGULViFvViOMp4Zgwf0Aj4zYjpGT/HySfLoXH/21NRw6ZqXcey5gqsz7VphJFdUhqrvaTWGnYjnFxdOcgGlF3VLOWS8qnLeO/NgjMTcYm+xVgZD0BKy3pnSvaWgBemZ58JK4N8IrKYqfbfOxM6mKpcd43uPAE60QWLDQXHiYL701cETuuIHWRmBosWkkuvIGsrEkSCIxwi1kANdQLU6U2bOs+YtheNUGwKOoLG95u1B9b3lFeXn013uNRI16a87/twMeT+KJ0bjPh5mGJj2AHX3o213EoAKo8YHHyxjy78a/qPOY0FdJ5w29y1Hs0H3frcIzyiVEVLVCWJB7NH98ogcQ+oPkWJvGI8Y4Hm/I3H05xso0qc0w+dW2DyNpMzaYFFRQMQCpAG2ozepSq99jydXS6cV8MkmFyESlLWBj5aksBmDTgIraiRtbTEvqrjat25D+ZnXdEHy0UID4VXgh//iP/sB1TpDBNp9kTXmxvKpzIepjqO0kZMUExulQESc3enNjHWUzmklnabZDhE4o2drnvpaVmWNvYUt89OFfWSf5dYUYrqVmNQNOTQCPVnwRGfTF5O/1c7/NqFadqFhiMA5wUJ80Vs717xvI9ZxnrmVMBbC7PKpVCpwaceun8N05lLNYmpZrJQSt6inPS1VrL0FxSpmYqshlzXkkKeYmmZGTIVJRmc61zkCnBvEazobjqzI+GHgfaIN7P90icIa2kU0VAMfwWhkGnmicImRV+b+GxrkEwOPdrx4mCHrzdtvoTRx6DQ9ARhiPd6z/LXfDw6TdsacQMApd6PweVEcUk1A5ERlXgxrSftpTRBuPPD76js6sNISgve+ZT+wB/TAIaLNOBHiG6YonefUsSpOQG/0wuUnHYT7dqDnJqEwChwHmWTYQbU6pXrGAj+5PbXVlA0tBmifzVjdR1VBW3JCLCwLsnJ2DmxBL8lQPL9tc10gHuD78od+yT//2bxPdDMuBNeXgzZInSyJPDKXf2Ub6HVsKjPbBeLkxCVtGevRBVKUG0luUGCpbTx3pR5WVlaQcwuxgLJnYauKJgXn00cfticd/7bLbdZp+gQo/cwGm6bjx+/m8geBQx6B9IaP7kZrahxoWPk6jgYeIZe5ZeVTp2KoUZNrW1GA5XGN5YobNS8u2dP/mY3enS9VSBUJFLp/jOB5X+pTESdVhjiVlIrweTxxixbn6fGOtlnS0OB5tjGZ03GaKLMkAmcVCKAad0bZ9QhCoKSMswPGMQHI7MBgZfrfFQqiwBwreho/kVQncmiOMS6TFYy6u00XYS1JKlxZddWVTPRzyymxGkD8OGH3Y9WDFu5fgPoOvBBHHwfkCbu+TCMcg+thILcjGeqRrCWOUzYncqHgUyN1p8LzBbWtTtnGjqkmjsU1WzR9errzr8Hc9KPSu5Rt/fVAfViFDdltA6R3ABJ8HzCpEygR2unqMvsfYmCe470HKWSioUl5KgYI61TYgleVx8p5ibOEgL1SqYnxQo4Lo4QS/VbYnhHzWomhuAZI2OMAj2SQvldStq6+6yj7xsY/Rlneu82jJgJtfgOUFm4rYplRBpRHlYGuRsyC2F14nnkNlS1U6YxDBIFWpprYWu089DtceKyJGqIrKD/9M4OkuhHvwSmSvqEGeVKM2gEtODDFDjYYAUIGOjhmGjY23I3zVnXUpG5YK0mcTOyawagIohniOGcz7ypQcKyZoUeknsUcuK1eLOJ4HiLHDC+ylTJzDAMKJAk9oHI8XvzO69GlE4GHU5BDtRdc8Gj9gB6ln24dHoowAqwp07hQosBZuikLBWYva8HprdyTCiMSKnCrmMwClHAgwkngrx8dJdrEpVLNejJyi4dpSgcTXn3VeheIraEuh6VLFtGzVxUIvsTDVx9UEB/WXG7FXdGObKGACsplQ3Yv7vo51SXweE3M/dD0/4VG/a8KddOYvus/hUqi6N94uBYIDlZejHCf3PHwmZiNglMH2OEm7e2hxu4KCV6XYPPT8ehadLwAtjZOSCLUkB3n+BoyezQRkFmFkTULdacG9mg3lVm8qGRq9tikTA54zbDxhjMeBCOcWIHtF27l3XN0KJuwHfOLZ0FJzpDaI9egtj1PwigY/KmshL2Uqnqig6qKYjdacg89AWLgTKICuD88Y0c9UfczBO9ZCWdG2zj6bN2++XUFlyUswQM/C0DyDIM9ct/kJ3GOsWnDBZ2P3UcGxWKo7Cth6YSWdeKXkaRxgjSgEowd1qQn2U326yt1bBmVnniYP79vf/Z5TpQQ2eglsBJIS1mk+2DnQ4ZxiTGMxQs2cgi/zAEp5SnW/HSTLdsN2ilk7C4mUlk1Me8lbE7juGa8D7MDxAggvCOCRhInUOz0S8AQBU8o834rLdR+bKYOJqsgptlw2iCZPwU8FuB+zWGTtLNh2JkEbRe7IEgx2kl6i83VI0zo2l/T6PGj4dDwHqX6R70a+V6e8HL7Xx0+F5eseu3FXZ7HICrEV9LMx6pBIMgam8LdpnFtu3Do2qALfdK+5koxI2yMEiDVhCCxPSLdZRLVmkzTX5yJMsVsonJ3riP6L8gs4hnQdss/TcZ/rHtow9nXxHOn8PZvPBFQdLiZJ6Eq/bOwW/XhpmpBU6paRhxQr5hqJPE8nxx6ko+bbzadtVe50K8Eb08Jza3Fmcm+ZMAntu2a8Kd2MiStYz3VczhTX1bN2gk7HKd85jXNWpJNuoMJYkYBHtoVQUR+mX4yXnR4Aj366ThncQwN77KSMzbi7BwkLSGKeh/ib3MV1MIN2wg48/Bqxr4XewjBDUC4S7uYkxtVJfc4h+48fZDP8lTiEBMHTVkFS8JyKMmfHqaqut+2USW0hJiiPIMMKymYoAfIqWNBll5NYXDbDgUUdJSDEqqS2pMCworvRR+5QbFHg4WKFlIAq469jLJ0EFVa7aGbdcx3xPX9LLandFO6Xwb0PNupFUiNkmUddV2xQwOMivMN1u7BBkSE5H5uO1Dnla3Wj3nXCTrJYjwuSMqwiNcNpEBKCDo7fc8AjpiODXAyMJwCedjbCmxTRPtTV4mINCrPyrQ3A6WCjqKZeGucqyS+2Fia1qr6aBLshK6W1yUL6Kik2R4mHh2n2dgxXZAeTlM5uuYxzFKHLa1EfgSHsAtSUpS7yqqzeBChnL5OaAeipP1Mvhs99ZOYrYTGRzysAu+kkCVazEfRuYSHlcN6ZBJcda2uy9r4um22pNj+zwAoAj04C5fa3Uy8Z1obMMiqwEPZO9gOMKI7IXfwqNh23riRcUzMR1VpMjFNuboElsair8dJRvs7SAQOlWDSyYGQwFYjkc77l6P/5LB5l4h/kObcAPAsKS135iHrUAkGE5Ga+EhoZQ9kXJEEH8PSkJbPBKTrVSZxQCWMiIK3soe4QozE/PddKkerKaA5sTcP2qJAAwlAQ8X53/+/ZckI3ha8XBh8NByNytBicVMUm0PA4AX61zHsfni4FWkpgqBaUyrIExtixFC6BQBIb1nluEBpOhYoAPPGMfWlRjq2kskER5WnFkRspj7tl2z47QViGpwbjLQPEKioq7Prrr7d77r2PXlILrZ3xUp0qF1iI+iIA954nOgR5fx2F1h7rQwioNk99bbXz6vWxFr/57e/YwyQ5Oy8cAke5Yy68wz9DMA5nWkdHzq+9lg47ymetZrAOBcAD7Js2VKxsBNK8RGoSYdfJkEoeEj/1vgGeSEmigbG0i5naAeM52FpnpVDCZDbiYdrVZiCd8lLTraG2ikptedYNCzjdWGOLEtJsQXqeFcOC+rENtTDYx6joVqmwfDasUb71mnQSBKmDO6QQeqjvNkpO5iRnWBaL/EQzzIoaOGrF2okXooSgqk4W795WPA3pFIxCIheyS2YSOt+ExKwFuJQnk4BnZgnFpmr4qa4cy7OLbCYtVijAaa3U29kJINVwfznkw7QBlqfbGq0iLceVeqgHVIsKplsr95LIIpsGgJ2GdQxg+5C3o7b2lOWQS1OSQ+cE1tX+RspjktSXjMqVynOt4nlKURN6YT0HfOCZWTDNSTaFz6cBKP0c5zYiG7Cpo8WyWXD9MLMc7lF1fBooKDYbhtYFuzlOJby5eDjmMkYZPLvr0urbrFwVPScWA8+it9BDAWaiwONO51Rf2A3Xa1A6AJuxGvDRvaE3OXtILSkGfQrIDNu+4awnMMnLkKpnFkMQAIXH4MTT+lgFty6h3EhaahL1lgC+lg7bugPgOUWbGucx4tm04VmHhQUFtpaI8g/e/yFbsXy5BwQAQzaAnkVpWtldvDiw4I7G4kEj0CGVT2V1W4meVkBfF/ashyhM931qhiuoUS8VtOv1WY/+7SolijFHsXlJsCg+SQZy/dR89QA6fdiZ0gg8nZMImJKekSlbq2OvI1D+vgKeYKqCAXAGWT6Ux2Uvm/1gc7WVI4HjWUx7mupcAFU2ArJHAAAgAElEQVQBNoxTx49ioc+gr3QybKHeLs8osjlZSGk2SztFoSqR6gf5nDZE2EaQ8mzMq9LzAZ48l4ZxqKMVUAFgcgmHB6wOVJ+yXDKPxZZqT1UCbmnWweI62NlkM1IkHYac2pLEZlBAl6sfo01JIzcBTy3XExu7hJIGiseQjUgBbLsBmpameivLm2YN2JSOE0i2iKLjeMftSEs1/eOKHPDo3DMKp9nJ+lqYEaUfAJ6m+iqblYxXA1dqAwtwVwPdK1g4uWS7Z8LA5qUSPIdtQGVQPcZTbTPzCp0HpQd1MJf2Qq4OC/fcz+aoBFCTAVaxtGlQ8Hapkkjb+QC4bFEHm2ttPsBZzjh6bVgGqRED2/MojA88WqgjEDBZ4Am+77WsEfNB7YL51AOuA/QN6+U+6jDCCoDGYjuh60jbXsXSld2u/C7PsOy7zvkbq8FmU+lxDik3Cu7sIj2mhq4Ux09WYcdRsiopFLIrSSXluwIwqSsrV660jzz4YVtDRUiBm1R6qcpKpVCQoYzZw+gT2JSGOeNokHamX9TwRsa/Xc/GOJ+mTMs3vvkte0Z5fj6KifEE3j0BaDosTExIZTuGDf4+IOl+BIQyIiupVqDTTXhCD8CWjdq9ID7NSlkTGZzHWb4ctgn4vZF9/wCPdPYwPTVwQUslOQxLOdpaYzPZfKlIwD2wEtkFUvHc9Pd22jRYRCeDWN9eb5emF7sNo+p0ym05yUbc11QDgKkwN10HetpgCPlWxiZT14Zj2GQOtTdYSXaBsxUdrgN4AIQkNnVtrYAHO0tiCsfUWz4uR9ljcnj3Yhs61tbgqgMqEDCuv4vs3iJrxPtWC4OZQSDWrIw8bEqp1g0NPwBLa0FlLANgmnimEy21tiCL1irc59H2Oitmo3fCSjppxZsBBe7s77B0rp2KnaWuocrKE7NtOoFjsmPtrT/lQgwKUljsLJpyWIvYmgzoR1HptrfV2GzO18exLbC9zBSYF0wnCbuJiqYdB1xTMH7r3gpIBVAZhRaAbi5g3M9x+5tOWy7AJrYnj496fs1gEaepYqJfeXAkONGHgUnYeEYYk8dVtA+6YaNt3OtJNn4jqmo/5SjELOuR2CqbEetLapZcx3KTiwXoCkFUtGKl0nHhZ7KJHdsCaNpIuegDzGVXUXCd7H4Bw0gGeOTlEtisIVj1937n887+4+VGqeMEdZVg4gIgHTM+QHrG3B6p7Ag52RDbSfJ8CsD53g8eIoesxZ1Hqqb+JiESqH/5BURSI6TaES6ygWk+pEqJ4SlhVKqVe16M2OqY29/SZDk81+zkTJvF2kyVs8IJEt8/6lja+wx4IgYQ+l4fqRbVBFDVwhimYY9Qj6lKmEE1DKSHzV+WmAVo0MVRdg823VwApQgmJPDuY+G2wkCOtqA/YxxOwW6hzN9ZBGcVsEBkR6lD3ahqb7Y8mEV6EvYU7AiZJJ8qR0etR8R4Utl0Jwn6aupVnWdz0iILw+1JIlHb1bObDZnK4ijLKnA5SJUt9Vy/32amFwFwqDR8VsU9d6Bu5bO5OzlJHZ6RMu5bdKka4CsC+CR1T/GcrQPdVuCrVn1Ir3rYUSEgVEyukNZKFQv1JOfCPGl5Cak2JzvfAY8cqnVIxmNcvxy1LIlNdxIbT2s/0alsjNScfKtnWzfBvFAKXOpABgA7A3BLpCSrvGBxbMIjMKJuWGYWwIaCQjExjPowwgz1DxcDcmTHo+dnF0DowcZoluQxKOdoEDj45L+RxE66p5HgSbErfm/BttLgx/aMZd8IgMnl1mkzujgZz0PkjLpOffIKjWmzyusjQ63ARrl3gV1FLCP0XPIoCYAyEYCfxOX+0Q8/yCb3SmNobuQ9U6pFLnYfseKxX3wBdb2V51ECsJjydjqD/MPX/tGO0yLZAw+EK4DRhTMhAEH5VlVMXeVFNYbdAiSpwzBXPYcM0AK0XioUdBKrM4DQK2EmlyRmYoLAMeJGOXpgwnuK8chVF60eT7TIZS9AF48HP/pYLMlaKExst+8ZUhBYmiQNk65N18dmSGdSvAgOL3ZGRssu9UXiWNFlVz6Tvyb6univdF++J2u/Fo8CtFwjN/6udiTyFokZ9XKT8kbplSKKyiLu5t9KFFW/dbnNkwEg575XqQuOT+HfKuakiSQEzhWa1z041z/f0/M4gHTn8AzvPRwjtUISKUmqIfc/oFIPunc/T0jMRteW7SFJG4sxUHEnMQU9J5lOLC6vFEKPP1a67w4utqehhmuTRIlq1gXoJiER56H+5cLcUrTvWbxdruQn9+SqADIFPIvYjtu2Yjw+Rjh4OKvI5bGBx7ESqXS6f4C3lfuogWw1YLNTyyNV11PgnTaq2IlXrvTMLa7xdIm78jgCGKElKlyLGr4j17vb4L7bWpvcqTUYeRWjpkTfUFXGsxuxubmnW2++2T5LcTaVUZXNUa2fFHAoAHBVCmV0dvE2Ic/rTECBEYjgQAC+lhSKIwcPYF9qsyd+85T98Mc/4V69hGKhmXp6DeBMkDNFj6lVmMC1ZG7IAFBdgGzw/DJWq/og4zOAcEvh9xKebWYyQKXiYppPx06j87HzDnjqMYDJur+PFsBPq3d6jAGEM2AIKcpMUCCXNliYVysa8AxPWKgrwGOHIyp0yBB68nL0a3g+/I/dRop6jDexwXdGlsfIF0KvHeRRn3lO/5OQE0Wdaq0Z90fv4IhpDaM8JSOSKnjekTQOf4GPrHTvnLwFwhQCwXBMDAoqHXnXAB+erqQ0VFVaMGtehu/Be3JP8Qle/m/DmzyIuPYfMkTVOhvjssd+vCfyon+98yrOqJeN1YjaXINBrA77WBcqDb03nX1DrZekFin833UQ8b/n7Dl8T7FAAh/ZPdzLPQZ2IxcTBNthcyuEInBNS33R9WXfkUFXniuvj5b30rnEkBJh09dQTuV3f+ezqMT6d5IrEpaKSqf6UElUQ1D9HgFDUIQrSMvw7kATj9AjNu3EsSN2hMJwLeRd/ccjj9ljtI1S8TMJtwHsToo1+v/Zuw7Aqsqz/TKyE8iA7EESkrCHbByouAfuPds6q22t3f/fVltrW6uto1bbv62zdS+cgKDIlL13IBACCdl7EMb/PO855y5ucu/NvSFBctuYkNx7xne+7/medz5heG80QQ1fjTDnGXTpC/YSATZO3x3vm0mJ1Ow6BNdEHzC1GEzQZAQhUmBaRTHpEEPafiKCcY++AQ87EF7ZuQmEBvCg2TtLJnwCHkxs3jQnN3N5fAQe21N384Nj6UJ773P9mwuWmRXkfJen3FgDHNp/WTuQ/Y1tXWdbvi1PZzCu1FpI7t+txzZxwUhPAFMC+LSw+BJ/I4tiIiYZo2uphAmDyjgdgdgWAjfB0pZ13UnAoyCB26PPp4Y+OZRXlCLPpwXMg+xMw9EsDIapzQJhJjvSYaqlIHg/ndVkr7r4zcfBiBCdxmRABBG+mB3NF2uh+HvmibGTXwPAwG7icDgMhzXBahxkjL57953akKyqAq1L0QZ1IPxwBB+2b2EGNcGHzMUqb+Al2DYMgAl11rds2ij7ivbiuRyWd1Ay8T4av1MJguYmUyLgFND0hnT43SKYIgK3QQW+amHONzHhlOsK72HbV1oWkfgei746A7Cp0B8Zxueru3vbLMdxBvkGPJ2QuayojP9bKhMEnkwAz2aoHsya5QvjMYHHlsfDcglzRwKCK8q6OpePWUvWI3P8g1UH5W5A3fEV+2fdAY+nRlTWpz0teB00q7DTBaRcr9Qv4PEAgO6q060d37gXI9emvZcjA9MnQBNIH1hgw+l2c8Z4zo7jokWdWDzsvlcC1sMkw0r8juBCk5Zp/ozaMQkuBPOJPYxoPteCGdD05EI6isXJ78wVOgqT7TAzyvGeBKRFEEQ2b9msuT5Z2Vma9cwIWh1qxSyfj+MY0dwKAQBkQdv8ru98W8aOHgXn8H7NAxo4MAHV4xATxHu4wfZH1DAaGcOGf8llsDGGFaXFsn7tam38fhT3SOB5l7VapmBfKD7DlqhDkCKSzExyvRdkFuO+mT9WhfSCRnzR0IbmhfQH8+oPM4wMh+mTCjjWPtj+o7b91VfgueqqK5HhTXmbTiiZWLJkER6GwXi2BAB4WK9Fn4ohpOYJeFxhgp8wzBn6GI5Yfgbb0Bl/szkj2hhwRyhrq1bL07NyD0LugcfdGvcLeKxhaOMiHYHHuk5rtzVgx4Qfc3it+jb74YzxNd5nL5kwgMfYQW3w7jfjcTRcnYHHAjur9WcdEwqx2JqxOPk3LjCqJtDfF0KzCt/p56rhe1i1TZDCe5ox5yoBSvUw14xM9UMACiSawlm8G/pndDSnooPj6NGjtXp8O1pX0NdDZ7MjDyZAsSFYHNRHr77ycrnmyiu0eXsNdNnCkNqRDAlfll9ojg/yaMh6nMsqjHE7AhOqsGCnbNqwQSNTzNl54+135ZNZsxQYGYNjM47hvUIlD0EJuLAhsQ7+Z4IPAYJs0Mj1AePBv+kHVGlCgJrBcpyfsaf5rI8Wx/GlZKJTgIcPtg7Rm6VfL0U0pALAkxUA4HGu1dKgYruMxx17MX5n7MiuS9odULU/5J0JPO2RCn+AxwYebTAfy9Sypao57HyuoKvQ4nKhjmDlHnjsPgP/83g8A4+xKGA+sYwCF8v2EHyxYx49OPRhMArHe6NZeRCkmguTIMMgQzOYzb4QRA5hpjSw7axDf2V+hk7orOxsGQaplvXr12OebzE6TDLx1OFFth6O5NUIpCdMnTxR7rvnHglFygRlkenfSUJZhbIe9mlG0iEdza6dAemYb0akcwuUUHbvKlAHdl1js7yKxMGvIGPNpm50JqcglWM8HMPJbMFKMLEYpwcE0SnhYCN7Z2QZB+164MHVsiF1we6dkp+/XUlEdtbgAJhazsCjbJAhGHy3JRB6A83mezrq53E8hWVSuAJBe5fRtq/Hznjs4Nj2kZwWrY+0uD3wcfTxOIOI58F15+R2NrWMM3eGj8fV1LKZd9bz5nddWQ6IazmVXd5DGCKkqX8LJta+KEgMwQQrR3N4Ru/Iehhap+kUDiBhFTj/XQ5TS8siENnSnk4OLzJ1ldyBfygjPRXAc7eMHzMaiYeF6vBOSEiWxOQU9fUMAKNyqmA3BhF+ZWS9ozB0EwCOPXHItopLK+TFV/8ja9at0/fQzZ3aK1gmIXE2ASZUX+ZUebKNPT9aj+/oYuCh5x9V4aCb27ZvVucbd4Ts7MADj+6bDqDjCNaeRikQoGOdT6Mpnk54zOR394HjBzzt+ZsC14HQ4EfmmtEbNo5tfRmLyXr5G9XyBDxePiL79RB8lPEgMhYXgTaovZE71Si1KJZt1bo4bnyGDAxvkmyDRZlkO1ZxphPw0JcEoApDUmMUQvEzLrlY7vjWbbpGmPTHxmE0t6jJHgvg0RYdPLYxcvpfJg3u2L5Fdu7YoeYco247IM1E4NmOCBfZJxlPcq8gmRwRK4kEHjjE2+uX5DoujqzWlzHrUuDRlhJ4KOuBvrNmf4a8iVr03siVPOg5++9cdjG1FHScX14DgPk8vX1/ew9AIyRtmC2On2tvsRvvOz7AY7vntkwtlzwF96F69yNif6/94BbjMfDGhGnttdG9gUcjY7h4Km6WAnjYcrUKIfgKMJpGhONZH8W8JWVW+M6fNbzu0IbDdZSC2VEAyZb0D+VC1vrBB74viYiIlaJqna0t0tIHobo9FqbWABUOsFgt5Yt5jipkim+CmkkJpG7IsBiOXw2Jm5f/85rshzQTX8ysjsd/JyPTPg3JrcE+Ao8vYOP43q4HHjCezZs3ydfLlqBfSxUGNlFyAD4dBp422mJ4yuNpFywc2XZHR9phL3Jp9tDuEU8IU8u+ybaRI+QJeKy/O/TjwY1beTe2DNgTgPG0wNQqiUFhMbKgG3C9lZANqoaQXwNC50YBphW1I5i2vZURcoMAFPTxkKmw5OLaq66QGTMu1dwfzuf0jEyNmNHHw9C6fRSZNNiKKNhedSqzvSvPxD4/C6Fi+/rbb8OXWs0r0Sbw7Hs4LihKspFdHmF23gzEJtvexO5S4LGSrHYhlbuoqBBIXqq9RLKysjsAPHbtdJb5uzYC8+xcbh9RAmVuWdmy3uJXdwceayFZdLJjjMcReIxok058k+V0hY/H2+djvU/rv7BBNYF5HIgJlQowHhb3VqEuqgLZwrVgPq1mQqG3uS5aqIn8HJpcjOpnZ2XID3/wA0mEXA5zfwbAuZyQmIS8HiYVojrctFP5rRUlQPv37pVtWzZpUzEOJWu9ZkGW+j2E0i0V01YkMYZRaA9G1xBEtaLhOu/DBncd8AP6MmbdAHgOy549BSiWLMHXAc1pyMzM8hl4rNanHZEw9mbAAgE8hrfCBx9PuyaZ96aWP1EtT6aWzVlvvtE/4LHWjskJTffOiQI8lIph65Sy2AgpQ8fBFjyiGpRDlFcZwNOC0LsvL6PyHQ3lUGSqHQ6BBrfcdL1cfOGFAA50XcLvGFJPSknRKJfK2LDODSc5hKziEoj65cN/yranLLthDs/Mj6Am+9ksbXnBvJ+DqMEKgp8pB0XIw+HniWPZCkt6HJI6fblmb9/bDYDnEPIbChDZOoDkoBL18GcinN5RU8tJwliTCb3N4+l8xuNLOD2QPh6/gMeDPypwzmVj/I1N22hCbgp9HNc8Hm8Xjuv7yHjYUrYJJlYpTK1y5PEwvN6ITOeK6jqp0ugVcrodmmF5cy6jfILV6gjoY1CGDc1TddIsbM5sjcpyDbKeYejdE86+QiZVpKlVgc28YGe+FO/fr/I0hKR33vtAWQ9BhyUT7E7YFyUbOXBQDQXwxLImz7XzozcX6uN7ug3wWIzHX+DRUgmgtX63yia08LHtZu/ejJmvjMc5vmCcwRfgsVH4Nhe+94xHz+3oH/GBRnsq3XAMp1v36K1/4Fh25JhAiKOYjjnbWHZbHw/D6WA4YDmNaPZV2j9UqtjjBxdOBYcaRLeqkPhXR9VX7W3j7QgZUNwXkTKWUATDjKPPZ8bFF8sVl1+GEo5WlZfuB9YzZtx41Vy3mAprymrRabIIm3rhnkK0dKWcdi954613ZM7cL7Q4l05rZoeHwMoYdhjdINE9AeWgTkmB3qyNjrynI8AzEtLcpWhPG4Bm70Yh3e7du01Ty3/G4wQ86usxJIG7BfCYAOBpMTs+yO7g42mPfQUOeAx4saJaBuOxSiaMhep/AqFpuxlncTme9yawu4VG7fFmhNCbItFjCV+V6HBo63AJs6cKDd4b0ELCKDpFSwxTWsY6FiFXi5u5KQBwLU0ua1SYg8OQOZtuUZniW7feijquMbIf9VcctaGjRqN5fC5UKlBfxrvD2DWxtQt68BRifVWg7Skzq19/4y2ZPXeuvoepK8w8jkBS4Qjk8mSym6WWh/gCjB2BHd8TCK9E5jZLJkrRwKwTgAeaQGpqBaJW69hwOgGI+RPWDPdleH1lPG09Dp7zGxXV6qRwugE8BlCcCD4e7uBMHmyMIPCgUyVItiE3RNZzBIyjGZ0N0WiLelm4L6tSnW8g4NA3ydIeAg/nKIHD0B1H8qHNPIN8DMCnHzr/TTvjNLnlxhugbBoCkwt9l9AwftTYU+APoiig8TqMbOhKuDD2I3BTBAA6DD/Of994Qz6Bj4dyxHRcs3VLJBIdR6DgMwO9kcLZqsTLzOWOQY7xKV8ZzwkMPMbe4biveQs8gQIdPT8fakBMneNjahljhlcbJl9gGI/BSB0TCO2M58QBnkYATwMZTxjkaVDp7vicW7GgG7HAqfBxEDk9xFR+cT4SeLRXjwU6dAQz34slFwAPR513bp7M70lJTpTLLr1YLjj3HO0cSPWKcRMmoT/PAKNDA0cT52xAi5Kykv2yFxnPh3HCV//zOopEP8C14DNsOMZQfWOLDEFUi4wnCiST/ZG7W1SrU4HngHbA98+53Jap5W8ej7cg5WkXCFxk6/gAjycnd+CAxxg5y9RSwDuBGA+LS6n00RARBuDpI7VwLjvOGf7MpMFGhK/r0YmRumgQetBiTAUe5uEo8NhBR1kLEmzZKOwgkhAtU1NbrcJMGjN6pHwHjuZEhNPJpMaMnyApqejtDKexKbGnrKcW3SBLEbghgP33tTfkhVde1TweFqGGMEkRgJiFgrPByOOJgcnINhmBmu9trYduxXgOIMOSLRY7FtWy5/G409XyB3g0Sdja+T0hixd/N2M2XrzTcEi7fx0f4LHO3dZ1BAZ47JTKDjw0N6zpb37vts5l1mkZwFMfBeDB9zoX4LGYI/O4CD7U1GpuQU9L3LDK42gCoPmwWelutk7l+NInxGZhVh9nghUjUimQG775+mvl1KlT0SmxQYaOGCnZeUPVF2RHDph1WFPV8PE0wOcz88OP5c9PPS37EOki8FD5MwyMJ6P1iOQiGxo50BrV6uxXNwGeAg2lk/Gw2XRHgMdVwtg1gdAv4CHoWHPCzyfibcmEpwV/vEombNdhxwanEfAHeI4FdPdKoqYV5pTp291qtWyMBwqlB0IBPIhquQNr9fHhP/VgGYx2sd2uBkCcMo/5HpRVqEkGcwvAw/w2G/DgGGybQV/PBWefDSmcy4AzR2RQdo4Mh5M5FFXtmhXNXBx8p4pHC4CrBpUBy5Ytl8f/8hdZ/PUyCQXoME8oGHVcqa1HZSikhuLhB+rr0A3Rz+ne5se7BfAUFDCBsFgTCDvOeFwbgQW2VisQ1NNnx3Ibi914mt4zHn/yeKydujN8PHpsF3+Xo6llVPU6eOW6MePRhYTWqQ10Ljv4eI5deYYJRgczSynq4GthmwtHxqP+FbIere9CdTtqvshoHIGHCYCsXp80/hS5+cYb0Rg+HEmE6PMDB3MkCkct9mSVnXAcm9ECdTfW2iuvvgr54n9BM75B/TwhSEaMwdfwiP6SDlWVELNBmPXs2yTdfqCSr8BzFcpFRiJXiZ0seiPJ8Zzp56Iqf4DTmLheTq+K8oo21q0ZTsdgkO0wl6ezgMefcLovzuD2noWveTzt+1eOD/B4Cv37k0DoCXhU5M5hQJ3C6QQto92Ac16MgVy2MijnELxlMBuObNe/+bO5cCE1waHcEB4sByKCpBaO5raLgY02GhTVq0DpwyE4e5xMLfOetZgU7IO+GVfgYWJsCPJ6Rgwbqs3gk1BG0R9qnmNOOcVwMJtN+2na6RiakkF1KJ9YtuxrefLpp+XzeV+oFhg7K4YC3IYijycHvXnC2fjfnYngB9C4frSjwBPAPJ7DUlCwC9Wy+xR4qOJIU2sLmr371/rUmfGciMBjLUz3z7ubAI+5+K1r9AWk3Zmvzs7ltluf8ny+aKfrWDqEpTsDeFoAPI0Ib5dEBkk1cnra70JAVRF0OYQIHn0+3MU1lOQCtGwwz2bzjaj5IvuxXoxusZ3q4MxB8h20yxg+ZIiEoDMhTa1YiEVazd+tVrus9eI9s90p9dM//ewzefSPf0CN5D7tKNibelio9xoWBlkmmF3hAKLOfPkKPAGNalltMTZv2oTug0s0C5MFcNmDB6vKxKxZc3xQmfBkah2r8uPtDufLYgok4+kOwGNMV7w6NZxuHzULeOzhdPup/U8g9K4DYUcWHJu9U520CZnLxVHBqlhBvw/PyJnH+7KGUINZ+KLGfTUAhT17DFli1dy0vwDqlEI6aDIeRyUK1W4H40lPSQbjuVXOnnaGAk9qBlploFcPw/OuJrYVZ2uFz6gAGc3PP/+8vP76m1JbW6MtUAcEh0LyGsfoHSyxTYfAepjTY7BOb9eKt2PXEeAZOXI4yAn02tAp0S9TywKedWvXymezPoG8ar0MGZInubl5tlqtJSjjp064O4XoMAxHDu50aq9ISYXErqpMOJZMOGQuU7bVevnagTCQwKNk34fM0MBEteymhwVmvk6ktsDHH1PL3bjyOduq0zW6Esiey51nainwYL41oki0NCZMKlk+gdOxPouaaKGQomGynjXunI1ssVqLUHk16riOYDAsMUDLMcx7V1MLzl+aWo7Aw+cYjAWYjMjWrUgkvBoO5nD4dqLjBkp/dDikSJ/Oc8cHbUMQRNbg3/l6yWL5CyJcCxcuhEM6RAYlJ0tvRLgiEHFLBV2LQh5RKJ3fMLsC7efxGnjgdM/NyZEr4eMZAeApCwTw6CLATeXn75BVq1dqoSgbGw0G49mMXrSzqTKhwIMdwc2t+wQ86oy1PwVfwuOBBB5vVSbaZzsmBXEEUxcnrevO09FarePPeOydIu0+nu4eTjd9NvDr1IHxVKFItJIKswCMarAJkpn+0L6KcFD9tICnDtGtStRxEWIJFi6URxuIMYeHPXiMMguCgAEDNLWYw3PT9dfh61qJ7B+tfp5+UJxgCwxbVMs8qDItEiuCO45Vhkjya8hkfuaZZzRL+nyIBx5F3k/+mnXSq7JGktEPKPrQEQlDzlFf+KECyXx8AZ6cnMHCZu8BBR6OCQd1H5oWrVu3FgPdarbFCCzw2CsljIfma3sKXxmCO8qpAOZlOronp64vUS29344WiZoY5+5+bMd1GBxfQLo9xmNtSlSgUNZjUEXbZXSvcLohaVOLHjyViGiVoSN8CyJO9WA7VZB3pm8pAgl/MWjIHqTKqcZ9HAU4GMAD3XFMUJoQ1kuBSSNbhzR7uS3gSQDw3AjQufmG66UfgIdmVkS//m43amsTMcw+VM/DhFuxaoU89NBDsmnjRrnu2qvRdhgKLxs3y/LFSySsuhZyN30lrgXKuBD9Q/mZzWx0nA8dWRvdAnjoCGtGnsGixQu1GVhGRoaqTPjKeNqTMHbxgZrg09Zyctl3TJ7ZkQF2ekAmK/HW1GrPt3K8gMearMfHx2Pl8RhgY42T7vJdDjyORpLz/CDoNNHEQkuMol5U4IToHcwe+m6o3MmM5WD2zomKlH7oJMh2o7qEYWrVgRVV1tRqFrOjFLECD9ujoojayuNxNrVYOtFXkhPBeAA6119zDaJZcRIDza0wVRptxzgyWc8ROKv3I5HwzyItqlcAACAASURBVE88IR++/56cf945Mm78WPUp5W/fIasXfy0HyyolAbk9A9CLPuIgol0wv/T6XTYb71aS/V3dAnjoWHMU9OsY8LQvYexvVMsaMn/Ax9dwui76NueP91EtfxhPZwOP7fg6wI6tT01WYNa2dS3wuDpKXBYQTKza0GAp6nNYSsF2KNhHl+yOgj1SiQJOMhf6ecLh54lD0l8oMpUt4KGPhy0zWDmuZRO2l0MeD8wgJhBaFe3GlDCAJz0lSW6/9Ra54rIZYDvxaPwej2zkUPthHDwM7u6Czebff/ddefaZp2T4sDyZNHG8FqyyTGPrth2yfsVqad5/AODTRxIQVItAqD2YjcJ4BZYF3AEH0DcIeNw7l1k+4Z2gX9uYHbCsZTwgX3w8gQIefxII22dd9lwaGzB78DUdM8oWCzT/oH4Ey6Qya4Y4/l0HPEZRr7HInFeYit3hV1XhIbIfzuTy3oclbfgQtKs4RRUvt+3crVXp1cidqa6qkkPw1cRFRUg0GnYxvE3GU4O/s2UGj+UIPEYCoVGZ7i5z2YpqDc4aJHffeQfYyrnQ2YqXfvCRMjSvqQPsS0UVXddomSO84Tz5O7bJX596CnVdzTIKPW/6oulYCdpPrFm7Huqj1VKKkPtRsLIMVLAnIv4VjfB/H9Ph3FG/zzcfeNhuwGsJY/fg44vfoj3K2VWMxy/g8bCb+RPVcgdWjsBD57LTy28fT0fD6YZp5Ppi+LwRDt7ycITQg47KwMx0mYKw9oC4WCktr0BvnHCohmbAwVwn27ZtUzWVkr17JJyNvcCS6K6tRcFoNcwxMqTeOJZhwxiRPQIPc3cOYqGzAt2xe6GVxzN6xDD5wffukymTJ6uMcR/UaRnqFYYaaBjC42GQx+kN/5Hl3dT7MD3NBKhGRNW+mjcXqqZbVdWiN5jU/pID8v4HM6WkpBTHQoIj8nriewdJOthUMiJe4XB6B7M3c3sTvp2/feOBJxCNwAIFPKz59dVUC4Sp1anA4+A86ygzdBxfd8BjTW7X+/A9gdAey9Tn4ARkvj0bJgc2ACiqWSIBvAhNT5IJp02R1NRUda+0wBk7IBElDGNOkSA059oHOZmdEDXYjADK1g3rpAIRJQKEAg8WPuX8tFiUuut0oZjA04pgSxN8RccojYLFRAAkpp02Vb53372SkZaOczZrp0GaT5QnpskUgdyeuAEDAEoxmqXMzoOGu8wANkazePxKSIdXVJRLDbTca5DUWA+gW7F8pXw1f4EUHyhTgInCfSQBeDKDwiQRfp9I3CMLSjsCPicN8NjzeOwTzFsQ6OiCcgX8byTjscoWLEh1yFXxZjN0HltX7fS2M5e7MqpF0NEoVliw7Ecleq8B0TJiygTJRQ4aF7a+wLIHJqRpL+SB8QnIUWtA4KQMC7xUVi1fJl99PkfK0caTC7wKC/2glk3QLWD0CVdg0ByeZvTOMfw71otsh5I38QPi5IZrrpIbrrtW01JYdlQL4CCY0DHN9/F4dDb3Q0QtEiH9YPiZlFGx0RhArQVsiq1oWuDTYS5PCKJx1GevqKxE6wwWla6QBYuWygFcexB8UDFoo5EcGiHZYHPxh+BER6idiYa+mlwnDfAwnM4u/cY6MR2X3qwM8z2BAB/rGL74eU4YxmNue3ZO4Xlwj2WSrsBjHM0d4/EPeMygTAcZD5u6M1GwAqHzkrAgGTZpHLr/oSqc0SRrbgF4omPjJQdtKjIzMzVHpxwqoBWV5bIXrUg/hkN3A9hPE1gKTbFGtsjAp+mPJPPhi2BDNkLgsQpECUpB+HsYqspHQH/9vnvvkcmTJkgrIlE1yBmqr69TsCKbOgQAon+oBeF4MiAyMcMCIDiifAKAYX0R6IIAKgPAjvr176fXWllRKZUAnwULlwJ8FisTCgHg9Uf1+6C+YZIN5hMLkysU5/G1XepJBTyuqHy8GY9lWvuaQ+R+CXsf1Tpeppbenw/OZft7LWjR1DZbrhN3cSPnxQqfOD+xjptaxkzoSJEor6gJdVgVNLEQwRo4PE8mnDoFonoxTscjBwhFtXdW1mDJyc1V/wslaZguUrxvv8yDci6/6sFQyDrqYHI1ESBM8GFQhC1Q6dsh8HDH1MJQOH75lZKUpA3fb7r5JhkIJdHmBoTtwWBUoYPsCL4hKkiQzZBt1SJXqA6g1AwHN0HIaSTp6QZQ8ndB8AVRiz0mJkb2FhWp6VVWViHzv1ooS75eLnUAnwhUtA+A6mgiCkoz+wRLDEyuYAAQW6Z6+zqpgOcY08fLUfJlMXk6pCYQ+rg4/QUeBYSOJhB6ci67JEj5em/GVOVJjBNZPh5lpew9zO8IKXVdVMs++gSdVmQk12Ph70df5d5JA2T8Gaei61+KmkmOL2a79O4LsyQ1DWVAw1DagHIEhqnR8L0M7V+WLV4k77z5mhShMwPhtgXO2zoADMEHycImz8P70Z+KTcA4Lmz0Tqmb9LRUtDw9Vy6/4grJGzIUJlKw1IJJtcBJ3fvIIelFrXYUW7MBGJUoKJLJHsuN+DdBjMdkyw2Odh84kmle9QkK0Wxn9ecD9KL694cO2CHZs7cIvaLrpKy8UhYgqXDlyjUaxk+C+VhTXCLJCOulQXs9Go3ECD7OfRfbXg3dE3jQuHrLlq1anW7UankumXBsBKZ2siVtY6pM+NMIzJfF1AM8zuVB7Y1He6aWfs7wsho/Wv82D+ifqdUxxsOiz/qQIKlhg/XYcBkCEyt3+FDt4ud810ZZKMPlMbEDJW/oMM3GZ9MtsrRm+FPyd2yXN1/7jyz56ks5CNOIn2BBKFuiEpyawCJaASA0k1irxSbvoXDusg3GpZdcLNPOPFMyswdrtnIfoHJ9RZm0VpbJ0YYaaayukjp81UPephmgQY0tmyPdqJlQQb++OCZD58GhYRIE+Zy+uI++OEdvmFx94cdBOEz2Q7trT/EBleah32cz1mUjKg3S4MxetXyFVOwqlCQUlQ5C58J+MBdVDNAcjfb2rA4BDyJ4ZF9+F4lak9I1gTA9PR2Zy9tk9uyOAU8vUEe1ZR2KRNX95UIFvSWGXQo8Fg04ZgV7b2p1f8Zjv0mD8ZhhbwfgOeYeDCSyRYBsw2McwPaoA9WPh0DCthdVcCjXRIVK7LDBMmryRJhQ/c1zOc4mg8Gx8JN+n+ycPBkC8ImCg5cvboKUIF604Ct5/dWXZOfWrXy30WAdn2mFKdQEBlSPDZfN4VuxoEMACENyc+QWmFanngaWlZaG40UbbU5hPjUdgFlUBBmboj1Swm6eyCNqRoQrKhyAguNazOcowIxxLebh0C9zFGsEB0HFaTDC/wSfYEThQtFMLEoiAZqCqNg+dEosrqqx9Qai8zoEfh6C0JIvF0jLgXIZDH9PEiJdYQQfmyxRgBlPdwSe1ND2ey77m7nsLUgFivFY57P5pY7ZPnwBno5Xp3uqGbOacVn37QtIH+vjMWqB7AmEzq5q/9tiWMfzjfHwU4esynOYWJISL2MROk9Kh2wwNjiLfRljYPdX6c9gFslowM7OgIxuWe85CGZTVFgon338kcz+9EOE14s1+GFcGRIT8b0Z4FOFxD02DMuAeXXbLbfIdBRyJiQnSX+YQkFkWjCtjtZWSm3+Vtm9ZaM2dd8Dp/Ca7TulASwlJTFREmOjBZipzIrvj4RjvD+um65wJkAegeO7HtdZj/OxN1Bf3NAAZFhnwEwMR9FpY0SUFNXUI1TP9h04kMmaKMu8csUqWbNkmYTUNUoW1mBSy2HtaGiVVSiYulkU3xjG01ZbjEBlLvsKPDbAcBl0Um1Pi9nYy+3TWH/2A3g61bnsh66W3qdOTPvNOQKPlUBoG8suSiDURYJoTi1qsWpjIyV9whgZDoWHYK02t187nxPbYJQi74Vh64GIENEsIDMZNmIUmE+OOm+5cGtrGxD+LpW9e3YjeW8OfD4LpAEOYKtrlIIP7rcGi5us5NJLLpGbb7pRfUb9kZ0cCr9ML/z9SBOkkfftkQPrV8lmFHpuKyiUGvhaimAi1SBjOhzmXT/1DZHJIIkQPqowOqcBXCmxMap0Wg1AqWA0DCH9VjzPVjClgciuzoImO8swjgxMlFLUabGYleaj4/wshemzdOFi2bZmvQxEWUUOzK5+8PewfSqv79h5a8zrkwR4/JMw9mUXt3DGmo6OgHVC5vG4BT07mvqbuWyNrVGW4BJOJ0ibEOzqXNbJa+UQOZrQ7ZpavmcuW2ynhu0uIkIlLCtVxp51Onw3MQ51mIZp1QIWsyN/pyxdukyiUBoxZfIkSUtJVV9KQlKKDBk+QuK1lgo+IgDKfjhnWaO4H9nM8xHhWrtqpZZVWAkfXOT1MLUG4DP3fvdemTxlssSBNYWHRxqJhnhvS1mxVOzYIgc2rpFN23fJ3CUrpRmRrfSsDI1+0dEcDNOVSqR9AIb1AIQm+GFikHyYnpAgDOLTccwQfSyiYwTOSphpQQChOJiVg/PyJCg1Q6pgRpWzfYebLom7d++RL+Z+JZUAvaw+IZKEvs39yZzaaZ/6jQceK3NZnX1++HgcUd4NczzmV98U4LHddxueQn+Ax2JydnB2Bh778wpUVMt34KGJ1Qw7pRyL8GB8jAw/dZJkoR6LfihDGttAZs6vCmhVUZd8/br1aoJNmTJRToP0TDTyYoLgAyFbGZSVrSYXI0jFKEuoAYug9tWu7dtk5jtvwfwqgDUEZ7BpztAkY+Tqu/d/T/LgWGYFOvNtGDJvrqmUpqJdcgAmVs3unbK3uFwWr9ok+TDhesGcSgSwJMfHSW56ssTF9JeD8CPtKiuX3ZVVACS0NwUTomO6HxILc7MyYdpRTnyv1KIivQoh/4ykOBmHHKHQ9CypQblEWQ2LWc04pObEGYmDTBNYhbquxXPnS18wucFQJE0+eESCEBWj2eb8Mmwvg0X2lu3I2V5RWyH1R1GX5oYecRxt/Xi6p4/HQwdCDVpa3e0cIiXeoIhpEvgKPq6Htu3uPuQ7dHUCoXUP7s09zCE/TC1PCYTqY+7ifjzNmPj16LNT0S9M+g3LkUkInwcjqsXFo5uaLkT0tsEi27pjl3z4yadSvL9EE/PS01PkogvOk6F5uWAUwXDIRkh8cgrYT7Iko9sffbDMZm6EqcPI1doVS2X2xx9oT2RrUfPYY8eNlzvuultyho3Q7GMGT1rAlBrQOK+1GM7kLeukuawEUsZNsm7zLkShyqQYLKYe0ado5BuNHZIho0cNl2BI7+TD/7MVXfxazCLPaITGR+L64uAkz8/fLZu27JASMJdYgNukiaMkb+Qw6ZucLrXI8ylBf55DcHwb+GD4y3RVAURLSitkHprH79i4RdIlCMqkwahkR34P+0Q7zned0HCl49tJATxG4Z1FYo3l5K3fJhBZy+bGqNfgrU6jMaXN6/TDx6P32sE8nk5lPE6OR+MGDUvJMLC6PIEQF1ML5lCJ6vPDiXEy5NTJkjwoQwrgl6HxnpGRrrk1hs+mTr5Cdu+XSLSrRxSI9xAJVdHTkFx4FgpHY5GQx0dA6WA6jSnCN3TYcO3DU4kFXQ/nbF11pcyfO0cWLZyv4XCOBcPep4wH8NxzrwwZOVqjW+yjU4/+5A0VpXKoAtroW9bL0epy5O0A/LbukoJCmHBw8vJcByFpkxQXAeaCmjEwrx0AnT2oOEc/d2VsMUgPGAsmFQZTKx+m2pqVa6UFx84DaI6fMFYGpqeJJKQAJEJkH9gSFUvtTM9iP31wT4fRN325LPzqKwnDveSgpIL1XFH4PRMLFaBtCw7+K2Z/I+WlyxlPExB88ZJFsDfLsFP4Hk731HPZ3zweX4DKE4nyVkm0OwCPw1xxe1uBYTyOzmU7SHalhDHvm3k7VdBCLwdTSMLOP2TCKbIf7SIWLVoIx3GsTDuDgNJfw+OFe/fJx598JhsRYmayHqGzL80EdPS76MLzNRTOuyzaV4Qq8G3anH3q1NMkPiVdq9jr0Oe4BuUJewp2Isr1MQBghbTC38Kkw6HwDd0LU2s0JIoZPmeGcg0KOhsBVNKEuiqYWc0le+HLgb+mpBzgky8HSipRi4WkwcZ6iQzvK2MnjZcWOJh3ICenvAl5QshSJFuJge9qxOAsiYGzeh98NfkbEdpvbZEROVmSBwd6b6QAhKVmSktIuOyECdeM0gw78HCnYF1ZL9RyVWib4nWowO+NLOxEtObIQVnFQCBcEMxCzYt2iJioAKICz+GuNbUor8oHWllVAeBhB8IO5PGQ/jIvQfN3nOVt/AEezhhrzLxlSW2BDz/vLeNpn23wohwiKm2ELa3r8IfxtHcdtuOaA+OLI779BELckD4068uFten5Oi+PhwuDeTtlEcHSkBAnY884TYLRQXDOvC+xsLcCSLLlQgBKAsoLqAa6dv1G+ejjT9BGoszWc4kLNLpfpJx91pky7fRT1aeyb3+RbN28UaaMH43cnqESn5otyRmDJSwyWk2usuJiWY12pJ9+NFN2oE1FH8zlwTm5cs9998vEyVMRSQtV4KkF8NTVoPUGSyPqa6QWOTyHa6sRg0dUbV8x2Es+6q2q0CS+EZnNfWXYuFO0mn7bvhIpa2iWMvQAagEbiYfk8ojsDEmPi8bna6QVfqreh1slDaZgSEKSwKkkA3OGSiM43lb0Rqcgg6Nv6yCc1XvRr2flqrUA1HxtSt8H5lgYnl0eHM1MLFSdLpu0kDEjfQUeyttQZSJgCYTMC2hAnQm1tdavX6fLMmPQoIADD1HZtfGB1yASQODxNpxuA4w2nLpqlHQD4LGZcQEDHsc8HgvyTJ+c3+F0C8TMueB0POeuBey1Uw82wAZfA8aNlFzoVW1GTx06j5m5OxI1WjMuvUSF9OogUTN/wSKZ98WXmMvNDvMMCYSILI0ZNUJ9PSlJCXAo75f8bVtk8phhKLVIltDIOElIy5J4fPXvHyO1MLsKC3fLwvlfyqxPPkYjrnIZiuTDu+69T06ZMFHD6JxDDWA71fgba7KCj7TC5CqVyj27pC/YCv0/JXBcV6BhewN8R7B4JBgZzpVgObvBTOirKauq0yTFWAgQ5qYmSVYCikNRmxqHyFcks6TZ1yc6TmKzciQmLVNqcJxtYGpVMMOMF1Q1AIA74Ndaigr23bsLUZAKM4xVA7g+yuKkHe4N1hMqA+AWCgX7cnz5GtUKOPCwGre4eL+sWLFM9u4t1PL9rKwsU2VijixZ6l3JRGebWl6DVDt2lq9sR5ddAIDHrzwe637aimqZzMOihB1jPI6mFoHHjD7pN/vIBy6B0DxqO8DTAF2sCvh2qsF4Rp5zJtpg9AGwzJctYDts1z5saI5cdcXlkgpdq30wXz7+bLasgToDzRvHq2aYOiMtRS48/1wZrfIsB2QnmMyk0UOR3BfPJjwSHh0vcWA+KQhbh4ZFAmyqZMe2rfLphzNlxbKlUFcYIbd/+9vw8YyUMITS+ToIcKmCW+IgsptDkBQI20uKEVYPQhdB1mLtRUi8HFGoo3ASM1enFAznQF0TMpBrISKInj2IYBHAUGAvSbH9kNMDhQo40eMiwgFGofgZ2cswsdJGjJZwZDBXAWy352+XysoKG/AwijcPDHDdhk3qXFdVCx0d+HTgOY9F24wMAE8mzC6WUzhOoS4HHobL9uzZIx9++AFUDQtRUDcE4bNc2bQJKhOz5yAnogd43GOZ94zHL+BpE/iMqwqMj8fYQY3/2oHHcC7bXwEDHqM2wW11OmGObS8oU1OEVRmJroJD4B9ZvWGjLEHzc7aeYE7MkNzBcjXofzqcr+s3bJaPP50lu/cUOml581h87wAs6jNQ5nDO2WeCpVQgdL5FJozKk7QkJOfRyRscJpFxSZKUlo2vTH4KTbkqZMXSJfLZJx9JVmYGCkKv1DKJSLAiuhNYeV7LeqyaKmU5R6vKZO/mdWAWUB0F8Gwu2C07YfYdRs4Q1SzqkdRXXF0vpZW1Wg9GHTC++vY6IpFwMCfHQJMLgBMMdhSBJMMEEIC8CVMla+RYCcHPVMvYDlOLLVyNh9JbC0g/AeAW7t1rBm5M0wDf+BzDwLDiYWoNQSV7An7uDbPMKqXtJsCzW9599y1QzEIZNWqUCvoFGng0hOdHHk8gGM83sgNhJ4bTjVJpe/Kr/x0ITSalOSh0djqzKWWk9O1g4VUjb2c3NNBHTTtdjsDs+AJsZ9euAvhzIPOC9+QOzpSrr74KxZKp8iW69M3Fzl+BULXrqxfSASLCw7WX8eUzLkH+Tats27ROxo/MlczURL2OIwhVB4VESXRiuqRmD4UEcQI6Dh6SnUhGXLlsiQyM7icjRiCUjvopqkgEwVdE3CDbqUZjsSP1yAWqKpXCdSslGJnMrVjkhWi9ugWO8LJmVKdjubcgq7iovAoA0qDtNggehq8GTnC8I6F/hAwEQAbh3hkCj0Xri4lnny+5o8cifSAUrVzLkRyZjxC94eMhs9kOM+vTWbPQobBUHdVcX9QB02RFmKp9ELLrBwo8BDlAgxBiD3bI6+l64AF67wXTWbBgPhhPESSME6HtMzjAwGNlLjv38PUWTJzC6caz6tDrRDS1lNU4rn7X2w8Y8FiMxx5Ot5zLNh2qAPp4DMe0PcxihPCxcLQCHU270FmwLnGAjDvzDFm5dp2sWrVak/34Pq7XbLCQayApE4sM5k/AdlasXK15M64Ekcekn2cQwvAzLr4IiztGNqK8YdzwwZKbmaZmpcHrAD7ULUe71MT0bAmLipGyCjRaLymWSESjKI3DuEl4ZBQUQ5GzhuJThtqbGmqlAb6e1ppy2bd+jTQV71U5nRo4dLcjdF4IMOQjwj+lhMADM6sVgMD/KTjgZhhxiouOxBd1v0RC8P6BOMfU8y+WjCHD1dzfDVJAZkO5HQt4NkGCataczwFKlXoHVuX9YZh+oXCCB7MeDOdKB0ixaViMGeHidOpy4CE67kOIccOG9Ugh3695CoMGZQYYeLjDGVPC0cHsNX6YDNLyX1iyHr6iT1clEOp9+5HHo593WFF2F63ONqdh8N/HYxAROyOxmoEdG9XSZ2m917oK3Rh8rU6353gdxHyshMO1DDZH1Ig8iUL2L7vvFRbu1W5+isE4B3viXI+Wo0wU/ARh9B07d2nL0WNfFOrrI4mIfk0/+yzJg4m2dtUyGTs0S0bBT2Tkt5hjiFKDIIStIwckS78BSXIUTbaaoEKBMBayn6O0rKEB/XSKoIUVBdE++oQiUcbB0onWumqp3ZMvpds3Q9WiTkrwtQON2qvBinqbnQYb4fiuBjhSRJDgxJ7NEQAwujtCkRQZBpbHnmAhALRMJDmefsHFEoNSDzqUd6JvEM1MK6JFxkPfzpzP50k5M6Fx4zwmG5dxnKjrzt5B4ThWPOZIFszJlMPonAgm122Ah87lbfD070cokQ8hA8LzgTa1/AGegCUQmmzBp3B6AJzL/gKPOwe3DW4UJezLrePAY1BJEzdMQGGuiQVznQ08MHlwBc1Y3MUwsQg+GUig20eZl3UbtP+w1feYwJOYEC8XXXQRIkcokkRtVhmS66z2pNZoWJtcX/hYosEmJiCkPXHCBFmFDOXh2SkyFcWmZAVwlJkFlciJYREmfCIhkf0lov8AmE2CaNIOAEwEWp2CfeDPcxE927BxkzZxT4J2ehx8MOG4+j7N6DSIvssliFztBwupoJggQCvkaKtEIDUgFI5sKpY2ABgOAiTZhJ7qE614aAfpfWF7DLAgtjcdhq6J06afq715SnDMMphujioXBB6mEMyZOw9jAODBmByGicfwPQGYAMXkykh89cfApsLcykMBKRMK+Uy7nvHgAhli3AYvPhkPZ1xGeseBRzvBAbY1rOfYj8cNvfGW8fiymDyxoBOuA6Fu8e72cXuWcWCAxziHATwmmCkTaBt4ApnHo3LBWPSNcLQWhveRJkR6skaPkpVr1souJNZRQtje91i0dCEH1eZMBdkPBYl6hNRd5XgM4IEpg3kYCT9PLnJ/zkDS4SpEcJPjouSicyGFg2ziozRfHAaRLTGOYqGGwPSCRwnZ0ItkF5zFY8eOleSUNP15JwIylKFhkmK/iEiEwPsi8e+gVKMhWCnyd+rBani9dB4PAIgOQrg8KTZWomCq9QKwtJKdsE8zkv2qwKrq0R+jGp8pQGS5EfcyGKKE5517jvqVVLVCm8fb5wH9Rgo8n89F7l21/o01WxQe1AgX7ohrMRJNxvoB8OLx75G9QyUON6e5Rz4mEAY+nI6Hvb94n2r6kPnwYfkDPKxjsboP9gCPAxMJsKllO3JAGI8d3WzAY5kgujsYW0TAoloGvDkdjy0oDmIRNyCatSsEDdVRWJmIkohFS76GxlQJ+iIjcmSOIR2p7CYYjtAz/S4NWLxcnK7Ob2uMuPuzOXsKQu+nn3YadMrXy+GWRrlw+jQZMyIHOTNIeEVFuQW9xkZHv2Rv1bTay2zn/F3ajTAoBLpXqPtKgx80OW0QmoShCtzsstkEcMzfsQNACSFBVL+HwFFMNpSaNFDiY6KlH0yfCJhUwSwyxbprxf00gY20wsRrQNRr6cpVMu/L+YiWVWti5OWXXSo5g7PNBvHOmw+BZ8WqNZq7RNOOL5pYTVQ8tfTQyHrAqsh6BsCTNBIO5iR8pxIpuWyTFol6l7ncScCzX7M094P50NnmD/CQ7bhrfeqyPoyJfOxG7vY3gWI8xt7tmsbY9kW4OnWd38nZad+CPF2jPz4ed85lYy9XNOiwqcUDGGNivw8DeI5/B0Lu0TSzqgE8u1F+FTc0T0LRfW8h+gyXw0FLKRhHIAnFTk45GF69FnnS/+MSNbU/LwAVHMwU+iNrKYKTthRzPQfO5elnTIZZkynhjGPr5zEC5riwTQhfZGOtiBbxHAfJJvoESVi/WIThQ6QRdWGUugnGAifAkXnR/CPwMAkwGg296MsJwro4Al/QEYDXERyLNWJHYAL2RnvTI2BXazduls/gKKYvi21WB+Jar7x8hjIfm2SPwwRsgVk1fwEawC9dNM6/zAAAIABJREFUrnLHvHSqWxCAHU0y+o8iERWLwzmGHIXkMsytCAAP77TJh5KJTgSebSbwHLYBz5w5yOPBjtPYzGbXx/L9MFx+Dm5gaq9I8ZRA2B3C6ZxH3krbtJ04aJv+XgOPX3k8PF2bfiYHs8i8LE8A6AqzxvuNthJmp2I7c3AT8rY+b6zxwJVMEFbYT5lO5f0hvSQdcjXs/EddKZoSVPR0BJ4wAE8IGARBsgGLvRULur0XHcz9YVYNHjxYG3SVoQkYuwLmDc6Qc6dNlRG5g+DvMWRnjDszht0IZBjZLyrPZPpHDsMPRDOMEjQNUH4INmVxyPg5lhoxh4nTh43H8LvDyCo+BNbGFhy8FzKeILQvRaNSWYs8pAVICaDTmrVgNAvj4+Lkyisug0Bh8jHAw22B5RgfIZqXDyZ2BChG/5fh33EeB2V7GKcBYFmZR/pIlka3aFqiYLa7AU86ZF/pXJ4DBP566TcEeMxdzFvgsSZf24vee8bjF/C0Azp6jX5EtfTzJvBYdfiuHQgdTx+wPB43phbbb1VDI2t/76MoDA2WnPHQP4eTdhXMCVaeO+7iDGOHIc+F5hbDy2Q8hxwYkTsAIguPgr8kCekiFC9gzROcOxIM9BmaM0guOPsMyUPzrr69HADOZFCa7IeB4lgcRs4Pv5pAfOrBNJjvw99TV4tqo6wEIAMKUWAMV6WIUjjIqQwRHdUPrAggoXrsh+BbLVUf1jo4z5mDRGYTDtAJRdlEduYgyOfMkBi0y7DyfYw52UsLRReD6SyGU52gyxdlllkNz8p5xxc/GwIwi0UmdCpyiQYjupXAXB+gl7bFwBh404+n0xiP+nhMU4sd7Dcr8MztMPAgQUEfQqAagXlrlrW16/lqZlnH6fKSiU4EHnu0UPd2c1rbfS/26nRjNPz38bTdCKwFrIDNvgrBI5rQeycXwLOrYI9sRPRIHccOZlQfzKswmC+UBKZfg4WRrhEt13nABUg5YZYEMdJkOGBJSxDWxkIfPmSwXILSjPTEWLP3ssEDOW/Yu4as5ygAp6ahRXYVFstGVKDz+qiVng5fFNtuBAMICTpaRwWGU41+zUUo4GS6CkEyBa1Mo+AUJ1hSMWJvYZHqfLHrIE9E05HshDlDpyPTegqagAWjLQhfBvgQdA7KFkTZmFDJ/B0+I947QYd+MHcODPqUogGESXjg2Wgkn4ZSij54FOrj8RJ4rkB5ykgkYZYjuqYqE+ecC/HBgccAnRPoVZRXtLluSR+NqBZMLTiZeeFpYDybN232C3joYDYq1KmcaNBPy6ljeVm8BRNfzYc2wccHUyuQwHPMorUPRVuXavu9J5PPH8ZjH1dX4DEflVmd3tkJhJwHLWAkpajL2nUY5gjKB3LGjJIt27ZjXm6HHA0cyw4eQQJPBMLbbGlKwTzmrrTlWLYGkuuWi5+fMw5lzj7VDEPvHgDZ5LHD5fyzpsoAnN/QEjUMriNgWAcRRy8uq5alK9bI6nUbtT6sEYxHGQXAIgx+FC5wMis6d1sBPGQmBAMrvM2ey0ZzemYYUzcdpROmI5i/DweLC0fZRC4cyhecf55KJJMh6VXguNT+ItgtWrRECuDA1qZguL5D1OyimaXRuWNfNDOjkS80EOCZhb4+WYigBXUQeFhKQhA+++xzkGyc0O6492oXeLDTEHAYTi9mHk8AgccxqmVUjxjPsiuBR5lPm07IYx9aIBjPiQU8ho9Vn5UuCvcJhPpn841O42l4p21+XmeWZPBOi11Zf+Nv2N60GI7lHSiy7A0t9CzoZW3avEV27ipQ9uD4YsN2I6KF8DsWHM0MzilTB9UtmBN4grHww8F6nPrZmFfDy45B/tClF54tk8eNUiUIY7qiyRasl11FJTJ7/hJtMVqDgk+WPViL3Mp9dox3O0bg3F6QuR4syCcoErwGDoiRMxHyHz9+rCYT6nDhh4MIlXMs2OwrH8mSh81iWF4HAY4OZndsh+NCFhYNUIsBgGb1CZW8jgIPqvyBJYictcgpp4yTrOxs6Qfz1RgIazTsdKJbAI+RQOgcUeoKxuML8LTPNrz38ZyowMPd2DGB0DVqFGjg2Q/gyW+FnwLNvVLQHIssfC8afFkV59YCJrOgL4Rznfk9ZA7uFp3jgufs64MFyERAmv+uf+Pne6PvMCNcV1x8jmSnIfCMD7Ue6S0F+yvk4zlfyMKlaOTO5Dw3vOLYZed4Bmum2/mIdQwFTDqAAQxM+MtFA7CLL7xAklE5r4wUH2XGcz5AZxkE/AqQP6Q67OZS59g0ePBxkfH0w/H7gykOguroMGQwsyzDZ1MLwENnOn1uKWiiPxQKrZmZmdoK1jkCYtyvl8CzzWA8uNM0dCA0fDzeOpejENUydbVoXmEgXZVEbQESBy7oC/AYu49/L7XXvTyKnqtd/0o3AZ4OhtOt+zOniDmwrpnLRvIB6b4OmwtTDDzw9AXjQco/pF3iEM0pQOJgCXJ4uNCsl+bwsBQAC4nRIeqS02fjzYsMKRLJfn3h6LVYl/24alTB5AqWC86cItOmToQ/JkLK0Tdn3qIV8sXCpShNQKMugJyjo9vx823PUXfA4zifkW9j+ndGgOnRzIpFpjX9OZXI2M5HMegGuD4ox6OgY2US4nk0U2LZSjBsYxAIPFFMJATwoN+ijDzSV0JhLhnA412zd/XxAHiYQV64Zy8ywWOg4jFVhg0bZspH2811687aBx5NIDQyl4tREKfAg/L/zaC5xwKP4wCi7B43ynD6lF4G8IThzwo4boDHXTjdGidvAKWjZRNGUaEdQXSxBMTH0j2ARye7mySp9vxi7Y2ljpQZKTNqsYynY5jJ9idlhdOtX9tMKhdTy3Z91nW2ZWqBXhQjqrXzEOqZsCCCoTtFRyYXnqPjmM8yHP4KmibM7WFUx4jkWHZJ2xBE4KGDmb4W43XszKPqw9DB6XLJBedILpIE16J5+sxZc6UQnQMZsqa/ifk8bZvrnq/D3RUaPp5wNKFPQiX9SBUMpD+laN8+qJIe0PvUc3JtmQegn4ha7J4YnwIPGQ+c42mIbI1AIiGBpxnjYfRcLveoMmEBTzWSGzdv2qQSP+ede76MHj3GZDzH3pX3wGPz8YDxbKZz2ZnxOBpKvHmmb2Xga1xQtCRD7ZD/Nkom4Fi2lUwQiIzqdMfJ6gvo2KaID4DR1vQzqqA9v1yLMt1/ol1K5PQRAxvMRezlxzxdpwEG7heQJ4d8m4zOldnoeJlX7gA8ht/ZZEg2ULE/VUdyZPPlOFyr8TvjDslnWhnVgl9lD4CnDIl2h2AWcSdn2NtxkXMusc0FE/YY0aKPh+Fpb4aUS5YmWogmHrY5QyA7HCxTEVGaMG6cZgcvWIIkPfY6xv8Ido0oceB3b87peabZ38EcHjq/eY10oBNY+GVlIjtBGtkOEwbBeDxF9AzgQfEr1mQyTK1ctESFGxyZ4r2k4PBBWYteQo2oaG9P3sbGeBCNYyQuLnaAjBkzTobkDTEZT2cCj0NZOH+EXJkMxIQZGhYrA0BLuY9oz2VMjt64KateywIeXXruVpMPT9DTYnS9fXdg581k8GxqHXuUNq/NAXQcQdTr6/D0RiUmBpOzL/32P9TWtdoliOyAdqyD2Dy2dV4bhNjcxiZY8A0Ovj0H9mQ9F5MgofkX8mJgApWjX04lI0GYK81o93kQTbasgITF7OgP6YvkPC68phbPES1elRoCYAsELH5eWbnDdTuOFn9PxjEAtVVV2OHJujhe2vOGNVY470GAY3tBCgdu6Onp2f7Oa6IMD1tasAyDF6gRYROwHX1LNDMZzVPQMZ+7k+/J+h0+z7ynCEbeAGax6EaYhMzrIPzuEN5TgvHdhrYezZRidgOllq6WBTwV6AvEfKXUZGiUDcqCjyfr+AIPn0QIHv4wNIafPnkKciFI3vjiaBkDZqeFPiBLu3uR18/Q4Y0dO7enMLZ3V2IyHDer3FcA9Xy+No7Ygdu3ERNzZfoSBdTrtLFK99fkuvnwNPS9HcTO3IoFx0bkR5nti0Q37vhkNmQYDFFz0vN6+DP775ARMaTO3BhtsGWd2/yuDJc9d/A3/o+LkOBjWJHm8zEu2mmIVa9KF73xeVvECm/jtfCarEiaMeWNgVZAw+bLwlSD9euRzGVhQwjb78hs+mAdab0X3ktAZT4QwYfHYtsa61qMf+PYGCcCgu3fmi9nWBZMj+HpeJ/8HY9HJsWIXl8CG3xEfZG82Av3xLKNnfv3Qf10kdRAQtmdU9Md8JCBpUEcMRVtQRR41Ll87KtTTC2ehrTwihmXyW8ffgjJXKFOz85auB2Y925vIvAL1fNSPnnfYeSHePCuB2x4bHlCXP40y7l4zY2Lk4q+lSNYMApCAB7mxTCETl9LE3wcjGy14N/6PjIAgAW/c87wO0PPZAh2kwTMhe+1AMk0J60bUrAxuwQav3OOY2keDuud8F0XOt9BgMDPCiQABi52fjGUrWCkDMvYjG1ggs8wNYBAyPdxkRNYCBiWxjuPr2kpDoDC99JBzuPzfBbA6XcHkOM16fF0TM27YG8gXDtfHJOFixbJL37xP7IX6hvOd2ncuVvgwedTU9M13y9zUOZxYDwuuwJT0G++8SZ58qknNdLQ8+oZgc4eAXdmnxMjM3eodj15LqZvZ1yza66QE3y52Y3dvd/xumyg4PJZC2g6cg8E5HlQ7bj77rvR4XC3z8DD0qpBnQM8c1AyscxtkSifb1RUBIDnZnnqyaegN2TIyva8ekagy0bAndMmUJTbn5vqwnVh+SrVR+XsBlTzdB76+dx9772yp9sBz9coEoUTyx0NYzOmm266SYGH4c2eV88IdOkItOUtDvRFeXseb98X6Oszj2fzQeHfhnPc+aXAMxfAA3lm34DniJpa6ajp9IvxsAHYVnYgRFk+X5QwNsLpYDyegAem1lNPP230I+mkAew5bM8I9IxA4EeAwDMXwHOPz8BzFMCT1snA04apxWFQxtMDPIGfET1H7BmB4zACXQs88HwXo2ftVjZ7txgPyvyNkgn6eNiPpx1Tqwd4jsMU6TlFzwgEfgS6HnhQnb4V0rBGs3eaWmyLYQJPj6kV+Cfec8SeEegGI9DNgAdtJ21Foj2MpxvMj55L6BmBThmBbgQ8LBI1GY+bWi3Xu+/x8XTKfOg5aM8IHJcR6KbAA5VCLRJ1n8fT41w+LnOj5yS+jkAXh7B9vdyufH/3AR44mfnKyMjQXrcEnmVfBwB4XOPsHU2o8hSv7+hxu/Lp95w7sCNgAY81V/Bdyx+YPOfQHiWwJz0xj9YNgAd5PHQum1GtQACPrRUl6llq62pl957d0J+O1obX2hDbR5Dg8az+JAMhHRsH+Y89ELI/iEpmFqpFojre12OemNOl56o9jQB7LpWhdQMb2yVCVSI+Pt7omuDjnPN0nhP9710LPNgF7AmEFuNJB+OBPCpUJjrKeDRTErsNO6atX7dOnnnmGZk4aZLccvPNEtkv0mjC4u2LuxYm0/z58+Vf//yXnHveuTJ9+jny3HN/gz5Smfzoxz+SvLw8oxiu53XSjwCrp2fPni3//c9/5IorrpBLZlyqbUV7gMd5anQceIzMZarR+FUkqsCzFXk8+E46yqiWATw0tZa3Kejn0blM4EFrg0WLF8vPf/4zSGKcIz/+0Y+lP7SCrM6AWj2MKlkt90elre1F5AKO8O+sTGZa9IczP5RHHnlErrv2Orn11lvlvffeE3ZEuwlgNmhQhl47K46N9xua2ba0cWu3UwpuLwCx2lzZ2hqY1b1azYzjGNXCaEHAj7nsmFZTBatQz3YvAEBW9erLoWjxmEI//E3Pg2t2un/8Xttrsr2B2WzE3iDfaGpuHZrgzrFkZbbVCoEKmE5FkroBGNXUWgFNgHa4Ln0W+B8bahnV0EYPGP6s46+63RhP855UkE4rs43KZ6cuj+a5yDo4/qysNhqGmS0m2PXFPC5vg8/culZeI6+L1dmum4j1XK17MHo8mWUAHA588XnptcG0euutt+TPf/6z3HnnnXL7t76F5lrsl2mMA++Hx3f3jKz54q5E6JuG6B0HHqM63b8iUUyM/fv2y7r1a2Fq7dM+IIap5R/jsWbFIQDP4sUovf/5LxR4HvzRj7RNAc2mYOgZlZeVQ3+oBgWnkXregdCM5oTg5KitrYWka6F2tmcLjrVr18rzf/+7XHvtNXLP3ffIDuhUU5xtDNovRkElsh6Kjrsh+1GOZkVUmkwAzW5Bh7YYaB7FoEdsKXrWsmNdKlq7sosd13QpRNXYR5bv7Y8+twTKsrIylZIlqLGLPntQJyYkGL16Xek6JjzbNVRWVUrh7kJtHEW1gNTUVElKSjJq2Nx8hsoAxRh3mre8h8jIKNx/ut4/F9c+6DGx50taepo2ruLvDhwolVqMVSKOy/4qRXuLdMFR0I6mBe9ZrxX3EgRzlouIzbL2oX0mvyiDEgczNWNQOrSb+usiLcUxq2uqdSFy3OIgqRIbEwslhRptu1BTXQPVynLp368/Ppeh97KncI+24hwAc3fQoEESBZlevni9vEZKBFPVMhobDDexAXED9O8cV441X2yuFYLnT6ZKcCrGOHAeEhjiE+LxjFIx9v30/qoqq/ReeX1cLLFo0JWBXLNYyPwSuDhXeA970KOZ8yoCZvcKNEZ/4cUXtPL69ttv13uhllUhmqVTSZTPhS1+rWfEZ8gxr0N/H/6+H+7pmw4+HQUefi6NwINnMCiDbTGcm+dbAN1uPx4+uL2YKF98OQ/iY0VYMCmSlZUVUOBZoozn53LOuefKj3/8YzWZZs78QHWIeE5ORmoknXvuOXL7bbdLckqyLoiPPvpIZn44U7vaU36Wk3IXpD2+9e1vo1TjRnnppZekrLxMvnf/9yQmNkY++eQTeeeddxWwIiB/kpSUrAt1xowZcuaZZ8qbb76pNWm8hpycHN3Z3337Xb2e62+4XqaeOlW2btkqr7/2uqxYsUL7vIQCRMaPGy833nSj0dja0ZwzQWfXrl3y5htvypIlS1Rcjs2XcrGgrrnmajn11FNB89EyxMHpyQW6evVqefnll2Xnzp3aM5fs4nTImtx44w0KlP/+17/VR/H9H3xfMrMy9Vnyumj6cgePjx+oOzoVKAmuBHAC4+jRo+W2W2+TocOGKuh89dUCefvtt3TceA3R0dFy/vnnQ6XyCu09TGYwFxXK/JnPYsqUKTJq1Gh8br6CTCUWKxuuE/hPO/10NZ9Xr1qtIEIAvBlFwhxfMpI1a9bIG2+8AdN6vSpD0O82Ceb1zTfdDGBP0OczE6yVGw83gcSkRPkRGDBB8YP331dAI8DGD4yXSy69RC6++BLtvcNjzv/ySwUMAgTF/KZPny433HCjzteS4hJ5D5//5OOPtTEYuwdyjDm2P/nJT8CIbwLgFMprr2P8ln2tnQ3ZEycPbTs53pMnT1aJmH/8/R9Q0N0k999/n4w9ZSwkjg2Jm2/qy3/gYZEoG4F1BHiAVnuwC7z11pvY5feoqD0XZSAZjwU855rAwwnw+98/qr1lZ1w6QwYMHCCfffaZMptf/frXcvElF8lHH34kv3vkd7oDX3DBBbqTffzRxwo0P//Zz+Xyyy+XXz/0a5iHxfL4nx7HTlsij/z2EWVL11x7LSZptbzz9jvaZ4Tvv+666+TJvzwJiZBl8n//9396nwSevz7zVwWrHz34oEw7c5r84Q9/0AVy2mmnyYTxE2QNWNbChQvk7LPO1mvjLm7bCcGYDpQckL+DhREEJ02aLFOxcMnSPsYiyMzMlEdxn2PHGOeyXmQ5jz32GBbKJ3Ld9ddJNvSJ5s2bJ5sQSfze974n08+ZLg8//LCyt2eefkZGQMGRoPH4Y4/Lp599Kg8/9LAyoW9/69tazHveeefpQty4aaN8DvP4Asij/O///q8yQpqmPN9ll12uapdz9TwbMXYPyemnnyZ//etf5a/P/lXycvNkHAB23CmnKBN94okn1HS55JJLdCOYOXOmys1Qe/y8c8/TJlxz4EfJxr+ff/45aYDaw6OPPipLly6V86CSwDm0HKxjwYKvYBbfpibPO2+/Lb/57W+UyUyZOkUGo5n6Kehr/CzO3wgGdT6eM0HjU4w/WQyfL8HwL3hu2dgMp4Mxs+XozA9mKiD+7ne/k/MuOE/efvNtvOcvyhZ573vBjj744H2pw4bFa+K8+/e//y0vvPCCgjuf0c5dO3WOjR4zWh5CI7tBGYPkH//4P8z7DXLffffjuk4B8LhfUN8UIPIFeLjeRlFXC+zXzngCADwffviBPuQhQ4bo5OpM4Hn9jdd1wc+4bAZ2vB+pFO0bYCP/wAK+/vrr5eprrpFnsSDmzpsrv/nNb+SsM89S6v/sX5+VV159VR544Ady1ZVX6eKkX+ohLKLPP/8cu+YH8jMwq6uvvkr70f7t2b8pyJBuK/A8+aSsWLlCnn/ueRlzyhj1q/CY7733Phb8/drO8X4sfJoPBIDc3Bws/j26sLjAuUgpZEaNa7IBeD9A6VfKr371S2U1XORkGjQJnn/+eQU+Hudb3/6WrZUlASR/Rz6A4ZfYXTdq97epWIRkFatWroKEyEh12P3mt7+V3QUF8tRTT8nwkcN1rj/x+BMye9Zs+TUAkOYAFzOZyq9+9Ws9BoHmsT8+prv2U08/BcXJRfIaWNKVcLDeBnOD171s2XK8/1cyceJE+e5375XXsQn897+vwff2I2UGbO42e/YceQjnIFv7xf/8Qs1U3vtLL7+kYHf3PfcosyBIb968SZ7723PKLn6Pf58C4OJxCQJboFRCAOOz43Vx7MnSLgcIPvDDB1RV4eVXXpZXXn5Fn9Ett96iv/t87udgXF9B5uUCNBYv03E6F5K5HBuCyX9fe03eBlN74IEHwIouVgBav2EDxvLnukFwLJ/48xPKrn4JACaD/+Mf/6hN3h977E+Y39kKXNyIPpv1mXz/e9+XG8Cga3GdTTBbGQWjYGCPqWXvQHjZZZeBTRN4KgIDPDQdKJ+xcuVyyKPuUirOnbpTgQeT/SWYGZygN+KBk14zCkEWwMnGyfSnP/1JJyzBg7s7zax33nlH/vD7P+hnCE6/AfDQHHnwRw+qo3k7NKWfffZZMAQsVADDvLnzMBl/oZENT8DzXTRDoq36Q0zmJEqMwNygr4aUfeOGjWqO/uXJv8ill16q/gJ1VGJX/vSTTwE4v5ULL7xQQZTa3DQHPv2Uv38EUq9nw8zE4o2JtjVF4cN7GYvtX//6p76fC4NgT1/V5CmT9dgEBzIe9joaPgL3A8Ai8MyaNQug8JACz30wCYYOHSo/++nPJCEpAWZlLYD2n9i5/wFQfgi+tcV6HTS/srOydcLQDP3iiy+VkdDhz78TzJ5Ga5NzYOrS8UsA/92jv4Mv7Vq5B+MSApP4xRdfVNOQ93jllVdKZTUW7p+flK/AaAgmNE15rdQRHz5suDJPmqqr16yGKV2t7ymASfriSy/iud8nd9z5HamrqVNgo+lGECPjZKpFXV29mlX0r7Gv8koAFv03ZLuUvNmyZYs+j//9n/+RU6Ex/qtf/koBmOCWmp6KFItWgOl/5OmnntYxioL/jAB+0UUX6Xzg8zuKrljvv/cBAOkPOuce/PGD6sfSnvnapvSb//KF8QQceDjE1HemfvoqPGBS6EA7l11NLWOX/a/6L6648gpEIQASYDecfKTFNK34M5t3P/e3v0k8VBUJJMYif0QuB5BcA+B5GEyHwMPd812YS4V7C9VOz87J1lmzfNkKNaE44Qg8fwHjWbVyJRzUYDxjDD0gmjKk7vdgF+e9//SnPwXry1N/Dn01nIGMktAZefXVV8u48WQ8BgWnc3bm+zNhNv4eJtP18A3cD/9DqN7Pl198YTCLSRN1YdARar1oRrAjwBdffqH9jgiYdK7SzLjt9tuU4RGEC8h4AAjDRwzTj9LUIkCT4RF4vv/976sv4sEfPigxcTG60F968WVlGTS1lixZLAsXLJTxE8ZLSnKKKckCrW0AEB2DZ511lryG50Dw+BvGeTJMEL7eBwN87LE/yi233KJsrTf0mF599RX5D8LT9JlcivA0zWICzRfwvfwZ51uEAMLfMfbKmGE66ouRJtwrTWqaekuXLtFjPPCDB/TYZWCGZFr5YEtPPP64TJw8Uf0qvD7eC0HgSxz/hRf+rX4+Os0HwiznudetX6+fpX/mf3CvdDg/BlYzMGEgTMSjuhH9EXPozrvuVLb5LDawG/CMfoj5YAY2tfsCzdYzpp0BpvwzZXa210mQ89OlwKPzAwjfhCgEJ085dhV7OL3jeTzWxLNFtbDTkC7TsUsfDyf8D8AuLr/iMoOdwPdANnM2fBVc4LTZt2zZjFyd5wECQ9HkuxXO1dewqP4MB/Rt+p6HYYYxEsddjP4fmhaPP/E47PjT9fQMv3NiXXvdtTDhbtBdj+/5O4BnwoQJykwIZGQABCg6krmIz4Pz9e677lKHKKM36+DnobDa+fClZIKdWI236VBlz9pfA2BoYjz8m4fVJ0Ugp7OZuzwB7wc/+IFGrcy1qLpEy5YtUwCjb4XMbsniJfIPmIUjwG74fvok6OjmNY8eO0YOwiFKwFn69VJ59HePamTuXrCRQYgE/hKmHlkhHb5PP/m0+mMIXAS2BQsWgGF8V5kaWSPZ1lfzv1Jn/KhRo+Sf//yn/vu5556zsa13331XTRKO823fus0AnlcAPGARBOZL4PStqKyA6QrgwXPjNa5FrhY3iatg5t5yM0wmOKPrwK6Wr1iuUamzzj5LPvv0MxzjvzrWdNaT1dCUZjMq+vPOv+B89S9tXL9RfWTJycnyAYIQZDvf+c53cIyzNSzO+3vh3y/ALL5fHeUEeEbf/oh7zhuSq051/p0m9Q9/+EM1+8ig6U96FGYZ88g4Fi8DpAm4N8DBzDEiQPGZcsM5GXLCugXwNCIawx2SkzfgwIPFzqgW2Qx3zNdef039Cg9ggV1+5eUKPJwgdfytAAAgAElEQVR8v3/097oLc0Fx8tNpe+FFF8LBeSl8CnXqHJyPRfJjJAxefdXVOmkZEaEDkfSbZhaTFBnxogTJiy++JLPgtCYzYN7PK1g8dAJ/5447ZDomMaMoBLZKLKLfwqcyfPhw+elPfopM6zpddPSDcDem452Rp4fg7MyGQ9RSFiBd375th/oP6JS84447ZTwYEZ25L7/0smZW//rXv1IzzGJJBPkd+TvUIb4P4eO7sCOTJWxYv0EZGdkWfRdkcG8hGnUnjklHN30oz8FvRFUFAloqtKvvuPMOqYYZQ/8I/TFMN+A9khk88rtHZOmSpfI3JFlSdO32b92u0TICHN/DRU6HIQFu/pfz5W/wY9Hpyte7776nwGUAD3xD8IXRNPzPf16Vn/3sZ2oK00dCxsMNg4uX0Tz6WsgM6Qei6bgFuWH033Dh857mfD5Hme6DD8KfBOChGfvBBx+oiURmeAM2B/pWyLgIsIy8fQxHcx0y3/n5cQCO3QW75Z8wUZfg3riJ8Rr/DUZEfxqd2pwrpXAdEMTJbjlHyPh4rfQDcW7Rgb4Pz4j+vxqkP9DcO+P0M+RrbAYlYNCnwenOcL6VQ/VNNbq6DfDQJxBoxsOdhbv7b3/zWw1p03n77rvv6EThgrkIESwCD52JdPbxod+PqAIjbTSJGD4m8yBv54I+BObD3e9ShHD/9KfHNKrEycUQK7OaCWAJzLmBr4DAQl8AJy1NqfWg53/4wx81xM68HZ6Y4WjuotzJ6WOgf4PgROc0FzBD/VwgV15xpeaDRCLfyJaXwxwaMCKaA8wv0nwgnJsg2dTULBfDxKOpwt/xM4YOeS99H++fQBoJP0YC8lYI+DR7b77lZo0krVyxUiNi3L25cPn5crAVphVwh0+IT4AZcZf6TbKyszT3hsdlUifNC0aeKEnNsPzsObPVjOiHzxYj9NwffiWauUOHDlP2t2jRYnn88T8pC+TrY0TbnoGJRyZAE5LAQwb3JgCYZhLTIqqQt0QH+sKFC9X3lIKwNtMV+MX7YElLVXWV5g7dCnC4BGBF84fHuPfe72qqAa2ZMoTV6cejucdoF1vo8j4mAPRvhbOZQYO3EQ3j9XMcaYIxv4rheJrb9913nwI8Gdsa+JOYl8Nzcq6Qef70Zz9Vtkfmx42JOU/JeA/zfviMrrrqKgVBnpdset26tRoFnTRlUk84Hc/HkrcJuI/HMrXIeDoDeOgf4QJYik6GadhFGFrejujLjh3blerTkU1bvqhor6xatUp3cvotuEA5echw8vF+Or0zEG2iTjadsTmDczQ0zjAuHYy08ZnPwYWwEVGdaOZyQIPpNZhndJLSyRgSFCKrVq/S3ZK76DAsPE5UNrMfiZA1E+QIJOtgNhAsCWo8Ls0o+nZYa2bLx7G2QYAPwWELzCKOH3dMJtRxdx4/frz6bVQYztQj18/ji47V5cuX6/XQ+cr3TYFjmWF+OpybsSi4AzPvhIuNDtsBSP5jvgnfQxE7+pTikJw3EYBB4GJy4KlTp8qo0aM0R4pAxwXKEPcG7PaakAgTberUU8GC8pQVMp+IrPEMhJnpVOdrV/4ufRaM0A0ZOkST9BjVYzidUb0MJAW2IKy9dg2STnG/06ZNU+d5HZjiKjiKV8C8ohObgDlxwkQNWdOE2rRhE/xZ22UMTMfc3FxDUA//p6+HY8eNgZpPZJ5TcR8M4xNkaAqSrRyG74efY/4NUxb4bMhKmYhYACZEcNkFZkhzl5FJPhcGCax73bxps7oTmCPGMebz4RcBmTpdSzBOfH6cTz2Mx5jgJybwOHBUrd1q59/8k5E671jOQOekUbrAD2txqXkUKx+Pn3IsIeD7mX1MUTVORNJxhm/v+959Ehsdq5OdFJNAoOUDDI27CZySqXFh8j20+T1VNvPKDeG5w4YiJIXcPMRGeL+8VqNkhOcx1CGtl/3v8DvgfizBNvohmLRIZjhi5EiYrz9WxmOVNbheq94z/Fl09DLJkOeyzuJU9uH0fOzjar+eY5UKHJUMrGeo98QSDtyPUaJhnM06l7vx5j3xGvlSHwtLLcyX/g0shp9nRjb/Zvl+HecU748Jh3ymltKm4zPgtXIuMbmRfzdKOkyhPYfr8/TcHIbphP7xm2tqOT4WO1IYv3X9t/U7+wx1/1C9OY55LLKfX/7ylxrVuuvuu4yohZvyBYdV0b0nkrnKCCSMeP3kxz/R6BtNybiBcW0X3rob6/aeTXvPx934+RIB8nQt3jwB1x3Mm894855AXJs35+km7zk5gOc4DLbOfxYkcofF/5kHw0ze3LxcpeSsZfL5dZwmoyvbc3edju+hc5dZzPR7nArTiU5ZlQK37t/nG+28DzgVkXo6jTMVO3aT8nbj8XSenr8r8/dW3ibgPh6rsrpTfDxd8HAdqT/pPv08pNVMGusQhe5k4LH1LXIxM90Dj93UoVlBnw3NDr03mzlzrInUBY/B6ZSu5li71+MJeFw/7O79Hm7Yp+vp6sHrxPN3KfAoq8ak7ZRweicOmleHNh25uqZ9MQe8OngXv+mbfG9dPLQny+m7HHg40A0N9ZrHwwSzgOXxnCxPsOc+e0bgBByBLgUesh2GHfegNSnzIEjhA1Yy4eZhKPEwzRdHH+EJ+Nx6LvkkHIFv0vz1DXhmoOZvpFkkelgLqu2NwDrQFoOp4cyz2bBhnSbbhaDKmt38AlIk6g54rMgM/tb7m2b+nIQL8WS7ZTR3tL2QuH5Cv7wCHqRx5CBbf8ZllwJ4RmnGOsugjEZgbIvBRmDuWw57bATG4spZsz5V4GFvGH51GvD0MJ4TerKe7Bd/0jGezgQelhawjIGNwJhNHLBGYCf7LO25/54R6MYj0KWMh1msRUWF2paiaN9etd2y0LulsxhPN34OPZfWMwI+jUBbWd8+HaQz3+whFcR34BlpmlpH/De1mAeyb18R6mTWqswNfTwZaAPZacCj9TnuEt478wn0HLtnBDyMgJWe4GsLMGsud6q/x6HgyClvyc3v9e/mmwIMPKPgXKaP5/ChgACPUYy5ffsWbarFcWSTqIADj5FWDEkGSJgcbBVIK8gR9JhBGO2bl2PTs8pPiBE4yjotJl+ieVuvMKiBsMGbQ41YuzdhZomjgY/LHO4kBGq3xAh/pH+Xfb37WAjqOWbcEcZDpY7AAU/xPlQeb9WWCcSGgOfxEM0o4IdCv8NULUBlcT3aURxBEWbPq2cEumYELFbQS4JRbhKH1rHRcDNA98gAn7bWrVlRz7ks9U3SCnmkWnQAaIXSh9Gu0gQez+veu9s2SY1WAVHhhD/oKY5oobORG4uiZABnVPwACcV96D2woNqh4NjdyToOPFZUC/I2HY1qUeZjP4BnO1oeMKzOtp0BBx7uCq2HpaVgj+xAK4VGjEkcevOGo11nb23fEKin5N2z7HnXyT0CFifoA7Z9CG1V6vYVSwNa0UajDUfGRPQkioIcdhshYmU4B8Ha9+yVbXPmyZrP58l+SAe1oK1MZ2XH6/WSnbEXtMorAXAAcMy50+/4fTDayyai5e+o86bL8AvPlb7pKQaDa2dtdRh4UIqUloI8nvRBfgAP+97At7NjB7TTaWoFGni4AwB0mkvLZRt68oSiV03OhHHSmzLGPtDCk3up9Nx9p4wA5yb6M6NjmDTB3bB84SI0VcuRtAljwRpYUOxmQwToHMwvkK/++YJ8+sqr0lDNBm4Aos5CHS9uXNt94CqO9gqRfvGJctr118jF998toWiHq8ynjVcXAw+URBV4KGHcOcBztK5B9q9eIxXYFXLReCkUlFBfVgaWY1aWFwPd85aeEQjsCJDFtEoNGqDtWbFaMk+fLJGUxFZ/D20cE1eIU6WVsvqFl+VddDOsKNlt9XUL7OV04GiGycUv9BgakCBXPfiATL/9Fgli98uTFXgOge0ULFoiEdmZkgTpmV42yVMHr3wHBrvnIz0jELARIPuBz2bXnLnSKzlB0sePlT6UwTFRR/dIfFWtWCvv/vJh+XrBbOnTDX2UvMwaQbbx1NPlrscelbSJ46VXG6ynGzAe+Hi207lsRbXSAxfVgk18sKhYdqKtZBJMrOjsDDzAHp9OwBZMz4ECMwIEnuZWqVyChu+9DkvOqZMliNLTfFkpIHBLFL75gbyI5nKFBVuluwoc17NNfUyi3PfU4zL+qsvgeHbfh6qLgcfw8WzTcHonRLUAPC1w3u2CfydlEvrbDoLd2QM8gVksPUcJ4AjAudkEwcMVq2TvoWYFnuAQhwXL9rvw1W79+8vy8iO/kfKSvRrBNgycrttI3Z29ERfaDHmhOyBscOZtN0kIBADcvboWeMyollM4PS1dNkBf+/PP/dTV4qgQeBAx2AXhupRJE6RfRmoP8ARwufQcKlAjgMna1ArgWS1FAJ7Bp05yBh7mmwFptj73krz8OwDPgSITeAJ1/o4fxxl80FsLV9aiwAN11ttvlpAIP4AHbpEcSBUZRaKoTtc8ngCG0y3gYW5AGoCHOlFzIQG87Ovl0tjc6LZ7H6VUbrrxJlW7pDzIMbjvDnggMduVO0THH28XftIpW9UcPtc8NcsB6vreLrzsE+rUpqnlGXjAeBR4LMbjepfWg/GNBQWyKyIZz0HKHEGv7Ixbb0Cekn/AQ635yy6boXWclZA1IvCksi0GEo0z/c3jcQQeHtQAni8gAxxg4GmP8ZiLh4J6VDYNg21KcHNUHNCUKfz/GNUHMzmDwEnxPf6digQdfhnpEl5FSXWqYeKy1SrVLTraYpVKCjwGdcAtJctGCPhR/4k64pZme1v3RDUGSv0yN4t64Z6UMYx8NypQHLYpXDA3xLoPT2qa/Cz1x/iZkNAQPZ8qgbiCopsL5rVaaiA8j6H+AWUKHINj6HgM/o0tbK02r94c3+fnHjDgsc6M8DYGmHmzmBX46q3fjaGxBoi/PSR0YXOm2rUzfL56pw8QeFrx/O+E0OTpAQCebOi2EXhGjx6tmmdUA/nmAA8WAeWC165ZowoKlGGh8uXkyVMgehehk5sTlP2TNWkKE5e/42Tn76mHRc0pLtAi1J717RskKUgI4+Jy/CyfEOVk+Ls+KlWLyWEeSyVvMOlbUMpBvS7qY1EPir83JGhwfhTVuk58gmFRURE6OC6B6ufp0OpKNJO9OPmY7GVwPB6Dn7WkV3gNmgTGiYcFW1FWofLGrJWjBjsBgMqZ1AsbOWqkXo/ei5vrOHwUCZq47g0bNirgcpJQ6ZRjZUjMYOJT+oeL2/w8x+4AVDe/hv+NmlrUmGItDjXCqF4RExut71fZHEri4LuOHfwdPAZ1tFasWCHlZeWqezYSOyK1sI6a42md1wIZJsHp+OFFgORml42C5BjoY1EEkZI91MqiHDPPofeKRD5qXu3ZU6jnSGRmLlezy4v3qeOLgVbNe9P+4O90DFTSpx0WElDg4XMn0PQSCCRJc69gOdQrFF9MliW8qHCRxPSPlNzkeDmweyfu/wDAx4ihmUH8DqOP5eO5Ez6eaf76eDB3Ogd4MCGZubxtOzKX4WTmIusKxsMJsgZZzWRaI4aPUKE9PgVK0rCWrByib+HIzqToHndo9g6inC+F6/jeHRD9240uipMnT9YHRh1sTjSKxR2E+Fwk6GYmwvm8P2pxU3KXn6OQXklJCdRFa1WTieqh1VAapQDeUEgL50H4jjrhXFxhOD/FBKk86jiJqb81f/58+RIa7JQGpvgeBe8GDozHMQ9iMVfhOoOk5ECJtCJfhOeliNxuXAeZHRcGBeh4v5UoJaFyKlvQ8pzMreJkpMAd2Q9/FwVwpXpoSDDqi/CqgugdW5pwMRcU7NJs0lHQ29IxgvCfdZ/8NzXGoyG+l5mZqYyyEAv6rbfeUlP5yquuVKBZDGXR0yHwRy2voqJ9yqDSYX7z/vei3IUKofHx8arasWbtGtkPKWYyUyrF8r4KC/cqKFGAMAnjSVDmGJKFsbsltct5H4uQsDcBmcLUSOf9UgyQqqrJScn6mRY0s+dGkpKSgrE7oCKNSSmYF67AgwFi43teK4UaKfYYhrKBZrCxgl0FysYoZMi50uYrQMBD6CCzOQge0yShcjAIm2ZoP+kdBnMnCHNSNcGQMd0LhZZwO5w1aZwsnTdLigu3SmxwHwluaZLm2mrpdbjj5UR25/If4FyGj8cf53JbwMPMZTzLjptaCjyIammtFsPpR7oEeGrra2X+F/PBOPrKOedMVw3uI5gMu8F+VmNCcmI3YpHGxMboItmInT0btmdZaZnEY7JWY0EVYWFRn70GwEFJ4535O3UHp7wupWs56alGycloCblx8LYDdKksGQGHHBcmFyT1zSdOnITFEqmgzOs5AAVK6m6PgOqoNYkJGgdKD8hnn36mwBEeFi45ULssxe/IGrhbb9m6VZvpW+nuvP5BYDWLoCmfmpqqMiOU7yXrqCiv0HvdtHmTAsZOpOOH43ooG0yNdwJFWXmZan0PyhykC2758hUATyiYYmFTRVWvccQI6L7n62IMwfkIqPn5+Qq0XMh50GgnkLMJ3FwEEUifszKz9Jyr0QJ32hnTFISoHV8B8Cb7JGDtR6CAMspJiUmqMb9r106JB8CWV5QreB4EsO7FMQmKvDaeZ/269frceN7B6GbXP6a/PrcFXy2QSZMn6e+5saxauUpZDVVIqW7KZ1MIKetTxp2iaqupeI45uTluGQ+vn+qi6zesV+Bi2Q//TbCnNj03DGVCbb0CADyGadVbmiVEmnpFwMEbJ0f7IVk2vB9AxyxCNc9/CFn7SXA7nDZxnKxfsUQS+4fIyPhYqVi3RlYumSetDTV+Mp5wueP3AB4kEQYUeLCJcr7aTC3MGW5M7l7tdiAkBe8OwEOnFfXT42Lj5IwzzzDuA3SZC5pU/fQzTlfA2LB+gy4eLvizzj5LtmzeojK9UQAO+hvOxu9WYCGS5nPhcSFRgnjTxk1ai2b4QHpjxx6ojIM7IXfGKVOn6OL6BLrh/E4WM2XKFJXp3QT53mGQ892xfYdO6DNxDoIBr68VOxPPR8ZDdkRgoJnDPtY0n4IVsEpU/nfokKEKarxegiAX/XSALM06dgNIwoKpxM5/GCYGP3/11VeplDAX4fhx45VF7QO7WA+J5YmTJuoXpYsXLliox+MC++KLL6CN3h/yw8MU/PIBvuUAKnaVrMbijY2LldycXGVVqi+PhU0/Hv9dCjAIBTsg+6AsMU2rYgAN9clo23Nc2CRu1JhRYGpNshRS0GQTU0+diueyUaWmyR6p8UUQ4vPigqc5NwByxnkAZIJM3+C+BvBA6XXSJBN4AFyrVxobDCWbuXEQlN579319Vvwd72H4iOFt+pDoI9sJc43655wfxJIReD9ljwn27fqGAgA8FtOp7dVPWvthfOMSwXZgHveGEUU/ljmpmU3SChMyESblRCT4FezcJqdOGiNJBxtk1WuvyJZVX8lR/NzRl8F4Og94qMSahg0zHZvnCc94aEZQ+ZPM5Jzp0yUiEoV6eBF46HehqUETiTsa/QDcrSdPmqzMgIuDbKUek3M6Prsai5XyucUw0QgsBAS+j6ZGHYCHQJYBjzw/QyZDv8oE6I+HwnSYPXu2Tv4W+IsmY1HwfNQN5+QlmHGBc0fl5+j/IUOa8/nnMNVqdFEV7C6QlOQUZRhr4K+KjIrU3y/7epn6Lmii8Lw0U8gmzjxrmgLC2rVrJTEh0QhXgmmQec6YMUOBj4DJPklkHjwvfWCTobNOsKQOOHXHaV7lQbhw/pfzFdzqoRrCe+BXDcxIjgt9P2twHgLteeefr2YNWcEyAM9o+Gfq4GfhM+BmpOMNUCIzrK+vVw1zXntebp5GN2jCLVmMbHQ8JwIEGSjBlf4onp9slIudTeVawXw4jgTYiRjT7MFZUl1ZrSBJRpSLYxKcOQYJ8Ql67CgwQF7TzJkz1Xwj0NG8HDJ0KMxlo5UKgdHwAxlyxGScdFiToVKjnc+MX145vAMAPC0SLI29wqUhHIATny69I/op6Njz1kzoUeDpJQnYxMZh89hZsFOG5g2WmvUrZesHr0nv2mIJE7SM6eCrU4EHGxCDHZzT2WCvZMkd6rlsMZ7tNLUwwfkgu8LHQ3fbdjCKlXBWxsE3kIBJTmcqncabt2xRhy0nP00c+g7ISMgCtmKylwE4wsMj1CwbRc87Fm9oWKjutPQfkN5zUZRjJydTod8nLS1V2RV9S3v3FsmYMaMVDL74EowBjIpglpmVqb6cAuz4qRhogl00dv0D2NWp4Jk+CHQeDIcAw2tJxDXS17QL5lEqjk/TgeA0bdqZsnLlCo1KkYHRb8UdecvWLf/P3nvA13mWd/+X9t7LkpdseW8ndpzh7OUkTmgWI1BWSyFQVtu3QIFSCi19y/svgULKaCkQEkZCCNnLcfb0iB3vLUvW3nvr//3dz/McjXjJljzPyUexdM551n1f9+/+XdstcKmGWzZvcc8t24hsSGJXYjB7sNnomeXpcqom19c4CRSXLF3i7D5iHgIHqTwCWC122cX0HFJBpMYsWXKuAwKNya6du+y6669zoKzvSZXVuOncDz30R/cdsT19JpCX+icwkLAJaPXselaxFoG5WM2BsgOWlZXlDNx6HjHDtPQ0VNg07DnVuGHrnR1qPranRYsXAX4dAN4bTn2dgsoo8NW9zpk7x51T9z5n9hx74sknnE2rE5VV101FJsRY9d0k5lxMTPKQlZ3leQJZ1Pqsg/uIB6TlpDgqL9hRAs/W//ql/UoBhMPc6ZJfZs5aY3OsL3uS9WfkWn9kkHLhqSKeq8HDoV4APY8KDeeizu9ijqfNmmbN27fYjscetP6K3ZbUV384U/hhIWksgUdrUHOmMV+8+Bwno4O9zoNv7KhUrZMNPBplZyAEBGRYlPDkQM9lBBWLkPCLwovaaReWLUHgJIHuYFFocUolkI0omwWgXVeLMgmjcjoLQLYeGXbFZmS/EXXX+bVYxQqySVyNZnfStWVE1aLrAdzGj5/Aoqh36oeEOD0t3bGE2ey8Ah4ZgzUZstXIriGmoYlJ4l6dWseuLJYk0FMLIS0gMQfde2NTowMiXV/nkUHcLSgYUUlpiTuvStOOY8FJ9dCC1BiJ9WinyUEF0UsAoDHSeTQOAj09nwBErED2Ky1eqXhilJnYW8QyBHBiOWJNOdk5zuir8Zf6NoHnln1EgCDAlIomoH7+hecdSErNnTVzFvdZ6tieNgkBkJbXXtSdZsZBYyXjcjHj1Qowirlol9R8CHj1fDsBQdm/9Ewqu5udk+3mWmMhu5BYrkC3Fy+XDPQCQHksZavTZqO5EeDp/o7k/j/sah0EPF7k8sEDCLcSueyAJxS5PBB1UY+K1Z4K08mZaL0Jqb6PyoOcwejnwtuQ4VxsevMXLaLCRolNxvHRXLzX9r60yqx0hyV1lrljBFYjfY028ExDxX3Pn3lxPLK/yfGSgC3zuhXX20I27OMCnpNtXPa3BOd10uJybl8otDMy87s8Tvpbwiejs8vDdS5iz8WhmkfS8aVGxSCYAiedS14EfRbo/DKE6Vz6rlSnaM6nl2cgE3WX+5jzItii7RJ6Hatj9JKxuJHBF2glwKq8migq3xIE0KtOShAA5Pm+golxz8X55caPVliAnkHH8fUgNEBHOhd/0KJY9wiYhp6P9/V34JLXBXR9qTNeiABqh5+Eq3t2rnA/LkZ/61kEJE79cKPo1XXRWOq7QZ0XjZ+eX0AowBUA6rOXsMu8QuPHlTeshCUtcPOk82rM3X1qfAF4F5PD73rPzYt/38NjkWQv0PEaD421Nwe6H6/+jHORD9r7nZrl2zKD+9W9H0r4j3rRHiXw7PjZPfaLb37TqsuLQ5HLKkmhiJz6yCzryiuyyPRc642OHwQ8Q4P1lXAq1hOP+pwKCLeh+opN97e1WFfVAYup3GuJjbu5deLRTjngUQjFm8gQXtBbbsWRca6b84O9jorxnCrAE3qAYJMYGg9+cNp8sOcefNyhfh88WocLOHVo4H25n/otAr4AaALAHCIfg+9n8IblYdvQZ3DxkH6/8+C44c/sIcS7A779c7vjhUzDX8Ovpc8Hj+ugW3GHH2GcBES7sUvJnT4dA7WYU+h1uOcMxi/A48H3OXxMgns43HwcTMpHTgyGniUEPIfI1fJTJrb/9B771T9/06qGAI/CACOtLjLXesbPsIhUVHjUrCHiFYDlsHEKwNNtEH09FtcFS68ttdiarQ54Ig8WtHQENB1txuPF8bzHMZ7Gxgbn/c7MzHZ20eNStRS/s82504njYQJG3caDJ2YP+vyY5modbJEdYYKO+eMTea1hN3kw/Dnm5/APPNpwfX1PrE3/SqU7LtXmeG96tI8PAc8akkQ7350k6gPP1h//yu5B1aqu2D+I8Qh4oqw+epz1TJhJBUMCL5VRekQrjWfzCcQpmiDQeNS8lIYyi63YAuR0OQf9wfnEoQdgbIDHU7Vkv5O6NXvWHGfoz0ZFP9ie5/Y4dOZD7geuk6gPPGUYCPUadeBRkigG0HBZjNFeLSfpfCcReMfsiX3gqUNOK2lxO+3CQWUxdFGpz7y/+Se/coynFuAJGvcqdkfcpDEK4Jk40/qS061H3iy5JkbAxKL7ewAePHr1Ure2AjmYF46Z8STZJ5QkOooBhAIexVNp+i+77HI/yHc4vR/4+yiBhwqEGFRHHXhkHyEVYDdRqulkuebNn+NVdhspjI+ZxIVPHB4BAQu2o7ZOVwisPz/XJlMILHpwpLOAB6TZfe8f7Odf+7qVF+8gNtl7edHKAA+qVjeqVh+qVk+U0iMQ8xEAT0x/tyV2t1pi7QGLrtnG0SO38ehyrbrRjGy78//7ri17780WgyH4YK+jKosxKHI5AB4Z96+66irHdmQTHXgN5eOHBx4MQ4p3kao16sDjzQpGs3YrWbueUPAmm0YUamQe3hin24fRJ7zoT/IIiOmo1g5OgzYKuG8iNEJsJ4O6UV6keYAufA9xrXp9rf3yK1+3dz9MwwsAACAASURBVF59zhIwjAfAI9bTGIGKlUNaTiaeyhiMxYON4vriwew8gx4/obcDb1ajxVSXWFTTbm+JjNC4LFdLLfdSsPQ8+9y//18qES6jAuFQe1NwyZEDz3wXvhAdHUesHcCDB1KOgEO9jgJ4DnjAg9FIzzlqqlZwR0xsa0WlFb/xlrPej6OuRzwuUK8Fx0kWvPDlz94R0AYtryShBw3kl23buNGyCX2YunihRalFzEFealqw6kc/sT/+5L+soxpbjKr9+fDQEpFsPSn51o87vTMxw3ojgmx0359wCOBxAIM3NrkHw3JLDeiGGtfp5egd7UuPoqRUWYU6CWO48bOfsVs++QlLxWV/qEV27MATC/BcfZzAE7LxbBk74NGo4FJtJEakmNQAMSAF0SUTX3JcpSuOdlbC3wuPwEFGQI4UBTzWNdZbIzFfaeSCFZKHF0dM0iHZOJ69ik1b7NGf/Mye//391k6XCYUJKve9k9+6o1OtN4tE5swC64EZ9AA+h2QEPiREAjrReLSSYTtxtSXW21iOh0spE0fX+MktL77bGRFt8Xnjbdl7Vtqtn/m0TSIa+lBsR/d0igDPGNh4ho84k9ZLklkNOTx1BK0p4G2gnXF4bYRH4ESPAC5scqYSSEzNJOgycyK9qAiqfNdriDGdZd7VYw10pHiNdJ43V622A3v2EYndZt0E5/SSDNqbRtRyVoF1xxJxDRhJGXEKyTB7j04biUE5uq/bEvq7LL6dgNE6sgdaGh0QHc3LnRJzSSwBswX01TqX3L8Lr19h2UTdRyp+6zCvswd4/EHoxyXbSfh/ENB2NAMc/k54BMZiBFSnJ45A0Gh+XAO8ozUGYz7oxGZZQeR2DRHiyn+T/bkfx0lfTIK1R5Jb1xFhdZ391tGn2jwqdjbwBEGZsBgAJzGi27JJXs+Ii7RYko4jACKvhNjRvDxLkFKEskn0zYW1CUiPWARuhIznpptU+lReLdl4RlXVknF5lN3phxq3kSivRzP24e+ER+B4R+BoAWfwdXwmpGhqRcwHEZjKRO/mz/rOPqtppl8XReQ7enCOq+UwrMgrE0bxN9zzSTH9lh4fY7mpcZYcR5R6KJLzaG/IW0yK3Pb6gAW7+5EHZCSMZ8yARwmLiufRa9SNy0ceg/A3wiNw+o7A4Ijz4Cl4T47m9h6SR9t7ramjy9o7e6xHVTMBnRjUoyTKg6TER1tyfKzFx8hIPcIX1xgSCH20WOVf5qQDj+rxbN68yTEe5fkMFHs/zprLIxzH8NfDI3BajsBBAiodBggY+HF1l/mfWFCQaqb0JrVnB288wPG89SN+hTpFHcPxJxV4pOMqE/rll1+iyFSpy9ZWedGNuBZXrRLwvHXsXSZGPIzhA8IjEB6BEzUCJx14iqmT8uAfHnAV8VQvRZXewsBzoqY/fJ3wCJycETi5wINqpZonf3zoQWrRlNjcuXNdXZUw8JwcYQhfNTwCJ2oETirwyBquVInXXnvVVYhTZTEVrgoDz4ma/vB1wiNwckbgpAKPnHuq1KfqeBuoeSu3oEpihoHn5AhD+KrhEThRI3BSgSd4yFZKVapouFqoqIxnGHhO1PSHrxMegZMzAicdeBTlqLq3r1LSMqi3q64AYa/WyRGI8FXDI3AiRuCUAR4xHvVgUjcBMZ7n6IwZdqefCBEIXyM8Aid+BMLAc+LHPHzF8Aic9SMwcuBRPZ6G0cnV0ugHqlaY8Zz1shgegLNoBEYKPAsWzKclUVAI7Djr8YSB5yyStPCjhkdg0AgcC/AoOz2G0h/HXQgsDDxhWQyPwNk5AscMPCp9elWY8ZydUhN+6vAIHOcInFXA42XujzB//zgHOHx4eATOphHw+tce+XXWAI9q3Oph1Vr4KMfmyKMX/kZ4BMIjMGQEVNpGLaePBD9nDfC4fuDdXl/0MOkJr5bwCIzBCIA26nsVqz702t8P00LqrAEep2TBevQTfoVHIDwCYzMCApuxqLksd7rzaoWNy2MzceGzhkfgtB+Bo2gzPRLGc+ONK0PF3sPu9NNeOsIPEB6BkzcCxwI8DQ3hyOWTN2PhK4dH4AwYgVMOeAoKxts7ZKeHk0TPAOkKP0J4BA4xAqcc8OTnFwA87zjgeevNcLH3sOSGR+BMHIFTGHies7feWuMqFB4sKCk5Odk+eMcH7a7vfx/3XewR4wbOxMkLP1N4BE7XETgW4BnTXK0BxhMGntNVqML3HR6BI43ASIHHy05vGDt3ehh4jjRl4c/DI3D6j8DIgOcGW7BgQRh4Tv9pDz9BeARO7giEgefkjn/46uEROCtHIAw8Z+W0hx86PAIndwTCwHNyxz989fAInJUjEAaes3Laww8dHoGTOwLHDDxjVfo07NU6uQIRvnp4BE7ECBwL8DQ2KldrjGoujwnwHKoqUbhCxomQsfA1wiPwrhEYCfCsXHmDy05vAHhcWYwrx6Dm8mgCj3Cll6qD7e3tpkJgQXGiqOgoF+0cE0PBIr3GAoAGg91YnD8szOEROI1HYCTAc8MN19vCRQussbHxNAAeFn5fb5/t37/fVj23ir7sda7saSSlGVNSkm3C+Ak2Y8YMmzBxoiXEx4/qFArkWlparLev15KTki3Gr8g2qhcJnyw8AqfxCJzRwNPT02OrVz9vf/u3f2M7d+60KGrBiu2oPGN6epotXLDQ7rjjDrv8isstMzNzSE4YtQpdtcKgmtrwfDHvc48uDfkOgFdVWWX3P3C/tba22S0332xTpxVZpMpA+sxHx7ojD3N+JZ+5aon6Kr/rGkH1RHc999EAlRp8f8H7B7vnwdc9WA5c8Ny6qC4TXOs0lvHwrZ+CI3DGA8+qVavs85//vO0v3m+Lz1lsRVOLrLa21jZv2WwHSg9A4RbZ3/+f/2PXo0cmJyU5VtTc0mxVVVXW1Nhk0THRlp2dzU9OqJZsV3c3fd5rOE+N9XT3WHxCvAOujIwMB0bPwbC+/OUvW09Pr331H/7Bzj//fMvIzADs0q2zo9OxLyW8dXZ2WmxcrDt/DudXoezgpXsoL6+wtrZWS01JteycbGtsaHQsKjsr2xISE62We2hqarJEfs/NzQVQo62V71dXV7va0pkZmZYGwEZGRLrj6mrrrKq6yjo6OhwT0zFpaXweGelATEBZVVUJpW1ygCNmmJWVxb+pgHbkKSi+4Vs6XUfgLACe5+zzn/ucA4q/+Zu/sfe///1ODXrm2WfsBz/4AYu0xm655Wb72te+ZrNmz7LivcX28COP2EsvvmjlFRUWhy1oztw59p73vMcuufQS6+nqsVdefdUeefhh2759u7MfKVN+7ry5duONN7kF/5Of/MQee+xRx6DmzZtnhVMK7bZbb7Nrr73WVj//vD3++OO2e9cua2ltdYt79uzZMKNb7LzzznNAJOB46I8P2VNPPWX1tG0dN26cnXvuubZt23bAJcr+/M//3ObPn2/33nuvPbfqOff7Jz/1KUAi095e/7b9/Oc/d/rwrbfeaiuuW+FsWWvXrnXnXP/2emtubnZgd/6y8+1mGNmMmTOssrKSe37cBNTl5WXu3rOys+ziiy+222+/3fLz88fGFna6rpzwfR/XCJw1wCOW8c1vftP+8i//0rGY0pJS+8dvfMPuY/HOmjPLvvt/v2sXX3IJYPR9+6+7/8sxCQGGFrCOvfDCC+0bfD8lOcX9+9TTT8MWUh2L0ediD3/7t38HwFU7QCsuLnYMRkxIi/ZTAMP73/d+++///m/78Y9/bH1Qo8TEBBZ8lXV1dbHAl9t3vvMdKyoqsgf/8KB969vftp27dmB/SrCkxCTHQAQYEydNtH/9l3+1yy6/zL721a/ZL375C7v88svt7rvvtvETxtszTz/DffytVVRUwrq+ZJ++89O2d99e+9Y/f8ueW/2cO5/YU1lZmWNCH/3oR+3/wPieeeYZ+7d/+zfbvWe3jR8/3n0mAFyxYoUbt8KphRjNjkvWwgeHRyA0AmcV8PzTN//JAY9YRVtbu/30xz+xr3/965abl2vfZqFPnz7dgceaNW/ZypU32l/8xV/Y3r177Ec//JGVlZc7W9E5i89x7Gjd+nV2Na1Ub4MNCED6UNEuvPACAKvZvn/XXfa73//OxuWNs0/d+Sl3TBF2nokYsjdv3mzr1693Kk58XLz96U9/st/+7reWhJp394/utkWLF9m/fPtf7Gf/8zObUjjF1RyaMmWK/e53v7MXXnjBJk2e5ABKYPPVf/iq/fx/f25XXHGF/YRnGT9xvD391NP2hc9/AeCpsH9AzdMzCJz+3//7fxYXF+ee/4ILLrTHHn3UfnXPr2zqlKn2wx/90J7HFnbX9+9y3r8PfvCDdtFFFzmVS/es59L9jYn3L7wYz8oROCuA53OoWvWwksHA09HeYf/zP/9jX/nKV5za8Y1//Aa2mgTHErTTX3ThRbZ06VJrbGq0p558yjGYj3zkI/Y+VLUf/vCH9uSTT1gmqs3yiy526sgFF1xg81GrZD/53l3fY6H/fwBGoWM/F120HPYTaV2dXahL2xxolQNkrahaUo1eevkl597//l3ftzlz5rh7evrZp+3WW261f/zHf7SpU6fab3/zW/vq177qAOs73/k3gOcy++pXAR7UKgHPT3/yUyuYUMC9Pm1f/ALAUwnwfOUf7Pb33m7/9E//ZPfffz/sKwuwvApP3gTbjtomb5/sU2J4sjn9x3/8h+3evdtmzZwFo7rcli1bZstQ/8SyZAcKA89ZiRFj8tBnFfAEqlZMXIwztIo5/PA/f2hTpk5x6oRUGS1mGZ/Hjcu3tNRUN+gyAsvFc9ONNzoGs3bNWvvlL3/p7CWyF8kAe/XVV2NL+rwVFhY64Pn3f/8ugDHFnf+iiy/CaG22YcMG+wEVE2Uj0isHwJMRedfuXZaYkGjf+95dNn3aNPvSl75kL73ykn3qrz7lwKagoMDZcj7xV59ATYyxfwuAZzDjwa5UML7AHn/0cfvCF7/gnu/LANh73nOTM3Q/8cSTMJ5Yp/bFxcZhbFaDw07LSM8EmL7h2N7vf/d7e/DBB1G39gA0EU7V/PCHPmwf/vCHnb0nDDxjsgbPypOeFcAj43JtXa2zzUj1kFv6jTfedOxm3bp1dumllzpVaw8L7u///u9Rw9rstttuc0wiBte71A/9TJo0CS/YQicou3ftdsbfhx952NauW2uJ8YmOqXzsYx9zjOi73/2uA6Ef/OcPnO2oE4Yl+843YB9a1B/9yEfthpUr7dVXXrH//NF/Ou/YXahos2bNsq98+Su2avUq+9AHP+TYitSrhx962D73hc9j70l0jOcKQgCkav3Pz//H2Z9++tOf2oQJE+y3v/2tA5pO2NVX+PeWW29xrEl2o6lFU+3PP/Tn7hqyMckQHguQnXPuOQ7c5MV7CzXzEYzrTzzxhIuBOm/pefYf3/uenX/BsrCN56yEiLF56GMDniY/gPAqZ6d0QcGHeEXU1tQeNm5XRlO5jF9hAcow60Uue10mjqvmMjEoiuNZBVP4/Oc/ZxW4pj9wxwfs8ssux15T5hbWiy+86Nzcf/3Xf22f/OQnnRr0d3/3d84OIy/WnXfe6diM3Nj1lF0sYuHGYZd5Z+NGd1wSLulVzz5r/wnQyLX+2c9+1tlX/vd//9exqaTkJGfoFTCIZfwJT9i///v/tby8POxEX3eqmewv9/z6HouOinbAc8H5F9i3vvUt+/W9v3Yesc985jOOjfz61792dh4BxHf+9TvO6PvP3/pn+9HdP3Ku+C9/6cvOuPy73/7O7v/D/ZaUkORA9KMA4U9/+hOn8smFfuen73TeN9EXGbYFgosXL7Yd23c4V7vuTeqigOyBBx5wdibZfq686kqP8YSjsMdmJZ5lZx0J8Fx//XXYPhe6jVEpE1deOUbAs3HjBgc8a1BpjrnYuw88zz6rOJ7POTYjD5SMpHKBixHk5uTYTQDMxz/+cVzK062hvsF+hIFXzEQq1AwWfEpqiiu5mJ6Wbl/84hfdOeRxUgxNJqDUgLtbbnWpMDJU33LLLfbwnx52Bui9xXtt4oSJzkB7ww03OGOz7EwKMJw5c6Y7t9z5ZWUHHAsTOAjwxFrkuZKdRsdmpGc4UJBdSCzqX/js5pv/zO751T32r//6r1a8v9ixHbn1pS5KVYwCyKSy/TXAtW37Nve9FwBaxSpNxXOm4MD6unpnx/na179mD9z/gN17373O8J6SnOqM6gcOHLBrrrkGIPw24QJzwoznLAOHsXzcYwGeMU+ZGC3g6SWAbx0epLthBXKfS71QkJ3c4FrAS85dYsvOXwaLGE+sS7Rb/LuIr3n0kUftReJ4xIx6SbtQgN7SpUtQoz7u4mh+9tOfwcZovQOAyWWuOBsZbW+7/TbLG5fnghV/9ctfEbOz2hmn83Ly7I4P3uEM0Pfeex8A8LxD7/GAhdiG2NK+ffvss3/9WbvsssusrKIc5vJbexrXuIAkP3+cJWD4fhyWlofb/tt4vW5/7222d/de+/39v8dNvtoZz3NycqlNO99aW1qttLQUQ/j7HJApYvtN7vdhPGhSLZVsp/tWIOINBE7Kc/bCiy/YfffdB+DsdSqYrjdj+gynqknl1N9htjOWS/HsOveZCzxOK/CicSthDvIo6RWBdyYet3Iq4CMPkVIoQiqEn6YgtiN3tOJzFH0su4pc7jkwJLnNq2EfimxuxyWv44NYnZSUFC+VAQDTsaUwhnbsRWJZYiS6prxHZQfKXISxIosV/9Pe0W7NuOEFYCkYtKX+SL3bX1ICO2tzsUOvvfaaffkfvuyYl4Dnve+73fp6+hyw6XxNzU3ueXIBn67uLi9IEGBRNHUkHjXpw6i9jkXJTR4N8KTB3sahWim6WWClgEkBWDcqqsBWz6v7k1E6DDpnFzCM9dOe0cDjIY3/M3wkA1vFwWwWwTGDPxvciD7IPA8+Dz4b/v2DNa8ffh4/F8vdXmBDCc7v/yuA+Q0M6It/80XH1r79rX+Bzbw3lMcVOnZ4+Y/BNpnB4zD4vnWwbHRBRsTwz8J2nbFeg2fl+c984DneaT0YeATnHA5Ax3ut4cf755fH64E/PGBf+vsvObvQN//pm3br7bceu7H3SPd9uGce7WcMn++sHIEw8Jzq0w4IyOby5ptvkt5xnwtyfC/R0kuXLT124DnVnzl8f2f8CJyiwOO509esCbcwDjQwgU83thslbyrpM2SbOuNFNPyAZ+IInHLAoziVDRs22mrF8YSB50yUufAzhUfAwsATFoLwCIRH4ISPwCkGPDXE1OSHGc8JF4PwBcMjcGJHYMTAQ6qSQkfGsNi7DzyUaQjbeE6sMISvFh6BEzUCIwceFXsnZWKs+mopK3wjuVCricY9rpSJw4xgULvYr3x8osY6fJ2gqrXvzj9YzedjHSRXZ3pYTetjPVf4uKMdAW8GQ6Fo5OEMDyU71JlGCjxqb9NIcb7YmHja24xBrtZYAE8AMK44O/9T6kQ/dSoEQKqxHHiO/ArqRzvq4e8daQSQQoliIJhKCHY/RGZ7v0d68Z1KHDuGV6jgvuZR/zGXmlNvfgdFiIYTW49hdI9wSAAyTJ2qVYbm1etM4P19mFOMHHjmO8bjgIcCfKOenT7awONhDcJIsXP9q9wr9dpypS74vQc3tUuuGARCoz9LZ+kZnQB6zy5BVDExCalaDClnTvli+jySXDJ9NlL4UU0hbx57XX2hYF41x/387eZ0EBM6S2dh9B/b31CCOVUakpoBKMRD/0aSoOzNtQdAwcvhv0+RNFfPUtnhU5+6kyTnfUM6vATfl3yoIsT1169wDf1OC+AJAY4POr3kH3V1dVP3ptvlMnVT51hlMxQfIyF1u6QT1tGfp7P2jG439HI1lC8mgFGSreKQYigTolpAqrwoEBIYBcJ6pPHqg616m0aPq2PU3dNt3eTiqftHD7/rPQdCah/EfOrf8Gv0RkCMNZhXgYPmT3XM9eM1yuSHOlbB5hJsPG5NOtAiKJa1d2YCj9gNLEdJngKaLtrKqMRGB0mbnfzbSYJnL5UFe7s6nRBrxwzUr1BGQVhej0lanWrl6VD+rgebQUCjaGwYTcJpDAXn46m4qBY9isRWAXoHQAqMdCzo4DRd7EUMxwVTsol0MH8dJNh2qMwJ89nJ3PZQS6iHOdUGE2I9no7tP4tUvwF70DE94Nl0kM9uhmQJi7VqjrRZaM4ENsxjHGV03bzye7zmOF6bS6y36XCM16jNm4ozj/HwYNL1BTrdCJ/6WAlw2sjWbqVjRCslIVqpr9NCFnYbf3cjrBJkCfSAXcCTrOF/n03ydlzPioAFdp2AbkdqV5RwkqmflJFuKRlZlqT6SGTjJ/OjomrxdHSNQYhVnzqw/wzQdIGOVOUeN6fK2m+lioDmtA2jYzvZ/M3MaSv1kTqoZd3DZuO1rR5s7/Hn1Zvc43rEs+bgQ2wCUq+8zQRw0Zwylyl0VEmiQkKim9MU6kOluM1FRfCkhnnqtLetn5E2HoGO1CoV/GoBcFoQzhaKYzVTSKuGVi9V6JR1KraOsUq7oxjP4K6cZ41QnZAH9UVNOj+gEpuUaGmU28ieVGh5dLjIoE50CrWn0yjfkUzjwETAScXIxHwGF5iXetWNCtXFfAlwmtg8mqgr3UoDwrrSEquhjlANZUia6uscA+qDygv9vA02DDKjP9VOjwZ8UK8AF4FOFm3Bc6YUWoZKwKhZJIXy0lLT3KaiDieeDchrWjky4DkNbDza5cR0xHJU46aRIlsNNKurpQJh8aZNdoBqfE3U0umiHk6/L5zBPnj0zsDRn8Yz+Ywh/xKC2q820ghhAmAj4JlEI8Tx9LDPpORtOu+lIqiJ7KCqAeTULv4T6Kiom1SrVjaSRmoaNVA7qJaa0KXbttqBbVsAn1JrZ4OR7QCqE6I2IzVYn8nzMJrPFoJyaRj+phLH3KXRk23inNk2gSaVOZMmWyYAlA4oJSelOPCR3Ueq9EiA5zqaUi5adAobl6UayWCswlqq8Fcn0GE3rKA06e631ljJ1q3Q8kaLQLXy1M0w1IymMB7pXDIs+hEN1gcIRbFTZlDadToF5ScvWGQ5EydZVm6OK0ymQmSyD8iQKS9VZ2eHK+rWiDpVS2XIqh07be/aNbaHMrktzHMfDFcKnpvRkJFu4Ncj3Vv485GPQMhL5Wuu8g9jWbYU5nASveSmUuGzAK9UNgXu0il6p5rfAh85EkZi4znlgcfZdRDAZqrx1VETufpAqVUCNlspJF+yeYt1sVuqS3h4Fxy5kI3KEYMG3oU4gP69qF+Zkwtt5sWXWBF97HMBH1U+TMVOoJ5fUrfcZoLxWLWv6+iAWrF7p22nIuOuN96wVlSrKBjOkC3EN2AK6PRy/4S1rVGZwuEnCdTYYPx7HQOigkLuOJtOPe85NC/IRf3KzVWlywzYrLehaK0erVfrhACPiqa//fYGe54e4yOJXJaxUPRNjfoaEMYaCqiX0wJ4x4sv2e43qI+M2hWh5lZhCRwTATyWk4YYEEblnPkLbOHlV0DT59g41C6Vk02mr7youcrWqpRrDY0WayhCv+eN120jXVWbUK8iDmUkDtiVDzxyq4dfJ2YENNTd2HPSacs074orHfPJp+lBNmqXygOL9WjjOSOAR65w2XZUL7kWAa1CQEXF11EwvQWjo1yrEr5+/c9tgd52ODjAyW2ULuiM9wOd4CBzFfZ2jZIA++DQo/ge7Duzly+3mXRdnUjn1FxqQYv1CHjkxWpAxaqG7ZRt2WLvPPO07dv0jvVjRA6msn9Y9LP3vk95/Dn17tqL7RnkXfe8l2FgGqVJ9U7To7HHVpdPcuc5V15tk+nllkvJG3VMEevRulMHmE996lNHDCA8RRnPXS4GRJ6pTjweKpJehQ2gfOsW27T6Odv62usWRWxHKKPE1RYeHFEbFBt2qOOLpj8HLp1imDtWAWmHaSQ2qrN3hp8siPfB4mZ9uFxz586xeddea9PmzqUr6gR6l2U64GmHxdarwD5tpLfThXUzvdKa6MQhtTmEL85oN6DLDU/D8DYLzaU2FX+eB/0bBp/RFTZtBN1sKHEYmxfSk23usgts3OTJTo1OgcnKcbAK4Pnk6Q48ChRUI7p6OoaW4+3YT3/ydY8/bmU7d1qcVCxfML0cIW+Qg3yhYMgH5/cMpPp4uT+DPSVh4Dl+IQ3sLx4HYXgjiGimjc+c666z+UuW2sQpU1zfMtkDWom1qgNoynfsgME+ZfvefMu6W1tceL7nM/dD8/3cL8++PGBk9uZyAHjEfkM7jJ9W4cX8HP9zhc8wMLTdzEsfnq7p559v59Die8K06XRSyXO96RS9fvoDD8IpA6QTUNSsA8R07H79NVv/+GPOdU7HLC8gLUhOFOg4oXXo8y5js5fbhWomVUAsPBSI5rGiMPAc//IaDDw6m8zD3RLSK6+wxcsvtqn09Mpid1RahVoBKUanFPXqjccedQ6DCNRqF7Y/ZEPxkhU9Ruv4lP8zkLcVSgr2N5Ngs1FwYjio8PjnNXQGhr6H8e/EnlMwb4EtpaHlFDFZ1C3Z72KJYpeN59N3ftr2HSFX69RVtQAeZ98hYrUWoCmhKd/OV16yjU8+aR24z6N8lkMA/0BWNCAUCG0gol7AmafvK3ZEdqOQquVnPktww8AzCgIKMHjj7kU5C3g6EpNs8iUX25JLLrUiOq3mYOcR49G81pTutxKaM74Oi63bs9si2QxCSYhufr1oZ70nmj8Y2JxqFVQjGKxeBdHqwWYSZjyjMLE+4xHwMA8d0bGWzVyed/0NVkSzyQkyMovJYh5Z9dxzAM+dpy/wiLbJjS7Dcg2RrCWoV9tfesk2P/OUdSG0Ah6P3Ch3SLlAsB0XzIawgrxxxBfIbavv9qKuRfgMx6VRsCScwXnQDqndMdgph7rmPcN14LA/mCclBHKDp9g3sgZvHcz9GyTXDagDwSo5XHCAd7WDXnPUROwYTzRocDReAp52Yncm0G116aWX2VQZ1fCwGgAAIABJREFUIwEehdtrXqtpbliybq29/sTj1kDL5mglgIYAxwcesViBDnahGIXq447vVO4W8xpB8qjbUIZkrfuJwXpvWILw0YzuwJMP/babK3/QQ58cBagNnqeBUABvIxwSnDTKASEh2XKb7jB58mVzyPN4Yu6/Dj5SOo2Ap51k0SxUrCWo0NMWLLSJkwCe7BwXIPqcA57TmPEIeLrINnfAU1Fp+7EF7Hj5Jduy6hmXiyWlKpTC7++MijVQDEketoRZuPuy8Krsfftt20KB+V4EFcrjBrbX7ZQqqQH78QHHlV3w9+qQO3cQWgRRJcFbzlvm0Sn+76l4kf4OjM7n5nr49A0HreA7kT4r82RRgjLIOO6LQiAUriiEOzfpB+4m/Hw0nUNvOElnofJ+YIwVo9PvAlb3Hb38m/Oew1dlfJuJs38FNpVhyyNYLkdac7pHBzykS4zHHrAE4CmaPccHnljnShfw7Ad43nrqSWvcX2JR3LM6rgZMx90rxsw+8rxS6VE/ffEiK5w2jY2oyt6mlXRrZTWTqSoE/maiMilOvdK8KvF0oDKB7rff2Yv0tMHCHw6w3jhoY3JqncaLuXXWIzceQ01GQ+dzYIYGxgjwDdR+zwLubxhITAh4vJH05kDz7tuqglsLbAODb1X34m+8gZqpsQqpnIEYDGyXnJ1xZHzcMwwTrwAcvSdwIzUgde7L/ifcfw+/CngyiqbZOdeusBkLF9okXOwCHnXzdcDz6TMAeFysR2WV7d8u4HnRtj73rAMeMR6X9+PWmZ8DhFWd3sC2/PrrLTo905aed57FtDTbr390t+3btg27kLc79jnQkYGZuEz+9Wq9DC00FeF2iWAbGJoZ5MTT/1xT1Ce25cQmsDscpGjSQVZqaAc80ioeEAMHdlI79My+scr9HSROBnYQPZ/GxxOjYFHoe4IDTyMdYFrB53rLB2D/C0GkwmFv0R3uf8N/qAHgSbR8gs6WXoqqNWu25RLxGsfmoA2lSg4DgGcNxuVGQCjGAaOfTOrm1wOdSHbSuYBXxtQim0LU7FzO84cf/5etf+FFopt7eCRq9/Tzr19aw0GHAMlnQl6KhkNmH0wO9zQe8Hj4re97G4wzOw1nDoPBIARL3rkHA7r3NX9B+2PlgVaw1ActfR80gvF08+jmd+BiArPhLweoutchH3kzHwI1B6TexjVwj/5eFbrngfv3bnsApTzGMwA8i/FWzly4yAMeWmsrIfiMAp5qGE+JgAcbz7bVq/B+oGo5AfXAR4vQGZaVB0QG7a2f+IRNmj3XxhEx21W8z375gx/YDkqvRjmwkaB6LtgegKdHQisBRVAjtdkMmjhPOA4OPu6L2l3FJHQPur4PZG5SvQ0udDpvHwusH74cDd4kHSPxrufeHixAg84TiIzgwyuJ5QGRXlFc0GNrXuKIA1fdF2qKv+F6LIlndj/+eYPjPQbHF/ykPxDZYwfBogp+HTQs3voJhHVggQwHniWXXGLTyPXJhbnIFtDKHFbiSpeqtYYYnibSYDxVyyuh4XK6uA+x2AhKMSxfeYMtojxmJn3klSH9yN0/tNefeho1usuvvaRaPR7YuAJi2mBUEE5szx+RAc7ir+JgAQfuTjel3hg4RhGo8H1KTvUfftBcHBy+hr7rQM9HDW8JOxhz4xpgfwgsOFSg4qyQDug80PHkyDtKnzkW5XLeBuQoAvmNEOPzBMSXNu8vB1QR1EfS9Aya9xC4+cLmFxcJHe8xce/lYFPAgzy1I0/pU4pgPADPosUAz2Rn4zkDgafCMZ6dqFrbqNvc3QHjYSAc6CCcbpdUUpt2SFD3vCuvtGtuvtWScfGtg8Y/+9AfrR56HunTcDGcHia1MyrCYgGqbPJQ4jF4NlfWWBUu3i4SF8UMNOlecSRYkWxCwZS4imy4irFVdGFniKVeyTRUgCZSOsqIvO3lvUBYosVMeCG6Tqij3SpAJXTnG1iwTr2IpYIfkyqbVBCDosUkgYXTuWd2nEQgRQZxJvEUSVmZGghnmO1uarAqJVYSnKdT696TEYhCVBwxxwikNiUx3nYqv41SEzFiiLo3sT6NJwfFY0eZjPdJ19+3Y7t1EW/jdn5/oXh8SPfjLU4dK6ahM7lKdf4gDQeec0PAM2DjqcKus38twPPsM9YM8MS4ofGLhwVgLtYWE4Watdiufu/7bMacubaHKPjH7vu1FcNi+wi5kFrlAIf76BH4xCVYJswqFYDqgPHWcO52Um6Ydvccuk+3gIMJ5RkQBS/XDBuS5EPfmUjah0Bux+ZNJCC3ebPF/6JdHRq0PM2gAzaOcxuPH6bhvsf7sDXNjeoVqSpmP9HaGknNvUAl2m2cA2RGzDkhM8sy8RJBCy1aGyJpJdVE7LdQ+kXYp3GN5vlmz5/vNrwW7iudkiTFOF9qCcaMUUEvXUPP58esqYJADrJSQJTxbvLhmsl5dICMQGjTcfunkxeRQsZbCbwCPc5B+qfcN6HNpZfP21C10kkGPueaa206wYSTSRzNxqyhdJjVNHS4E+PykSoQnrJeLdl4OpmoFgSnuhzgwcbjAc9z1k2WepS8HSqv6XZGpt4BEMDDwk3EtXfNzTcTW5BhTz9wv1US8ezc50y+Fkh3D4GJ/Bs/LsfOv+Jym0+QWwTlGXZv2mqPPfqo86YlsMt2k8TYxs7s0v/9KmzKR2nl+pkM9KJzFltxCWUbiLa9HBuG1LmN2JR0rRgqt0m4lNahnTc2OdkSiO6UsbsdYInmnBJMl+OCEb2Nc4yfNtWmTp1ixYBsCapHJBOsxMo+bF1dnCfSL+naJzmgMv/57DgLL17ubFnK4t625i17kUXc3t1r8WIVgE0ei+fP7riD85W6shKFlDd44uGHrZwx6eSaSuxT7ZVYjPFdxNGofMXl113PQumzl5992hXjio6K8WxiPFccz6DF1k69HIU76LkSGateAKoT9YmiOW4lDQEeVN4B4EHVYnNo5vjqkv1WDPCsDQGPgN4DdadGuxINzJj+ZoNYiEv++quvscd++zvb9PZ6ABow0Krxy6LCfayX784jl+i8iy+1VO5VaTarMV4XU8kggXvtU5UD5kAZ9TFx5I0xBzH8dPLsvfx7zkUXuqjqcsZrIUmRSgl47I9/BIDb3aYg0FFtIIF7VBzJk0Ri9yI7nc3EIOlz1anxAb2Fcyanpdg8QLOelJ+dm7Y4Zq37kBx2AIb9BMjKNuj2RFISihYutosx2uYVFVkk815KVPcqNs+yslKChpPI5qcmUX+Ufewv/wI1NMoOsFHOohrA6qeesp0b37Ee1ouSbyMBJ0UTa37bmZO53MMSknafhSVWswk7U4WAmvtRTaVYzqXSJKoWoPpJSSlJbr10NzZbD+dzG4/AlucPgGfxNdfYdFStyZNk48l2xcKeJ+3ltI5cDgEPi0cspGT7TudOF/D0kKnu2Xg8sPHULE/V6mORRCLYy0HjDBjPs396yNqYdEcbpTqogmEvRjKEZP5ll9ptH/qAlQEYm9etQzgabD/lNuade66NJ8q2it/fInYoJzvLZs2dZ/FMvHaD9biAC8g9uuOOD9g7lOV45c21jvHs4HcZ8ApJD1AVPu2Cr8DQmlhkC89bauPJ2q5ksW2BcSiFoIDAq0Qtwrp62/DOJluILeSKyy+39S+/bE9z3IQZM20yx+j+N738qh2AgbjcNLczRVk+XqILCOK6hGTMDSzgZ7CVaMHPWsSCgens4bkaWBA3vOdm27dvD/fWY8uwlezZvduaiI169ZWXrR7AOhevk0pYNLBId27ZagvOXWpdCGwx4DStsNASWUwl2GMEmEWAdCyV6LYDsAeIw1nI+cYjdBWcc82LL1ojQu0M3mIQ3Gg7bDDfBx7PxgPjAXRV3kTAs59xF/C0SNUSc3DVCrWpsPNqTqUmsiB7AegiDJk3YdB88N577QAqtEAu0qkYUqv6rYNrJuTn2ac/+1nH9t5+7Q1rgIWW4BXNIl9wNmypn2PefO1VwLnHAUJiIlX1uJ/dmzdbPQvvA5/4S8Cg214iAjeGucng2d588w2bPn0aDCrVEgCrTXTF3Uzpjlnz59ks1EcB/Ka161zdoZlcQ543yeSbr79umcjg7e9/v5VT8uNRZFFq7ByeI47PtwGe2996y/rk+BBz5HmzYDvzAc6VH/qQ1VNf6pmHHrJ9RO0XUpZiEptIbXWNbdu4yW5lYxVY7QWQzodNlsIeG5jTXe9stG1bt9mUefNsJvKh4mobmKtkwO485GLtW2/CfgosB5tMY3mllXFfk2bOADiybH/xXieHRcjyPOS9getuwI5WQgxdP/LgGC4/TtUqnGqy8UznWcR4tPkJeF44dYCnxvKJXh1ZkuhdLgpSO4/zfjA4jvGwULYDPL1CdFHAAHRUjAiBSIbpZOZkM7nRNgMqmgRNXv/aK44pNDU0UWSqBjdsi3UzY5EsiCved5tdeNllds9dd9kazg39sJs+8AE7j5iTppZWy6Dy2uYNG9wueQE5RzuJNZnKpGyE6rcjpFevXGlv4uLfyERfRjLk2zAOVcpfcM65VsqiLMLy/wbnbWJxX3j5pQ4wIjnXGoR0IlS1cOIE2797l43LybNXSQNJRG1atuw8e+Xpp60SEFyBatFH1b1Y7v9tUgoe/MUvYWHtXjY+52plgSow77ZbbrWnn3zCXnj9VXvfRz7idnvpEvLkreVaM1gcu3ftFB+w5RdfDIiU2GQMgq+xMAQ81xAIVk1aSjpj/tYrr1oBAt6CwFbCNK+GEVbs2+d2MrGbBecvIxBwulVA7Tesf9suveF6i2HxbwAsV/3xIVfAS0xP+XPDgcdzp8vGE+O507mPkvVrbd2qZ60ZhhGjOQ2xHdQhVM9E5iALu47KbaThir+C+3/64T95FQt5voaqaphDMyDEzs5iLmD3/9znPmvPwHKeuP8ByuK225wLL7Rb7/igC0Yt4Bz7AeF9MMpLCGxsZJx1v1Jv3wAEr7vtVqvHmfEa7banKCp30gR7lc3nWhZZ5YFyZ0StZoG/yXevv/k9Fi0ZBGi3rFsPqPXaEkC2rLLCMeLdyGzxnr12w8obbRPpPmsAmeWXXmKTxGYkk2UV9vO7/sMqYWPORiMbCj8Z4yfaJ7/yZdvPnAlkZy1dYrcBiL3dAtl+W/vyK25DaOd5isvKbfmVlwNs5RYHIAjE3mITuoCNN4VSJJKf7bCm0n3FdtlFF9mrzNNFl19mScj/6seftCoKr82/4HybxHPGREcSh7Pa5uMinz17lq176WV7/oEHbC8bpYDHqeViamwCUrUWSdWiYLtTtZD7BM75wgvPH1Wx9xOiao1D3xbwvBBkp8NYDlY1R6j8QQTkru8PBR7HeNBNA+BRDV5P1dKuCGllZyqk8NS8c85xu07lgTKqp2Hs4vfinTtsIqyhD3DawwBuX7PWpWGIFV1++222nJyTX919t73FLhiLynDn575gcXjGnicD/lIC3xKYzHKEdBIM6PcPPmgrblppLezW+/fusxtYdPfcd6/tBxg/9rGP2zvr3rYswC+b6NxnAMjrb7zR7YZS3eYAhPvZOUg+Q/8ttimwGQpH22pYyooVK2wTO2grjOQc1LcHf30fzzPLbuece7n/PhbpXozjj/3+fgCv2dmJRJPbkdRz2O1u9YHnjY1v21999q8592wrQdCiEdR9XGs6QrRn125HnadPnmhPP/OMXUXwV7PqGsMAli47397m/AkI1T6YSyHBYQ08YyW76QXskn9C+HdSjuTSG2+w/MIpsMHx1guLe+qJJ206zzULINoN23v8vvushoUmYDxq4MG4vE6Mh/M7ewK2K2f4gLmmTBxvi1h04wGraqpNtqCWnA8bffm5VZaTP95VNyzHpvUOgN/IYu9BJsYDbnd+/vP2LN7PJx78I2p5uy2n6NQ1eDof4u/57ORTpxbaLp5TjOAlbBKxqLSLcdU/zrhcd9vNtmXDOzAezd9Km1w01V4ml+wiAPfxh/4Es51uk7CB7QZgr2X+i3ftsQ5sJgf277XUhCSbWDDenmXuZy2YZxlEbT8Pc7qG7z3FuaU+f/YLn3dqew2AEdHaab/75S+sjM0nEuCMFACiXmaiuvzVV77kYtce/v3v7HwW+E0f/JDtAsh6eJ59rIXZyLsqcZZi11mAzDz1xBOWScXHJayBPbDTc1H9G7DjNQKS1TD3Osbv4gsutNfYKJfxLNsAoycefcwWLF3qPIZRgM5kmNCTjzzqaiufd/FF2IzKbdVvfmM72GAM9V1GQhTpQwMPx2mDOmVsPHkIzoYNb9vzq19gB15rbccJPBKmaGdMjnQ6ZwagcPVNN7rdQojejnoxjYWtItWyBchgKh139pQp9qhoOgIgo+jC5Rfae2EIdQDHFgyI5UxiEcfNXrDAKgC7fBoR7qHgWAcsaSKC/msm4eb33s5u2267sMPc+oH3u+faDOO5mr5Aa8k3EoVV6YdH2XFve//73K5cxeQvYXHvY2erZmevYJGcf+Fyd5/P8r1bbr3FAU9De6uthEW98fJr1gI4rrztNgR7N2pFse1BzSqHeSQAtHv5vZvvdgI8S1Gzbr/9dnvq8SfsRUpLfOjjH0NVOtd2cn91UOlaMsAvBED3cR7Zmiay4z/52GPu3E3smNXkwV1yxRWOxTXWVFsZ97eMnbGVMS47UGKLYUv3/Pgn1obA/dUXv4ABnEqDgHYfnz/x2OOWhmF+OaqaVN9ffO8u2wwIeKboo2M8cqcLeFoD4JEnizmNYxO64PrrbCLsYC3MrJjFlIH6uGzJEnuBhd0Ou5gOAFxADthWcvhexjOmjhRJMI2//MxnLBmD6zbAtJI5jUKdugimVAZjEcus4Tn3MZaLsE9o8SWxYJax6z/0+KN2I4ynj0X2Grv9bNTKggnj7SUYxnlLzrU//OY+m0WJjxlz59sGFu61gJnYuAy7+wCP6bCAqRMn2yOcR4CZxwb02COP2W3Iyf7SA/Y2C/iqq6+ifnGy7UBm6surbBObRTxzWo5s1MPeZPfLAXg+A+PZu3O7PXjfb2wh4/vej37M9qL6lnLfkonLYeWqQb0fAJw7b7798cE/WB5zuww528gmcD4MvIW0FMmv5D0e291ll11ur7/0oi0lxu01wPQV1soHkP8iypeUIe8TCARcjWy0cdy5gNEECMPj995nzzHPvWyYmlOtsUMxHnm1Xnj+hVMnjmcsgCew8fQi8FkIxw233e5YzDMIcT0qlVA7mt1TFvx0doJlGA1n4F7//c/+m8W13xlGk6CiSy68wBYBStLJ11NyYzu7yXJYhGw8ZahLr2G3KGACcjEyvsDvF3AedbfYtXOXXXH1lXjOUgGtLZZLANXObdtdPdoEdPw3OZfUMwHPNiZ/KRMp9aYWQd2IjWDS5Cmcp8PeFi1GsMRMBALX4TbuZQFJ2GfAVKZMnmrNqH1bqEM0nh70CVDtB1kALY110N5Im85CWH7BRbYRu9MadPnZhLAvh0rnsABLi/fbdu5p2oxpZPdXOsaTjc1hDddcyjWbEbBdLJhl/J5XMIGSsrX2NkAg96g6OtRyP5MZ29Wofq0I3goY3ATUMLWaqVU0OWxjOsCUD/hIwJ8F/FTmwvkBnY0H1yusM7DxHEzVcsBDUGgz53Kqlq8+K0r5Uq43k+d59dXXsFtsdVQ/DdWrlvmVcV7AcTE79lrUwxdQNdXeyNm42Dhk98hGdd3PQl1DpcpCNp15vK/SuC8S5Kbg1Pmcex2bheKKZvIcL6IWa4Oah31kH8xNY6AyHlsprTtNzOfFF2DPk2z8hEm2DhCZAWOaj52nAyP32jffdLawfIpjae6nYhNKg5G9iI3kMjalPGw3a15/wy3ehWwMMaibm955xxnrZYp44oEHrRgwiub9dO575c23YNussBcBWRVdvxRD7lTuoQHVcB3F0qYBcrq/asZCkcOvc27Zk2bAhN7gmcSo9bw93Z2oxOucQX0+7HQrgDkdMN+BXGzEHnQRG9e5F17kepjLG7uTTU2yPp3ja2FKqwGdXcytC7Tlv8MxnrMDeJzTQ7sjldHIB5qO8W0OghjPREq1UT1f5zqV1wLbRQ+BZvugqhvfXIOnBq8GXhq5hmMBqxTAQgLfiMuyCU9DWhqdEjAka7KasYFoh9c5ZG9KYieWq1nV81LSUi2O3bQNYIjmOh1tqIB+NwUlQarTgliGYlZ0nIRYi0PnkTdLbmDp6UnJeCvkueK+M9ipVTy7jhrEMexSaanpLiZFaSAL0KdbaupgAK95Be15dhl6k+Xt4DxyrcawIKXb6/7ltdK147B/9aDWyegbiwqje0tIxuOBIVzeNNnCUlgk3r3R2ZEFJCO6irDF8dwtgHc3z5EKgKvDQA+MoFc9zDg+keeKQY1tVpcP1C/ZOZw3+ZiAR+50j8nC/S0XADwHo3wOi7mbe9H4uL5aem7Uoxi+V8Xm8DYLTWVTFKOi8IMIPktmbmQ01vg2cm96Jm1A7hkZW51DhuU2Ptfv8rQ1wUDjeU+FrSRD2pz0WSeeHi/osdkZxtVjqqWFsZatIyPN2WYkJ3JJx6Cay5YktV2yICO65Eus240j59T8SJ5Uynf+OYvcfbzJRqNC93p2FVBPo6yoNqAmAEEyrs4dqQCL6k83YY+T11JyqP5juifZzKJhTlr8TciXvGvKGNf5dA6BiuauE++jnkVpJ6phnoCcpBJsq/MoJEGhJDISJyJXbTD9JhwfGjM9o8IJznrgiWSWneuVgZWHRwOdymTlwE5SWLxxqu3LaHX3dDLBlNckvL4ej4Bc5F5Eq0omeE3k5BEJ9eDywnZCr4EAKi9eY+BDPzCMawxUzBv4thci5gWduaO0YHRW/39+OJr7MxSSL5dq6OLBtbxzqj+VVLhuBEPC47wgOtYFtgUhad5tDz7H4LOEomWdEPnBZv4XvOiP4K4Gnn/wO96wBLFH3sMMfW/AcucBTxSMJ/6oGY+rOODig/y2KQIQFlx2Xi7GWmx2LBx5LtW6qBOwlxenhl25FUBwc+rieQQ+Xiskua5d8m/oGb058cIrvXEa+E2P4wXrubFVrJSeji+677j58+YimFU39KEKZEM/HRyj5UeGuuO9dBc/eJDjUwEhnUabV1AxwV3DAezAGA+IZPAMQTz6UDkJ7u5dchQSXe+XgbsdmEHv6fxsAN2VD/LBobr3sxx4lKvl7XzeDum5YBXypKAqDVAQJeqm2Q+G8urvDKRHuAhmP8LVSx490msg2tTJovu6L6xHOtT/fBiuDQhyaHEMXdrBaT1B8sLiPYkcALlDXfpg1xpYhV4sdWgZemts0F0Oxt8jj8zwexgx48EOocjyIA0mmFOX5qA8JPfY3ty6URcL9APxXNNG/gs2FK91tbepuMU8aK68GXMPPuTlRQoPvOV+9Y9zo+2Pj5uF4B4Gpc0MGrwh5w3OeajZCm1OAaUIoDx0jdAdh87rKm769xR8OvRxBm52KLAOghz/gMEpFsNTLoIg2EBOzmrgcSkTfpKol1AY/CiW1gsmdDuXW6TBcvV2EIGOUiZEMTzC44FSP94kD3gGlt7wheT9rW/4e4m/G70r8/fgB4bePTgY+IvJ/9YApxgsrsOZRmgfOuQVD3ktX3CHnNEXRG9RemM4sBceK/AMjeM5pI3HBRCWuiTRgfn0NpWgLIaXkqL3grn0gDhoVe2VPPFrLvm7dQA8AVgE+/zBgOddg+iDjsduDgU8g4BqmOgMPu7g4DDoihpr73G8tAb9FwBPMB/+fQwwmYHjh8+zl4/l3UEo59C9FyReeNcKTh26V//tYLa95/bSo53k88ZZy3i2KUkUu4QYTVB5cKBQVJC/5c+aZpPBDkLHvVIYPuPxcMQHHi8q103+EV+DV2hoKz3iUcf2hcHSPPzmDgdhR3E1XzBDQvauZz/UHn0U5/ax62jieAKvllImov0sei9PymM4mj+XX+Yyy4Ml7C3OgM2GymL4E+g2HIX9+8m/bqJDQDqU2RzuaQaYzdBvOVz25Sf4ZAhQDKzrISwq9F1fhQmdNcR2Bk7qpkPXCc3LCOf7XRmjA2Mw5N4HibAvEiEyGMpV9Mf9rAaewdnpwdLwBNXbDUP1XAbJilfsXcIoluOrVE44vR+n0w/JTj+6xRX+1qFH4GCRy4dkPLjCm/E0StUK2hy7OfUZbQBCIeBxW/TA/AXF/ENzqTn1i7udOkX8Rwgcp6BwjRXwxJD+cxWeP9VuPlxBvojamtrDcgMJjWIBXqH3lWImRsWdTsqEy073y2K4FAgfbBylDJEDT/V698sHGe1GgQrmJ9ENANApONun6S2NBHjWKjudOJ3oQNXyLLr+PHoLVo6EYSTDV58HRDEAGVdR0rfznBrDN8AeHVPzZffUuLejv4uzGni2El7fDagpdDxEvEMAdJgdOKDhTp/2Jn+QyL7L2Hj00xH+5sFGYCTAo3o8TcQxRSl9PJjLQKMNCpcdbph9lTkQCG+qh0zwKTBJSsqMsAR29zhKh3bgXe3CO9dHNHDfYKv2cKv3KXDnwS2c9cDThfs0KL8wgD5HmKHBFrOjsuWcQjN+Gt7KiIGH6Gx1D33X62Dk9aBIN+zNU0yzkZE3hqzyyeMmWkHWOGtWLfHmRmtsbyJh1asS4Jgd/1d5D+enO9pnP0HycdYDj8ovyB4wKq/hxrVROWn4JCMGnoDxHGnoAnZwqq3KI9034poQmWDTJ02zCTnkDlLZr5Mg1laAp6m5nrpBnkyTMkUwaYfVdbRYey9Bmq6yzqnxCgPPmQ48p9hufSxiP7bA46zLAwE1x3KDx3zMcBpydBugwjdSYlNs5pTZlpNRQIwRDIiaOXJQR/ZRTI7nUaJoBAGvbV3kyTXXWml9hdW2Nbjg1lPhFQaeMwV4Qrr9YNo1YG4aovqfCpI3gnsYW+CRVjKKeshRRQ44nz4qvorPxbi0FpmfFBfW1dvpRcL7L6lV+s+VzOC/bqXnYL/KTMiwBbMX2ri1lfhzAAAgAElEQVTsAuvvJl2H8i1N2Ctl64nD9qP6Qj2dqnRItExchJU1VdrWfTusHQY0EBM+gkkY5a+GgWc0gWeUJ2dEpwsDT6jYe8i4PKIBHKUvO+AR+B+cvehjAU5iLHlxieTBJdMrnJyoWKpMtnQ0URNnH+pRuzMLa0pjqW+cFp/qkjYV+NjY2kSZkSZKrMTb/JnzrWj8FEuMjqMaQJ3tpoQLlcMonwv7UQlZjJdkTFkr561tq7X9VaXWSRb6KMLsMQ/aaALPihXXkpy90OWrnRbudHm1RtXGc8zTMIYHhlWtMRzcQ53aY51BHtXglR4N6GQmptv0/CmWnppFZcIkl+SpUlANqEKbd2+yitoqlwCaHJtok7LH21R+lCAcRXJvL56r0soDVk5oSX52rs3iPImAUDmF1vaQ3JpG2ZgkElNdHe5E+sr3tllNXbnVNVRjA2oZYFMnWS6OB3iC3EVVmCyivO8KaiQtol6zqnOOGfAEhcCep+jSMdfj8eN4zkjgOSqqfxLW4nFccsxUreO4p0NCDjebApvJzxlHVnqPVdZVWVsPBfe9cCJLiIizGeOLbE5+kcVFUQxetb2VyQ0TaeulgkFHs5VVlbl6xZPzJ9vEnAJqFbdZFWVgVeo1mkqKYj1VDbUktLZSUZLkHpdCRuY4UfiZJMGqqLwsy+1UvK9pq+Meysk4JzNdXSEULCnt0iUunDzuczzAE4y9gEd1xb0KhGMMPCpQ5FUgPI5CYGcw8AwkCjrpOiNepw3wsI5j+iJtSnqezZs2x+XxbSreYfvqyyiR6zXAS45KtPmFs2xSYg4lUnusA2aj7iIRtKaIjkOtyqTEKH93tndSyqLXOtrVpIAWTJT2UBF0xbN2oor1AFZt2GtUd6mZUrwp8YmWQpH9rMwMSqakcK4Yq2xvtj2VJVZeT7cT1ZRW3BnAQyGS4a3+TricjBbwFFFXyKlaYw08udRTUaW+F55/8axjPJosD0t8RBkU1+btXT5/HrKR+fuaIlxPuHiNzgVPF+CRTSYhIsbm5ky2wtzxVFKMtqr2RttZtd+qmusc+CRHJ9qMcZMttZs6Nq0dqE6qgxRHM4FU+kcmu9a9HeqywU8rNX3UFz4SVUyld1ULSbWaVNtHItBNQnJDS5Ork5QGy8mkE0oanSiS+a7KfdTCjCoaaqwcNUs1iFRfp5dqsFVNgBVVJ/2yC6MzSSM8y6gBD40OVlxHh5RFC6hX1OKrWleNfsrEGQs8PioMJymDbZSOrg/Oog+Axk160OnTzyXz88m8pDK/YMVwg6fvSR4MSO73U4wpnQ7A4/xU9ApKi0mwc8fPtMy4FK/8RXKC1XS32o7yvVYJCMT2Rdm4FPpGtUdQgIu6T9QGUiOANIrOJeKNaqXYl4pvKSJexceUKd+FyqZeWgIYFQxTE8Mumg+qhYyYUirHJ8Ny1IImhUJwPahpjXUNruhWJMynCyOzCoopkLALD9fe6lIrgQn1RR0sP32ECHKMXw8Dz6ng1RrkAfc6P3plA1RPRrVkpMuqqHe8CnhRwEpekARVr6NCnWvhwo+od7foNztbBzthF27XTioldlMtUO7XXmwIMlB6xcrYManu168WPS7r2vtXAOUy9cPAM+LlJF4ZBfDkJWbYORNmGrMDaKA+pdJnLD3F6rtabe+BfdRtprtESpplJ6RZbnqWpfK7up7GMufxpD+og4mbS80jAKIfyUIsc99A9UMlrKpka0tzG9/rtwR6VoklCYyyKQSWgAFaAKU+cqrgGBsfa4mwKXX6KKvGaI3dp4F72b5/p7UR5Rw44ZRqMYRNj3gERnZAGHhOIvAMtgO7sHaAJlo7GpX2khGoTKog5mbluE4T6ejuKRScT4FGJ6jBn1qYICnaFVVRUMerAWEXx3YnQOPpmNmlvl/YCVTXuIOi8j0IY2drmyttqm6WrZTYbKKAex0tWBqot9uK0KvZnDpqemmUg9Qz5yH2CqadaEZ0WjAebjKuP9omZ+XbrJxCIoejiSZmvNgkUpm/hPRkisq3U+95M67wGBvH3KbitYrAztPGPCShRvVTvbKRUqTqpdWBTaaJuZL7W3OrUqRK7RGLUelV+khaNOeOZP5VIVEVFzMAnwhKnHbyE6WWTpTUVRnSJIAnPTfb6lGvBEB9qFv7qkqc4Vu5XiqLKxBqo92R6xs/ZOJHBihH++0w8Jwk4FE5JLUgcUoSgJFALd0MDOdqWj+Z4vAF7GoJouoIWhJ1oAVIpRS4Up9y9Z5qpwSrBDGVerbdrcR9KOaD3TWycKKlzp1lKUVTjP48Iehwyaxqfasa0gCR2E63syW0ubq7KgZeQjHzvXQ5KKV1TiPN6/q5ttodn2zb0GkBPIomjkm0eZNn2vhkSjLgbepU4B/lVtNUQhfWozby9XSL7XRxODSyo4VNfxcqFMCjWtNVlNNtRNVSPWeBjXKw2pmDIGhQnSDqOVa1iSJj1SAw17JpLqj2xVF8Fsn3I9SuSc0Lecm93IB8txLNnENx/0TK3boWzbCp+kba1fB5KnahZJhSB4GL1Y01Vt9ab63dbEwqcjeGrzDwnCDg8QLHPLBR33WXS8N7Up0KAJppVO2fPGM6bUxyLRpQaKc9SRNg0EYxcRkF1Qu7mG6QAqYoPB5qp9uDUMYRsdqLkVJF3yMT4mzcknNs6uWXWDzngg55gWx+y2U1qhP4hILbBmXWK+5DPcbaYD77aTa4QZ0p6VRQyTXFgFw/+cMJ4hjGhZwOwCMVKJ1Av8UzF1hOXDodQVCR2CwEOkn0R0uFdSSreDqqVjM1u/G1u/bFddW1ru2xOsHuox2Q+pMJeKJgRWpv3U4h/jZARcXp1WKmBnVL/rH45DTL0wZFl4oY5i4KRhtHlnqS63eOLUeF6GE8da3NtrO8lEYCiTYOV3si99SD/FTR2aOFzzNg1FkwMudNiwHsepqtvLHKiitKnIF6rF5h4Bkr4HF1fLy6xvoR4MQgnPH8JPF7ChQ3k24MyRgEpUqNowtCPqDSi6BVI5xNNbXWBxA40MCV2ofungeYjKNfeenmrbQvLkE1UwsX9etWP3KzJLohTJo101ILJ/MZsMbxfWTfq8piL7YCpJH8HQGPZ6RWszvZk+Q1iVYnA7oE0EcFg2gS9L3Htu/Za2toGbOZlrxqT6O+4getLOHUMI9cjYV96LQAHp4/LirOigoKbUr2BJiMbCZR2GBSnH0ujX9zAJRWVNuuJmwwDS22kzZDJWV0YqXtz1xawBTTzqcTRqve82o64Gw8sJMmWt4IRMSA1IiQLCw6cqTSMaPAqeNxHJPKwOemJFoS86mOp3LBtwBE9ahP7+zfhb2vy9KRtwSK30ej0tXj8arvbLGM5DzLw1M8oWAchu4U64rpsb0VxbYNG5ArpDVG9r4w8IwR8HjGRprYy3DI/MXxN4qQJcNcEhGONHa/fNoNRxIQpkb3YicR2G4EDsoulvFXcRcqtarGZ2q7M/v885xeX7F7j+siGiuvh19gPkp9wZXLA6uRu7UPI0CfWvHKbcrOpZ2ug3YzHVD5aGZdvdjFcjAecA9cm+NjUc2iaRCXjD1gXGGhdbMTN2ILqmioI6J2l+3et5cI2Hq3+4ZA1bcH6FQ+1o76JnlaAI8zykcST5NkRbjLc9Ny8XLBERXcxxyK7WQAPhEY/CPpylpLA753tm8hgbPKZk4usoV0ey0DlJoAGwGV9DIFFfbg1WpiA6lGHdNc4NZym4VU75zMHHqwpxBE2GMTaY1TyAYWze9iUQ20oWlVSxtifrbIqN1Y6ZRmTNEwsxQcEN3W2tth2al5zg2fmZlK2+tka+ptsV2leyixQSvnMQIdCUgYeI4ReDy387CZGRRGo18T2FlSGOEM2E0S/ybyk6CEQNl3WPiJ0N9+ACc5L9uy0NUV59GNytSOzUVGXmnZPXwvhd1N0aiJCJcatPUggGrJ0ovHSgZEGYvVfkX3U1df5+oDJ3FusZh+DIc5NAhUq+JSWiX3CbAAJRmX1ZSmX54xgEe9j9QHqR1jZBTHZNG/uk2GTGwUBXNnW/S4bNtFG+J3dmyzPdS7qUUFVC/toB3PWLrhTxfgkUhodtPJwSoEfDISM7HHwURhpOlsLjHqQY8bvKut0ypQYbfSqri8s86m5E20pbPnWbXa7DjgwfWkypvIpuaog42jBJtbs5oC4mRQSdc+9U1LTMENT9wOUcrTCmAu9HBTC+QqnAVN2rwwSLeSoV5cU2n7caHj27R4ymlkpGS4bqCx/KTTntv5CyIJK4zrt+rWOquqq0a1H/X9Y8gJw8BzDMAj+4x+pDp58xPhAsG0EzlbjmM6ZlnEZWSpbzc/0YCBCpBHq+wmghIJm9BPFACRM6HAJsEwGtjVKinbqYZ5yiLuEEWnTe4MOoXW7d1PW9pKXOokE9IBsg2Ph66WALikQs3lYldcRyNBZ2nOrUpjNvX94vMCziEDcheCnY+gtdXWux5SUdiEBE7O7cu9N9U3OnqvxoIKaqvDnhAH00qFhk9eMBeDFIFpxIVUsFu+gA1IXSFb5eL1e3UPKag2inJ7SgLPYWxaUTCfVFjFRGrlZMYmW3ZskuWyeUTBYuuq6gCdSmtgnqow5FZ3NdpkVKa5U6aj+gD8YjMAghS1Gux8LWxAdM2zPahhPbBjNSSMBVCiAbAsyU5KuqUxX9kYr6UK16OiNzY2uwZ7rpUPMqbNpA5jclwSnjNULcmrIpzlho9jTuup4SOjskpotJLRrsBEF9bBhI4V6TnNgKeGmsu5pEzQO92lTKyz9mPpnX6MKROaBE2bpzaRk8PupnIFel/MIorFH8Hu1IuwJDDhExGKaAy/YiWJuMIVd6OdJB4hkWqknSZGbINOnCpl2QbbkZGyi4mvg16nzZpm02hznAZYvfP40wadsS46RHYTRt+JZyqSnTEVu45C5TUO7Vw3Rd4wdld1o5R7vofvZDFmcVwnVmobAl9DQqG+H8+xxn2of3tvJ2WiUAPUytZ1YUDIJRxx2JdkC0qGbfXiok/Mz7XC666yppxM27xhA/2zX7L9tATuBghlNB+LjfJUBB7ZyIKyt6GIcd925nqv9UaiTqfY5LRxVpCQbjnxyRaNB2vv3hKcBGXkjHNUfIyrGJiPijQpv8AaAYhW9fhSZ1M2HdUYL6fRYC/qcAVezBhCLHKz8/CexVoen08iYz2ZTU2dYNWtVB6wVuSmXbYhWmN3w0glnHK3K8Yrm7mLQ9Za8GaKAceyiUQlx9iB2gpyv2ocE5ezQoDVyb1049kSBDn5Dno0jtKGMprAc+2Ka1zKRDOy7SWJjnrk8skBHif4Gn0EIB+vUxG7TiJ0OaKsBgFisjDGTiJnJJZFXk2P8XZsKbLPiFr3aJIBpzRUlkiCuWKZ+GRybhS70Q6IdKi9LSClnUkGxUzsAE20e01CpcrHUJzLj1oUb3jpFevatcc6DuBlAnR0P4l8V2H27QBWLR6PKM49BU9HB27SqrIKdrgkS8jOwHiY64ChAd2/rbnV2Q0w8iDgUU4lE2Ao0rUdRiRviOI61Bo3A29MT2c3Rk0mFHak1sftMezmFyyxOTffaBHEm5TSSuYtWuaufellq8IdHwFbIyB2VF+nJPDIhkesTjwlKaJRpV2wp1o1s2DbUW+isO+MJ2crJwl3dRQqDRnkvcjCNjyGpcTP9HKMVKpY5mDyuHzLRJVugRG1ij1qU4LZllRW2H48m32Af5TaSbNR5GRlE/8TZ9mwHixGbCQYqtlwBAxONedHwCPjsgIINdeqTqgSqOPwnGUwrwok7YINR8C8FUzYoARSYCebFtfZhHUkYkdSwGldc4PVU72wnvijtr4uWH0wscc/waMFPFOnTLEQ8MD4Y8emy8QJBh7fcKFFLuNrIc3tL19+sc2k9EDJmret5JW3jHA7y59SaLPnzLISbCj7t++wJIAiki1FUcPaLuKVY4Mg9bHYM9HFcydOxB1ebpW7djvmkow9JUXUF8rcqrbCCN/06dOsGjUmhtiLwoULocHdtufZ56xp+27rxT6j/twp6PTyegnEaLxr+RwzCVAr2bHLDuCaVXxGQeEkFzjYJvWMHt2y/2Tk5jigU12XOBmluaYyqZUX1IOwJnAf8ahaCk7sgl11sKPGJMLmAJo2mFDMgtm29I7bLRFAY2Onj3ejbXrrLXvxkcds+/q3LYLzCXg9JVTb5fHh0KkFPN4uFMlKz07LsYl5EyyJeBypmXIK9PR0WQMZ5t0EBuanj3OG/CRibtKwoTVhp9m0a7tVteASh9V0AlDZSWk2e2qRW+w1gEg7oBDNnCj6fB+gU8dcpxHhrE0glvcTYbMpAFaSPIxtHQ54xFIjAbBeOQwYbAFPG8xHHTIURNoBYKhh5TjSM3LUe53vdcpNryRT1Kw+RU2jDqbKZsRGlIV6ncj5WnFMNPfheu9usRLyvRrwgqmg/HFPqM7AMI5GQ78pAM+KgPGcOcDj5T0xxTYF0LlxxQqbO3WaxbKQ97y1znatWedYRcGkiejM6bZjyzarIMgvNyPLAUILzKcTyhvNjiU3dC+AkoLKkkUwlwo/1VdUufD2JFhLGrRZas8u4i6KZs/GJZtjb9DSR9R55mWXWOHyC2zv8y/bnpdete6qGmI3oMqAj+t+ieD1w0imz58HCrRZyZ49sKgIyy8Yj9BTJArQaWdS2tlxBQhZgFOXjhMQAk712A9q2CF7uL4EPAnQcUCFobKL63ehOqSOy7XIrAzr4Sd/2bk2+aLzLUaqGtcRe+pkgWx+4y175N57bc/6DZ4BXYB9hgFPBPV0ZD9LI+VhCq7z8dnMJU/bJ6Mxc6ns7xbApxd1NSYu2dnrkgBwqd6NxEjtoeeXEjRlb+mDXWaRMjERG5ocA7so5FWGjUYMWe7zeuw0sXGJNh4WmwkD7uDvrm7CIpi7WHlLcRJEob4pjFnZ6z1SqfBqaeOSqiRXfBu/93LtGJhqJnJWwPUKMAEoBaMHcBP4yKsKT8U+2OxkNB9ZzAB83Nwj/Z1oX+Xt9ba79oA1Az6jETMxesBTaCuuRdVavMiazxjg8bRbZze55sprbPm5Sy2GxduDcJTCbJqINFXWsAAgPikBb0IlKg5BfvnjiU5ttnoYS5PyZuSNQNVKh72IivehciVzzia+0wswye2uWrhtouqTJ9plK1daGtHIrz75lFOjZlx8kRVdd431lJZZKYBXvmmz9QAUsu3EQLnbUIXiAJAc4kHKib1pBzBy8vNcxLPUqw7UrF7uIYFdV0DVBkgoIFDuc9mIFDNUB13PIo5oIvFEdTxHBedpBXzkdo8BXDMno8Jl4VWD2c1cfiGuGmJ+nOuOIEX9yIjJYtn42uv20P/+wspx+UeoFEMAPscBQKcM4+FG0mAFRROKbALZ51kU8lLkcTfGXGiGN7ZiG4xLAjE7qgbYyeKN0TgBRgdK9lkLGdRJjHs+nkylvsRIJQfwtZhrkIdyNhWJXQuqfCvpLvIwpsJS4mA5zU0NLK5mj+HAjDLkSlehd76rnL1OgQ5Ap6QHMR3F/3QhUyoMJptON3JSgJF7QWGRy2YXs3LlOJjLHoBIoLiP+LAs7JGFefnOU9qOytWN7qzk0gOtNVZaW06sEeB3nK9RBR7HeM4g4FFaQxRUZdaM2bbymmttQka2taDC1JNWULmv2NlEZJeJZkdLG5fjTTZglJGYbA14LsQU2hEoGQwVsp6bkW7lleUYZ/BGsMBb2PF65TJFGBvU3wswKrxsuS1YvtziiPNY89iTRDBX2bxzFlvq9CJn62mrqLTqHTstkevGs6s219ZaPS70rCmTLQkVah/RxhGAWSzC2wUQSBCj1SscVUplFaRKNaEauY6nanqn3ZD3O/lKQRHXgO1IZexVnhA0XsKpXTM6g+CzWUU2e8XVljVpsvXwHcUFxY8nZH/aFBd4iJGLXLAWe+Wpp+2xX91jddi7XE7ZcapcpwrwyAEwJXeyLZ61EPaQ6WolN9Y3MX/NLrWlgzGWqtSuBU19HOXORTH/yWw07cTFrFnzhvUDEnOKptnUiZTNQL6UeyWtVLlYYsaKO5Y63A6gtcBkdD7Feuk8LRiYZTRWjFesAgbxUCrOqwyZaJbaxTi3wMYlhwoulYdKrW4EMsrxa8OzmcEmuaBoulP/tKkozy8CI7O8n+V1Nbb+nQ0EODZhx5wEO09HJcdkAOvpiwPgMFqW1pVZRVP1cTsRwsBzGHe68+oAKldddoVdddHFltLTbyXYMIrxqrXiYdIOL+aQBNtIcZGfmdZSUW01gFMbCZeRGJ3j8kgQxJ2dzA/hgC6wKx4qW0DlNOVmdcJOKjDKNsFC8qgtkj9/jqVkZVlkVa1tBnjqiFLOZcdrBZjGYYSUYVBsKgWwaONcNTI+AiKKtYnB09Sj3ZfM5SoYizxsYmOiz8rL6mIHdZnsKjyl/B5+VBw8CftSuwIWlWLhDM4EEiL4zTJ+s2NX0bMpGiP1gmuutMKLL7Qo6vvWvbPFqrl2LKpX7vlLLEnudgIPdbxc7I/87L/thYf+5GKSZGw+HpXrpALPoL7h6mU1axzgO3mGxUTGOnWKOusWA+BoA+kA5LXZKNChS25xFnuqcrQi+6yCDWfzlk02gRSFOajtybLHyJ7Hj4BHLvJ4wCAFRqWKBP38tHBe2XgUyJnDOFcdKLUm5iQNJpsNU40D6OWtqmKMy3g/EkbbAWgpiDSC++6DZbXLbgdricGNHsc1colenoIHTUxLKpq8c30YmXtgX7VtzbZp2xby9vbbxKRxRNJPtmRkQ+78rghkKLLHDtQdsD0VyNZxQk8YeA4BPBqYXiYlHS/Chz/wQVs4dYZ1YAyuUroCUbxSgXrZbRR7E0vaQxa7/qRp06z0nc22e9MW9q1IS4CBZM6abjNXXmfpC+czeZprjIfsMC4LnQntZcErcE+xiPpbQCahiARcql9fa2WrX7b2/aVWh9Dl5mKsRCBle5FdRzuhpFaZyJH52ZY+tdAycK/W7t5HMmKJswNFShVDeGXb0SJRzpfiM+QhSYJS13KufgQ2GruFjJLxuGwnTplkNftKrIO4HqkP5YTXZ0yfYuddfSVenGir2bqD2grN1shOW9/WYtET8mwGXq5U7FCE0jr3+/516+yeu75vO9asd0mtx/M66cCjmycOIolSpXPzplFPJ4twBAzuGPczsKP183szQXu9jr0AOg54yN0CiOPZfErIldqOzKjcxQ3XXE1MT4rV7C2GMcoI7RniI/isXwGmMCUxlFg2lmY8T2UEapaxwaRxHhl8o/Aypmu+uCWp51EY/JvZPLYq/gtPWSLAkogcxSNriTCoduanCbuhEkYVvKj3cjh/HjYj2YokT4qG7kYfPEDg4K7ivaRzNNmUcRPIHZxhSdgDe5HVzn7ZjNoo7bHLtuzePKjN97HNbBh4Dgs8kTZ7/gL7+Ac/QsW4PtvxwkvWvL/EOomvaFPqgSZMdgx5gGA8k2ZMs1pUMHmVcjKzXXpDOzR7+ntusIkrrnJJnM6V7Xt5FEDoSk0EiU6yKIl5KB5GWeT7y2zfY0/ZztUvWl9ZlUseVIxNC+qM3K2pCE8KoCc7US2CM59rJGBL2rVho5Vj6O4DOKLZ/RLxoMi70oEwKt5IUauJKqcBOLZwbNbESc4drLgRxetksLsWb91JhHQHblkWB3R75qL5zoak520oKbMWEh3FqKo76GKZSNW9P1tpM2+6wWIxTstI3sFiWXXvffb4vb8hbKDeeVWO1bt10oGHG5B7PAf1ai6Mp7e1y3aTwd/LGM4/b4lLnq1ALrpQmbNIP4iXmsXzJuNFqiTdZMuenXiIOm3egkW2dMliIpsTGBMC/YjRUdCfFn81KnU5bFn1edJhuKoiKFtOJeO4D29YJdHHaeRiSd1PQEkTmMcgA7HIVB+bRg0G60pCIiKZ6xTkMRO7TQ7FwVzdZ0CnDjVN9XwURJrFZ0UAZrJKYihOCznUHB8glmdfRalL68hOJvaI0JE0csESOE8vRqLa1gbbW1kM49mDe97FvR8b6oyqVwvj8plk43FDikHv+htutJsuvsJaig/Y7nXrrQtDbBsCIw+FoobFUGTbiB8/zqaiJjXBAhrxVqUhfKWwji6EY8qNK2zO+26xaDxfYlGhjHFdROzG2UD0Prseky57TAQ/xL1bA56zzQ89Zs3vbMWdqohWAARvRDpsaoJKXwAsDQQENsRF2Zxrr7QcSkAqELFy42arJlCyi3vtb6S7QAupFQhXLu71ifnjXCJqY029JbD7ZYwf77KVW7HZZHFeuerLYDwNqJOd0PVJ8toBcjI0yovXovddsBbFqZQrPbnA5tywApXrPBeJ7TLgea7d69fbb394t+0ACFWy81iDC08q8GhmFBJBYa9JWROsiATQVtheGTE2NYxXHmOjL6hyYAwpMgVZFFvH6K8s8yYY0P7qSmwntS4CfDr5WLPnzHRerHTGSfYwGf7bAfj11BHfT8mMgnEFRCFn0v6G4D7lXQH8JQBGcSWtaSgaP522xZlxFBdDZhTM2kl8jeRUHkk5K1KxL2Zw/UwYUhLz08bGUgJrauR+FAXdDAApMz6Pec9GrYtXvy42M8WYtWLN2V9T7gAql7Y7iuuJR7aTcYoksSHVddGxor3BDjRWuILz/c61fmyv047x5LIwQsXeofNjFrnMKkmi9MBH//zD1NAdZxVbdpARfsAlcTazmOsqytGZWUyMfbfyrqZOtLksvF5Urwa+J09HBW5qGe0Kr7/G5hD3Ek28Th9uTRmtXW6Vi0r0Xq7khKo7yXjIDtVfSqCgKgQyQ6UED25+8FG3EzmTg1zlZKknw24aECQlg7pwegzQEy8+3+IwZPep1g4A0Qyl3/3am9a8i+A+hGvqzOkuK74Mw283hsho7ApKJlQBKtkFktjdIuXq52/F9STy9zR0/W7VdUEVS4YNqSawZxTFFsEunH/uApvAzh9VCBDyTP0HKqyTgcD9mF8AACAASURBVOkiteKhPzxgq2kjpETJw5bVOIz8nkzgUeJnpNgO0cdT8zDgR1Kki5CFbtlPiIWJEutALUrFc5TEIm3FIC/PlmwztdgAa/BEqbxFDOwoDxvddFjx9GlFlocKoziv4v0H7ABqWpXKXQBAOofq9CSgVvWRwvD/s/cW4FWd6dr/E3clRkJCgrsWLVKgPnV377TTsc45c8aOft93ZM7/jJ6RTmfq7ka9tJQiBYq7JkggxN3t/7vftTcECm2AhNKZ7Oui0GTvtdZe77Pu95H7uZ9yPl/G53cDCEVMBB1K0rdPPOGP9JYJow6goaNkskL7BELBYZk51pf1V55OLqb4X3vZLEuxy1pK5xL7En+rnpxhJN30FNZhK0MRIGQLjo2wQrShCyoKLDkyyVIBwHA8olARW8lVBkIBKG+qthLaK/aXscYCvRN8fc2Ap9iJOK+Fqq+WiVWr1gA8Xs/Ska9oOAs33nCj/ea3v3E7s/g00qwpAjD2dqJlQqFHZkaW3Up+p724zHat24DB4aYS7ijvUbwPWQp2q3YWVrmTiH597YzZM/lZra1btMRaKGMrhGoCJJImjLORV11mUSNJwEZ6GjkS4tJxDvY3SYJAhEOShOUrV1vu0uWugXPgxAkW09RmS5570ap4oIPU3ayENjuakzTlc1FUlBTKiFqfOG6U9Z08gb4qlbu5M3g7W96fZ/vJFwXz+1T0YQRuFZxHuSF1QpMzd269ck1qVA3GCNt5oFr4fAp5ikQ6rosIIevIOcQCnhKUEkWgWUAJjSAqs7f1HjzE4gnZ6jDyit17rQ4PLDYz3dZs3Wivv/G6C02VzD6R1ykHHi5TgK9IIgi5vlj4OJkJvZEsTSSspcbjlAPo1SOsiVArjEJXPBrJ0eZRKCigy7xc4S8ehmaXiwWsClICVaL09HRLoyE4GfJlBQC2j96tBkA5kt+pDacJgAiTmgAJ3wa8nbJKUR1qbSchUGFdiQ2JSbMBvTOtprXZtuMF7aopIqcEVYLAOTMgyoYl9LERgwdZDp6t6BLVug48Z3lODni4ll00+27LZyPiCyYbUhoCHyW3YyOtgWZRgUok/KE+qCfE4rmHcS+kgBkC8IhEWB/QTHWLWV2EXq5t5AReX0PgSXFTJroKeJp8OZ6Ot083RbyI0UNG2GUXXGw1PKSlcGhqyWvI7Uzpm+FK1vkbNlgJO5aEuMN5yMbPme1EnZa+/4E1khCOINHbplAsGdLdhPE2/MpLLXJQf695T6Jc6suRt6qeGpHP4M1UUi3avniJlUIma+S4WRjR0LHjKd/vsU0QCAMBEvFC5EHopapbMEaqcmyz8kW9k23QzGkWTQtHPbtiBG508dr1tnXeAudWRyqJTM5F3e+N8uoo4WvypOtMVxJasguATm1AqyVTdesHn6Oa0PEA5XNVS6T5o/J7sxQMJUTu8kZhlin2LR5YsZQLdX2psGQHD2AHLbcXX3rR9lFlc2X9E3h9FcAjLycCjyAxAvnZ2CQ8kQg8HycG4r5HJPdAYl0BJF61hLKXELzO3YTX+8jf1LKJSDtHSWOtlyp7AibxudrV7sAG2sQUika8xhDuv5jt0br32GMUnwuW8Bf3rojmzgPkefYgzt4a0GijEvragKxsO0CP1yfb11luY4nrpoJXbn0CIm1MbKYNzehLub4PFbV4yuv0bYlaITMjLwPVFLArsrWbNhIuIbmK+Hw4kzH0ncJpGFXTaFE56QRAKou1T6T7PR7wkTC9ZFhhBllrZKAVUFIvqSpzYvQn8uoBnmMAj/grZ46fZOdNO8uVIhXm5G/f4QhcmTxQvfCo8vC8dlPlUpweRCJxFKXmdPIlOym371m5xtrVQ6PQCO8jNKuPDb36UsvAGxF3RlwM5XLa1bMlOUzCtxZCo30iB+IdqNt8P9IJdXggwydMsIyBg6kQrSR5vZdyOSVSdkvxQMSilciYQh+ZQCMeVRql7f4zplkIUhZ6IMoh8238YL71jgI0qGyIg6RqSoDGqvAAyGsqk9AXgBhLCFBG0yg1EBs+bJihh2j7t+90HfEqy6vhUP1cKssHsNPLOwogXBMYycOSlyZx89A+vS1t6EBCyyB7a+4btmbJEqcv06yq2nE6PqcaeFzXP2FLZi/yLVG94MyEeaL53N8QSVaoQdh5OlAVuDjdPzf9gzB6V/4eKwB41AojoA7h+0pPWQxyKQCoBF4rSVkqYnFpGST88Wy0diTtw9W6IHY77OQWKAxF5TSJMriviHxKI57GwIQMG9tvIEWGeCsEeD7ctMpWFeeJZWOJgTCcGZ0zCr3nTAobAot4NhU1EjdxDgGPNjIlvVFltSI2CEnp1hDiKVT3ZFTwftkJK6mC1WK7aRwngbAvlvV1bTdEF4HR8LQTw6mAHaDqRgf8CSaYe4DnGMAj1f6zp86wWYBPC4pxUu6ro9O8koSiqgmB7B6hZPf2EbaVF8I2xRMaRGI3jnJ0HQDSANflAA94FYm9JnayXjB+R15zmaWMGIIFoCxI+NaAV1SCJ1HK3+HsnKoSHYA9KkkvgZ1K9UroxhGz9xky1JJIZJbjxu9dtc4qkcmI4Elwspf8aQRQJOzVzK4bBis244wxljlxnIWn9LIDhD7F23ZaP0KGks1bLXfTZmdosRi/QKRWMT/XFEopPIgkIqZIf9go69cn06rWbnRhVq0Y2+zC0vOpA3yl6xuGYccAuOH8Xc/P67mGEAA5FF5TKKCXTFk+nuPt3LjBPvtoPqXa3VbUqnaC4zPXUw08iJXQ3Jloo/oOwTNlHUgm10rHiHsWQWgpITSVwGPwBtQkqqKAYmZR+PL27yFaRkGAsncQyWb16SXSayVNJVUs5f0UAvJMy6K3bpAFk+Stp+LVLEoFIVUsoXkyoF5FI+na3E22txr5WzzXDFpCZw0eB+OZ/jjCvHo80s2MMl6Ut9EJ+Q9PyUZkDs8FrpbY1TGwpuWtqCgQRMiFIKITn+eSXJtLK6FaKQWSAiR06wAZ5ao0maS0ShVIPDLJofB5KRZGclw3pYTvGJYMOTaQiRVFBU4+40RfPcAD8PhF1/03UWujJskLps2yqSNGWy0s4hK6whspqSu/EU7DZA3uL+k/Hlp4EmIwk2cZMHSwBbCI8owklF6JnooSxKLQR6K5c8YVF1sfiH6lyHnsXLrMqsnZtJCAlHaycgTyGGp5qL2xMxo/40kSqGrRhpuusGsgfVyBWM82GMp76QyXIJi8sTaMVyqDyv2oS701Dtr7+HHWd9wYV0INrSG+h0295qOPATfCQKpT0mmpIsmoqC2UB0qyCxKIHzB8uE2YPsPxh/IJ+4p4fzMPjXZusaHL2dHDKeMGsauqXSKMHTiY36k6EkkuIFh9ZzCdU7MyLA5gKsOt37xsuRVzz7ZQst9TyoA5F3V1zvU51cAjj0diXuOGAdwIZxXuKyLRjog6XosaMZUHUylZndxKwFbjIRQy7zy/vIhEbpGTJwnGoY0FlNIgDKqjPFByE9xnhVOlMM2r+fegMeMsAvZxOZuTFAUCWIt4VbN4yPPytjsJ0qr2KudVDAnPtElDR7nyeQOgoSbfOryTdXvz0Pc5YCPoIVR5vArPtEYNorJhuuLjqHCl0vcnITk1Oqs/TyRPJaQLqbhVOOE4T7WyimS1GkNj+F6xFCBEwQgjuR5Hx7dsvgk6fANymjtLuC7Z6Ql6O1r5v3ngaTwGj0ed2Rfg8ZwxYIi1llVaMdyV0tIKNHQBHqY5SPVPoY4YqiFq/IS8FwdzuWD9etjLhb7djbiZ+L1SOZy4aJsE81cmu+XNt9BN3uSIZ6LhO1cdo1CS1xECJbHgRNk1DwtQca48+7BG21CSF8M5mfO1SluFnq4qck91tGo0Q/wK4b2R6sGiqTORNorYnGykNlutZONW+EXbrRCw0oC4QDy6iF7xFkHOJhyj1N8BfOcgADenb7aFA7IHaEjdsW4d+j0FDiLSYFRLKLwSTywc4AoFeKSgGImHFUJoKOON5D0h7LLRlIzjkmFg85BU49UVbNnqGlPLsftP1q0hUUqncycTk6caePRgBJKfyyCJO2bIGGurk1QpSXPya/iqLnxpoWInIl8S1awdSF3sIFmrkcE1JF5FLBXXJiUoxjIAnRS4PdJf0p84wEuEzhrek47HEyJWOl50M/c0mNxOG+BTcGC/FTMDqwXSHjsY+k/tNjCevA3VxVbCOVEygqWzDYAU0um+e/cu600ZX71bCrmLCc0KkKhVe0V4IN8DxcE0Qupo9Wyp2kWIXE04V8A5GgEaleVdccL1ehEOs47KHUaI54MZRmgBwiEjRtJP1lBJfqfI02M+iVcP8BwDeCRBMGvMGTZj6Eg3FaCBcKuYBr5AvIoEHigp9akk2cDi96KilQPBLpiHeeeyZRaBB9JOabSAkrWy/iF4AQkkn4cQbhXADN1LbqicXUq6Oi5dCajooWzUsD08C6kUhkqhEJdasbXmYimn4np/yKmoWpFGWXzIrLMsjtYLtT2oabQOApnaNcQxkiSCdJwTaPyMx5vat2ULBLdqCG6ADSGDxKbiAAmBZztg4kTJpf0sJrWaFams7UVhsBIwq2ZHDsIYRdWXuqJmObk/3ItgtYXw/fJ5WDQupf/QIfR8oU2EFxTALlnNQ6Z2gAiusQiSnTy5pds325o9u1wXdcd8z7GE4r8K4JE3JpG2fllIjWTkoB4ZahUlzCEDfMRAVik9UMLs3L8S9cvByWkinyWSZjFJV03zTAqJofTNQ697rvvFphKnXBivYu5VEF5FCNMn1NKgcUX1eCtqN6nBgwrigY/BYyH4JQGMd8VapZA3awUAVLDQbC71dNVyHUUAiJK/KXg2AvNqEsOV2GYFrPR6+FYReFvxugY2izA2zmA2rAoApwKvRZXOZo6hcNvZGecSaVQ/z0B0LISbr1aftoggK2uHHlCHUiFazZ3zVY+NTD3AcyTw6I7yzCrLP5Idb+aQkU4gXTmXOvIc7YCCvALt+kq2hpLfSBvYz1L5E43XUEoit5aQ5gDh1n52+iA+F4H3kQbZLxUPY8eG9fQvSUUQSUvXEqgheZ6AUxjkL5Wda/ijbuRI3GoZRQMg5jgz7FSqKokA1kQuZ8DMGTbswgtgTaciYQCnhGtTc6eqcLVy39m9wjH8XoBKDYS3UI4lxTqpIAYLRHChS8jf5JOnihAXhYpLEEBXAUDk4ZHJ85JomfJUktsQaU2JSO2aZRINw8jD+Uwb17WHXEExbnsaIeVAADaVcm6kyIhUxhIpHUcQYhRxzFImVqwhj7UcNq80nU9L4PE9VXLIQhhJnAnwDOw3lLxJjJUVwOGSmLq6xDXDSu/VfVelkiQsYrOEWwdcM3B0YJj1iaOiCRcqnodeG4rmaanZtwye1F5CzhryKk3kvZoAgiYIgo7JDNjEcrdTAsjTcAyV2eNTYKmno48Mb0o6Nsq1SXKjGW9WSoNu/QAXJbWlnyQvWmJfyuE1sWaS2ZDkbiT5N3W8N+KxKVxTM2kBHu0BVBGVchCfvYkZW8rh5SRlWKKrYkJHAQkLAR2JwDfhiSnP5EsEnJDf0wM8RwMeAQKLkEqMPp4JACnol0Rr+BpGoy5ulanbWfBAFl9cGlWGEuk2TkfSQuNLtsAvqsE4a5RkVCKSPEfWqBF4DGG2YdUKeqDKHG/CyRJgNK2Sb4Wo1RuBsAqS0vvz9znvKY4QTuVKAY+MTPoq6ueKUljDcsdCIhx76cWWMmWiUzGUkyOujGu50AOhPhxpPCt+h3VdSVK5jd1Zn02nQzocnoYGyO2nXN4KkDRSZg9R/oLrEWgq+dyXnFQFO7G8vjbATWp3lezOKhurqtULXkobickSOFKVPIj4XnyPdJs4Z45ljhjGfclEdZFxLWqeBOTWv/OuLWWa5jaY0vJ4/PG+/j4tPJ4OiW83loiyejiD+vpk9LMhA4cRuoTaXjzZfIA2lHsbQ7hZry5y12xH0yYPsvR29gCu0lrKAJgzuI9J3AN1hKvHTh6gXrlQJrYjwl7ZrnxJGyVxDT7GLrA/eTrpcGxSgqMsWuzhZPJoCVF4z7HOBouxLTGePX1nZDYAOOIjgAHpU21q2E2wLxfVBODsoIIlG0lhI1FlTdLLevhLAcDdJP3rAJQIQC4ML0sRv8JmNaKKjJigcUfYXj2AJPH4GhQJqwkBK1AnbCaUPpFXD/AcI9TScxvDCozp28/6p2a4fppAPIdEHipVfxQylO3Kp2KzxWkqx8Ps7IcCoJTk8silNNEhLp0cDUWLoEVhyKQJlkL3eC4dyqUAi1xvad7W8sBWUOVw3gkhkJsyARi0kUBW2VTypmWETpXqFHdlbJTv6IcKk8ohBtSHAX5qQg0nnyOOiSQuVdpVCKWwTU2oASTA9y7+1PLmfWh1VMPkjvcZQFkWwl8rD0QrpeFYjrcPjaEaQDGKkCt32zaXnxo5bpzbhaup1AVwTQoP8wmT6nDlxZaOAnSb8c4qVfECgESYS0YiZND4sZaSk03nfrwj2oWppMv3WA/x86Oln7LbA4DKE/h99i/goZ3KUKujByaVwV4kmRNpCg1H+CsxuberGIl6kEvytxV1xl5sSgRdeDpeDk6JW0mRVJNn2UNpPYIvmAnpVI2h8dxn6SNLGykaj1OVsi35u20fOZNGCt5hevAJi9w4HDg+GUFoLEcwRUJcrbgoKA6w5gH2OrykagBGOZw4fj84PdP60N7QyD1Wa4TyNJo4SwaOsAypbraDVUwHUXVrYGZfuEkUH9BTVmhcxEanIQFaY4mDubYcjtOItySlwhTAJw2vXoUL0S3Us9UAKamopcp2FuUjVMf4pE7m6joCVA/wfAHwhPFgpLNbDYHBnIDxhPDAD4FJHA2AtFIuFSlu+1qABH3jABa6L4136TTVaYyMZEbVAR4mcp6U/gi3sjLS3fjaahZbHk0QOZBGuBMEbVYGNV5gFiO9XCpoVVTSxNEJx1jU81VJslAPqnI9cRp3g7ehfEsY+abh55xtGbCmadTBffZE2puROHCsanlKeCv7Vq213I8XWg0tFM1cW5Q4Pbj/1WJXc46s7GxnF+UAnPR6c3ftdHOgxsEfimFHFfs7jB07EKOsApzULFpOVSWQ8wcouUyuQrpEamAVazwFApuqIwoZ3YwwVel4KFYt+dTmIxBfToXrdE4uK7MRDoFwdL8REAgJZSkpC2CUOGahuEdlto+O8EjC1RCY3W14Qq7KJyKnZEhoqThQfMCqIOv1wgaU60mioVdIq+RyiIoF3Bt1hO+GE1MbCLdHNA39HLSICiDUComyeBjE4YABMG87iveR3GU2mgoPxMuxoTE2PHugjRswyKLZFCStUi3vWcdQHkjhX0SIbaHVYuHqz7AlmM2Z2Y7PJY/nAIJvlVAF3EBIdbpLKVNFDkBIYVoYBYZ4vOt08kuaeCu7aoVD0ggnoLC5wnKL90KjkHd1/OzlHuD5Aj0e8WMiMaQRCCdlZ0FB50EdAldH0xnCcW1V7q4ioasKV410ZzCIBkKsLTRFyiNRw6UjbGFuveS9cLf3UN1x79UkAeL1VJKxOVMnuspYG0bTxG66cclSy6NFQ3q62nVatIuRU2gjvNOCySMRGGhSqFjGKZTZ+9GZHj50gPNARCgrLyBcU9MpYUApYFO0cZvtWLzUaiErBqAHHMXnJWJWzg5cyS6WREjUC52WGkApl87rPYywTYZ/MowdMprvEg7w6DPKU1RThVEpvpFdOIlJGCnDB1PRU2KTBDnfQd6hwCeY3bsFA64lyVmJh1NIY+rGdTRD4vYfz3jcU+nx+HdleTuRoZE2eRgtK6HxeBkoLLo0q8MWIKjRduVBrORexMfSwc344nZ5C/rO2EFTs/Ir9W7iaxt5t76EOCl4DlI0EAO4gQe2lQp7Je8pqquEEewldqnVQ14kac+JdK/DEYlvoydHXe4VzRQzCHGkMYioifVLy7LRgM5A+FbN2FQe0im14mOR71HvVSwbSjPJ6EX5O2zZxtWucjWERtfhWTlutNJOZF6CAbBI5aaojmo8kyRNGql4NbG+kQBSFHaahq0ns+kGkzzXJtoUEWyFDSWWB/CIFKrWi+N99QDPl8zVUjN5PyjqU8aPZ4YRxCzAJwTOSzQPWkRSCrwXUn8i/1HmbMNbKdiyzTbAWWknJImjrByKV5OGvEAiu2ERv9tN13g5pW9VndTxm03uJ2vieAtByS+Q96r5r4gHP5c2hzpyL2G41NU8sA0wTcXZUW+XDIAzMq5GuxQCT9LWQYwr56LzrdcQdIMoVedv2cjvASrc+YJtebZv/RYEzNYh6VEGKYyyLuQwGTosHquL5GjsyIH8TKNP8gkFFTJlEyplAbgB9CeFSMlQVSiASmNUpKwY3b+vDZw0ztII89QEqcRzA1UUSa/W8ncV4VkpvJ1SNdVKBoKHowEQPd5S7FcFPFF4G5NHTKbLO95qAZ5meZMYBEvN/YcsuJfpqruRQKGlIg2WcyOeSjP3VKDaRsI4hJBEQvySkE2i4ThGGtlsZg3kSiqbaowMCR6n8ibkTxgvRI+FxdKEmkq1S8JvxXVwewCF4CC8ZiXiWatmEtBt5FXSYVT37023PI2n0upROL6n6IBL+Kv9QqV7cdFqcTgX7dlqO5GzUCEjPSiWRlOtV4jtosIaQx4zljxSM+RPNylDHB+SxwI3aYHLRmJgbveRDWNnLscZGmjlbVVOIkMh2WkBPGgu1xwcb3OO6+n8IjsLKC0p/UK4lLCS8gmLET6XXow0QjRXa8GC7m0S7YjgYvmOHTbcBpKrCedBV/d2jUh+LEw7PTyJUN/7Qh6MEOWcHbCW62zlJggUNC1Uw/1q4AHt3bAZvg3VJgBEvVVxcHJUqWpkFxHxLpXKVzwPsXI3Ml4tajVJ2L3kXspw66voWA8AGLTQSiCLtayOdled6J9l42+8BsbyWLwWKiYkcNUp3woNYP/2PNu0fA0VrD2uaqWmz3gqaMrmtqtplYpJK7mLIjwsMZRbOaaIan3hCiWyU9dqlhcSny01ZBk04QKiYQwM2iRoBMkk1ZVHqAHAFaZJlVBD5TTXS5MwpTksbokkVyW16hMAOa4N8qsEnkkAT3RoAjs95EFtMJSxQkD/QNoFtuRutu3MGI9FpiInPQePj3I6yo3OcdAfeQKskZjAynGpEqUQRh6pRuAobCqqr7Iq7ru8miTyNVnkkeSp7oOeUFBfhnvFUEhmc0lqQ31fjnfDhqKChyZGxJGvUeVT7QylbDgN/E6zsJTrC8NbEdlwS9Feq25Bl5sNJzk42npHoxXNdZXDAQrHq1FCWURXfUYidQHInLYQTjqvnBAzhupaKjkkVUdb1byKh1wVQDhegC73aZDjOQ+x97ECHuzNm6vV5cBT4pBsDVMsFyz4pFu70w97MjCiJKoTg9hdeuPFqMt4P9yJbZSdS6rq4Fdk22zK2gPRWgliUdrq2e337WPHR44SV7YdwyrJ3QMI0NsCx6eRakc8i6gE8wG8ARlLDMeP4k8yvJxQqmDR9HaJBEhztPMSapBOUB9XI2zoQElWYoQaYdwEUCiJ3Ax49J0+yQZMm0zVrcnKIQpWwukpy91rm2mx2LRuk+PnxGBMSZHkiNy8dB4iqiRR2RnWxM63Hc2hKpLbUYCShgAKeGLJ3UgMvgKWdQ3Ngworo/n+ESSN2/G8RJuvUd6KP7WqjBFqqZKn3cZxiXxu+MlIZX5VwBMdEW0Th08i4Us3PvWmVkcCpKlSOtUAxwaaNLflb8cjAqQJeyIAoBaUBOQ5KFRpZ+3DAIwwwMHluPAipUGtCSOqGhUgvLWNBHQtoZiS1Jk0ZcbiQVcD8Psox+9n3rkm1CYDPMkwoEPxuFrVQMq9lcerNh7l8ASG4YRWlYBPLUBTT6m8BoAKlFiY+PUASgSgKUJgrORYuSYlwMVFcr12qogCV1XkBdsAnMBwAJTvJ0XE6JBogCcK9rL6zSAUslEpRUAJhGvfYZVuJtdXG2oJeDTQTzIu3TZXS3o8qxGYWvAxwIP+cXfJYhyWgVdczw6RiPcyABW+MfBU1OcyjwpNYXmNJcL3mTZrlk2ecaaFxoRbGbT5fdu3uZCqRTIKCHyr3yuDnEkIoKEyZxRGVAkhUf1Y0ar8qD+HhxcmmPo1qJKlWRpd8MkIjEXToxWAPEUL4UozQNVEn1cdlSoZpTR1xCcpw60PA0AGkC8KwjjU5byXBtZNaPEsW7jUCgAOTUCV4cXgvkuFUCLfQXgv0fCAVArPpadLWjuRAh7AL5VJFTEApEbXVAI+ouNL/0hAINKiHi6VWZ0Gj6upnYg/8+XOz1cFPJozNRGPJ7gd9jnr2KAinLSU+a6R3O9d+/Ns8+4t3EvYwVATUhNpqcVDUDm7mqpmZBQlcGgYxD6AF6RQSWkAGsrbqfVE+tvKy4j2kI5dRVH5quVe13KPKyqhVSB7oUmjvaLID+Hpa0qIqlVt2nD4vDznJsBDc9C0cdVLI0jiYZTGi2pL3QSKlHAIjIxbCpcKpTrrAU5NKRVzuUE5QJXWCceCSSrV4H0pWayKlyR6RSWIIcEdF8rmBJ9J5xZIxbAZNTNnPZeWjnJ6uxQCHu+rK3M8f7XAo5sqHor+pOPxTIDbooTvaoCvuIKQip2xL20MZzL/KiELGQlKqap4FUIkdF3NGG0w/RA5MEETMZ40urernNTEHmd0aj6sl9eAh9SE4bgWChz1MHbGeETWE+jyHnT2WfB2Mpihvstyl5BD4rgp5F/kXdRA8NtLgrL3mGGWg/xGOOzUZkBiy/KVtoaE8srlK4h/md/FudUlreMGi/avCgxhkjwX7X5N0gPiFUjJQzt7CH/EthWj1eUtABivEuUDmRPU1zkRI9Udqcdz6D1xoo2fMcP6DRliKYCzprfKxS7G+9yzaqWteP89q9qzm0T/8T8MHa9LejwRJHbHDjsDoI5DXoLQ182yE02BnBf3oBxCHJD+uwAAIABJREFU3Zqta5yYewIPo9oWwmhRqK+u594xFDESEX3pvSnZLkkMACqCh13gI/XBKipKNQCNdJm1ZpIpqWE9JUWqUTb79+bi/VRQ0o+nOTQDZUjv4ZfCo1eJolkUz0bz0iTgr82ArQDNnDpAEr4Q7nIi4VsOiglBvLeZzUX5H6kNlkmbByCUYFsIHk5bO/QPPB5V45y980dQlQSVQB36GsGjjnWJ00dotjtM5oLyQvScezyew+z5ZIXAjvZwCHhE/EumtK6JiwKLogN0puPORlAqzeifbcOnTHBJY5HMtpBM1hylYLwczbtOi6WkiscxkLxJIaGYpChD8SjaiZslFl5JG4WS0k6ESj1buONB7D7B6PmMPO9s2jLG2ErmVm1a+pnT1NWQQcXmhZRsK1F2H37WmZaJyyl2ah5l/s9QLtxJfmgXVS0Bh4hj4tSIlSoPRaVhaUC7R9S5K35SjVh0h8Ik7174gyUftft40eMk3v9VeDy6XI2vGdhnoKUnQpJsZVInHoTulu6dqkK1JIg3bt1AfoXRuQifSSY0hPck0KMVH5NEadsDqwAqWdEAZDzgE83nxLGqlleCB6vmUSVxm7CRNj7fIDY4tlVFFatgTy4ytsiQojjYNyPbMf5ayRFF8j6FXhJyq5SYO+GxAEG5NOd9qJ+L9XJz19lM+iI8phYL9dm5YgSaO2JM1wGYzXSzNjMnqxpRLw0L7Jgo1ridJLylWKadSplAzH1tOgKhBgBKYZaqWsenNeAZQo/H8yVVrcN2Qd/zKS5LON6AEoatVCPc7qPEHFWpsWjySNNmO6XK9bQIVFHh0QysOEljUDWKwwD6UlZV82ciyeokWgyUrJWc6naqToV0hEukK5zdLY74u43dq5ldatiZUyyRsumqNeutApCKkJgUO4/EutUPVcOuNXjaRJQAB1sFOYPVEAZzKd1XK++CUTogkSKhNHOcqfji8uMPz08CQk7so6cceDpgq7rU0xJpeEV9MJrKVJv653yzyPWg7i+keRguThMhkR76MOap58SkszZx5P8Q5Sd3pk1J+RFRM8JcM2Yzmj2FSEsUOqnZuDjGEsHDoa7kQiDNP2ugX6uCKpXGQUuQK5kwrlmVLx54CcFr4msEyeU27KqMcL1B7RHYsrwxSdhK4mIXny+Bc5VMxTKRUCwckFMrUBDEz0YliGEgtxBiVeEt1wOeR6oJylbE3wph09TGpQKBSvKy/xbnmXsqmify6gGeTgLPYU1xrovc00nWIoi3Is6FGvFyGAlShie0btMm24cHIyJXCoseq3nXJCHFGo3FAKRAmJSWav3hwKRQStfxCylj74YxLIKeEoki3zmQYJdMg2VcXUu53qkgMjyPz0t0XrunJkhWwi2JZtqnwqd99GWVkZNRg+mJSlOeiDF112e+SuCR1IfYvFFsGolQKEI1T148HPIw+qO5Vfrb5bpYLGkyD4jNIL/CyCE2GX3OtcawwEryKmzVmgis9qFpExyF7jHSGPgRCGuhjQTQyKNookChxlHZS19CdPVvBZCsdlNHsSmpHCSwcSXAvyqimihuVQuVVGljUyLDizbbX1NuheSKwiPQcYY0mCBxd41CIrSuBnTKyOm04FHXUDVupfx/3K+TcH67BXgk/0IqoVuqWi65TN+Rq2qdouSyF2gc/uroKAiA1COlmUiRhEDluL4HqD5pGF46TZJ98IBUTZI8hWJthWvyQCQo1Rs2cx8Es5S0q1O8DlFQlYtI4vAoqg8aX9uLpHQz9PxVeETSWhFZT60WJZDTVBJvwfsqk+urioYaSJUncHmYI6/6uE3rtPjAKQeeo6y1mnRF/hM/RgAioJFukkus++U/udB4GkmHJCIrAvAoJyN+k4S23BgkTXQQIxrvR2Xx3P27HY8n0hELEd1XQ7AvdBHxUhrcKkj0iUtmo2KdOZ20rrW+mv6h8UkZTH+VJInO0URney1FD3W7B5GDqaAWVwhruRlwiWDTi8Y+XZc8tlZOHlLhnsTj2vCOToR9fDLG0R3Ao964EO7j2Wef3dU8nhJL4iFWVWvhJwu/MuA5VnQi11Rbm0rJ2tmUnO2DuHoKs5LCcKWDiOPVRa4eKHWCV5BMVoe75pcrTEP+FuPSztOGOx0O2zkR0EkiRIslFCuztWj9qFE1DDdbTYLS1mkF9cQDqmDXdSORff1Pfx2QcygfcKqTy59/qAhRnad7+Oq7tJj/RzxNiYRmQ5P7WVgbM9dEyuNBlza1E+Vn3dUgqo2qHfDYV8bom7oyC3Cz5yHuSZALeoJCMZExwwC7TMK89Ggqmsg2VlHJcjwrLkSgJ9vRXPR47EFecAubUSld5upyDwB4qoNp26iCeEr4piKBcjb62zWBKlRSiV8mezIIcoKf7UrgOZchieLxdCvwJDPlQMDzCcP1TqXHc9z3l9WUTIU6ydXeICOK429xKST+FS85CcmOKjEokh3WGEFlJATXWzOopM8bgmuN4JuF4ik1Mi6nDgMKF+mQ5HE+TOb9jM8RQUw8oAa2Qy/a/hokbY7zZn7VHs/xXG4M/VODUjSimAQua6b+qGAYxPKK5OkoSSvCn1AMH8UO1MHoJr/ikvz6w1pqWJ5r2oTY1ycpnX7BVPazECpIDFgEfNT4q2ZdFSLaABABWQzecRRVs3oqUw0BTfRTtZLDqbUqQjblpBy4nEam0QM8nczxHI/xdXyv4nntMiG42UowSgc3moSjZp8nUM1QZ3u1epkkDE8DXhid7+GAVQOJyUZK4hH07sSwG2q4WyDViBDK61UklfPQcinFtda0B+2Ah+28J3qxp+nnvk7Ao8bSfgBPMlWtJnJyGlUtNrBTk2St6piRFQjhT9ybViqRhTUljDje4zVbHhEes+q0Q8RbSkIak6ETKLHXU/JWywQkRY0WUuylRmCKCSIoJiA3S3cD7Qx1VtZMjgjBLl/N8rRb2a4EnnNokh6LxK9rvoUC0S2h1tfG4/Evtc8VdzwgfqYkdBhVsHjlbxyjVfO0vB3JkfJwteuIVes0LxtOSJomfUqykpyPpnbS021FMFTLlBB0YZXnK7tqlWKB02hX6ypr/9oAD+sgL6VvWjZdKGkkiD3lSDHE25WLI4xWGK4xOCRt0C2ushLmZmkoo0tOH+UVRJtDNEnhlCRaKcSehhndTo2+HZuRQoJaZzQFIoGNjBYqwqoGK2LoXnFLtVW3kQCn7+pECH5dtXbHOk4P8HSzx3OsGy9ZhFCqW+oAjgRgFIpJ+L2COUq1GGQr3IqU8HincyzVwXB2s/2ATT7EshpCLnk5fyuvrw3wsCBKIKckpVkf2OzSOZOGkhje0k9W+V0EvVb+vxkPpwkSn1onvNaSY7+kIhAZHs1oY+Z7wSRuA9Da6xCFo3SlzSsW0Alm06rVvDTCuJYoxhkHNVtxa7WVN1K5OkGxru60rx7g+YqAR4uq2Nx5QABQtJiyqnoRcrXKICXaDv+ilbBK0wQkql6tZkByBH9LoONSEypFn2Lm8ok/dFStCJUTId7JxxWr2IGBEseaDqHEsKpgfoJmJ/cPlfU1KicKAIoLjbaMyGRLoKs8CM9HvXJV2LHkVsII68KTYq0BaefClkpGHDOvDaA73V49wPMVAo/fGNyUSVZC/J4YDYbTLHSMthUeT7WaMDHaJnWS+7IAp5sRdff1fL2Ah7vhmxQi4BHBrmObycncK62/NLx7ke8ZmTXYDfGr2VdMjtCba6/ZXGGE5OFJEAtjmGrKTK4DFcWHyv0nc/Iu/mwP8JwGwOO8H+mosKtp4JsQxnvYyB+KZ8HfnrD2V1H47GKLO4HDfe2Axy3hofXq6lVTiJ4Wm2ypEahiVhPG1XrDFFViF7M6PAVB916RtqOIJk5Yyafjqwd4vmLg0QL4Xx0pIn7D7WqjPR2N8Muu6esIPF/2nU7m97KTYDyfeCbDJtGaEQ4BrI2+MHF/JFMSGM/wvfBAyy9DQA55i9Px1QM8pxPwyEI+F/P7oaeTyYDT0cpO8pp6gOeIG+jzikVFjESIrhf6SklIr2o+scS86jWKBk3oStjJJzOC5iSX7Qs/3gM8XzHwKHo6HFIkv+HlCbxfnERDTHdazik89l898Bzm6n6xj+vZinhbPvvweT+JgE8s1AsxnyslRKcJJ64x+Ki72SlcvaOfqgd4vmrg8WGLlziWnXh8H2cxf7tOzmHW+rcBPL6cUMfY+0vg4bAw/cj3Hty0Thx4utPX7gGekwSeY+VojntL8eHMabpBHffX6coPnP7A09FLOfndwm9TX2oLHfamYw1D7Mp16Mpj9QBPJ4BHN8mVRn2VJhmE++OrPomboZKpOo/VpS7TE19UxDDNjNTPvNmRX/7qWM3ymM7SIvS5Q8f6uBebHfKQTsAgve+oZmtPxFTnFdv6dHh1B/A4D9O3Voe8zM/1gHbq60uClvSKa4twTZj6owkg3FP9/9EiqWNOTdUaQKnwT0hQP7tb/868jrJ5+R0fceOV//G4Yz6f2me/OrTfhE6Vl90DPJ0AnjYZFn+a9bfGB2hEsBsR6w3YC6IHSxIIrgGQXhwN1QtC6iCafpw2yUXSi4Ua15cWw/0PGEI8FioxdY7XgsiTBv0dc0dzvzjcTT/MW/eH+Ucz3A7pI32/NnW+o36nlyaaBp2gyFNnnpHjeU/XAM/hgYOO2cJ31p9A1tJtELpXx4m1so0WTeAkvxJBK4TIfOJgqTlYa9+idZe9+J5u/+GP5c1orr00lTQIUjpPmuqBvu2X2o7bmzo4Xv7v4d/INN8+DJsMorG0iXYcNaF2ZGg4U3A9f6cmxO8Bni8BHhmKjDOG6RYDxo212F5JTk5SkyIKGOWbj8RpOtKSU6ZNQ/hrvy1dtNjSs3PszG9ciAB4kuWt32CfvPeelTL2xS2qM3AaR/25HN+uI66OHn6dS1rK5199tVUeKLTFb73pxhdrnpNfflScH290ivuRhkq6iQCH5EmpbmindTuZ58Ho1/7/d7IM2gH1Od8TIGZwAjo/U9Ezljzm/DffdN/RdZH5Pus/7/E+nMcDMkd7b3cAj+5ZK5IVA0aPsQQUArdvWO/E+XXXBCZuhJAPtHWL9LNDoOHpb+ue6T4HI4U7HQ2Yoehuz331VQfgs6fPsK1r19g6tKOaDm46rIXv2LIBvXQMHVsvnU9HDULTaTrDA5JhPy/8eL4dcLpL3p3Rvdfb/V0W+qwTpNPoas8cDr68Y4Nb/IlBnuW8Sy9zG9mCN+daLRNHdC3uu3IwCdj7j30qvJ4e4OkE8DDow/qNHm033n+/9UIJUNMhItlBipnW+dzDj9C6Zzbn3HNt19499jHTL2ZfeKFdesvNjJjJt6XvvWsff/CBG2ESoTGwsJCbEV5vxxgDfXIFjiiIsQZql+M9WQMH2j0//Acr2L7dnvrNb6wITWVpM4dqF1WfD0pzbUhp+EM91I+c/ILaLDR9QAAXytBB7WDN6P9IKCpU43PZ5TSR1BP9ZuQuBt5OA6Mzd9o1JDp29rnnOUHwV59+GvlNhJXopg/nWNJ+acQL0hhiv/D9kfnvY+3ipwfwHH4VzotFdvT6737Hspmg+vyf/2Kb169z+sehiK8rxGlizZzHIXKn1k4CbrxCkS3RvRHo6P5EIvZ25fXX21SmzP7iP/7DavEqLr/oYoT2l9jSpUudWmCgmkW5QaF4xzpmG593Mhj8fyhrF4rHLA9Js8g0g/2iyy61VCZLvDV3ru1nBI48oGa60Z12sptECktZwyU1r138HdZGeswaeyS7cN9PYv30cmlUdnxGpn3zu9+1uoICe/TXv7IShi3Ku9W55VFrHlwbrR1umukpePUATyeAR2q6gyecYd/8139jaFq9ffTe+3YmM9THID704M//mx1pj02bOdP2IOCeu2uXXXfzLTZiyhTLXbfO3n7heduRm2djzjjDBg8Z7EaSrGfS6MYVnzH0jxCMV6saRvGoJsyZbYOYVS5luTPOnGabli2zZ373Oye3OeOCCxh5k+JkNjctXWZrlixxk0XdLPWUFJtz0TfQXmm0T+bPd5q8Z82eZeVMn9i5ZYuN4doz2I0lp7CRYYgrFy3CqJNt8rlnowEU56ZHFiG7uoWxycNHjnTHfPuFFxEhi7dJHCcjJwdB83p3zWsRkG/gurVDymvSrurfxeUR+XflrrTdrvF4Dr8il5eJi7e7fvoT64986CO//JXl7txh0886y4Yiqq+hjXtYy8XzPkTUv9rGTJ1qyX360FTO9Aa8z4ULPraUdEYdTZpiwWwKOQMGWBrg/sv/+k90k1vsovPOt42s08Zt220UtpKE9xvM5xJZq13I237GZlTEuOrMocNsMt5yOuBXway2xQjc5e/fZ2efcy7Npsn2/gfvu3E0Z86YbqWsZ2/WZBMjsvfiXU/lWtOzs104t3HVKlvDujYilaKNpEU9gADihJkzbDBjspsJ20aNG2/5zGZ76Ne/ZipqoE05a6YNxN40n2v1sk9t42fL+Xxl53NKJ7HIPcDTCeBhf7JBGM/d//wv1gIIrFn2mY1kMVPxEH793z93qv8333G7bdy82ZZ++qlde8ONljN8uO1Yu9Y+mPumxaWn2zmXXmplaCRH0I3eBsfiyT/83vIYTKgpEUYuaMTsOXbrD/7OzUNvpLEwY+hQW/POO/bM7/9g8YDEZbfeCjEswLIH9Ld6PCk9KDtQJNSkgRiM+Xa8sRRkMB/+04OWSkf7bbfcah9/OM8+YwLrOQwbDKHDPYupFPJ2nn3gj1aNkNicq6+0fiNGWPrgIbYdMPyIa53NFEZJfP763/8dw0+ys9l5Q5makTlooNUjMv8kHtjWlSvdUDukv914HnlcbqeVtMMX5aNO0FC7B3i4fnIed/7kp9YfQHnoV7+0ffvz7VJC3H7Dhlk0OsgZPNRP/P73tpYN4Irb77TpF5xvlag+biSEWrxksV3NOicRZheVVVhvQKidgYe//u//thBCr3vvudcWvvaGLQIQrsI2pBeTvysPYf94lAgC7Klf/9LWbd5kV9x5t50xaaLbvDK5jg3r1ttbr71uV2Av2YTcDz70EMMDetm3/+GHbghA6c5ce+OllxgoWWIXsDaxrH1232xkMprsD//v/9rO1avwXmkkRnt4GGt5033fshDWRGN0tP5rP/nEnvjjn2zotCl2+Y03uPCyF3bcgCf83J/+ZJuxX2n7dPerB3i+AHj8lR4NPhskj+ef/9niUtOtaGeeJQAG7dDRf//LXzqBr5tvu802bNpoLz33gl1CLK3d6BEe8D0YytW3326j2DHXLl9uCXgjfZkQ+txDf7El738AzjCniPHF37jlFptz5VX28iOPMge7zG657z7LA8ie+uMfXJg1cc4cwqVovKyxloBn8TAPysqFn7ipAQF4SFO+8Q3Cu1tsEYaTzK44uv8Ae/gvf2Fg3D6beOaZFsP0z2HMaZfMxst/ecjef/Mt6zNyhF11w/U2eMBAe+nJJ90OfwMAF4g+7y//6+cM8+N8U6dYZK8EG83s+Hg8oWd++ztbMu8Di+C8ymX0B2AHjRrtQsBtGH0e43SkK92Vr24Fnp/+1PoJeH77G8tluN5UPNesfv0tAy9o1OTJ9gEh50dvv21XcF/G4sXOffQRW7xwoWWxMdz/wx+Rg1lgHy5cZOcCSuMHD7JfcN+CWc977xXwvAbwrLarb7vdcgCox3iwe2X3tUsuvtjmPvm47eR8N377uxYPUK3HmxzOhBCJWb3y/PM2Y/p0y+nb1wFPHGt234/+wTayibz5/AuWhwcdjVb3WNZVI71H4aX2Tu9tD/7rv9oqckJqFg0kZJxz00123sWX2JvPPGt7GQBww513WNnu3fbqM8/Zudddb2fg8axfttQSeW/fjD72Ot9t3mvkqFwyu2O2qCtX0ztWD/B0EniGECrd+y//bKV0Ar/z0ms2bvwYm3nRhc57KMcTuPaGGxzwPPfE0xjWJTbj7Dn2O0CpGHnSW7/3PdPnl2Gw9UyQiMJR+PTDD3lQ11DsamJueqJd+c27bfL5F9gjvyD+xhv5Ng9Efm4uhvacTSThO44HYh2J6gHsWqnklx7hQfkMI5Ouj7yOhP797O4f/9giARh5YIWbNtszTz9jQyZOslmMeN26baulMtUiEwN9DXD78N33bcall9gFF11kq7muuRhcLB7A3fd92+k6/wXPaRpu+igG6G1kKmp/8k69MdDn8MAWvvuu27UDuI6JM2baVBKrEqhfSD5rNXO/nLhZF766G3hyAJ7H/vSAm19/+TXXWCVVyCbyJhOmT7MFL7xk80jwX37TjTaAe/DAf/y7bcQrmXTu+fa9n/7M3nnlVXuTsOnSKy63mWdMsF/iAQezBvcAPIveeN0WrcTjufk2WhrC7Pd4QxnDh9lNt95i7770AmBQbDd859tocEfaKkJnBFKtllBpJV7SRYTOffF4/swmEYfn+a2/+4G98/hj9sqzzzPXPtIuIIcoYNwFCGXhUefgCT/0f/6vrcCuGtH6CWUtzwcsZ8452574wwO2i3zkvfd/z+oYQvDG8y/aRbfeZsOmTLX1ixdZDQLxkYSBK7CnDYSHykN2d4K5B3i+KNTyVQ8a8TCGEWp959/+lSRwCACyxIYOHGDZzEp/6re/tVoqBdfjbWxipM3Tjz9hl11yqZ11zhz71c9/bru377Ar8YamnXeBfUqisYAdJxRdls/IxRQCLO0QQEIoxc668nK7+u67bd2KlYy2rbLpgNDmpZ/a+wDCxVddbQMx6g+ojg1mV+1NLuGhX/3Kln74EfkG1TTIV/Cz6++9x2Zfe40FUtJ/5YEH7VNAQMecSIXkYwyyDw9YNlMlX+Uac3fssJv+/u8sEc9tMUCydeMGEqZ1di07IeQTe+yRR+ySa6+1fng0CxZ9YkOHDLV0PKnn/vd/7aO33sLjIctD6JfAbhzPgwHxxEpJgms0T1dXvboDeNo0G4oQ446f/tj64d08jXfYDy/mSsKPrRs2uakN49k8Fj/3nL0/9w27mvXtx8P923/7N9vEBjCE9fjxv/0fK0Keds3GjTYeTzSZdfzVf/6HhQE8d+CxLsHjWfjZCruOh1xz1X77X/9l2aNG2i133GbvvfyireY41919jwvpFnz8MV3maOqQx9mCp3sjG1lW3yz7y4MPuvt75w9/aO/w71eee57QO9Xu+smPLBNPZwVV1AF4RhkDB9njXNtSQLBJhQcE5Gdcfpldybl1vWWsyww2L+Udn33oYZt24UU2iwT4qhUrbP/uPDcLfjU5ovytW9189+5+9QDPl+R41GTXQujQb9hwu+ruOy2TPEp9DZUddsSdWzfbG6++QhI2zi4mJt9JWPXe2+/YTDyFcYRmzz7xhO3YusWFIudddrklMXK3ifxN8d7dNhd3uoBxxJoaqkmTaQDZ5bfebBlUH8rZ9RIRAZP7/ckH79n4qWfadICrtLTIxd+tAMQbL7zA71dQfSHUwkqayLmMJSy6CoOVgPyLjz5meynDziQEO5sqWx3G6DglJBIXAkJN5AQuv/kmwqoQF98fILm86rPPbAzVO5HeXnrxBZtEeDhx1lnM8ka7FwpBIGHhu6+8bCuXfArgqcLjEyj3GWogIKjRKV29W3YX8ATwQN/1s59ZBuD5ODm3UCZ7XEmOJ4pKTwWAoukNy/ACli9aaHO4hxkA9zN/+bPlAdrRTPK8DJAeNWGCu7dKrLdTeHjmicepikXbNVdfZZ8uWMB8tc12Hg94FF7ks489CkAMsIsuvsiWfPSRLWYjGn/mdDapc1zVqpXjbAYYFi9eaOcQWmeQcH7llVcsGvu67cab7E02ofkfzHPFh9mXX27TeY9kclW5TIyOtRfYLDYs/wwxedYao8gESC+97loXOpYDPPKEcwHJV7G9xN597KIrr7ReJKApWVrJvj14b6/YLgFPF4fKRwOxrgaeceTQVDnutvE2p1pz2dHz+E9kTKylsQPFMB1CZekGdsQDlCYrkSqNpqzZG3e3ljJ5cWGhG8ETJ6lSksDVeC+BCHolE+L07s0Ma/IklQzby9+9ywm9q/Tt1pn3pBC3pxCz6wbqfZqxVXRgP6NLYi2TqpQ8m2rIX9JdKeE8VeWqQHi8Vi1kJBNJ+7B7N1NVKdibzzU2WCzhQ1ZONiX1UKukhCpGbTUav0KHtIwsb1YUHk49sqpFuOHReE6iDO3j89HkeDLYTQMgRFY6ImMbychixvKUu0GGnmJQx5c/L3B653gc/YnvlEYS+Zs/+6nV7i+wpwmZC7nXOXgfcXEJLtwSHaGWe1WJF5JEXi6MB34f66YhfqIc9sJbzGC6q2bKa1KIqlb7SD5zU9lA0hmqWMIk1xpLTkl1IXE+CeQIbCWFkFf3sZgRxqEATjr5Fc2BV1m8gIpWEb9LZX5cBIqD+6leifqgxHPhgQIrIRmsMrym1WaxNsHYiUAyAt3lA+Tzqvm35mSphB9EKJxKbqk3k0irsSWxoZWgLuB9qkim8LtUwE2DIyvKEJ3HG9d362qPtfuBZw7jbcZaLfmxUPKT3TLQ71QDj/dQezOVlOv3k/B8//JRXb12CZeQ84m666F09HkRzfRjuQECGZ5VUendu93PPWBzu7qv7cJbKI2K1d/4XK7LWG8WSPnO5S5EdHwvDahzCAZcm4NjoAJJ+ogqFPzDJcodgxZOif5fXA991hHjDlHjfAVyX3JRMp0+kqGPFutaAHz34/OuTSeBx6MOdfrVdR6Pd336vgLcAePG2TfwWlZ9soCc2zzmlFe7+yN6pr64mxDC+/2zqLxPelNDHHPAfYdDSVi3Tmp3wBuUvKmjHPre69sefLYEKPjIiQd1l9z6eud01uHukTc9xMdS8GzAd0Z54gfvtjuN7ICz+OzAu7kaOOj9zl27n+6gMcTcVNlDu4oT7hplPaduCGRXejxnExKPg9zrpkz8dQGPBz5uaWSMPmPQQ+8ZlvcwO+KW31g7PFkeD9Zo/0T6AAAgAElEQVTHe3HGCfi4h98DFbGOndHI5lzKxodI+oEDHe9XHujJoDzusX7gny6hdo42DYvjIh2L1Wf4cps9E3Vox787UOUBJ6duKEDi8/JiXN+STxPY7415v/MehI6v48COwz4X4L67vtthPz7m/3QF8AS0ew+ld0ruj5T64PFEUTaX9yGyoCY2eL/17m0QO0Q7Xp67e0J23eNATd3UOhwCHGcDviM7fpCAh6OIm+kx0sVW9+xDzHR9MgSvVJuEtwnwbs7twlR3kZ7FuCXrcM8PbQ+fv3XOjlRp5ENt+q4C1wBHeOBw8Nxd+4t46F5orrV2664coR94jljfoy2IW7suCMW6BXjIbf7VjLfRPda0zlBYronwJcKIk8VIrsRNFiFPHJ1EiH1ijpbs3mst5E60sM778PZOH+x4+4nbKH0G5T3mHo1e/V34zSRr+LwM0mGOfudbfv7feUoddlmNTNFDokRpGy78lNmzGSQXaGtIKpcSiqk51dP79e2IzlvyIMy1AFBpScTVjsRtF9bVExZUU3atJ7RQZcprH8Bz0uf8lHzeJ/PVfXEg5XZT/sV52yHdiccTyCQFfznWH4w5Y9c7/QjaSdDRtXcF8Hh38RBY6N41s5bxhM+xhLKVhEVV+w84IIjvnWph5GTKCDfVf6cH1OeCeN/Zc0XVE+r7Pt7Dq3FD4YSnw8j7hHAvVkPIU4jcD86XiJtlhLJTWaNSwqXNVI+a1A/nPEjv6jwfScAjYDx0v/xr5vdHPBvy3UB3aZ4dNcExSyTUTkhIsiq+T3n+bgvg+v20kINA4u19vu3Ls5GOOOrdKe+ifKvr2W2Hn3ltOv4tTXDmtVx09tUDPF+YXPaWnKGxlkUZ9Mp7vgVhLN0WQuD68J13yaU02cWULJWAzd+wwV6i9FlccMAxTYNIVCr9qoSuOC5yz0W0c4DEv0PwTtTzpfEmQRhpFsY5kJyDypnFJHo1AkWAFIQxKY7Xe702C2+xtXDaSU2tFszEbocgeBfl0l4QFJ+h+rGVpKbo+cHkCbSpucQyRujYxXy4hYcnEsD8xvXX2fApZzJ6hZlPlGF307M0j36jgl35DmQD9YePtPF5d006N+dUG4aMV0DbzLWlZefYkDGjoQDstL0k3Vt0vfxeDbRB5Cja+Z6tHCOISZnOpI/TSE92ysRhDoq+D5eglolL77rTJpBE3wS14Z2nnia/Vm3nXXWlJeMNvfrwo44tjHvKmjJznHummeYifWqGeiibhUZVtwik5W3yJ4aE9FmXXGwR3J83YH9PmjXTZp5/nr1OMUCM5XupTuXl5dlbT3Iuytgi/ikcdl4PnlIwuZrgEMiN/LwNqoUeaO+h9qDbAwDncvmece1GEh/Eg8vsY5dij6PGT7RtFB5ef+RhKydHpOvXOgo/dY1B8oxklwIlHYWfaT1lKMoDiQzaRhHCvU/XpmGSvEebo1pn3HuwWdm561njWMpP+T3GzoDP1xJ4VsFz+OSTRYwyXoPIdd1BdO74haOpLNwIs/Q38F1CeOAbyfxXs8MUkaDbu3W7baNysJm4vvELgcdzoOvZgQazi93zT/9iKYMG2arX37CH/viAS/p9+5//kd+N53iL7AHKpSqvDqOKNQhGcBjnVQVks49NOgwuTyQl6TCSfgkkqffm5tFEuIpkZhwVppttKCS99fMX2OL5H9pmqmHpeFjDqDLFUKYtIpG9lR20isZR11sjIGN3HUBJdcCIkTBVQ23SjGkWQOL3kd/+r+3EKxs+dpwNGjKE6wiG77ENY1xpdcWlHmDgycRQWr/9e9+1ASTmPvzoQ0hkGTaQPy8+/rh9uvhTOwMOT1p2tnt/7uatlGXXuRG7Q2iszIbJHI5h7t6507ZzP6fB5ZlJ5Wfvti22mkrQUsrIkTy8I8ijpJFoVYJ2K6OnC7Zsdkbq5aI6Y6Jd4/E4L7MD4LkQk7W4E77UdNpRKooK7bWHH7YVkDyvuInqIl7gH//jP62MVpHBtFDoPoYANnmsy2Y2mUSqWhP5bpsA6m3QIrLwbIbznnx4WxkwwcPwXue9+ppNp4dvFpycl595yn322//0j0yEaLLta9e7vrfczRtdC4QqU+kQOYePHU9hIg5uWKFtXr7Civfsxvvkfh3M03huyCHfDXDgfxpZl+FUU2+Ch9U7K9tK8daeh3y6AtJhNATQsZMn0RfGDDe8uyg2o71bttp6OEZtrOGw0aOsLy0fGrXcDBhV4pGJBtIvJ4cCyn7bDsN6IN8tCdvYQGlenvEo2NbpeFchPBu7aMPYih03qYXH7759ydJ+jYFnIcCzttuBR/fP9WrB27jjxz+1dBjB+XBe/gSRrhfVipu+dQ8s5iTLXbnC/vCL/7EYKgg333GnJbLzuc5gvIQ34YLshONz83e+45i+JRhnCjT4GoDwyYcecTOw76LlIZaFzaek/c7rr9lWSu5XXHed9YM/o5KpgOrjl162+XgjDXyugevqC2Bcf9ddtFEMsH241uKDHMBIHgZ4gijH33znnZYEK1ZVjkDcltcffdSWvz/PmjV/GwOJoSJzO+TGDLhBD8GkHs25zoXN+ioktYWUzC+DE5QC0zaTqks1lbjnKBWr+nXP93/gciNlGOUGQHX1Z6vswiuusPEYfuGObbaeZO3bCz4BjM6xGTC4m9kh1Q+2mwf25Qf/ZEU8FIHaNTuHO10Yah06oQMeqld30qs1FoDVvPr8Hdvt1ZdftbGTJlFiT7LfwclJp7/uSoAoMSHRAXBjfa298uJLVCQb7P77v28LPvnY3qC15TzAazae00svvmj9AeZoPNWHacacQJf6LCgNrz77tOUBut+FC5aQ1hsbKLTeAMJe+sMeh51cyTC+G+BcDWbTEnkxBg9rGZyc15952qqlbCDvAy/HebncuRB/OM6/ld9r5OKu/eY3WYOzbC9Vun40M2sdnoORnoon9P2f/BiGfLyV03fWKz7RajjmX/7wR8LjELuN8zZxvCCAKZ3q68olSx0/6OprrraVbHavQmK97OprAJtJ9ixMblFJ7v7BD1xOsaa4EBLiYvvo5VesBhsRpaIzrx7g6USvVgPAMxSP59b7f2Dh7JL1IPtH8z+iZAohDzZrJGFVFR7GQw88YGOnTYencbG9+/LLVkwz5RU33mi7AZ0PkCK4+o47LBk26tzHnrBMHuhpMIpfxb1fv3yl3cTiZwEAz0NIXA6NfTjey23fupfJolWO7Dcduv4ePLw//88vKZvutQaM7SxaLK4RcRG3ej5kw+tuu8XaKXs/8+jjNpTmxfN5GD587RUroQR/w9132VbYsc/hqZUCfMrdRGGQt37v+zYS6r2aSZNpyWihSfBpAGo7TNcJZ82wOErGY3mQ1ELwOsTD/bRV3PejnwB8Abby08U0Fy61rTB5L4P/MpvGyHdffomO/HcshNzXXRy7nUrDa+z8o9hxp+IhPPmb39pSPKIg9XR1xkIVWvDGkw21DvkInpvlCgUAz10/+jFUiFTHFh+M57gOcFSIGsVD9cD//I9dDIlyIk2c774x1/GdRDBch4fyLozlOyBstuElfMxDOh0WcCQP5HNPPWlzrroK/eNo+wMNo+JgzQF4Xnn2GdvFPf4u7PcGNpq3Aa/JPMiDhw21p+B7qYx9/9/9va0hF7R0+TJHQo0BvB6kNUZhkzyTGDg3fQFCeczlu3YDlDtdqNcEqIew+f3gn/7JseA/W7XGpgCmTSXF9off/Bp1gSj7GX2G1Xhv78LCHkZIP37KNHq2HiDkbrfbAayPaU6VtzIJr/s12jJ2443fhzcsW3zxyafsGr73WID1KbhI4bzvbtQTiuGbreNa10E8zKN/r81HDznyXh9tmXuAp5PAMwyPR42Y5SLisTuEEmYl9Uq09RCy1EwZQpz7GDvX5Dnn2CQesj+z2xUQXnyHmL4JLsh70OcvvuZaJ3/wp//+/2wwns/193zT5kLJFwP5BnINg8mR/P5f/tXWrVtr57Db3AwYlQEkO2lZSCSsKtu20+Y++6wVwzdpJB9w7vU32qUQyeYCcm99NM/u/9EPrRfX9TL9YmNgqY7lQX+c7vYDcDR+CKu1CmN66nf/awfQEFJyWcBzG+AwiodjB8S1IhcWrraNPHxDpk52LSGVcJPSxFehCfJ1Hqql8mQAmLFTp1lkVDiJ7CX22lPP2ExCrfMhUb4AaC16+03rh+HfA1Cr3+xhmLJTKXlej1f0Gh7eh2/NBXgkl9U56OkW4FFCFuby3QBPL/hPH0Lom4qH1h/SnfRzCgHYB3/5C7sG1nkmIdAjbCq1bALf/dHfWxktMo/B4J5Ionj2lVdYRUWVJQLaS/F8pJ9z3be/7QOen0MQnArwXGiv0C8lj+f+n/2j7STH8yR5uAvYGGaec7YjCbbK64Xt/Bpr+QEEz9tpqxhB79YjnGctBEZtFAPwhi6kNSOOfN4qyIkfk2esB9gbAMrBbB7fg4mudopCwvHeeM91bHwP/f53Vl5WZj/78U9sK8D3NB7UFIiml11zHZ7Ww1ZQUmT3IpdRS6inEKqZTfVlQJLMod3zg/sBsZWud+w6iKmj6W5/9M9/tgLyeBcAyEPHjHW5yuXvv2fzX3rRag96PP51PXYs/TUDnmKa4pJtJei6kMa87g+1vDREA0AzHOC5++/ut+0kfitZHMXukezaj5EPGUOMHMuu82d2kBGTp9rFMELnkT+qYuEvYrdT/PvRu+/YdTSLKkn34C9+YUOGjwB47rG32PmWADxX33mbA4u5j5FfoXeq36DBdgv9W4WA1ycYs2Zj15Pn2bh0Oa0NNc7jmMaDfg0NiJvJq3xKbuIaQrMWdu5nSCoOwkjOZ9fUZytxr6/GI1lDHudFdGfKkV+QsFg0HtudGF1fzvXY//7WcgGdOo4dRlh3xbe+ZRNm02oxD88OEanhMLfnYrTL2N1ySLQn4NHMOu88a6cM/Sd6kAbyfS7GOJfxQCxDNqQFt/1Wvp8qde/Bth0xcpSNgfX9NJIMKwGrAH+SuRNeT9cAz+EnUhiMAJEDHnl6j6OrlMb13YAXk9AnA+9wsT3w//7dZgOWkwFVtTSopeSSb5zvJEleePAvhKp97Jv/+I/Wl/D7AInjRwCqUu7tzX//9xaDTo82GAHPbAc88ng22/fp79qGztIz5JPORzVAgP0K4VkFeZVv/+hHtol80SpUDS7g52Fscg/hsezk/+WNxMOwziSclkxKCeHUPgiJTdzHdvI2l9z9Tbvw3HNsJ5tGPtXV3nio/ckzvkc7zHrA4++++z2Xj3r6uWfszGlnAjzXAyJ/sZ3kkL5N2BTBvdixmfzVmlW2gmcrjc30mz/+ke0HtNSJf87ss5ndnmiP/OEPFD/2WjbH7sP9OofnoIQ838M//0/bx/cKUnW2E6+vLfAoubxmTXfneDzgUfw7gnzK3YhGbcDAduI5XI7mThO9SY88+rCdxwOYAM3+d+xOESRUbyG3MgAXOoCHrkRJPlzpfSzwnTzMqjA8RA5mMDvr9bffYW+//rrNf/c9m0Hl4+q77nAiXwrTPmHxL7zkEjuTHIkbg0sT5sd0Sb/F7+oAvmauKZOE3w2Eb8NJWldDiQ/BIPfjtagLup0cwS14TEoKioRTQUz/DIa2lu71VlWwAK54mKu3Aw4ZhH9/wsBzSRwqeSzK/9mA5yUAifJPTYQBIty9Q8hUCLP2VryzYMTBwiKikQhZbo/TYJmFEV7Pjp2KhkweeapHcc9HnzHevoF0g8LTZh7aFYDSy489ZhWAoysZd8JAXT64S0Ktw0+mYwbxPe8mT5MISDz84J+tAh7ITeTMprIW29ks/oioVwLgrHucg/ehKvoBdvvnyZtsYANoxru8C69g+qzZrmH3z0iGxNHecCu5vGjs4QH+/wyadGeff769+uLzloftfIdwagfHUDvNuQDFDORQ5FGsVRc7jZ9T+X+1RLTifbzDWr9Hm0QdHrMIoS6EEeHP3RQfsZSLSmL97vvJz5xUyeN8jw0AzCDydbfSqKpNcgEeya2ESvJkX6QiO5mQ6SL6/55g08zHbu77/v2WSr6vXjPY+f+lbBTL0Bu6isZYhVcSPRPhUazop9kYY/CqrsUjCyGEC6VwsfD99+0VQjDpCQW5Vpovf/UATyc0l0U/V9/OQIxPOZcKYtsB7HKKy3PzdlpmVqaFQpPfgivbTGk1M6sv3cL9XBk8f88ey6OHS4V5CTKpmLOd98UCUDkcYz+7h2j2sRx/GDIVkRhdLjtHHn1cCYRyObj5CSSI1fiXi+GqFUIleAFiMLF+H3bAbCoq9Tw0ChHaKMPuoCJRT+Uky/e74GASp4RXu9lNZUSuHM8BwjCg/oMGWBQGpMbEaolIqVKLMSeQOB8EeEYQGpYCFMFUdFRZU/PkkOFDaR2J4ViNVO122p69uwi7omwQolap5CHEIdpApUO5kv6DB9IOkGpVHDt32w7CxAKeGY+E19lXtwAPJ5fY1yByJrrO7Qh21XIP3T1DAUDXuxm9I4m4Z/XL4Wc5LnG6hzBpL38auQ+CzhxyfH2o2h0gb7aDY0SQ7+tHVUv3axseTi+S1Gl4h3tptVD7zBA8xypyRbtYC0lZ6H5JjqSE8C2Bf8vG4vA+SuH87KRvqgIg8DJcWjUfY9p347wCUrtFURUdqqQ0LTLbqZypvSUaKZWBgI/4RPvw0rOx0cqKctuFHSTRlpNJu8U+vOlxNDNPIkxbv2otuadmgHKCNcNRE+iqXN4f1QOFgbU8J6rH76atIogG4WFUU8PRkarmXLl43EVsbOJwdfbVtcBzNszlMdhmtxEIi10f1CrKgPIIToXH499x5erKjXRkK00QwJsRg1MegpO15I2tcB9E6JOBykNwP2PR3MQAKhJ6n16tgJN4PYEcTw+h40rw//qMft5K/kPHEotMfBH1bemc4lCISeu/Jv2taod4QI7+7rwICGGaoS2+j3ghIvW56xAR7pCX4RH59J24JvFAZDQ+RqrDBMDHfQddD9fiSGp8XgQDfca7Jhpo+X6tknDV9+Fag3WP1Miqa1XlRdeve8V1i4x3IpMrugN4/PdQ16Z7pu/vWOe6n1oX7qW+t+N9++6j1lPfwc9m1nUF8jsxjvUzHcN/H3T8NuWx5KH4+DBCe2dDHFP3SOdyTGA+69ZPXhgbmFjtOrfswN824a5Xm4LbwjzA8ZfYOYj7nK7Z2ZJ7o7e2jn2uqqLWT5wb2YAY6qxLJLmib+AJjZ88hfzPNvddc/CedpG3fJZu/VrCbgGo7ML7nL6Td3YJ0On69R11T9x1dhZ1dPWq+PJ3A15jPEA/BsndgSrrs2lLrTGcDXgBWkf34UXvQtv8aPlAfb+cnGx6s7oZeIpx5Rzw4JYqx3OqgMd/Pw/fpN2T63kPfkPw3fqD79Ni+HkNvNHfruAfWNKBAuY7wqGfHJ6e835+tJvvP7dXSTj8fYd+54FMx1cH4qtnxEeYjeOryYB9Zz7cpjyWqseNOXTcjtfy+evvbCr589bbXcDjPb7Hvmf+Kz7sPh5xp479nX0r4tbdxwDWPetwR4+0m4PX49sUPvcg+5f48Jvrs52jLJU7gf/sh76n/xrUvKxK6ljCwTjoAi2E88XKIxJm7sOr81oj/J8/ZAmHPwdHt5DPr+IRFtSlwKNeLXk89d3TMvFVA8+X3cyjPDKHW4PPNf4cP/34D3xcn/g8Hf4gRh3Xcb6qN3cn8ByC6276dh2A53jCyxO+Gt/59Hm/uR3rWI69jZcUiLcUAi1ADOomQnSFTE5grhtfXevxzPaaRHuAx483HfaGI5/+blzUIw+tU3fcdU/hqbvkVN0FPEdxHLrker82B/HdgMOaPo/wYrvru/QATyeSy91180/lcQ93mE/lmTt/rmMBQXcBT+ev7K/0nV8h8vYAz98I8HwdHp1jhT09wPN1WL3ju8Ye4OkBnuOzmK/g3T3A8xXc9G4+ZQ/w9ABPN5vYyR++B3hO/h529RH8KcsvS2Af67xfK+ApoenNK6d7shinupze1Yv3t3C8gzn1I+Ko4zHYv0rg8clcnJJKVxcbmn9NXenER7s4KBx2tFr7Uc7ftcDjkz7tTgKhv1erB3i62Jq64XD+apoDDkcc8pHkaJSSsJUr2HbCUP8qgacb7vepOGRH0FG/W6vWVeRYJ7kLabGT1duuBZ7ZNESPpWEWHk9IuCMUCicccfcYr4DSktIvND0R8OrQgFmM5oc8nq8N8HSGIPJF7+nM54+8qUf7zJE/O5HjHq9Fc44WjFGSC83Bbczp5t/8cXKZ/AlGVCaEP/o7GMJ0cBvMW35xLOnMUwo8PuqBg0kf6VJsa922g17aUd4jsqWf+eJ99hAt0/95D2dhEPvpDb5So//3Pm1J71zHeio6VqI6cHb8fImOvz5IFOwEuH/ZEvs3D7emrGWr+xv2Mevr1pRn3K0nc3Xc2ro19cDoaJtLVwLPnDkCnjG0DTUgehduc7oDeJLofdGkxa+Cufxli+N+7195n+qyj97rI9L4LIC73nFj+JyRHVwrObD6H7/l+Nmnh6+lwxJ5Fb7Td1TFPMiUFWvW9wvvATr4KHXO7Tjal3f05Q5f2v9A8nd1aKtVRbVaeRxzu2PQA47g+kIlSC+h80ALrW2zqGpEFKvoC6sJtqhG2jucJ/T5E51K4JFciLRvaOCyEKRIgjl5I9ITbWjZSLbV76QJZlppRwllHJAULjU22CnwqS2B3riQyEgnUdHK51r4uZvOyUtC8EH8PCI2mv6+YCfKpukWapuQaqZaTZrZaA8O1euIJP5l862z0xTiGOGMyGnT5zTIz2crEngPopdKou6tHE8jmU7mJcBpBF0qI1vcmtZG0+4QFWBNKKZK1T6Y/oeQBuRXa9sttoI1rWZNG4IsrMU3gOmIde0u4AntLo9HTXeSxViE+NKpyfEcRJKD6+ae2WP2pvBL90B2YM74DuHde+/nXt+N18kQoMEPfEbHPdRO4cGIBzzeqV3fkDu3Pueb1OAzQinT6W3+MSreKf19Pb5L6vBUexq+R1j18VrmEcDDJueMsy6k1coSmUmVFmw1qcFWHxcI8OD1hEgUnsmpAh4kFCMr2y2ipNliClDcK2u3uNogpqxKXP5wADolwOO7f1JmDKGBdzhyp2raVV/Trh25tv6zZVaFGoGbMKLeLnqMJOI+hsGNUUjTFiOSvxKRfTVL9s7pa+PRI+pFp7468dfSrZ+HppLWLBFdIyke9s3JRoI0zA7s2WsL6NqvRIBtJrIoUjHYQa9Uu+t/8q+7/5+u6cYZjc8MLJprnYxIXDHXtpmudNcoLCwAjKSXE83fGxkcKCmVE2la0b1XOFUd3mIVMcxkSw2y6nSkhOOCrDGK9Q7lZGwmweBqCKTnUIAnpoRNpYB1LWb+V02gReAaHdxUvF3PfTVNaO+KXq05c2Z5oRYez18J8HR8OA89ld6omg7ut/eMu4X1Nhy/WfiBxvuRN+PB82D8ncUuRObXyoG4Y7rRJHqpsbRDL5TPS/KU/TscXwCkpdROrZPTsOkmFxyEFd/YHP/ld7y04wWaL3i/28EAldLoFitNMasZEmlVvTHOcAAn2AuznAaO+47kAkAphVlh7JKRJS0Wnddg6XnslgIf7ZIdXMJuBx5vSdz9bsZ7GUzv0uXo8JQAAkVoGWWjIrCeh/djRjcH4vW00hQax3SKe791n+sI3wV4ZND9XVZWah8gKXE2MhjSMNqGuJp0cWoQiH/5heedgPul115vOdnZtmM93eDO02m31Sg4ttO2cP111zDT/l2E51c74PEvlbSTdHlei4Mab2n+lGdFa0MsKooTUccsYUTPZmRvGyQSj1cVSnf6ORddZCkA0/voPVeVMlr6iH69ziy/wqq6oFYrTm610sFhVp8VYZWxNKICNiyTL3fn2WmQ8jz8CUOHNayqzRLyGi1+d7P1KkU9sTHYN5HDWat7DnqA52Aoc+RSHHp89WCrV1mucgDNdVp8dXxrckOwun99N7M1QGr8XldwgNT5nQSEQIRZ3XJ79XNNf+Dzmlgg/Vr1R8uY2zQxQi6yupj5rJs+wLEl7N6iLmhNd9AIHPR02jVSWOfk5y2ax8Q5oxC0iubaZGRq+HPKLV0Q3x/TQP2zajiHPJ3qCCacpgdazfAYq0oLtMqIZgdGmkkVjCcjsNEf5QdasdA2LFVTLyIaAiyuqM16bWmwmHwMtSbE5Qv84OMHnjpClHS8hfEzZqBFPcRN3wzl+9ZAiSjm4d+D4NUKtGeqAIyg4wwtXCpCoE64c9YVV9oohK40rriIMOmyq6+1Xngnzz8sbWQmQ4QG24gZ0+3uO++2Z5GuXYEu1BTkUefMnmWLEM0aiVTsGsTuF73/gQ1jJz4T6Yn58+e79byGAQQrkQtdvmC+G0WNwLJV46WMQHJ0Jsf4CJ3lEG54HvrPZSj69QP0NA12K02bkqKIR44kCQmVJrS8Vd0tRm1wHKL+GpmzDZ2f/ojwD+faNdlDQv01SFy8yWhjjbs5LuDxezphjDdOaLPawVFW2T/MKvF6akOwWbeegE2rZrkpdcCasp76o6cmjFxPfGmAxbKhJGxvtF7lQRbuD7sc9PR4PO5BP/rrEPC4CB39G3XzarJDJO61dHFy166xPWgqN9OgpgxAOwJQg/l9/5wclNwWMl6EcbE8BModmB6cAf3dBArp2Wg2lzqBS3HPc9BpGTb+DBfjhwI2BRieZjFVIwwWlhBv/Zg2kZWT7eZf1+JWr0eEuwCd5xDON3DsaIS6w11Y0I+d9lP0oIv27XfA49/kDmWJvM5y/dyN3DkZYPKFbtq9qiJarCyZ3M7IWDvQP5hdkrE3gIuMMrQtxOKCmEsWkWDRwVGoJzZaeWOVlTVVMMGDueNcRHR9oMXvb7W4TbWWkR9o4eyaMmy36+sh4F/13Qw88hglDjYHkazB6OI8/qc/Wgmi7lffcJMN5L4+geCZxvcEMg56LCBzy8Mi5MsAACAASURBVK232WMoF65GQO1MRNavRgZ1+bJl6FNn2RLWfjHKksPHj7OLkAnNQ5cpAQAZPWqUrSNVUFbI+iA3unnFastDQ/vsS5mvzhru2LrNKVrOA7Sk23Tu+RdYFjbzOmJxt9x5hxGx2v69ey0li5HG2MEiAG0OQmSa9LG/tMhmMmqJWUVuxPaw8RNsJzpLr/I9qgCx4wEe3fMmQKQkrsWKR0RY7YBIK8fTqQ/ytKDCWkIsyiIsKTzBYiNisG/yP6xpSWOF1bbWuZBaQBNf0m4pG/F88posrsYLpf37YVfJYvzVhVqet+/+480twigns9P1RrOkCEGwPv36WyTezJuoy2nMi1zcdESgrrz2OhuYneN0l3einyyXWF5LIgLvF1x2uRsWV1BYwEiR/oy42eXkRCczjWA0SoLrAaJAvKgCxMPW4arX4/mMQSN39sWXIFXA3G4EqoLxeFaza+7gnKlcy2UoBe5ETKoJN3s4gDeXaRR78ACiiO9BMuywGYCKcHrPTqtF3hTvbcE4Tyrp6MJDL4Qqim+2MsKr+uGxtisOw9N0cYwsrpV57r362MD+CIIxDzwYD0Uxg7yUHXt22pY926y0udxVQGLqAixtW4ulrm+wKJLOMly//Ib20e70ePwPQxuh1mgE+y+4+CIE1bYh2F9rU6dPt2Du1UOMStqDyFpQWIilMdnjrnu/ZYV4ErmIs8kbGTZwkM1lQog8Mc2g34wYWubAAW48zlZEwlKZmZ4FKO3YtBFt4yprrqqxpYwzKq4st0uuv8bWMH6oub7RpnO+t958E6nSDXbxZZfh3Q22F1B/vAtFwR0I/s9Da3n8zOk2guMuRpJ1GkJeG3hvJOGVZra/jXJhPSHixQwakHLl62jrHC/wCB+qlNfJDLHiCeh9J7VbDZtJADGWQCctMtmG9B1EiJmBpx3pNjCB3X5kNdbu2mAFdcVuuklMQ6Cl7TGL3lRjKfsIq5s87SrP4+kaPZ6/LuDxOQMdHQIJPkXj6TTjlZQS2w/APb756qvs7Vdfts+QAI3WMLeLLrZx7DQxzC564o9/tDyAp6W1GRc0yAYzVeB8DHoecpbLAZiJs2YxaWCKrWSI3xA8qSCO/xLjQyQTyknwGAIsGXf5cobuhUXG2vNoKdewywUAGo1NiM6zhOMmT7bzAKUniOOzAKFRAN8bGKlGygwj+bmfaQQVaD+PANQSefAlUh/I9UuEfQM6zc1UbE7m5UausLvlp7M7TiTEygi24rAGl0yMaA6zUYlD7axJMy0gLtg279li+RUFzvsZkjHIesX1sjVb1tj8zYusug3RKb5PTn6opa6otagDTXhBuPG+3NbJT5no3LfUoMOYlBSbguTsUB7sOjaNeI0IQq3vyQf+aPvxXILJx1hEGBMkpjGt4UwLRHVQA/968z7JmFaQu5nOmCDJoDZiQAlwSjYzYFEjjUYhobsJDWUN2qsrq2A00AqLwaM9F7t4+onHLA0Vwhlnzba3yCcJeC67/DImmfS3F1nTW9DX/uz9D20+4dgEhObP5M8KpkBMnDTBNjByKR2ZVm0kkpdVJe5cbFPjjd5GZvV4gUe5nWJVr9hI9o0KttJIckdsslrT1IAkm8Wa9s3sazvK8iyvYBfVvyDLTsq0oekDbUfpLntv5Ye2v7qQpHO7JVWEWMLWeuu9ocli67zNRK8e4DlGqNWx5O03W7njbj42CmmTELo+i8Te6xjbll25NpGdZwKi8PlITQ4bNsLN09qBkbUBPCp7DkbpbZZGzjBlYS1GpckV3zjnXJdMlHxqLwx0OWBQh0TmHiRFyymDTkGX98JLL7e9+fttFztltRN8/9SKkMYMRxr1QkAnGYN+6NHHeBCm2khE1Vfhyg8n1o/B4/kQPdxho0a63XEjUpz9UHvrh5j5a1zzknnzKPcyYfQEko7++yHQaSD5WDQg2A5MiraSeIyVHEBEU4j1jky1C6ddYFGEg/M+/cB2HthldYRWYW1M6AhPtGmjp5DD6Gfvrf7QVu5cg3veZjllEZa6rtEidtRafLUXbnU2ubx39Ur77L0Ty/F434d1JYcmbyYTDWkJoTcjhnUhGszhgPWLTNlokioh90sjY0aTb9rN5NhygGYi/z6Te/zSc89bIL+rI2+z/8A+Gz1ytE0ghJaXopL61WgVf8YsskUffQw41FoEgDV10mTLJgn98CMP2TCmj8xmQMAHH823LYTwVwI8AqNnSU7fwigjzUVbgAD/BCo5U8+axQDCZTYF4JGQuwYoJuFtvY54fBU6zZcS4oUTfs9lw+os8Pi9kQZydgW926x+TILty2m38lByhuTnerXH28wBZ9rwiSNt4apFtm77Bqth1lgQRZGYEORvswbY2QjDr9u0wT5c/zGJ9SqLrw+xpLwWy1hZbzEMZtWmdDTgGcSUFXmEBxUIqfbdRwL/yxQIvxYejzR/9+D2bmNkyJdPEj20S/qLVQqZ2kk0ZuNZXH7DdczM2oxRvW3xuLhzAJX8XDR5CXMECG8xwjaXcEkjjAVWaejzXsTMpSamn+bt22c5Q4fbAHapj958w8lmDiCvUIs3k0Y+oZIE8fwliwCnM+zcCy5kMsFOq6JkW0juZzULohEmfZiPdAmC8LkbN9nbxPqTEQqfDRhKTrWBHfq9uXOdnvMtTLeQYP2rhAFjCAmmMPZGntUOchOhJyn4JH5HHbXU4mH/f3vvAWdnWW2Nr+m9t2SSTMmk904aCSEJ0gQRRK4Br2C5YAELXjtX/+j/syte9XJRP0EEBJHeEkiAQArpvbfJZHrvfeZb63nPO3OmnzMthffN72TaOW/Zz/OsZ5e19w5G9gLWZw5vNL6ByLowzMmYhblz5mPXgV04nXcKQdHsYMnFGBcZi8iAcARV+2PpZUtR7leJl959FWUNFRhTEWLMrbBDbBnDaIgmae/AE0izrdI4lwU8Owg85aoL3AtrtWfdh058aaZ0CF9DuWZxjGQXpLBVzFaaNPu5QahrRBW1ibOsXXwbTZkKAncp+5alEjjyOfbvEjCWrF5ttJysc2cxLiWNXUoL8RLNX5XJvermmxiGn2LqLKs1jbq8jmBzRM3JFzg+Y2mafWzN7aileZzHuTqL/sBKdod9ki1n1tCk3k7Aeo/3IlNr0bLl2MWeWwvmzcFRajw5nDNLV6xkzeVSVPCe5s5fYM77PJ3inka1bOCpJSUiK5WbymwCz+gWVNDMCmzxR3pICj694lM4VH4M7x/egpBw+n4411obW6jRJaC8pBzzM+ZiwphxeH7bSzhZdAphjf5IOsfmBB/UIrywmaaaVQLYXeOZrdKnBO5Uau028LzD57yHwJPZR+nTCxt4WFlNxbaLWIj8LIumH3tvIw712cLYmqIm4qHIEmdhC527adyVrqagGni+tewhVUMguY67i3bATaYxmr/Rfnayk+NWRlnE1RB9O5A7ocBlHHfUBk7wKLZHSSfIvMGeREdko1NDaWRUbBIdkKvZEkUta0LY80nAk0mNJ4eFvFUP98CObVTnq9gN4RosoLn3BjsHHDqdiUXsdnEbOwOEk7ymRntPsfJ/JR3YH2EbnDnLV+A4NaZo+noaWKBbfoBSFhj3H4C2YyaPCbc2IX9yILLnh6CM6nkjdemEBu6Mcy5H3OhErH1/Hep9qGbHR/E5MhEXE4fIoHBUn63AgpnzkZSRjJfffhVnS88huSoYSQyrR+yvQFwBuSGMbnUAHrbOncsFl2GiWkmMagW5gOcssmi+bl/7xgCAR5wVtv2h6SOTKJV+OgWyVSR/L30rPjSFr6UDWUz6Da+9YQrATyT4B1H7LeC8UktgRaLGMBI1nQ7iCEYZywkaB2lunzl9yjjzYznek6mVJnOjUpH5KprB6uJxmJvACRb5D+V4q+3zeG5s6ksvv0kZw/R7qTnP4j1l0fenQvEp5Aql8PpZdDSnEPSkAWdR057A+xnPDU5mkUiNufz7AcpF6QSWnuHZURvQgswUcrJmRiEvRf4darGtAZiawO4VV92Opzb9E0dLTiCB5nsxAU9+zBGJI9iFJB+jApJw/bJrse7QBuw+tYf0CB+MzPXFmG11CCe/J7jBhD3agCeKWvicHoHnHgJPpnl/58OuuTwswKMk0R10wnlNIOQgVHGxFgp4WL1fGs+ht97so3d6O/BoQjZQO0hj/6hl11xtuomup91dwHYviSxOvZrN7zJY1b+MRLAoLqzxnABHOOFeZ2fNbO7ALfTZqM+WIkC+9P+ohcyNbNqXxNYvL7NFbCZ30Ho6jQVu0xkevYMq+XsEx0yGUW+gliQt659/e5ztcrJMu5PQ8DBqXJ+ibQ32u3oKRfQ5Laa2czmd3wqtJnFCbNu6Ge/SHzCVqv6Na+7AQU7eLDpM1dGykL6KQEVxeozo9T1BBQi2xpM/IcBoPOVRZCn7NiO+MQYr51+B6IQYvP7uWhRWF9Ox7I+GGjooyWAOpBM3mGHzxXMWYcyUNLy88TWcKczEqIpgJJ8Bwg5UIKaAZMMuwHMZ5jGcLlkb4KFcpPEU8HmyaGIOFHisTYbmAH1hoQRwEXy0aOvICo7h3FuwdLFpkLd323az2IJpRmoB1JMaoU4gxn/Bgu5iEwfRF9RA567+JlqE2cQ0/nz2EJ5bPj1TKJ1/a+R7VDhf1xZtQl07dO1GRqhUxF2tsAVUprg+zT7RKnTdJhWN5/cqwt7Iv6k5gM6t/aSRwKUQvilQ7yrk3/eoWu+oI/CcHUPW+QxGKVMZDCDpKqQ1EDNHTsWnV63BX978Gw4XHOPGRfa1rqPgC8unNjc2Y3TISNy0+mPYcHQjdhzfiWASRpNz/ZCyvQ4hOQ0I4s+CEVkPtZRFdFoG5nDTHE9Tq63YO9fI20bjEfCcOf/AE8emZu3MZUZ9qG10h4ain68hZ+K3jESI0q6ITyVt8UKGrs8yZHnsfWo89HHUe1IWg1Kq5+QIZx+qj9PO1kLex0WcK5Wek009t0vo9A3mImjlpBvDnegq2unr6F85w/CreBYil21igfo0+g7iuUOpM+dEtqXZweZwss8ncTfzkcbDiTaZ/pkwTspXnmN0is7heQST5TzfETZcK+WO2siFprq4M2bPMrvZVqr39QTFxStXYjoX5Ltvv8O+XlOoXU0goW0douksve7mT7BtDiNINNfUDO6YHJxcrP0zSdoBWcBT50uNZzzbqMwj8MSBphejGY2hWDRlAWaOn4HNBMCTBafZBmYMYgOj6ROizAqyEVjuiysWX4HWBF88/85LKK4qRnpZGJKPcJIfrTRs5i6mFh30bcDDKFEQNZ5Kw+PJxNlBAB47uqWFZBYrx972gQVSs5HDuI5AVM2okY62RERGgcTBUrjGUOQMmdMiiqqTRFsMWZ9x+7s5P382n3UdppOJPu8igurXhqluYMuiSFjnN39w0Vld92ku63Ztcw5vdJ124MlOpr9uWgRyxpIuQT6Pf6s/xkeOxV2rb8d7xzZj68HtJCgmIjEmnnQHpsewfY40v6npUzCPJvbLO15nA8xjiCR5cOQ5H4zeVouQQp7H5eNpA550C3gmkP+UQmJmPE02dZl4h+4DAU9vPp40RopXrXIliQ4Vc1nF3i3g2YVNSplgD+v+As9xajwHPdR4NBQN3HWiONGXrlyFEQSOauXlqOUHdzRxcQ7Rl9Os3YkAEMedeDadzrvIw4mk2q5uonvYGWMTuR1z6bMZx2Z+6rmVSQfyPjoapRbPZe/tUQQi7Yz1VL2PkB90ippJPYEtjPyP6WTTpjDCpfYxJXQwl5LIph7aR+mAzKeKLQJiBs24UXQu7iWhTZT5WfyMojQZVNsD+XM2taUghrPlyBS/441nnmEeT/+jWsYE4hYvvk4uAyp5s0NMVKuMxMGAJvoD4lJwzWUfQX1lHbbv2U4NIgwj4pJQ01CDbPKbRsePotN7Orafo7N1zybDdxpfSOChczngdCVCq6xs546mlgt4KEOFrYNkrhB4pPGc3bUD28n87b+Ppwd9wBXhtFQWa8FbTAt7QbvHPtsXufWdUmH0GRf4uF2iLXhhn6+Hy/f5a7f76zG5tM+TdHxDA53LBbGNqJwUhpwpASgNV9scNg/0j8XVs1ciaWQStpDN3VjfiJFJIw3YFdJ0l4a18IrFJF4WYd2O9ey7VYqkqiAknmlG4i4605kmYxNDLzLgsXK1+gs8apyWRR/PUZoxB6kNeKTxmOnDecbkP+16CqeqV5LZ0QgaUrFVnd/Kn9IOxyRB7sS1VI8nst3vdPqEtlDbUcvZcKrQUsOlMgu8REJUglVwUIhRrzVJG9THmoCgQTRTV+o3nZCh9BkIsJp5LaM+CxCpyTWLHc1rS7Pz47X1N33Snwt9HImHN5EQt54m12GCjYD7I9debcLoT7HrZB39PQOJatngkxdHB/Nkah/jQ5Eby6QdbushCMaijPlYPO0yaoQlOHbiGFm6JETSVzAyYSTSJqfjXGUu1u56kw7aYoSRHzL+XDASd1YjIJ95Nw3KXLPTBUQgDMFIRoDmMadpnEwtl8ZjgIeyPbvTAp4yNs8zzGXbU+rlouvwdpd2YcvItkwt4HG90wUc7vDT/mcrB88GHnoJXXDknihslQmxDqMv9XnH3UFenx/y9A08uXg85SENKE0LQM6cEJRSk63nBhPgE4jkyJG4YeE19N2wieWJIyimNu/LqFZMRDQmc5NrjvXBK9tex6mc02Sl0zlfFISYY3WIPlKDYHK17DH9UAKPfDwHaArV02zxyM9hdpXudjZXIzP33CIz66wFE86ukPJnqIujfAJSe63maNY2ZRq62fq5ppxRz6VOu6aWZrreI/XbNXGsVAgrt6tzvywLIa03Kss6kdrNbYySCDCVSBjNJm5h9AG8QzPzg40bre6Pfc/zHqasa08nWJZSyykbxQRCMpflG9COKUuFng5MS5+MJXOXIIb+rHpqiAF+5MHw+fYd38+QLMudVBYhvJnRnQpyeE6SN7O/GoFVzDlT1qnrsHk8yeQtzaNzWVqjAR75eOS7I/CcEfC8/roBHl+3qNaAtQDLtjFjYuXDWQJTQzv3setxXXfQeGxgsWwsM1xdeBv9HhBPoaXP95mEX9IkSuKo+cwIRXlqIJNEyS3js/iKsxMzBpfPW0KfTJrxOekR5V/KLczFW1s3IKv4HImwLUioCUJqph9CDlcghNwspVLYpp8BHn829KP7Ya7x8czCGM5XmVoh3GQ2bNjAcPoFY2q5NB7W59mzx3NTq5FagHZGaTznGD04RrbwPu6OdZXlngFPn0PV69ocwOL2/sL2PNb0VafMJEbPlOgYxpSDOkZksmmW5DDSJsenOfo9z9v3XeVqVYW3omh8IHKnBbFsAp2yQbT8SaWXAzIuPBbJCcmIDieprrkBecX5yCvJp9O2hjR6PyRUMR2FqRIhRyoRmd1ssp3tw1qqzGQmYI5evIShZJfGY6JarlwtmpGZzNX6gMS7sjOnDfDYGDxg4PF+CC6ZT5SxDEZBCn08E0NRPJp5eMFKkiVY0k8TEUKzOC4ZCbEJlDUJpBUlOFeUQ02+0uTaxZC/M6KYr0MNCD5dA38mBIuhbmYNv8oNUEsnfgwzAOZdey07ic50AU+82VA20Hd5QQCPCoHJVFBUyxtTS2xdAU81fSfF9BNlMdVAwLOb/BvxXdiwdgCL78KcY+7gI9PPtMulA1MREiv51LuWs309pYiE9YyElMbQuZwWjLKxQSyNwXBsoBjYql5jXV9OVNNKV+2WeQ+hLJkg0EnMp6p+gnlb2dUIZiaHiINtwCNfkoCHAYNUphNI45E/K4FOc0V6ZLIWZp/DGfrUtrzyMkpPMK3BVf/GAZ2+Rq73v4tIWBnajMrUIFSM47gm+qCEFQhUKkPAbpKaTbadlhC1XP4LYbg8iqAzupA5epkN9NdxTJmtbufeWbnFFhG3NiAICRMmYv511yODHLNR3CTjSYjVuErjuZtpKb1FtYbFuWwBj8Lp21mRcLPHGo8dhlSnwWKeQ+1Zj9MxtuPVV1BFklaA8dUMbIAuxE+3afAy3ewoyBDdqO3rqaGWU8MiUeXp1HrGBKE+xg81QZYD2lQglO5CWatCXQiJZCqDEZvPDPXMWoRl0wzjrqjEUpkfxgjVZ1wcqmaaauOYJjBnyVIS7cYblTyAGk8NU0wKSPY7y7IQWwk8+YwS+tL3RbxzjgFKoEWVBvmqUC2eUQGoTWUAIcmX5U5kijEb3QYgXkfRqgDl59UFIpKFRaMJOsFZtfCvYOKznEYW3liHghIc1/qgUIwir2kBeWtpJFaOSk42ybRas+vXr7+QgEcazw6vgUfM4FqRsUrLTL7N6b27seO115DDyRoin8slOkm1cNvq9wzxM7pHuQQ+jXHknSQFoyGOE5a0FPoiGfVTBULyeGjlWYXAyEkpqIdfaQP8G6iKE5CsqIfLM2y0HU1yJidyUk4nO1wlJFJS0432a4CHjvJCpi5kk7qwkwTC01u2oJnUCf8BLjrn45ZPXNOmkSBTF8RgBjeSxqRA1CcyeBLBFBNyslSbx67DE1rJHL1StkDOq4NfCbWdGvrqFPvQP7f5p/M2qFQM0zzGM6I7n1SQMUyaFms/mr/zZzDlLfohPdF4VjKcrhbGQ1oILJb0cgt4NpHNud+DcPpDBj1FV68nibCCWeX51HLOkQW89913cJgO1gCaYJ4WHncmowcS4KRqpG+nIZARunBWH4wk0S2UdYqCmJnsx6gGnY5+1GwCyzlBK5sRWEu+jkoourwy7dURLY1HTsh6RbSYPjCL6QjjtDMyjSEmJpYTlKDG7gLFLISlMiFHt2zGAdIkykkx8OeYO+PqwXh58BaL0sDxpOnVEEqzOpJk0AiFY1Wbil8ZRTRjWknSp8a0moBDR7J8Ot35EDWmDSrbykTT2ayRPJ30E1V9EEE4gln2Ssj2CHhSU1lj2QU8jC4PYQXCOGxnRq+3wKNIRAOZwVX0B8jcymXk48S+PdhLB3MViYCMa1t1aoZYK/BgjC+Jt4gWYFUdVNF3PpLSc1x5Yaa4uaLdZNvKrFIo1jKLOgrfVFXkq5ET1IeO5GmXL8UUEgjHMJUhKTGJ1feiDLVBXCflC2lDySb3aS93yjN7dsOHwQR5HzqMqY1vl4SUh/chDIYY34xVkUCajhlTQ1LkX6XZ0G/nZ4q4WdG6dk+dda9mhPnLOhWvY8R39Ky5mEPzOX3ceHKDRhozK4RBEAUS33pLptbdffp4VIBtDuse1V6QwMNHtsytOhPaVm3cc6dP4jiZw8eY7V1XWEyBKdx9afp7hneK9n41QyHo4HNqj461fZK/aqYqrjSVZpYiGcXcp9lMlUijI3IEJ6g03zCmjVjpCkyHUcSStXGUCnKChM79zJMrZU6TH7lUfq50AfeotbPBDHBGyLejDaStt4Zn52vh2EvbqWPUKpaR1pkMFIwnYzmZTuU4o+2EG9ayKCc9AY9NLBGZNj0tDSuuvAJzL1jgMZEU5b5I66liYlux2SHzGFo/RPA5y8zjZuZA+THa4jglPZtEQ/EuA0iuXZTuYdTRxIpjPZoZKnfKNJDkZEY9mBsXGRFpJqiv8pUYsayhuVVOMqRKgSqV5RiTZI8wclnHKGagi4jZYfu1w7pD8RDOObuVgJXbR8c0x8yf4ziZQQLViUomdyeREcoocsxCqe34U8NV1NMTUys9PQ1XEnjmMLH2gtR4jIbNSa2kOqnmSthUJnER0w/klDxG8pkyv+uZAOjvqqNs78Od1UVnXg2+BGwjS6aVdkSZV7609ePSxmIy7f+xJAwmMaNbUc0oRreUwBlAB6RC9M2qssgNRXSJMppcxeRq5TIb/DgDCMeZqqJSsT5MwpRGK6vPXdtxxnbwx9L9jLaLp5mA0yhWPTUd5TyOJ1BMIGFwdGoaN5JE+utiDHM/kGlASp5tZt2jSwZ4JBCpcOL01LLfUSUT/cpodskxmcddMpNJmDnHj6KCYKRETJN75WVW79AO46V6dgt2DM9IWdcElVDugEkklqUyNWI0c9iUiR7DwmeR9Aso50vEQZlZhgnO3bGJE1WtXarZxqWc5WGLCDb5OeeQzXo0544dRQkJhrUEpSamoygfzmYc9yeB8lIdhcF9LtdWIv8PTSJfaqdBBJdomlRjWMo1hXWHRrIWlUBHvrpwpgMFMrtd2o4Y4mJDX1LAI+E2cYdUrpTAR7ukIl3lpSUmw1xF0gtIRtP3FZzAysGSb0jEu86HnbczuAN26Z+tLbfS9aiaaL6sVx3A6GMwQSeGoJPIKolJfMVpN2TYPIoh1nDa/1LFFUKXfe+eY2aBT5Px94jXo0JYKl+hgvpF9OcVMOJVyHKjqo8jP5/K0aq1THchl2783Jf+oPTzCTuPZftpCDj05ygsHsKNIpJlgeOp6SQyGhnPVJdYjmkMfxcRGWUqVKq8iTqvaPPRIS32kgMe7XYtDP+pxokmquqtVDOVQGUz9Kpiga8qgpF2T9Vh0W4q8GnLj7Kl60TA+jdd2+wbq8SDWNXa6UR7CCawRHAHjKS9H05TS8W0wgQ4BKRgFqsP4PuUE2Q6ZLgdZkypyWicZHaJsyVGcyU112rmconGX0kfkLp26G/y9en9dlmLjnl43eJR/571w/CpTvaqVbqDmwk1Ummmqg+ksQx3aTYKl4czMKCEaf1Nxdz0XiU424eUg0sOeNofjkWSuEtaO2WdAZk67obihdRTJdfklABkbzZLPbdV9A/DZBqWZ+TkNBNUKR10OBJQtEMGswiUMviVKBgiFZ27obQh/V0T1Ndq59npsKBDmqk2ChXFkumljUVV/KTd1rnGVLQKjam4XS00pS2zy9lFBmvITZIzQcRP7ZqpxQQwZclsKhpLmlPSWlU0TL/TuGrsNQ/MXuICMY3hJQs8JuObL4GKbEoBkCalinFJG9LP2kG1K8rXYyIuzjFgCXQocuXSeDRZ5bPRS7l1AiCV+TDfGuNUIAAAIABJREFUC2wM4Cjfqzd3sBWqEpjoJXVdJrWiXmrxozGVf88CHWXPW+PqHIMvAZlZMpvkKPajWSxNVeOpcTVjKs3VNa4GqMwt2H4h0eouYeBps5hcAGSr6u5fDejon7WdWrujcwyqBJRoaJcCEbjoZUCIu6X+pp91eFM3yNZ+LP+cZVprLBXVlKZjbTrtj2FtKs7YDtbA2uNpNhRpNG7jqk3E+nvHyovu176kTa0uyrqL62MDjNFyLsHM9cGaXIN6Hk5C4xvQTunyEViMWO8Ax/2ebPBx32CMT8dYVg7IDOr49XAydwDSYFo/WzWXezu8AZ4V7J5qCIR0kwSxG+tKpmAksMtHW1nabi7kU1zENNZeDt2oqvorRcIui9GflIm+HrRtcrrdizM5h2NqdryGZUlZo+XpmHl6l/Ym4kCOpxLr//sMb87OvTOD6d2Yegc8y9sIhAKeVatWX3zA039RO58cKgmYUhqDDkNDdbfOeds38f6Pm6fAo3o8V14p5rKVnR7EEsIO8Dhz0JGAI4F+ScBT4ElVdvpKB3j6JWTnQ44EHAl0lIADPM6McCTgSGDYJeAAz7CL3LmgIwFHAg7wOHPAkYAjgWGXgAM8wy5y54KOBBwJOMDjzAFHAo4Ehl0CDvAMu8idCzoScCTgAI8zBxwJOBIYdgmcZ+CxEsmGM2Vi2CXsXNCRgCOBLhI4z8BjJZVZwPM+ClmiVN0FdrI+sjqJetNXa7Dzfpy54kjAkcDQSeCCBB67k+j+fftRU1fTbR5POPtsr/nUGvz2IauhnwM8QzdJnDM7EhhsCTjAM9gSdc7nSMCRQJ8ScICnTxE5b3Ak4EhgsCXgAM9gS9Q5nyMBRwJ9SsABnj5F5LzBkYAjgcGWgAM8gy1R53yOBBwJ9CmBCxR4tjOcvgVOVKvP8XPe4EjgopTABQc8cexAuH27AzwX5WxybtqRgIcScIDHQ0E5b3Mk4Ehg8CTgOfCksObyClNzWQ05h6DmssVcdjSewRtc50yOBC5UCXgDPHZ7Gwd4LtTRvIjvq8d+e2yTBbvlttVTxfTF6dJw1KauO71tLopZ4ADPRTFMl9ZNtmGDW3NPAzwCGX711Vf31sNsAtiqdup2720Bj8DIBhvTLNA5LiYJOMBzMY3WJXKvNsj42GDT5AKaZv6CrYjR2MxXo5qkW+jCVsfseQw26OZX/sxvzVcBkr53gVCvbdcvEdldKo/hAM+lMpIXy3MQS4QnvsQVNPCbmgagqgYoL+erEqjkS18rKoC6eqvbeWgIfCLCgcgIICYaiI4Eovh9WCgQ7I+WICIPAUjAYzQh57jgJeAAzwU/RJfIDQpBqMi0NLL7ZEMzfKoJOCUEmKwctBw7gbqjx9CUmYmWggL4lJfBt7oarQ0NBnhag4OBkBC0RhFwkkfCb+xYBE2agMDxGfAZPRItMQShEGpDAdKMWOPJBUKXiOQuycdwgOeSHNYL4KFcjuA2pzHNKR9pOVX1QEEpcOAQ8MF21OzZi7rTZ1BXXorm+hq0NjXQx9Pssp6s7twtNLeM+8fXD63+AfANDkVAbAJCxqYjbN5sBCyYC0ybBMRHE6T80EIAkuZjNCDH+XMBTIaut+AAzwU5LJfATWnBGycxXwKcGiJPVR1wJhut699GzZvrUXnwIJqrS+Db2khLSd3T+w5JWf7oVp7SB42+QWiKjkfo1CmIW30lglcuB8aOofYTQPPLHz7+ltfZAZ8Lbz45wHPhjcklc0etBB2fBkJFDb/JK6aGswONr61F1dbNqMrLhU9LHfwJIu4BKk8f3sI0H9BgQ5NfEHxHjkLi5csQ/LHr4TdnBlrio+j/4ZkJPo7m46lUh+99DvAMn6w/NFcyeotAp57fyZdzNh8tGzej5tnnULZ3J3xryqnhWIAzGAddR6jlGesiYhA5fwESb/4YApYvBkbEoTmc1Sltx7Njdg2GuAflHP0DnnoXc3kVEhISGKTQ9tP94VNcVNyr/ty55rLDXB6UcT1vJ2mhU8cYTdR0fKtoXmUXovWVdSh7+h+oObqf0aw6Ew13o+CYe7UpPb1jQ88sQU3BekJZY1AwAqbPQeIdn0Lw6ivQMioBCOQfpfkw/G7Mrr4tuvMmvw/Lhb0BniuuuALz6Murr29AUGAIVq4aAuBRsfcdShLdvJnZ6QecmssX0Uw04CECoFSQSoJObhHw1jvI/98/o/rIfoQyrCVNx/2wocR97+oZfHpHDZ1DlKDygFAETp+F9Hs+Dz/5fWLC0BJKL5IiXraa5YDPeZ1ZXgHPiuWYO3cOGoYSeGJiYk12+mYCz4H9Ap5ap9j7eZ0inl9cZGO9/Gv5Xwm5OW+/h7qH/4T8DzYjxHhjujKMbShxx4H+W0SW3sS4GOoDI9C8eCnSv34v/GdPQUtsGMPtvL7MLofn7PmgDtE7vQKeK1zAQ3rFkGk8DvAM0UgP8Wltv04LVQ6/EkavDp5Aw5/+LwpfeZEOmHKu+XZo6Q5YBgd4rIeUwtVA3ao4Ig5JH70eyXffCUwdj5YwK9LlRLmGeDJ4cHoHeDwQkvOWviUgE8uHoNNKh7JPViEan34BJX/9K1qyj8PPoIpnwKN32SlZHT/V8R760opIUUSlTyCakkZhxFe/hOhbPgqfpGjDcjYmV9+P5LxjCCXgAM8QCvfDdGoTOlcUS76dD3ah+ue/Qcn2TQhqlKlsEQFtU6uzp8Z2LNtkQblhfPkJ+322/0d/t0PvfQGHYmZNPEONfyBqV12F8fd9EcHzZ6ApnAREaj30MzvHeZSAAzznUfiX0qVbxUyuIlMwvwLNjz2Bkj/9CQ0lecbEsoHHPZJlg424OPV8lZOR3BhI4h+/RtCWD6+vQ0BrswGsKh9/1AUFoj6AoNHchND6RoTwa5Bh8nSfmW7BFk0uepOzR2Vg3H98FnFrbkYztR4f4+txtJ7zOf8c4Dmf0r9Erm3SIpSDVVLLVIgTKP3pz1Gz8W34Ndd14Oq0KxnWd4IVhcArAoJRmTYKMZMnIHLECAQey0TTjl1orSo1xOfisEhEkhQYMD4NTaUVqN1/FD5nsxDZUNMrH0i3JZMrNygKMddeg5RvfBm+MyaileF1x9dzfiefAzznV/4X9dUt80mhLAIJeTs+uWXAq2/h5M9/gZDsMwQFLfv2oyPwCHR8UOgbCP+MNKTfdD2Cp02HP4vutG7ahornX0B1YY4x0hoi45B8/bUIWrYYLdFRaGBSaeE/X0DzoX0Ibu4aoncXqnSiYhJ5mnjuMf/5dQLQSrQytI5Ax8l8PiffBQc8sbF2OF1dJhwez/mcHJ5c23hvmgkpDKH7nM4B/ufPOPbXx2guVZh0iN6OCoJCFukT6UxzSF1Gst+Gd9C8aTvq8gtRW11mMrIszcgfftR6EBeLsMXzEUaQatq2CzmP/Bl+lRWEFduw6no13UE1taqSxJGIuecejL1zDdMpWGKDTmbfwaJOeyIo5z0dJOAAjzMhBiQBE4USa08s5f3H0fTgz5C5/k2EwWIo9w48QFnyaMy56zMMcfsj6y+PoiUnm0DSQqiQrmIBl/QmOYpllpXExmDaF+5EaGQsCn77RzQUZPUJPOL15IVGwve22zD93rvhlzGa0S0f+LGShg5TkMw5hlUCDvAMq7gvvYsZ4BE3sIL/bdmNqu/9CCUHd9Pxq+Xe86HPsdQXKpjcOf2Wj9N3U4WsF16iX6fMlVLREQ3k6xE/p4jO5wk3fRSJY1JR8PdnUF+Q3eZk7ulqAq4cvxBUXX01Zn/zXoTOnorWEGo8jPMrZccBnuGfl14Dz7whZi4Pi6nl5Ot4NdPsYHh3cSAxlX0FPGWss/P2JpR85wFUnz1BMFDhiu4Py+lLJYnQVBgVjUg6lX0am1CYeZZf+TkX5ticHkstsf6rJZrFpIzGqMBQNOw/DL+6SgS7olu9Ag/1otKll2POf34VUZfPNykUvn7Uqhj18ii+5cyZXueM5ohHcnSdxTvgWcaUibloGErm8vACj9sM92opfljezNVmFpzYgW2rv8PDmz8Rc1BGtvJr65H33e+jsVBaSEfHsvuHJHWZTg10LKuSYOL8OfANDLLyqNoUHVeg3EYvVXp3/aqVDmWf4jKUb9uJsnOnmI7Rs49H15XRlkPgKZ63ALO+eR9iVi1FK1nMvv406TpUjXe7y7b7cGcgOTZZx5nvGhMzbEMHPMuXE3io8TQ2NA5dysSwAI+kZ4gkKgCsepyuxWX//sOCK709p1nkqmXMl2HbtU+yDiDiDjwvr0X2d36AltK8XoFHnzf13X2DEc+dLOjq1aydE2QBXGfgsS9mA58NRAVFaFr7JnKO7KbG0/teK+DJ5R0Vzp6Lmd/4CuKvXo4WQyQkzdDkT3TSzczcULTOVSC6w305k8PaAPifvPN6mYJH3snFG41nmIAnhkmiO5gkake17CTRjrtNeHg41nxqDX770EMIDGTNFU+e255A3DFBEhqqqtBcVITaSn4lmra61ffw6HyeXPNifY9MEJL2gqOiEMhoEiIZCSLBz4CQW7JTB43n1XXIpanVVJzTJ/AI61UGrJqmlk9yEoKp0fhRlfbjZmD5htzrEWrsxWXmZ3hfDQSp4Pp6BOTmssiYFdWyPtH9YWk8QSiQxnP/vUhYvZR5W+7A4/qcHqaJd8a5AM2JkhLUlZWjST9rTzeX6V27uliHu6/7dl99rZwD/lxzQZGRCGQU2hTeD9LccIFQXyfTxkMC6FtvvYW7774HmWfPdLt1+LGzSGpqCoYYeN5DYVEhYk12ujvw1LluqmPRn34BjxwSap9SXIrS7buw/+13cXb/PpQWFqGxtp6Z1b1PYA/kecm8RU5Xf3Z3iBiRhLRZMzGdpUXj584E1O3BLQ5tgEdVBuXjefNdFFHjqc3J5DKXMdX7UcV3FBB4kqZNRVR5LcqPHEFAk0UKtA6L82y5VywgymO506DpkzE6IhKVO/eaBNTewuk6i4DnnA+BZ8kSzPnmVxG/bAG5PDS16Fy2NB5dQNoNr8AC9OV79uHI+ndwcs8elBDcGgly+nN74sclM8xeP4jV28wHASzAH5mUhJSZ0zF19QqMmDub3T9Y9dHDXJQPB/DYZlVjC6oPHcWOp/+JdxlByTl1Eq1k11q2lnN0loAWe4uqIQcGY8zUqbjyE7dgzq03I3TMaGuCcYMzzmXZTYpqvb8dBd/9IaqOHGQ4vbuoVket1US1Rqdg9qfXoFpRrSf/gaDyQppOVussC3p0D3Y43QdnA4Iw/vZbMSo1HcWP/BU1OacJcj1rO7Y/6RyjWqWrVmLu/fTxXDaDpp0Kwgt4NPx8FztfNGRmYc8/n8OGfz2Pc0ePEHCq+cd2X5Xj4XFhdNtGoLkRgqRxGVj2sRtx2W2fQGTGWGrKyknpfT19SIBHE6uJO9kBvP2Hh7HptVdRUVZA1VmxFXuCt3XHdRDIJQF7obVI36A/Ji45BYtvuQUr7v4cIlJZVD2Quom1ssnSo4az9zCKf/QzFGx8BzGtNo+nzTtspqv7IeApZ/b4rLs+jYboaBz/69/QevokyYd0InJsRLMR+AnCasnzqWL3iMqkBMz83GcQzTrLBQ/9gY7sHFc+WPfDpivWE8bOhYSj6eaPY85X70HIpDSmTSicrlA638GIWvXBo3ifQLbh+X+hrDCX19VD9bl+PnRzpYPJZUuIYxORkIz5LEGy+gufRfzMqVbzxV6OCwh43qepVdBmam3ZvBV79+1Hbd0ATS3jJCTt/thJrONEXff0U3QLFLt2VGcP83TlmOLqnGChSaNx9WfvwlUEn4ARiWwrTBNI+F1H38zJc6j+7z/h+BNPIpHMZe57nY6OmqV0zYqAMIz5yEpE3nAdqs5mov74CfgeO4X6I0fRWltpgKc8MByhE8YhMCMVIRPHITpjPJre3Yyi55/le6oMQHWGCI2sUWb0ed5JXkISIj7/GUz9/KfhnxiF1gBfNiflO5qaUZ+dh63/+xe8+MjDKC/N71Ca1VP5fJjfZ/YezY2YJCy97ZO4ng788DGjrO6vPRwXFvAUFiAmxnIub9my1ZUyMUDgkcO4uhYHH38KT/z4p8jNP0WfQF/ehw/zNOru2S15SfOp5wSLTx2PL/z2F5i4eqVxQBufvWos5zHN4fk3sOfnv0RCwTnDQG6XtLF3O5xcRozAxycuCfEfvQZhC+db3UE370DFv15AFcmB+kR1ZAJG33gdQpYuNHWTWz/YidJX30B9XiZb49jO6I50RTu8a8iDPiGonDwJqfd/BWNuvIbtb+g4J/AYV1VtA868/iae/K8HceLQdkKUMzf6M/u1Qagbmm/iaHzuZz/GApI8fSLodB4U4Lmc4XTyeBgQCmJN7VWrVg9esffNWzahmBGmKEZRdjAzWVGtfXv3sfTpAIGHO1rNmbN46Qf/H233f3B3FvHemVyeT66O0CFaYLN/MK6+7z587Ov3UQOKt9y/DPz4lDE7fd8xHP/RTxCwdQuCTPsaHV1Bx/6tXRajOTQCSWmpCKQzG/lFqDnB7qL1VeaTzQEhiE4bi0BGv1pLS1Fy8hQamMslp7JVn0fv6p4n3cjfHw+JQSAdoFOZnR42ZxrNAH6ONyYHehObC25k7aB//eVhNFaUuAIZjibs+fxof6dAXhJcftvt+MwPv4+ocWM7REDdz9mXxqMR8GdOS1paClZcydKnc8hcdvF4Vly5ksDDeUdLpieHf99dJrTr1dfiwIH9bJtdzk61IThy5BjWrl2H997bhJramm4ng2dRLd5+XSPObd2Of9z/bRzZs5k7pGO3ezepbJ6L3dVT/Bt/pK/8CD7//z+IEbOYfsAOn3KJ+NDPg4JyVDz8F+Q/9jgCSwtJ7rOjWz0vZguWWo1GZUGI/lmOZf3fYv61TzEp8O2bh33ejpuJASzNLRZZPjI6HSl33oGJ//5JtLLljZ9hBUhNI6Pi4DE8883vYMs7b9BJbiWlOm0ovJsh9rsl83LKfOSUWbj3d79G+uWLWH6kq8Gt9/cGPPaICngm0rT+BAMa06dNQyN9cQH+QZg9Z66xjNrb27j7Ea278QB4RJuoRzaTAxtY/MmX+m9uXh6e/sczeOnlV1DNHtrd0cM8Ah7ZANV1OP76Ojzx7e8j+8zBD6220w4fA1tWFkj4InjcZHyBwDPthmsY2aDuYQodExyqyYd6ZwuyfvEQ6vfsRHSjcsM9W8zu0NQOI1Ywvfu/dVwg7s8o0FHdZRUYO8fM96lf/TJGLZmDZobR/QPkVJZ/pxV5r76Gv3zrOzhz8pCLKeTpouteor2ll3h65ov5fRrtwIRR+DKBZ+aN18KPplF3R18ajz7j7++PmbOm4b77voyMjAw0kWPly00vdUwawsjjs3lVbZR2N83aQ+BpQH5+LvvmWMBTUFCIJ598Cs+/8OLAgaeqFoeffxl//94DKMg5/qEGHvedaSCTWyDQyNbBt3zlXlx17xcREBdj0WBUc7mhBf5nC1Dy2JM49+gTiCzMMrlUndvaDOT6PX3WhgKra7IfChiJK6RKnvCFu5Cx5hMIHR3PSBydyoqhNxIpaxqw6Ze/xr/+8BAqK4q8nBv21XQ37b6s/htpXXftoZDRUJ+zRttMVDzu/s0vcNmtH4d/CH123RyeAs+cOTPx9a9/Felj09FMt4mAJ5kVDcLCyCeTka2J18F1Yo2AR8BT31CPHGo89TS5BDz5+QV46ql/4OWXX0V1zQA1nkoCz3Mv4O/f/yEKchkxcfw7A557Gto6hrPnXnUtbv/JDxE3m34T2tstLAhGQioCyutRv/sg8n73R1RvWMcyprV9JnIO9Kbcl620nWp6l06ydEbLimWY95UvsILhNPhS2/Hz5wzQA5C303TkOB75xjexb+N63rvtS/T0Tix+kZnkbfRGz7XJrl7GwdJJPb3/oXmf6J8t7Oh6j4Dnk7cgIHRgwDNr1gx85StfQgb9RRbwBCAlJRXh4RFuGo81Ch0aCvTZSdT4eGqwnwzisvJSBjXC6OM5gjfeeNM4mNt9PB0F5bGpVeECnh84wDOYU03VA2PSxuG2730Xl91+GzUJxrDkNqEi4VvPJVlUiZpX1uLknx9lOdS9iOXClrU/1G59RVbKWFQ5n7ydCvJJJv7HXUhnO2OfRNVaZlqGFWOnM6Iax554Gn/+6U9Rms/omJckUqtvuyI58j95fujycrhLFu7B5nZ3wvDwoz0xXT1/qvZ3DibwKGViAmkUt7BsylSy25vk4yGBdN7c+fTxcFMx2k73R98aDyMLNdRqNm8mj8ctnL6ZPJ59hsczgIZ+MgKHCHis/cmi87vvtu3lq/ozbP3/THvcyN070p5XZKcc2Few77+/V5RLp5G1khfdfCtu//53EM7SFjKxdR8yuXzqqHdk5qH0hdeQRUdzwOnjiGRFeLv4+2ADkDH/uJQ18XOCw1E9bTLS/+1mhuGvRmhCDHOJVAaD92Xe2IK6A0fw1He+jw/e3cA8YQUwvDtEamzwC4ZfeChamUjbrvC7nambQj++ROcAhvBRJ6Okqc2vNBz6jjVHxAJX3zGbcNBqzGB2HHNFIAe2OQw28CiqdcUVyzCHycTKTg8ki37lykFtYcxcLQGPSp9u20Yg2spOogcH1kl0iIDHTl/UIlJbbnsnV3UIaxeUGj58h1nsfCl+pEllRYZ0X5pQ1mH/zeZqqyyp/ubex9ybO9Y1aniO6JFpuP0738JCpj0oj8tweszipgua4IOsPBQ8/TxOPf0sIs+cQERzg6vCoDdX6/299vMrayuboFM5ZSJSPslIyE3XooVkQf9gJoSSt2OOZr67sAw76X/6+4M/QWVdsdF2vAWeMn4qYeYczFi2FIExkUwBVFExO4W0o9rvfvfBykE9cQZ7160nWVFcJ9tcs97Vfx9R3/K0qzhK9/RPiEM4k381/g1FJWgsLibLoJ5zQrLwprJOx+vawCMfz8IBmlrSeAQ8y5YvZT2eeVYL46CQweXxbNrUGXg+GHgL4yEAHk0T7RBa1KJHMS2OeUlW6Lecvyvn90p+FN+lXQvpe1L05x3WgrNSCpoDmEkeHoVgZgz7sQ1Mcx39LGWlqCf7V2FHH2onQRHRCImM4M7P91fXoL6iHM38uy9VFD2Tt4vP2jn9MOOKVbj1ge8idfFCQ5W3K0qo5Y1/XRNaTmej4OXXUUxSYPPxY/T51LhSInpuT9OXPGzZ6gzi6lTS6VjIusy106dgzMdvQOpHr0XwyDizK4izI9+heT46lAvf3YJ//OT/4ODWd3mvdgi9ryt2/Hsez3bZmk/j42ybE04uk2SsxoWK+Clgpvr3UnjcW7U306kdwt+Vsu/Ykz/9JU4c3kW6gXVfdh8x7+7C83cbv5wgliVgk+fMwsyrViKZeVUiTJaezsT+NzfgLFuHN9aU92su2HcyFBrP8itIIKTGU1835MCz3cVclsZj83g6Cvl8+Hhs84TKNaJ5OySFI8WAj8U6KeTvxbU96wIgAcJQ72CaTM1RsRjFQkkT585CUsoYBJMLVVdRiWw6Tw/s3GWy71OnTMYERggSmeDpT2CqLi5BLtMSTm3+AIUEg0Amy/aeXdN1kuvZmqQ5sVXwVXd9Ftd85YsIS2MOl9IotAiNGkaVvpYIlFPAHK4tyH7xFYAFvMLKixHBRS/Nqz8RL11b2lstz1BKR3dOYhL85s9G6g1XI+XyhQSdBJMWoeZ9Yjv78oYUQm84cRrv/uaPePXJx1FfVcIzWCQ0b8ZJ783neC+8ncDzuTsRwaheC9nxfjQFWoQ6/tQjQlnYjM5QHy6WVl67mWDfxN8FM6u7bPte/O3nv8ahAxbwaBOzXkOnJ0tW1UzoHDVvHq773F1IZTa5f1CQxWuj7ySb1Rrepj/uyPbNCGyy+tz3R/8adOBJV1kMVo4kd6eeGk8wn2HVapu53PPW7rGPZ9Om91FQmI84qn/btwl4PsDevQfo47kwgEf6ixZJCIeDHgMwPxupfCVz4mjySASVnIz5/O4Ul4QAqJS/kxO251p8nu9Ynd+pnZ5THa1x8Zj30eswj+1f4pkf4x8abFXVI+ehobwSWadOoYx1ZVLGMceJzF+/EJbNkk3AEqNNZRXI2bsfbz/+D2Tv2gkfwzTWk3in+9Tzekljp+Dmr9+LuWtuY0cIRjIEPpq6/K9FPbfqOfVZcqLhwGEUMHCQ/d77aDx9GmG1dYhgMTY159PCc+9M4e470/PbRd+l4dQwdaOCC7ycpTt8yHiOW7EcKWQnR06dAL84anUEHQGODzUdo00IEMoqsf9vT+KZh36HgqwTpvaPDTr9AZ7L1tyOWz9/F1OS/LB/w3vIZ+UD5WEEEYimr1iKIjLxD+/Yjdpa+ikJOJOXLMBsLvyy3Qfwt9/9AeW11Rg7ajRqWdQsi+Pg1+q9r8mTGWRtEByL+CQs+/c7cOWnbkOjxkigw99r2wyhbHb94194+bG/oKVMgHyBAA9NLaPxEHjqqMUHB4fR1BpEH4+cy3l5uSYHYztVvi1btmEP66JcCMCjJaTJK9BJ4EtaDl2p/N6fC6bdRLF2YPKQ+PUkh5pFN9rAx3svQs9Tqs1BGBqF8dddg+s/+++IJuj4cAGYTHJNJ9ekamHRsxYubD+SsbQI2xYYvzHmFXfpM9RE1jKBNvfEIS5+GyY9Bx+zT/sFIm32Aqz5r+8i7coVLDuhrnnWpql0uVZpPnTq+pNJ3lBYjOJd+5H17vuo4Dj7njmDCCZ7yvkcQqSyzD73OI+l3SjZpYpM5HLaTqWs49M0Ng3RC+dhNPttjZw6CSFJcfAJUUlTRq+M84rPS8Dx0Q1U1SDvpXV4/Oe/wpFDO0zPL13H2jM9f1Z7OVoazx345GfvRBPP/dJDf8Sht97kNf0RyV36xq99hRqXPw7t3EPgYUYa5TF1yULMpGZauOsA/s6+8mnUUK/mIsrffwhP/uzXpoDaUJRoMS43voJTMvDRr92LWTSzaqiBtde2bkXZGkJTAAAgAElEQVRMfRNOr3sbT/3mN6jKzfQEz7p9z2BqPCIQpqenWj4eAo/kKOBZTY0nPt4yb3s6PNJ4apkWsXnzJnJ5ziExMZG5WjuNxrNnz97zHk7XbqBdmKwBsNaaAZ0UTroRfKnkpjsr11L/pYmQi8T3n+ZP5/i1yACS5fcZjMNKBWA4e9wUrCaBbyoXHovRtukqnXdvaThS9w0O8KvRadRdQXjBVyi7c677/SN4/8Xn0Mzunayy4pXpoWcy1WODwjF58VLc+rX7kMxF5kd/kgre2A5n5dbIuetDAPKtqEFTXiFqjp9C0cFDKD1xEtVZOWihCdjICdbIaoRmYslPwkXiq+fjLu1PjTh0dDKiJoxHHMEmcmIG/BLj4BtCN60xrVzlLrSqTOlSOvpLKnCWPoyXf/8w9m3bzHuVgWYdkkJ/gecyAs9tNFvqq6rx9K9+hz1vr+W5/BCbkoI13/gaEjiXc2ja1fNZWkk3GDGNiarjx6Fg5z48/thjmMhxu/G665BHzf7P3/8RGvLODgnw6Dml8QQnp+K6L92D+TdcT22x3aktL1M0fV/HX3kDT/3hv1HN5Nz+HoMNPBkZ6QZ4Zs+eg9qaWoSSJqEk0bj4uAECD59QBMJt2z7A6TOnMIJJgjtMdro0nr0DJxAOIJyuSSkdQj6dZN6nTKtU/i6ewGIVn+o6Ze0dVOBTwr+f5OdP8VXI94tO7o1K39PgC8BquOtPXn4lrvvGfYhjuYhmt3KkbZ+zL9Yt3ll/1DPGU53Y+9zLeOl/WRaCxdP7Azw26Pqz+8PEJctwNU2Q8UzuC4gnXLvuzQIgAp/Ah9dsVZlROp8buXDrWBWyhoz1RmpD1VT7q6urXODDyCFLrgYz0zkwJgqhifHmFRLLkqwRofClJqFwtqm6acqyWtEl8598LqXlyFy7HuseeRS7tr9P2n11WySvvTy5dxuC7eORqfXJL3yO/JJGrH38SRxlJFZ5azHJI3DDmk+ihuVT923dxjnMbYdEuikr6KugA75YptZjf8OEpYsM8BSwceWfmcQ8lMCjdtGtJPZddv2NuObzd8JXDnHX5hOoBzqXh/f/+ne89dI/0VxT1V/cMXSGwSIQBtAXOY7EwWWMHM6aPQvV1Cyj6c+8kkmi0azf1KygSQ9D16fGY9CYyXm7d+/C0WNHMHLkCFMWYyuBZ/fuPajiBBxQrtYAgSeEWgtjI8a0Gq/djHcj86p3CJFfxzINFP04wf3mBMFH6nlnPk1/RljAU0vTZt71N+Aj930JYSMTzfU6K1RtqnSXwZHPw7qyXB/xLb44s/5d/Ot3/43c4wddBbj6urPOHhjLZDFqPTtGTJg5H9d//rOYeu3VRiNR0XhzSQuZXVqQQMj62YclaeWMlTPamIf82a6BbWqJ05/jQ9PFlzZUswp4acfWV/3NvOyWxNJ0+GLhN1CjOvr6Wrz6l8dwgo7chkbNJcun0b5leB86toFnwZo7cCs1nlA683PU9fYsPXuusqDJbMFTy8hhEfMO6/gszdTYYul/Gj1+LDWe/fg7NR4Bzw0Cnr0H8ecHhhZ4pOc20gyMHZWOFbfeQh/UcoSwVKnE2FpZjQMb3sWGZ55BNlsTyffV32MwgUe11MePz8Dly5Zg1iwBTy2SkkZi2eXLmKsVZjaxno5OwOO+Ato/1Eye/f79e3Hw4AHmYSRjO02tD7hT7Nq1GxVsUXu+gEcPxXiFcSTP5F2M5ZSVit63IWLdsYZPjXxlbu2moSWfj3w9A/X3iI9RxxTrWUxZuPprX0bE6JEsxKTV5zYMWsyuH02d3A6HDTzG6EIizZHjr69nztLvkX/6aAdGbc8TsPux1PutUqW+GD1hGq696zOYz9os/qMZA+QO1l6T1+VfMdPAMgVbVObABsQON21pMUaRMbVK+bPd3MAiz7Q35dOi4c7YcOw09rz8Gl7922PIzjpl7qij5K1NwDtdx5KGBTy+DKffgU8wquVPQDy8cRMKDzMXUPcni7KJEnB1YWjkPbawQH36knmYxMhi4U76eFzAc+N11yJ/76FhAR5D+uR8DIkfielsGZM+eSKLSDIpm9Ug9r77Hkpp6knDH0hn58Hk8QRyA1N2+uWXW8BTRc1YeVpL2R9NVSwGDDxyfgp49u3bizFjxmDHTgt4du7cjXJyTbqbHmFhYbidqq66TAQRGbs9BoHHk8iByOAdzNBCMpDTETaspdv1sGoFi2QnZ7M/9nDiH6ReIlu7veBqz8u6t7+YGja8aOqMBTS1voJRzGdpYFlQ7bad8MX6sRvgMb4TvliaBnG1jdj86JMMMT+GqhItKU+OrhpP+6ek8al4KM2OxGQsYgfPRR+7ASPIHwkgcc10q7DsIRkAHW6wfROzf+++qwl93OFCgKSFrpVOabMoe0tugSmDsuX5F7H17fWoKC8wpqN1t+47eX8gxx14yOO54w7c8rnP0q/khx1vvY3sQ0dMAqrlNxJCWdeQY7eFJuFkhvlnL5iLol0HLR8Py0bccO211HiGFnhsM1jlY5vCIhBMH1kcTZgkbgb+lF9ZTi4KSb2ozToHX/K6VHbWbdvyZDK0vWcwNZ4ghvunTJmEJUsWYebMmShnlHYMa3QvMcATPFjAs48azg5moY7l113Y9sEOY3KVlZf1CjwPqb0N1dhunSeDADzJnKzjeQfTuRxHaC65LmQPpnZ2G4rE+pQj2vb96D2qPFzE1x7+bS+XongvAw2v67wCsJDYkVjC0OjlZOm2xNLmlSPXFcbudba4HM0B1DAi6GepPnwSL/7299i3fRNNHDGDBu+QbAKDIzB60hTMYqeKGaxaOGrqFKqSJCWI72LWppu25rr/rrBgaUNtvzcOIzMgpmZyK7lKuUyxOcRQ/c4NBIHTx+g7rBm8B3E7k21qLSTw3Ezg8ac2c4ybZAmLxfu5/Cbtd0pdizfdRK0oZeYUjJs4gRrPfgIPfTwEohuvHRxTq2f9U8CnmtX0S45IxkRyYqbTZ5LAiGCIqAjSBRnuL6YT/DCjjIfeeRd1rB5Jo9blTujZnOlOuIMJPOI8TZs2hRrOYn6dhmL6AVNZ5P9yAk/wYACPbPmDhw7igw+20JmUwVrL+8jl2cGft6O4pPiCAx57KGoYfK4gqKgXgTShaP4fQVixKuNZEDX4wGNdXfDW7BOIxLHjsequf8f4q1Yw6sOyW+4h8x6WnQqci2UbJoLbmWy8+dgT2PoqKwHUKaI1+IcBZjpdQ0OikDx2HGZQdZ5ObsZIamp+ySOtZn4duoj2cA9t6hDPJw2HlQdas3OQTV/gwY3vY/+mLTiXeRK19ZXyXLtO0n/NpidJtAEPTa1b6MdqIeBveOkVnNi9FwGmJbIUOgslzSYhMOUzzlu9CosvvxzFbDogjWcCNR4LeOhcHqCPx9If27HYvnddX86K1jhuUrfehEUsIRtDmfuS6e6aSJYZS0d8RXauMU/fe+zvaCKDWbwqb6U3mKaWzCllp0vjmTJliimXk8F620uWLGXqBD2tnvt4ep7Up06exDsbN2As624cOniYUS4BzzaSCgtc2NsReY2pdTtNrd/8FkGmC2U35x4ijUfDIWW0kG7mc/zKrlzGiBrD34/m0mUpcTNoQwM8FuxomukeWgQ+Eydj1WfuwCSGHVvZXK2Rs0URi+4OMXj9qOmEsx5NPcPXW59+DhtffBFVlZJz92bjYEGRJKLs8eCgSNZtTkU6d7EJnFjpbJ0TSxKgL0Okvizw5BtIzpFJI3etDY2jnM4kkLUwUtRE7ab01Bmc2r8fx9n7KvPwEZTm5qCuQcXh5aOwl6C3y8azJ7WBZxHD6TK1ghmxkp+kluxso/G4KAvGtCMANRKYlNISRcfySD53AfuBDQXwuIONPUtMOVJyn6Zd/1F8lNGsRDprm11apvrIGVNVGyUfyp/abz3LBL/xx0ewc+1aBLaI/jqUGs963HP33TjTQ0M/rfG5ZFgvXLgAk1gzu5g5ZVOmTMe8efOpLNssrO7HzKOolj6axQ4D6ze8SVUqFSdYb3f7dovLk8MJ1ZOP57bbboNMrVDV/BhG4DF9vzm9TxNeDhBwCowV34o0/j+Rvx/DV8iQAk/bZmW8Fk3UsUZNnILLGcKdwJCtCnM1yOzqNCYCHbYLRxBNk4YTmdj+wsvY+sZrKC2SjL1ls3i2SDu/yzJR9T8d9azdHBYZhbjEBCQk0e8wYiSiyH2JYLQlWJwdVg9UoSclBzbU1KCmhI0YWaupkJGiokJmvhcWoqqijJikBWKVQx0aqOn4FO0aj5jL9PGQ2rCLzSFz9h9GgPHx2KXBpPW0cCOQxhOC8csWYRqLlhfvdkW12jQeK6pVP0Aejw239t1qbihx2YcVAT/6ra9jzqoryaAmR9xlsxqFwQjMYnb78RXM0P9p0gKe/ukv2LPsLP/sXYTLU1OrkZHsdevW4Z577kHWuaxuRs4HUcw7nDd/Di67bD4toXEoYb3tWTPn8jWrzx3SY+BRIbC1615HCp3L586dMwXfN1F1Pns2ywim8yE17OM3fRy///3vEaUOhsMIPLKZZUId4dc9hKAis49b5MIp/C6Dr/BhAB5bJgLCZk7+EZOmYfmtn2BnxyvoQ4kyvgVb87FBJ4y5Q1WnMrH1Xy9i29o32F+MzuQBhE89gx8bDjoOklVn2Tp86PiU+u9DFVq5ZP70/ygqZPKcaIq30CxsFamQr2byZqQ72UFx6+zDATnWveopCni9xZ+6HR9nHymZige4UeYcPwl/1d4wC9sK71vPyG/4XOmzpmPS1MkoIo/nqb8+iikkWd5kCIQH8b8EntoCzXXvFnpv8rcKorVgzLzF+Pj3voWRjGI1aaxdXIrOW40vo5vBjMY15eXjqQd+gpNbN/H03tFePQUecfdeeeVVfPnLX0JevkgnncaPwoulH3DRogXUcOay+FcKgacM8+ddxvrL012OjJ6f3mPgKWL74nUEnliWxSglsplOEwSeEzTBLFOu46RVjP/qj1yNhx9+GCPI/Rkq4BnZ5lz2o3NZ98AeXXLWEXgO8+tu/lTM90jxY3okJvN3E/iKcAGP3qcuXrvdnMveW859L29N1waCz0iymZff8W+YwrwllakwDmf+TY7kYHJbao+fwean/4X3XnmJnTIVMRzqJWtPKEsP6HrYPisLPNpH2f6ufUK6n6lviQzdO3RnxXzNv+kW3HzPfyCcdIYGLlhTP14pGi54aoNbI2Tyj/iGEKYBlKkW0F/+ijHMDv/Y1dciWz6en/8cDRVKtvHOtOntKbUhiQo4k7SLG7/5NabVjGYKn8Ib7rLtKN8g8akqqvDCT36BXa+/Su1IbDTPD0+AR1dXKtQ/n3kWX/vqV1HKAoCdgUcmoLIYlhCcZ8+ZjZEjRphw+uJFS6n9jO+1CJiZSb1VILR9Q3p0hc3XcgcOYu0U0eUtjWczjjKDWnywzgOixLylS5fiT4/8CeNIQx8q4EloC6f7MxvdilgZAh/9/of4VcBT4gIe8X0EPDK3bOBRCc5CV1TrAD+pYR8K4JGENNFUDCsxYwJW37EGU1etgA99Pq004MOYpFlzMhMbn3kO7z7/POqbKoaxv1j3Gk/7dG7T+T2f4WZG9JeJ49Vlun2zFvToiTNxMzWejNkzqa3Rq6eJakcV+cgd9nBxefgZ0x2VybnraeZmHj2KsSOTUUitftcH1C5alRU+eMBjm1qT5i3BLV/9CjelDEY927VM+8EsBcha+v70/VUXFOCfv34IBzZvZIaLd2VDPHUui5/31//7V3z729+mb65r2Vk/8otGjqRDfMliZqbPQjQrDqoQ2PLlKzB69Gg0k2Ta2+GxxlPDbhIbyLtQNUKF0RRS3/T+ZtNN1FCju7mKQmz/88f/YVx/yZABTzSni/g70zhl5LtRuNzKx/KnqdWKfbSiSw3wKFO9ldoOyzXyRV6lWRZV/F6K5EHCwnG+jEN44PO+xzPo3M30PY3MmIRlLEk6nX6E4Igw1MmR/OyL2PyGZV7ZZsoQ3solfWqBfKsv/TbTZiBj5jREsB+c2SCNecVXD859LXJ/vrGc5sxJEmQLs7OoLdVygbtrIoMnOvnTgsPjcdlVVyGDDlp/5bx1RERjGhr2Ef/QyoYL2bQyNq9bi6pStvnu06jpeK+eaDySkYJGv/3NQ/jlr35hSpp2PvzJS0ulebVs2eWYMWO6KQDmSzN2xYormUhOdh25f4MAPNypafNtYob66dOnSItONGVPVXN5J+vJ1JEY1lkVk0BGs6TAT1kz91P/9imXd77TrQxCVEsdEqJ49VQu5tF8ifmg2SW2SyaX+EkCT6Wrd1Qs7ymF79F7mUVkAEaV6nL5vkx+QrlblrE2tIcBNt8gjEgdh7mLFiKWnRbOHDpMP8Q2qrX0TtDOHz6PyNA+6/k6u6EzSMwsPh7IRSENXCnD7Yu6ewm7ouz0OTMOyp2+samuTQceinlhzTcWIAuJ5Isl61wEx65yE/AIg5qZBV7Nl4q8eL9FegQ8tN3OnD6DBx74Lzz51BMmPcb90D0HEyDH05JZQg7PzBkzTUJoREQkli9j6ZOoyF4TRHUujzUe5efs2bsHW7duRnp6Go4dO87vPzCRrcoqCaHjQGoJR4ZH4l52tPz2t79lisR3OQYBeKTJqBWvwCeG2gunmLkXmVvFBByZWfUuE4wkbnJ5/Jjbxd5CfGliSiUv5XcV5n19mRyDt4ysXZf36x9Gh2cATatqdnTxPjw6eHd06Z2ppx5aluLTm/fM5mtbUDPUs8LyrllaTWemuD0qXWOg/duaPDG1VB5/J53x//mf/4mN723swsfRPYazfc1UOuIXL16E6dOn079TZdIlPOHweAU8il5I23nttVcwlk63HBLDRCCU1tOd11s3F8goyLWknP/6179BGnkgXTzjgwA89vSxCmLbNYqtvUDWr13jWA8r0qDeY+VzWQNnp0hYdZj1u+HQeazppCtZbCKXKt1VQpceGpyHJ7JG2lrU7SDiycIdHuCx50Jfd2TDUrsI+/pEV2F7ovHUs4Hnc88+hx888AOcPHWy66zkZWOiY4xvZ978uZhGnldRUTEmT55qai/b0c7ehtpjjUfAU1xchOeee5amVpJp5GfX5TlJm7Onoj+TJ03Gr379a9boWGl6LXc4BgF4Oj9c/3cn90EcCqW663QZ2quchxV+wV2yo17TuYBqz/Lv/yzqrwhs97299XU9j/uG2Ju21vsd9Ak8PHVZWRl+/rOf4+FHHjYR7C4RLZqDyXQsL1jAio1Mqh2bns5GEMXk8yxk0uikbqPcXdZpX3212j/QytKGdWzi96LpqxzEzFTV49lGrWf/gQPM/xMVyv2wEjZj6e2+/xv3454vfhFRdPC1+fSMHPlfv8ti2APhzSC4hyn7O0UG9jl7Sg+vbjWwe744P23NC3t2WKaKFTHqG/CHbxPquGLcV5v1vQVI7aBj6Wz9J2L2CTz07xxk95hvfetbeHP9myZS5X7oTgJIORjLnM1Fiy4j8DCiRZ6eavEsZyvqZPp1e6s8aJ/LY41HH9AJVQL1xIljprThYVLhlSgqzaeCxcs736DEJnPrmmuuxU9+8hNMZiarUtvaDgEP83kOPfciHmcn0UJ2EpWHRodt0/Y+Sex9wpul0Z/PeHP+3t/bWTnuexEM3rU/XGey51H7U9umSt8yH36Nx5rzXYGnHX7aluyAhrFXH48LpR8lefLBHz+IU6wH3p3vVvWNpk+fRo1nPsmD80xvvVA6xpctW45IMt17y9HqF/AIeM9knjJh9QQCj0Ju0ngEPufOsSxmdzVWqeJIFfvhD3+Im2++xaTLt205Ah4i5aHnXsLfvvcjFLmAxy7HNXzelgGNpfNhRwIXjQQs4InF3b9VX62bEeDeO506QUFeAe6//348/8Lzxp3ifog0qO6g8XFxxrczd+4czJk9G5mZZ2liTTb+HSkanvQE8UrjESar5OWrr75k6uzqUMcJ1eU5cvgow+osmt3NofSJWz9xK777ve+ZEFwH4Kmpw+FXXsPj3/4BCs6qyNX52W0umpnj3KgjAS8l4K7ji7fmG5uILz30K8xjfzN/5qjZh/KznnvuOTzwgwdw/OTxHm1S1VleuJBmFsudpjB38zQTgq+4YgXNr3E9ljrtfMteAo/18XfeeZsazlmWbInGIfJPxOXZwyxk1ePoVs0iloxNH4vvf//7+OStnzR1Rizw4X/1rPz3zkY8/o1vI/PIblP4yntfvZcj4bzdkcCHTAK2eVlBV0dY2nh87b9/Y9J27PIb0lJOsqC/1uhLL7/UbWtyvSc4KJilMGaaxNAZM2YY8nAzmwOsJgEyRjWc2iLDvQvYa+BR6chjx46Sv7PZOJXKKyqwhdmyu3fvNsjXyJyY7i6uENtVvLkfP/hj9lme4wptEmJITipgF4N/fPO72LX+NcMaba85c379MR+yuek87iUuATnWCwkME6+8Cvf+4qcYRUa3VaOWrtbKSjz66KP46f/5KXLyuq84IfGIPHzZZQsYSp9jrJcTJ06ZZn7y9aj4u6eH18CjqFQ5qw5u3LiRN1tuUG4bzS1FuMRmLitTk+DuD3UXvefue/DFL32J2aysjqOTEWjUF/qt3/0PnmcTtXrWnVFbGutwgMfTgXTe50igqwTa15F4aqaVNHu93fKd+/ExlgtRNxAdDcy91Hp+8MEHsZkKRbOK+ndzqLjXZKZ1zKd/R6VOlTqVm5uPG2/4GEayFnsPWSjdnstr4NFZWphBu3//PsNkTlJvItaEVeH3nazFfJpU66Y2rafjNaWqjU3PwDe/eT9UqyeaTd9MZhQfNJtdK578yc9w4O23WPCo3mg9jsnlLCZHAgORQDvfWTnsjUFhyLhiOe588AGkM7/Kh7W15Sw+wlrUv/r1r/Dss88azae7QxZLEttQz2GTwznMRheJuIQ91kawXKv8OwIlb45+AY+QrZDtjIWSokqrVMZeFoLfw9KSanlTXl7u8vV0hQ61P1m0cBG+851v46rVV5kOANJ6WuhB3//K63iGWben9+xCQHOj6Vfdn77d3gjAea8jgUtVAlYlTjYe4KuJoDOadXM+9fX72P1kFfzkZ+WRzTpbj/zvI3iYPdsKWfqmO5KTLBOF0CdOmkhNZwbmstuqeHzl5RXsGnoVRjFVwlstod/Ao9IYcih/wEZ/qUyHKCjIx372LlIaRWbmGZM4qsNk1aoUgavGhownPcRVV30EP/rRDzFdyKvMPWEU0Xb7i6/iBZZ2zNy9AwFMTA1oq817qU4P57kcCQy+BLTOVP5OHW3rAkKRxvKkN7Kr7ULWlQ6iy0PrTb3jn3jiCfzyl7/EuexzPdISrRIYSSaKpbwsu8xpUtII0zVUWeneHv0CHgMovPH8fGk977JURg19PVGGULiPze337N1LICpw8Xq6aj0SSjRZzCoU9o37v2EexrTAUTU71kI5w89vYTeCve9vQRHbJtfUsywBs4WlFjqHIwFHAj1LwKZNKhs/kO2EE1gbZxoTOZdc8xFkMBoVoEZ79Cfns0Tts8/8E3/44x/YqPNot5qO8bDyhCpxqjY200gavIxpEqprVMf62osWLWZx93EeMZU73/GAgKeRJS6PHj1C5/I2xLGOsNjLBw8dwl46mo8cOcJmf8z97okmyieKZNvbVStX4rMsyH05q/vL+az3q3xmNUPz+ZmZfGWZ3BGlZHhCxXYmpSOBD7MEDPAw8qxme5HsYz8iNYWvVIRzffrJrcF1p9LFzzz9DB579DEcOnyo16Jd8t2MTU/DTBb9n0EzK2VMCvJYq0icnQXzF5g2Nv05+g08lhkl66iKnvBN9G5nm77qJ0mzPnjgIPbu3UfK9RnTd92ddt05W0qF4BWeu/POO5lacQ2bvVuedvl91FbHapfLckmmelx/HtH5jCOBD6EECDDyp5qXTCGuHSkKx48fx98f/7txJJ8+c7pX0FFd7REsaSrezlT2WpvCVxE7iISFRpimfSNZ/N9oCv1YlwMEHiv75ezZs3jvvXfYTSLEeLdFKjzAxNG9NLsU8XIvg9gZePR5qYWTJk7EmjVrcNPNN2NsWjoC6HE3gOVE1D+Eq8Z55MGUgFwUpSVl5N5twVNPPonX33gdpWVds87d+XeKYsXHxxJwptIPOw2TJ7E6IpND8/MLWYNnKUthTOO6Vb3P/iU2DQh4LK2HziumShw4sI9As8cgZDXLox4+fJj9tw7hADNdVaujqY8arHoAaUyKdN14w41YyBT7hKQE00Kl/7m4gzl8zrkcCVxcEmgm4NSxHc5xtqN6gyV1X3zxBUae93RbQ9n9yRQMio6OZP7VRJpX0zFxwgSWM01gK6s8k4GwYMFCU22wPUuh77TbQfPxuJ9IN6CwuqoTnmX/LYFPaVkJDpMfIAA6zDyuEvZckubTcwFw6+Zlek0YPwFXsnarmM7TGPWKi4snK5JN5NQFUmqd9895cc0Y524dCfRTAkb/oIuiprYGmWcy2ZBhE1597TUmclvNNzuXMe0CCFxg4XRAj2NjwenTpmISNZ2UlFQUkeSrqoNLqO0kkLs30GPAGk/bDfCJS0tL8Nb6t1BVXWnCb7k0s+RsPn7shCmVWkzCUU+F4d0fxJcPH8KsWTUPXEqnsxzQomiPYhP7QJpyxqR0t9kcIBroPHA+f7FJoPMGrOwjph9VsBuMCvO99957eOvNt7CblBe1prJIvb0fhq9Dd4nalCuKJd7OxAkTua7LTS2upUuXsZJomit8PrBFN3jA43qmvNxcU6e1gYWyk2g6nTl9mg4tC3iOHj1OzYfg04fZZYvHlxqOfD3q3zOJlQxV/2Pu3Lmma2F8fALC2Z3Bj44z2aM+KpLtDWe7r1Fw/u5I4EKUgKK+NKFkZSjKW8+wtgi7WWzBc/DQQdbG2mGStmV5VDLKrKJ9nhzKwVRUOYOMZKVFqCXVuIwMEzaXtbJw4WJMoMmlaNlgmFD3DakAAAiASURBVByDDjyKPp08dYIC2E6UbTCtLsSOPEHwOcHsV4GQmrsr2uWJyWRMMwJKAH09ymqPj0tgUelksiWTTaNAVThUp1IJTf4gV91FB4Q8mW3Oey4eCSjOYsBGHJpaVvyrRhlzJgvIx8nOzjYh8nxy56TxyOeqdehJXEbvUfQqjtkHY8emIYPazng25EthGN4CtQoSB+fSyTyNmekEnX5EsLoT8qADjxzBAhX1V9+zexcaWDhajqmSkmITaj/JbNaTJ08x2pVDk6zaCLMv53GHSBhBSA3hlWqhbFgBkrqW6qtdI+jimU3OnToS8FwCWiumZTQtBvW6auDGrhC5ypPKlPKG52aTA5X6kJiYQE0nHelj05lxPh6jRo1CVWU1uXMNjGZNJnFwOl0f7XV7PL/jnt856MBjXYqZsI0NJnViG1MqGghESqdXRTOBjhJJVVZRYXhlszep77b5lHeHBUjttmZfAObd2Z13OxK4sCTQXWU/T+e8HdSxzyEXRWRkBEEmme2q0k0XGJlZCgyZKDTX5LSp0zGNfdC1sXtSVdAbaQ0R8FhhdnUTlJm17QOr91Yi0/BVr+dcVhZLqGYar3smmclFrFAv7aeZ9mh3fdi9eSDnvY4EHAl0LwG5LPRSOYv4+DhTmkaAo69qOxzJ1IhCEgTVX17BHHWMkEY0FKlKQwY89qPL1ixgJrs4PtnMu1KahB5cDqusc1nsz5VLGzWHX7MN0irvS5wfTwpGOxPMkYAjgb4loJiL2Muqd65OL+p5PmbMKAM2Y8aMdrUcJsmQqUlRLNY+a9ZsjBnNnrsM7AzVOhxy4DHGENUY1flQ5cIjRw4buzSOrEg/RqOkEWWzUHx+fh79PnlMvcg1dT6qSXxSQSJ3Fc9ErWhZ2Q5nC4ntFiZd2531NiQdztvByBtYmLDvaTCY7/DWOG3bDgZwExfLNQcyjhfqM0pjsYbOHRDcuXF2ZNfynRJw/KThhCAmNtqYUSLpJjLgY4HOGKMEiOaiYmAZjGKJqRwby167/cg492ZSDQvw2IKSUyw/P5faz16TJ6Ks12TamLXUcs6cOUMQyiG1u9Soe3n01pdQAxJgyVlt8X/cyQsdJ0dXYmJvE6+viTWQSeuN+Af63r6eo3fo7d/V+3vNgch0uK/Z3+uZmd4/sfbi4bRaG/d+bvvvunMTBWbgJSwslCASQ7AZaRzIqpuVkBBvnMjR7ASqDT4vL48E3QRGrmaTN5dmtCIRdYf6GDbg0YNIgCpvoZDfKbZGVQZ7ZWWFKRov+1KcAbVDLiwsRBk7GMoc00vdDJX5rg4XylKX40thRZvP0Ib+8vq7Sazn6TOQiTXUQ+Kc35FARwm094A3qGL+aPtr9NXXh1FehsRVWiYkNJjpDBFmTcUQaGL5NZbtaNQHT9VCzTpjuL24qITgFGga84mfExMTZyLDg+1E7mkshxV42m+iFQ0M1ZWQ6ZxJJ7N8PTUEFZGTgkOCqEaS8k1nsxiTFSwmr8iX6jxX0UFdXV1jomNiUircJxVRL2lT9qvFRa5qc1SbMKSlnrbvHC4TjeaeBYounoRT88dZ9+dFAq74lBzALmARyJjvSe6TW0IFuWQC+TFZU908FW1SUnYwQ90qrhcWFkbQCTfgold0dLR56XslYmvTrqmtRYBfAC2NUXQsp5t25CE0t7wqmDwI8jlPwNO21I2/R2xmMS31ErgIvWV7BiiMRxNL1QwFRAKdGiagygEtAdbxJWHqJfARl0EvRc6aGqUVsayG/RLbU6QqFxdCd6DraFcIZXqGNpIa+pWkXemenMORwHBLQOxhOx9RACNemgU44q1JqwkwHDYbcLRRyzQSsVadPGVahYbqa5ipk+Pn6282Y23SDeT6iIsjsyuNJpW4dVpjPmbj7a952H8JnUfgab9ppTwYBzS1m0yCjzg+ioQpoU1Jo0paM8WkiQ5yOAtcxA2qp8rYQJAwoENClcLxoojrPeYlspWLWGUSVF2akAQtMy2M5548ZYppQK9zFzMR7gBrCVWQrXlxHP2tyGj20X48Yv9KIFgXGu5r2s/n7XMO9BntZ/VGvBY734o+Kf3HAhuBjqXh8MWfZQrpe3+WoxD4+NOPExRErYcApJ/1HotD12Q2Z23Uyt9SJxhxdfSSn0fv04Y8VBErT578ggAe+0aVmyVjSJRwgYAiXYpyydwSYtupEwGB/maApLHoq+1ztkwpS6sRaIlHJF+QTDdb05EZps4WErwQX5m3soP1W9HQxS/SgF0chwM8PY/TcAOdl+DagTEr4LF8oCbnkP+k7ShZWhqQinmZr64eWOaZXUqKfKbyeTaJwaxNtrnVAFM4Ta5EdoVQ6FzajTQhnc9eI+d7fl9QwGMLw96jBBLGLiV6q+yGkuEEQvq+lmZWMztR6O+2JiOAMSqqS320/Tr6WfaxGVq3uhpB7Ioo5mYkuQ26pnxH585lG9X04jgGoiJ7qwm4zfZ+C2e4rznc1/NO29F8tQ97Y7T9km0aiXEe+5qNUlq7cSZLs+EbTcoQHcTq7hlOh7KcyooUh4dHIMxlJah4l01B6fewDcEHL0jg6fqc1gRSCVSZUrYvR2ZULbUj/Syzq7aWyXEuc0p+GgGI/mY4DS7A0cBa4Ulr4LQbqM6IkEfvV5H6BoHZEAjbOaUjgS4ScE20tmiS5qfL7DIF22VG0ZzS5ikfkH6WT1Iml/H18Gf5fuRwti0A45LuD+YO4/BcJMDjLhHb++/6nYtQ2OY07uHn9q2lo3Sl0raV0+Bnz7ftO4xj71zqQpWACzTcQ+Z2TpZMMR3G7LIVLDPnB0MjHT6BXITA051wukmVu8ARf/iG2LnSRS8BN/W7L4Bx72F3IT/3JQI8F7KInXtzJOBIoLMEHOBx5oQjAUcCwy4BB3iGXeTOBR0JOBL4f5PgB3Q0UnXYAAAAAElFTkSuQmCC;" vertex="1" parent="1">
          <mxGeometry x="180" y="202.28" width="100" height="195.45" as="geometry" />
        </mxCell>
      </root>
    </mxGraphModel>
  </diagram>
</mxfile>
